<svg xmlns="http://www.w3.org/2000/svg" xmlns:xlink="http://www.w3.org/1999/xlink" width="500" zoomAndPan="magnify" viewBox="0 0 375 374.999991" height="500" preserveAspectRatio="xMidYMid meet" version="1.0"><path fill="#000000" d="M 188.5 85.578125 C 177.6875 85.578125 168.925781 76.816406 168.925781 66.007812 L 168.925781 19.613281 C 168.925781 8.804688 177.6875 0.0429688 188.5 0.0429688 C 199.308594 0.0429688 208.070312 8.804688 208.070312 19.613281 L 208.070312 66.007812 C 208.070312 76.808594 199.308594 85.578125 188.5 85.578125 Z M 188.5 85.578125 " fill-opacity="1" fill-rule="nonzero"/><path fill="#000000" d="M 239.351562 99.765625 C 229.996094 94.355469 226.792969 82.390625 232.199219 73.027344 L 255.40625 32.859375 C 260.816406 23.503906 272.78125 20.296875 282.144531 25.707031 C 291.503906 31.117188 294.707031 43.082031 289.296875 52.445312 L 266.09375 92.613281 C 260.683594 101.972656 248.71875 105.167969 239.351562 99.765625 Z M 239.351562 99.765625 " fill-opacity="0.08" fill-rule="nonzero"/><path fill="#000000" d="M 276.289062 137.488281 C 270.890625 128.125 274.109375 116.160156 283.46875 110.757812 L 323.660156 87.585938 C 333.023438 82.183594 344.988281 85.40625 350.390625 94.761719 C 355.792969 104.125 352.570312 116.09375 343.214844 121.492188 L 303.023438 144.664062 C 293.65625 150.066406 281.691406 146.855469 276.289062 137.488281 Z M 276.289062 137.488281 " fill-opacity="0.16" fill-rule="nonzero"/><path fill="#000000" d="M 289.40625 188.640625 C 289.414062 177.828125 298.183594 169.074219 308.992188 169.085938 L 355.386719 169.125 C 366.195312 169.132812 374.949219 177.902344 374.941406 188.714844 C 374.933594 199.523438 366.164062 208.277344 355.355469 208.269531 L 308.960938 208.226562 C 298.148438 208.21875 289.398438 199.449219 289.40625 188.640625 Z M 289.40625 188.640625 " fill-opacity="0.24" fill-rule="nonzero"/><path fill="#000000" d="M 275.167969 239.484375 C 280.585938 230.128906 292.558594 226.941406 301.90625 232.359375 L 342.050781 255.605469 C 351.40625 261.023438 354.59375 272.996094 349.175781 282.34375 C 343.757812 291.699219 331.785156 294.886719 322.4375 289.472656 L 282.292969 266.222656 C 272.945312 260.808594 269.75 248.839844 275.167969 239.484375 Z M 275.167969 239.484375 " fill-opacity="0.32" fill-rule="nonzero"/><path fill="#000000" d="M 237.402344 276.390625 C 246.777344 270.996094 258.734375 274.226562 264.125 283.597656 L 287.257812 323.808594 C 292.648438 333.179688 289.421875 345.140625 280.046875 350.53125 C 270.675781 355.921875 258.71875 352.695312 253.324219 343.320312 L 230.203125 303.113281 C 224.808594 293.742188 228.039062 281.773438 237.402344 276.390625 Z M 237.402344 276.390625 " fill-opacity="0.4" fill-rule="nonzero"/><path fill="#000000" d="M 186.246094 289.445312 C 197.054688 289.460938 205.800781 298.25 205.773438 309.050781 L 205.683594 355.445312 C 205.667969 366.253906 196.882812 375 186.078125 374.976562 C 175.269531 374.957031 166.523438 366.171875 166.550781 355.371094 L 166.640625 308.976562 C 166.65625 298.175781 175.433594 289.429688 186.246094 289.445312 Z M 186.246094 289.445312 " fill-opacity="0.48" fill-rule="nonzero"/><path fill="#000000" d="M 135.417969 275.167969 C 144.765625 280.59375 147.945312 292.566406 142.519531 301.914062 L 119.238281 342.042969 C 113.8125 351.390625 101.839844 354.570312 92.492188 349.144531 C 83.140625 343.71875 79.964844 331.742188 85.390625 322.394531 L 108.667969 282.269531 C 114.085938 272.921875 126.066406 269.742188 135.417969 275.167969 Z M 135.417969 275.167969 " fill-opacity="0.56" fill-rule="nonzero"/><path fill="#000000" d="M 98.542969 237.371094 C 103.929688 246.742188 100.691406 258.710938 91.308594 264.085938 L 51.085938 287.175781 C 41.710938 292.558594 29.746094 289.320312 24.371094 279.941406 C 18.984375 270.566406 22.222656 258.601562 31.605469 253.226562 L 71.835938 230.128906 C 81.203125 224.753906 93.167969 227.988281 98.542969 237.371094 Z M 98.542969 237.371094 " fill-opacity="0.64" fill-rule="nonzero"/><path fill="#000000" d="M 85.527344 186.195312 C 85.496094 197.003906 76.710938 205.742188 65.898438 205.710938 L 19.503906 205.578125 C 8.703125 205.550781 -0.03125 196.765625 0 185.957031 C 0.03125 175.144531 8.820312 166.410156 19.628906 166.441406 L 66.023438 166.574219 C 76.824219 166.597656 85.5625 175.386719 85.527344 186.195312 Z M 85.527344 186.195312 " fill-opacity="0.72" fill-rule="nonzero"/><path fill="#000000" d="M 99.863281 135.375 C 94.429688 144.714844 82.449219 147.886719 73.109375 142.453125 L 33.007812 119.132812 C 23.667969 113.699219 20.496094 101.714844 25.929688 92.375 C 31.363281 83.035156 43.347656 79.863281 52.6875 85.296875 L 92.789062 108.617188 C 102.128906 114.050781 105.300781 126.035156 99.863281 135.375 Z M 99.863281 135.375 " fill-opacity="0.8" fill-rule="nonzero"/><path fill="#000000" d="M 137.695312 98.542969 C 128.3125 103.917969 116.355469 100.667969 110.988281 91.285156 L 87.933594 51.027344 C 82.554688 41.644531 85.808594 29.6875 95.191406 24.320312 C 104.570312 18.945312 116.53125 22.199219 121.898438 31.578125 L 144.953125 71.835938 C 150.320312 81.210938 147.078125 93.175781 137.695312 98.542969 Z M 137.695312 98.542969 " fill-opacity="0.9" fill-rule="nonzero"/></svg>