<svg xmlns="http://www.w3.org/2000/svg" xmlns:xlink="http://www.w3.org/1999/xlink" width="500" zoomAndPan="magnify" viewBox="0 0 375 374.999991" height="500" preserveAspectRatio="xMidYMid meet" version="1.0"><defs><clipPath id="9285cb0cd9"><path d="M 150 27.613281 L 225 27.613281 L 225 103 L 150 103 Z M 150 27.613281 " clip-rule="nonzero"/></clipPath><clipPath id="1dcd946ca2"><path d="M 300 272 L 375 272 L 375 347.113281 L 300 347.113281 Z M 300 272 " clip-rule="nonzero"/></clipPath></defs><path fill="#000000" d="M 366.761719 178.398438 C 368.941406 178.398438 371.03125 179.265625 372.570312 180.804688 C 374.109375 182.347656 374.976562 184.429688 374.976562 186.609375 C 374.976562 188.789062 374.109375 190.878906 372.570312 192.417969 C 371.03125 193.953125 368.941406 194.820312 366.761719 194.820312 L 68.121094 194.820312 C 65.949219 194.820312 63.855469 193.953125 62.3125 192.417969 C 60.773438 190.878906 59.90625 188.789062 59.90625 186.609375 C 59.90625 184.429688 60.773438 182.347656 62.3125 180.804688 C 63.855469 179.265625 65.949219 178.398438 68.121094 178.398438 Z M 366.761719 178.398438 " fill-opacity="1" fill-rule="nonzero"/><path fill="#000000" d="M 366.761719 55.316406 C 368.941406 55.316406 371.03125 56.183594 372.570312 57.71875 C 374.109375 59.257812 374.976562 61.347656 374.976562 63.527344 C 374.976562 65.707031 374.109375 67.796875 372.570312 69.332031 C 371.03125 70.871094 368.941406 71.734375 366.761719 71.734375 L 218.191406 71.734375 C 216.011719 71.734375 213.917969 70.871094 212.382812 69.332031 C 210.84375 67.796875 209.976562 65.707031 209.976562 63.527344 C 209.976562 61.347656 210.84375 59.257812 212.382812 57.71875 C 213.917969 56.183594 216.011719 55.316406 218.191406 55.316406 Z M 366.761719 55.316406 " fill-opacity="1" fill-rule="nonzero"/><path fill="#000000" d="M 304.089844 301.484375 C 306.265625 301.484375 308.355469 302.347656 309.902344 303.886719 C 311.441406 305.429688 312.308594 307.515625 312.308594 309.691406 C 312.308594 311.871094 311.441406 313.960938 309.902344 315.5 C 308.355469 317.035156 306.265625 317.902344 304.089844 317.902344 L 8.367188 317.902344 C 6.191406 317.902344 4.101562 317.035156 2.554688 315.5 C 1.015625 313.960938 0.148438 311.871094 0.148438 309.691406 C 0.148438 307.515625 1.015625 305.429688 2.554688 303.886719 C 4.101562 302.347656 6.191406 301.484375 8.367188 301.484375 Z M 304.089844 301.484375 " fill-opacity="1" fill-rule="nonzero"/><g clip-path="url(#9285cb0cd9)"><path fill="#000000" d="M 150.191406 64.929688 C 150.191406 55.027344 154.125 45.523438 161.132812 38.523438 C 168.140625 31.515625 177.65625 27.582031 187.566406 27.582031 C 197.480469 27.582031 206.988281 31.515625 213.996094 38.523438 C 221 45.523438 224.945312 55.027344 224.945312 64.929688 C 224.945312 74.832031 221 84.335938 213.996094 91.335938 C 206.988281 98.34375 197.480469 102.277344 187.566406 102.277344 C 177.65625 102.277344 168.140625 98.34375 161.132812 91.335938 C 154.125 84.335938 150.191406 74.832031 150.191406 64.929688 Z M 166.621094 64.929688 C 166.621094 59.382812 168.828125 54.054688 172.753906 50.128906 C 176.683594 46.210938 182.011719 44.003906 187.566406 44.003906 C 193.117188 44.003906 198.449219 46.210938 202.378906 50.128906 C 206.300781 54.054688 208.511719 59.382812 208.511719 64.929688 C 208.511719 70.476562 206.300781 75.804688 202.378906 79.730469 C 198.449219 83.648438 193.117188 85.855469 187.566406 85.855469 C 182.011719 85.855469 176.683594 83.648438 172.753906 79.730469 C 168.828125 75.804688 166.621094 70.476562 166.621094 64.929688 Z M 166.621094 64.929688 " fill-opacity="1" fill-rule="evenodd"/></g><path fill="#000000" d="M 0.0234375 186.640625 C 0.0234375 176.742188 3.960938 167.234375 10.964844 160.234375 C 17.972656 153.234375 27.488281 149.292969 37.398438 149.292969 C 47.304688 149.292969 56.820312 153.234375 63.828125 160.234375 C 70.832031 167.234375 74.777344 176.742188 74.777344 186.640625 C 74.777344 196.542969 70.832031 206.050781 63.828125 213.050781 C 56.820312 220.050781 47.304688 223.984375 37.398438 223.984375 C 27.488281 223.984375 17.972656 220.050781 10.964844 213.050781 C 3.960938 206.050781 0.0234375 196.542969 0.0234375 186.640625 Z M 16.457031 186.640625 C 16.457031 181.09375 18.660156 175.765625 22.589844 171.839844 C 26.515625 167.921875 31.84375 165.710938 37.398438 165.710938 C 42.949219 165.710938 48.285156 167.921875 52.210938 171.839844 C 56.132812 175.765625 58.34375 181.09375 58.34375 186.640625 C 58.34375 192.191406 56.132812 197.511719 52.210938 201.4375 C 48.285156 205.363281 42.949219 207.566406 37.398438 207.566406 C 31.84375 207.566406 26.515625 205.363281 22.589844 201.4375 C 18.660156 197.511719 16.457031 192.191406 16.457031 186.640625 Z M 16.457031 186.640625 " fill-opacity="1" fill-rule="evenodd"/><g clip-path="url(#1dcd946ca2)"><path fill="#000000" d="M 300.222656 309.722656 C 300.222656 299.820312 304.167969 290.320312 311.171875 283.316406 C 318.179688 276.308594 327.695312 272.378906 337.601562 272.378906 C 347.511719 272.378906 357.027344 276.308594 364.035156 283.316406 C 371.039062 290.320312 374.976562 299.820312 374.976562 309.722656 C 374.976562 319.625 371.039062 329.128906 364.035156 336.128906 C 357.027344 343.136719 347.511719 347.070312 337.601562 347.070312 C 327.695312 347.070312 318.179688 343.136719 311.171875 336.128906 C 304.167969 329.128906 300.222656 319.625 300.222656 309.722656 Z M 316.65625 309.722656 C 316.65625 304.179688 318.867188 298.847656 322.789062 294.921875 C 326.714844 291.003906 332.050781 288.796875 337.601562 288.796875 C 343.15625 288.796875 348.484375 291.003906 352.410156 294.921875 C 356.339844 298.847656 358.542969 304.179688 358.542969 309.722656 C 358.542969 315.269531 356.339844 320.597656 352.410156 324.523438 C 348.484375 328.441406 343.15625 330.648438 337.601562 330.648438 C 332.050781 330.648438 326.714844 328.441406 322.789062 324.523438 C 318.867188 320.597656 316.65625 315.269531 316.65625 309.722656 Z M 316.65625 309.722656 " fill-opacity="1" fill-rule="evenodd"/></g><path fill="#000000" d="M 156.195312 55.316406 C 158.367188 55.316406 160.460938 56.183594 162.007812 57.71875 C 163.546875 59.257812 164.410156 61.347656 164.410156 63.527344 C 164.410156 65.707031 163.546875 67.796875 162.007812 69.332031 C 160.460938 70.871094 158.367188 71.734375 156.195312 71.734375 L 8.367188 71.734375 C 6.191406 71.734375 4.101562 70.871094 2.554688 69.332031 C 1.015625 67.796875 0.148438 65.707031 0.148438 63.527344 C 0.148438 61.347656 1.015625 59.257812 2.554688 57.71875 C 4.101562 56.183594 6.191406 55.316406 8.367188 55.316406 Z M 156.195312 55.316406 " fill-opacity="1" fill-rule="nonzero"/></svg>