<svg xmlns="http://www.w3.org/2000/svg" xmlns:xlink="http://www.w3.org/1999/xlink" width="500" zoomAndPan="magnify" viewBox="0 0 375 374.999991" height="500" preserveAspectRatio="xMidYMid meet" version="1.0"><defs><clipPath id="801567d38f"><path d="M 86.71875 0 L 288.46875 0 L 288.46875 375 L 86.71875 375 Z M 86.71875 0 " clip-rule="nonzero"/></clipPath></defs><g clip-path="url(#801567d38f)"><path fill="#000000" d="M 277.480469 342.597656 C 277.480469 354.527344 267.800781 364.199219 255.859375 364.199219 L 119.339844 364.199219 C 107.398438 364.199219 97.71875 354.527344 97.71875 342.597656 L 97.71875 32.402344 C 97.71875 20.472656 107.398438 10.800781 119.339844 10.800781 L 147.109375 10.800781 C 148.574219 10.800781 149.765625 11.988281 149.765625 13.453125 L 149.765625 14.824219 C 149.765625 20.261719 154.179688 24.675781 159.621094 24.675781 L 215.574219 24.675781 C 221.019531 24.675781 225.4375 20.261719 225.4375 14.824219 L 225.4375 13.453125 C 225.4375 11.988281 226.625 10.800781 228.089844 10.800781 L 255.859375 10.800781 C 267.800781 10.800781 277.480469 20.472656 277.480469 32.402344 Z M 255.859375 0 L 119.339844 0 C 101.457031 0 86.90625 14.535156 86.90625 32.402344 L 86.90625 342.597656 C 86.90625 360.464844 101.457031 375 119.339844 375 L 255.859375 375 C 273.742188 375 288.292969 360.464844 288.292969 342.597656 L 288.292969 32.402344 C 288.292969 14.535156 273.742188 0 255.859375 0 " fill-opacity="1" fill-rule="nonzero"/></g></svg>