<svg width="132" height="119" viewBox="0 0 132 119" fill="none" xmlns="http://www.w3.org/2000/svg">
<mask id="mask0_4_1482" style="mask-type:luminance" maskUnits="userSpaceOnUse" x="8" y="16" width="116" height="87">
<path d="M8.87149 16.184H123.183V102.806H8.87149V16.184Z" fill="white"/>
</mask>
<g mask="url(#mask0_4_1482)">
<path d="M25.641 99.665C24.7431 99.2597 23.8397 98.9014 22.9859 98.4651C21.9367 97.9296 20.8876 97.3755 19.9031 96.7495C19.0217 96.188 18.2105 95.5298 17.3937 94.8901C16.9152 94.5121 16.4601 94.1018 16.0407 93.6704C15.4399 93.0444 14.8472 92.4122 14.3041 91.7403C13.7541 91.0561 13.2412 90.3384 12.7627 89.607C12.3296 88.9488 11.9309 88.2646 11.5844 87.5729C11.0055 86.4188 10.4115 85.2635 9.96323 84.071C9.60848 83.1376 9.4641 82.146 9.22623 81.1816C8.87148 79.7201 8.9141 78.24 8.94298 76.7587C8.9581 76.2443 9.0736 75.7286 9.16023 75.213C9.21798 74.8808 9.29085 74.5486 9.3706 74.2151C9.4861 73.7131 9.59473 73.2173 9.73223 72.7227C9.93435 72.0049 10.1516 71.2934 10.3826 70.5831C10.4995 70.2373 10.6659 69.9051 10.8102 69.5716C11.2516 68.5353 11.7576 67.5238 12.4231 66.5855C12.9442 65.8479 13.4214 65.0843 13.9645 64.3604C14.5282 63.6105 15.1222 62.868 15.7589 62.1626C16.4161 61.4263 17.1119 60.695 17.8489 60.0244C18.2682 59.6451 18.645 59.2409 19.0217 58.8368C19.492 58.3286 20.0915 57.9171 20.6057 57.4411C21.3427 56.7568 22.1031 56.085 22.7686 55.3474C23.5207 54.5194 24.2371 53.6517 24.86 52.7393C25.3729 51.9819 25.7565 51.1403 26.1332 50.3197C26.4509 49.6342 26.6901 48.9165 26.9431 48.2062C27.0435 47.9124 27.0875 47.6062 27.1521 47.3062C27.2319 46.9344 27.3047 46.5563 27.3776 46.1844C27.4491 45.8063 27.5069 45.427 27.5866 45.0564C27.6732 44.6325 27.7681 44.2147 27.8616 43.7908C27.8685 43.7709 27.8685 43.7511 27.8685 43.7313C27.9194 43.1189 27.9482 42.5053 28.0211 41.893C28.1009 41.1691 28.2095 40.4451 28.303 39.7212C28.3539 39.3493 28.3759 38.9713 28.4542 38.5994C28.6069 37.868 28.7224 37.1181 28.9754 36.414C29.2875 35.5599 29.656 34.7059 30.1331 33.9163C30.5965 33.1527 31.1891 32.4424 31.8051 31.7705C32.6865 30.8049 33.7934 30.0289 34.8796 29.2591C35.6249 28.7311 36.4567 28.2947 37.2597 27.8373C37.8015 27.5312 38.3666 27.2634 38.9304 26.9833C39.5381 26.6833 40.1239 26.325 40.7674 26.097C41.9471 25.6792 43.1626 25.3197 44.3712 24.9615C45.0436 24.7657 45.7242 24.5834 46.4104 24.4533C47.2794 24.2897 48.169 24.1855 49.0449 24.0417C49.4422 23.9773 49.8396 23.8793 50.2384 23.8013C50.2741 23.7938 50.303 23.7876 50.3387 23.7876C51.1129 23.7418 51.887 23.6959 52.6694 23.6575C53.4792 23.6116 54.296 23.5199 55.1072 23.5397C55.9597 23.5657 56.8136 23.7033 57.6606 23.7876C57.7912 23.8013 57.9287 23.7938 58.058 23.7876C58.9339 23.7554 59.7657 23.9376 60.5976 24.1595C61.2205 24.3219 61.886 24.3615 62.5295 24.4396C63.3462 24.5376 64.1575 24.6219 64.9742 24.7012C65.1915 24.7198 65.4087 24.7012 65.626 24.7012C66.3712 24.7012 67.1234 24.7272 67.8686 24.6938C68.4035 24.6677 68.9315 24.5512 69.4595 24.4719C69.5035 24.4657 69.5461 24.4396 69.5901 24.4458C70.2199 24.4793 70.8125 24.2773 71.4271 24.2054C72.2164 24.1136 72.9547 23.924 73.6849 23.6699C74.4232 23.4095 75.1602 23.148 75.8835 22.8617C76.6879 22.5418 77.4909 22.196 78.2719 21.8378C78.9662 21.5117 79.6166 21.1002 80.333 20.8064C81.3312 20.3961 82.3804 20.0701 83.3937 19.6784C84.0152 19.4379 84.6161 19.1441 85.2307 18.8764C85.4837 18.7661 85.7381 18.6743 85.998 18.5764C87.0471 18.1921 88.0894 17.7744 89.1591 17.4286C90.1436 17.1162 91.135 16.8088 92.1539 16.6389C93.3556 16.4369 94.556 16.1964 95.8086 16.215C96.6322 16.2286 97.4284 16.3464 98.2176 16.5026C99.0632 16.6786 99.8813 16.9588 100.713 17.2067C101.676 17.4943 102.557 17.9442 103.404 18.4264C104.345 18.9681 105.192 19.6003 106.044 20.2523C107.419 21.2961 108.417 22.5877 109.315 23.9574C109.821 24.7272 110.285 25.5292 110.689 26.3436C111.196 27.375 111.651 28.4187 112.064 29.481C112.361 30.2508 112.556 31.059 112.802 31.8486C113.048 32.6382 113.308 33.4204 113.539 34.2162C113.706 34.7902 113.807 35.3777 113.959 35.9517C114.242 36.9941 114.537 38.0379 114.828 39.0816C115.001 39.7138 115.153 40.3534 115.34 40.9794C115.666 42.0752 115.992 43.171 116.354 44.2531C116.809 45.6105 117.287 46.9666 117.8 48.3103C118.379 49.83 119.009 51.3361 119.602 52.8559C120.34 54.7351 121.1 56.6068 121.786 58.4972C122.077 59.2868 122.221 60.1211 122.416 60.9367C122.569 61.5763 122.727 62.2147 122.844 62.8605C122.922 63.3179 122.973 63.7803 122.988 64.2439C123.046 65.7698 123.126 67.2958 123.117 68.8217C123.117 69.4613 122.937 70.0997 122.844 70.7331C122.836 70.7852 122.851 70.8434 122.844 70.8955C122.749 71.4248 122.655 71.9591 122.561 72.4871C122.467 73.0028 122.374 73.5247 122.265 74.0391C122.026 75.2403 121.628 76.4005 121.187 77.5484C120.832 78.4619 120.413 79.342 119.985 80.2296C119.306 81.6514 118.445 82.9753 117.476 84.2533C116.722 85.2511 115.862 86.1573 114.878 86.9593C114.053 87.6386 113.178 88.277 112.295 88.8967C111.587 89.3988 110.863 89.9008 110.089 90.3123C109.141 90.8206 108.151 91.2705 107.137 91.6821C106.356 92.0007 105.538 92.2486 104.713 92.4705C103.389 92.8225 102.058 93.1485 100.713 93.4485C100.004 93.6059 99.2736 93.7559 98.5504 93.7559C97.9715 93.7559 97.4352 93.984 96.8646 93.9121C96.4301 93.86 96.0176 94.0299 95.612 94.0224C94.6289 94.01 93.6664 94.1402 92.697 94.1662C91.6836 94.1922 90.6647 94.2319 89.6582 94.1538C88.7109 94.0819 87.7415 94.1402 86.8079 93.9121C86.7941 93.9121 86.7859 93.9121 86.7721 93.9121C86.02 93.8662 85.2679 93.8402 84.5144 93.7757C83.8131 93.71 83.1256 93.6059 82.4244 93.5204C81.9899 93.4683 81.5485 93.4423 81.1071 93.384C80.5076 93.3059 79.9067 93.208 79.3127 93.1299C78.9374 93.0779 78.5606 93.032 78.177 92.9985C77.5624 92.9465 76.9326 92.9403 76.318 92.8622C75.1314 92.706 73.9447 92.7246 72.7595 92.7444C71.9125 92.758 71.0586 92.7903 70.2116 92.882C69.3302 92.9725 68.4544 93.1485 67.5716 93.2601C65.648 93.4944 63.7739 93.9183 61.9437 94.5121C60.9812 94.8257 60.0256 95.1703 59.0934 95.5558C57.6317 96.1619 56.1921 96.7954 54.7525 97.4474C54.0292 97.7734 53.3486 98.1713 52.6391 98.5172C51.8224 98.9213 51.0125 99.3192 50.1806 99.691C48.719 100.343 47.2505 100.963 45.738 101.511C44.363 102.005 42.9454 102.325 41.5209 102.645C41.0135 102.757 40.4717 102.769 39.9437 102.783C39.1476 102.801 38.3515 102.775 37.5554 102.789C36.6657 102.801 35.7981 102.691 34.9222 102.541C33.5266 102.293 32.1379 102.025 30.7917 101.609C29.9241 101.341 29.0702 101.061 28.2232 100.747C27.3982 100.415 26.5375 100.037 25.641 99.665Z" fill="#DFD2EA"/>
</g>
<path d="M101.701 48.7305C101.701 49.1842 101.688 49.6366 101.663 50.0891C101.639 50.5415 101.602 50.994 101.552 51.4452C101.503 51.8964 101.441 52.3451 101.368 52.7938C101.294 53.2426 101.208 53.6888 101.109 54.1326C101.012 54.5776 100.902 55.0201 100.779 55.4589C100.657 55.899 100.524 56.3353 100.378 56.7692C100.231 57.203 100.074 57.6332 99.9048 58.0596C99.7356 58.486 99.5541 58.9087 99.3616 59.3277C99.1691 59.7467 98.9656 60.1607 98.7511 60.5697C98.5353 60.98 98.3097 61.3841 98.0732 61.7845C97.8354 62.1837 97.5879 62.5779 97.3294 62.9671C97.0709 63.3551 96.8027 63.7381 96.5236 64.115C96.2445 64.4918 95.9544 64.8624 95.6546 65.2269C95.3563 65.5901 95.0469 65.9471 94.7279 66.2979C94.4089 66.6487 94.0802 66.9908 93.7434 67.3267C93.4051 67.6626 93.0586 67.9911 92.7039 68.3109C92.3478 68.632 91.9834 68.9444 91.6108 69.2481C91.2395 69.553 90.8586 69.8493 90.4695 70.1368C90.0817 70.4244 89.6844 70.7021 89.2815 70.9723C88.8773 71.2426 88.4661 71.5029 88.0481 71.7557C87.6301 72.0074 87.2066 72.2491 86.7749 72.4821C86.3431 72.7152 85.9059 72.9383 85.4631 73.1528C85.019 73.366 84.5708 73.5693 84.117 73.7639C83.6619 73.9572 83.2026 74.1407 82.7379 74.3142C82.2731 74.4878 81.8043 74.6502 81.3312 74.8039C80.8582 74.9563 80.3811 75.0977 79.8999 75.2303C79.4186 75.3617 78.9346 75.4819 78.4465 75.5923C77.9598 75.7026 77.4689 75.8017 76.9753 75.8898C76.483 75.979 75.988 76.0559 75.4902 76.1228C74.9925 76.1885 74.4948 76.2443 73.9943 76.2889C73.4938 76.3335 72.9933 76.367 72.49 76.3893C71.9881 76.4104 71.4863 76.4215 70.983 76.4215C70.4811 76.4215 69.9779 76.4104 69.476 76.3893C68.9741 76.367 68.4723 76.3335 67.9731 76.2889C67.4726 76.2443 66.9735 76.1885 66.4758 76.1228C65.9794 76.0559 65.4844 75.979 64.9908 75.8898C64.4971 75.8017 64.0076 75.7026 63.5195 75.5923C63.0328 75.4819 62.5474 75.3617 62.0661 75.2303C61.5863 75.0977 61.1091 74.9563 60.6348 74.8039C60.1618 74.6502 59.6929 74.4878 59.2281 74.3142C58.7648 74.1407 58.3041 73.9572 57.8504 73.7639C57.3953 73.5693 56.947 73.366 56.5043 73.1528C56.0601 72.9383 55.6229 72.7152 55.1925 72.4821C54.7608 72.2491 54.3359 72.0074 53.9179 71.7557C53.4999 71.5029 53.0888 71.2426 52.6859 70.9723C52.2816 70.7021 51.8856 70.4244 51.4965 70.1368C51.1088 69.8493 50.7279 69.553 50.3553 69.2481C49.9826 68.9444 49.6196 68.632 49.2635 68.3109C48.9074 67.9911 48.5609 67.6626 48.224 67.3267C47.8858 66.9908 47.5585 66.6487 47.2395 66.2979C46.9205 65.9471 46.6111 65.5901 46.3114 65.2269C46.0116 64.8624 45.7229 64.4918 45.4438 64.115C45.1646 63.7381 44.8951 63.3551 44.6366 62.9671C44.3781 62.5779 44.1306 62.1837 43.8941 61.7845C43.6563 61.3841 43.4308 60.98 43.2163 60.5697C43.0004 60.1607 42.7969 59.7467 42.6044 59.3277C42.4133 58.9087 42.2318 58.486 42.0626 58.0596C41.8935 57.6332 41.7354 57.203 41.5896 56.7692C41.4439 56.3353 41.3091 55.899 41.1868 55.4589C41.0658 55.0201 40.9558 54.5776 40.8568 54.1326C40.7591 53.6888 40.6725 53.2426 40.5996 52.7938C40.5254 52.3451 40.4635 51.8964 40.4154 51.4452C40.3659 50.994 40.3288 50.5415 40.304 50.0891C40.2793 49.6366 40.2669 49.1842 40.2669 48.7305C40.2669 48.278 40.2793 47.8243 40.304 47.3719C40.3288 46.9195 40.3659 46.467 40.4154 46.017C40.4635 45.5658 40.5254 45.1159 40.5996 44.6671C40.6725 44.2196 40.7591 43.7734 40.8568 43.3284C40.9558 42.8834 41.0658 42.4421 41.1868 42.002C41.3091 41.562 41.4439 41.1256 41.5896 40.6918C41.7354 40.2592 41.8935 39.8278 42.0626 39.4014C42.2318 38.975 42.4133 38.5523 42.6044 38.1333C42.7969 37.7143 43.0004 37.3003 43.2163 36.8912C43.4308 36.4809 43.6563 36.0768 43.8941 35.6764C44.1306 35.2773 44.3781 34.8831 44.6366 34.4939C44.8951 34.1059 45.1646 33.7228 45.4438 33.346C45.7229 32.9692 46.0116 32.5985 46.3114 32.2353C46.6111 31.8709 46.9205 31.5139 47.2395 31.1631C47.5585 30.8135 47.8858 30.4702 48.224 30.1343C48.5609 29.7983 48.9074 29.4698 49.2635 29.15C49.6183 28.829 49.9826 28.5166 50.3553 28.2129C50.7279 27.908 51.1088 27.6129 51.4965 27.3254C51.8856 27.0378 52.2816 26.7589 52.6859 26.4886C53.0888 26.2184 53.4999 25.9581 53.9179 25.7065C54.3359 25.4548 54.7608 25.2119 55.1925 24.9788C55.6229 24.7458 56.0601 24.5227 56.5043 24.3094C56.947 24.095 57.3953 23.8917 57.8504 23.6983C58.3041 23.5037 58.7648 23.3203 59.2281 23.1467C59.6929 22.9732 60.1618 22.8108 60.6348 22.6583C61.1091 22.5059 61.5863 22.3633 62.0661 22.2319C62.5474 22.1005 63.0328 21.979 63.5195 21.8687C64.0076 21.7584 64.4971 21.6592 64.9908 21.5712C65.4844 21.4832 65.9794 21.4051 66.4758 21.3394C66.9735 21.2725 67.4726 21.2167 67.9731 21.1721C68.4723 21.1287 68.9741 21.0952 69.476 21.0729C69.9779 21.0506 70.4811 21.0394 70.983 21.0394C71.4863 21.0394 71.9881 21.0506 72.49 21.0729C72.9933 21.0952 73.4938 21.1287 73.9943 21.1721C74.4948 21.2167 74.9925 21.2725 75.4902 21.3394C75.988 21.4051 76.483 21.4832 76.9753 21.5712C77.4689 21.6592 77.9598 21.7584 78.4465 21.8687C78.9346 21.979 79.4186 22.1005 79.8999 22.2319C80.3811 22.3633 80.8582 22.5059 81.3312 22.6583C81.8043 22.8108 82.2731 22.9732 82.7379 23.1467C83.2026 23.3203 83.6619 23.5037 84.117 23.6983C84.5708 23.8917 85.019 24.095 85.4631 24.3094C85.9059 24.5227 86.3431 24.7458 86.7749 24.9788C87.2066 25.2119 87.6301 25.4548 88.0481 25.7065C88.4661 25.9581 88.8773 26.2184 89.2815 26.4886C89.6844 26.7589 90.0817 27.0378 90.4695 27.3254C90.8586 27.6129 91.2395 27.908 91.6108 28.2129C91.9834 28.5166 92.3478 28.829 92.7039 29.15C93.0586 29.4698 93.4051 29.7983 93.7434 30.1343C94.0802 30.4702 94.4089 30.8135 94.7279 31.1631C95.0469 31.5139 95.3563 31.8709 95.6546 32.2353C95.9544 32.5985 96.2445 32.9692 96.5236 33.346C96.8027 33.7228 97.0709 34.1059 97.3294 34.4939C97.5879 34.8831 97.8354 35.2773 98.0732 35.6764C98.3097 36.0768 98.5353 36.4809 98.7511 36.8912C98.9656 37.3003 99.1691 37.7143 99.3616 38.1333C99.5541 38.5523 99.7356 38.975 99.9048 39.4014C100.074 39.8278 100.231 40.2592 100.378 40.6918C100.524 41.1256 100.657 41.562 100.779 42.002C100.902 42.4421 101.012 42.8834 101.109 43.3284C101.208 43.7734 101.294 44.2196 101.368 44.6671C101.441 45.1159 101.503 45.5658 101.552 46.017C101.602 46.467 101.639 46.9195 101.663 47.3719C101.688 47.8243 101.701 48.278 101.701 48.7305Z" fill="#77BDC6"/>
<path d="M83.391 23.3934C91.1928 28.415 96.2803 36.6446 96.2803 45.9452C96.2803 61.2392 82.5275 73.6375 65.5641 73.6375C61.1476 73.6375 56.9511 72.7958 53.1561 71.2823C58.1831 74.5176 64.3363 76.4216 70.983 76.4216C87.9478 76.4216 101.701 64.0245 101.701 48.7305C101.701 37.4181 94.1751 27.6911 83.391 23.3934Z" fill="#77BDC6"/>
<path d="M66.2049 50.4858C66.2681 50.7039 66.1031 50.9221 65.857 50.958C65.098 51.0671 64.3418 50.58 63.7918 50.1436C63.481 49.8697 62.9296 49.8251 62.4855 49.7023C61.9108 49.5424 62.0318 48.7727 62.6326 48.7565C62.8004 48.7528 62.986 48.7689 63.1771 48.8012C64.0131 48.8619 65.9684 49.6726 66.2049 50.4858ZM72.886 74.0763C72.787 73.7887 73.0001 73.49 73.3301 73.4528C74.8399 73.278 76.2341 72.321 76.7594 71.0244C76.9863 70.4629 77.0619 69.8605 77.2269 69.2816C77.9886 66.6264 80.5461 64.7286 81.9665 62.3027C82.3983 61.7189 82.192 61.0185 81.4784 60.7061C81.0838 60.5177 80.6328 60.4557 80.1983 60.3665C78.452 60.0045 76.8433 59.1269 75.6773 57.9022C75.1479 57.3444 74.7079 56.7209 74.1716 56.168C72.391 54.3706 69.3564 53.219 66.7301 54C64.9811 55.004 63.4535 54.6656 61.655 53.7917C62.4443 51.408 60.0215 52.9067 60.2168 50.1275C60.2264 49.9825 60.3419 49.7234 60.2663 49.6565C59.6613 49.1173 57.6524 51.3188 57.2426 50.2106C56.8824 49.1148 56.6995 47.4128 57.2605 46.8017C57.4915 46.5798 57.8408 46.4968 58.1749 46.4447C59.6489 46.2154 63.1469 46.0158 64.3156 45.1741C65.5518 44.2841 65.7264 42.6429 66.6958 41.5161C67.0175 41.1443 67.4204 40.8368 67.8549 40.5753C69.289 39.6865 71.1934 39.3295 72.281 38.0366C72.6399 37.5557 73.0125 37.1429 72.8461 36.5181C72.6481 35.8215 71.9826 35.3542 71.4684 34.8435C70.9844 34.3687 70.6076 33.8158 70.1828 33.3076C69.9834 33.0225 69.6094 32.875 69.4169 33.2518C69.1941 33.6212 67.9759 34.2571 67.507 34.096C67.3681 34.0291 66.572 32.6444 66.11 32.1709C65.8639 31.8598 65.4665 31.7718 65.0623 31.8635C64.2469 32.0494 64.5123 33.2531 64.6443 33.7316C64.7543 34.1257 64.9495 35.3046 64.3968 35.9219C64.3349 35.9913 63.525 36.7264 63.4755 36.6334C62.3356 34.6612 60.8479 34.9972 59.0233 34.2447C57.8476 33.5952 57.717 32.2713 59.1223 31.8833C60.2676 31.4011 61.2975 30.6983 62.1239 29.8355C63.7395 27.9266 58.8803 28.922 58.1653 29.4649C57.3155 30.0835 56.2925 29.6124 55.3534 29.4612C55.7549 28.5191 54.4624 27.1295 53.4641 26.9238C53.009 26.9213 52.5498 26.9213 52.0933 26.894C51.3109 27.4456 50.5574 28.0307 49.8383 28.6455C49.962 28.7038 50.0816 28.7658 50.1971 28.834C50.0143 28.824 49.8314 28.8178 49.6485 28.8104C47.4664 30.7107 45.5964 32.8986 44.1128 35.3083C45.3406 36.2789 46.5341 37.4144 46.783 38.8585C46.9659 39.9134 46.6194 41.0525 47.0993 42.0293C47.5613 42.9677 49.2484 43.1264 49.555 44.1143C51.3824 50.1412 52.3408 51.413 57.8848 53.0034C59.5925 53.7223 64.086 57.0692 64.3239 58.8839C64.4284 59.6897 63.8894 60.4632 63.8 61.2714C63.6281 62.8308 64.5466 64.4459 66.0523 65.2318C66.4648 65.4475 66.9254 65.6124 67.2416 65.9334C68.1931 67.0069 67.3379 68.5837 66.6174 69.5877C65.4431 71.1806 65.2286 73.6028 65.4005 75.9642C66.8841 76.2096 68.4049 76.3596 69.9559 76.4055C70.5746 75.7534 71.6059 75.4708 72.468 75.146C73.0345 74.9762 73.0813 74.5721 72.886 74.0763ZM57.6373 25.6643C58.3041 25.8441 59.6558 25.7189 59.6695 26.5854C59.6393 26.7787 59.477 26.9957 59.6173 27.1432C59.6695 27.1977 59.7506 27.2213 59.8276 27.2411C62.2985 27.8621 63.6226 26.4713 65.472 25.3631C66.8003 24.69 68.4901 24.5809 69.6589 23.7479C69.9284 23.5571 69.8033 23.1678 69.465 23.1257C69.3976 23.117 69.3234 23.112 69.2436 23.1096C69.2436 23.1096 62.8774 22.7774 59.3285 23.1046C58.6451 23.3575 57.9728 23.6314 57.3155 23.9277C56.5854 24.4867 56.2733 25.1933 57.6373 25.6643ZM63.7973 27.6204C63.3861 28.477 63.5113 29.0075 64.229 29.3595C64.9055 29.693 65.5036 30.1417 65.9423 30.7132C66.4716 31.4024 66.9529 32.0569 68.3471 32.2155C70.6599 32.7758 70.8648 30.7367 69.3674 29.6484C67.5153 28.3009 66.5473 27.7568 64.7969 27.4493L64.8368 27.4605C64.4724 27.3936 64.0228 27.3539 63.7973 27.6204ZM68.2715 26.0065C71.2346 28.177 74.7148 24.2239 75.3706 30.5793C75.3734 33.3411 78.4506 32.7498 79.2344 30.914C79.5589 30.3425 79.6579 29.036 80.1529 28.5736C80.8321 27.939 84.766 27.6626 84.568 25.7536C84.4305 25.0284 85.1744 24.7706 85.6405 24.3888C84.4938 23.8273 83.303 23.3302 82.0738 22.9001C81.9459 22.8939 81.8221 22.8864 81.7039 22.879C78.9374 22.7191 74.1345 22.3336 71.6499 23.7913C70.7479 24.4396 69.9256 25.2181 68.7871 25.5367C68.5355 25.6197 68.2179 25.7697 68.2715 26.0065ZM88.5294 30.5421L88.4153 30.4516C87.7305 30.5124 87.0375 30.4888 86.3596 30.3822C86.1933 30.3549 86.0186 30.3239 85.8591 30.3748C85.5621 30.4677 85.448 30.8223 85.5594 31.0863C85.6708 31.3516 85.9416 31.5338 86.2221 31.6614C87.0458 32.0321 88.0674 32.0246 88.8841 31.6416C89.1028 31.5387 89.3283 31.3801 89.3461 31.1582C89.3599 30.9834 89.2334 30.8198 89.0725 30.7231C88.9103 30.6252 88.7178 30.583 88.5294 30.5421ZM92.4138 34.039C92.2983 34.3774 92.5114 34.7691 92.862 34.9278C93.0091 34.9947 93.1796 35.0269 93.3075 35.1199C93.6224 35.343 93.6664 36.1153 93.5055 36.4314C93.4189 36.5863 93.247 36.7462 93.3254 36.9049C93.5481 37.3078 95.5515 36.9061 95.8609 36.6359C96.0795 36.3731 95.755 36.0905 95.5213 35.9405C94.9025 35.4831 94.479 34.8149 94.358 34.1022C94.3443 33.6634 93.9551 33.5531 93.5124 33.5704C93.5124 33.5704 92.5911 33.5171 92.4138 34.039ZM92.3478 36.1946C92.5499 35.9566 92.5416 35.6207 92.323 35.3938C92.2653 35.3343 92.2144 35.3021 92.1525 35.2662C92.1209 35.2488 92.0961 35.2228 92.081 35.193L92.0631 35.1583C92.0508 35.136 92.0233 35.1224 91.9958 35.1261C91.8143 35.1422 91.8115 35.317 91.7661 35.4496C91.5544 35.6703 91.2753 35.4372 90.9934 35.8587C90.8311 36.0483 90.3925 36.6309 90.7033 36.7921C91.2698 36.9594 91.9724 36.6384 92.3478 36.1946ZM95.9654 37.7441C95.3081 38.0032 93.7681 37.6548 93.632 38.4717C93.6183 38.918 94.3594 39.0928 94.4749 39.5266C94.5863 39.901 94.1119 40.2394 93.7338 40.0559L93.7791 40.0956C93.1068 40.227 92.3203 39.9022 91.762 40.2629C90.7596 41.1505 90.86 42.0591 91.9174 42.8722C92.2543 43.228 92.7039 43.3148 93.1494 43.0631C93.7736 42.7161 94.8296 42.5673 95.0923 41.9016C95.2875 41.4901 95.4663 41.0129 95.9145 40.8195C96.1551 40.7166 96.4466 40.7116 96.657 40.5641C96.899 40.3968 96.9856 40.077 97.2593 39.9555C97.834 39.772 98.3964 40.3013 99.0179 39.8551H99.1045C98.9175 40.4501 99.8209 40.5902 100.181 40.9013C100.32 41.0637 100.456 41.2273 100.605 41.381C100.005 39.4138 99.1719 37.5346 98.1324 35.7694C97.0819 36.0744 97.7405 37.2755 95.9654 37.7441ZM99.5019 44.4577C99.0358 44.1924 98.7663 43.7809 98.4913 43.3681C97.7048 42.5475 96.3848 43.0619 95.4649 43.4226C93.0119 44.1081 91.3633 44.6858 90.2234 46.9455C89.5441 48.3958 88.935 50.461 89.1564 52.0303C89.7573 53.9343 92.3436 55.7627 94.4818 56.0193C95.8925 56.1755 97.4614 55.7751 98.6604 56.4643C99.33 56.8163 99.693 57.4423 99.8883 58.1191C101.06 55.1875 101.701 52.0266 101.701 48.7305C101.701 47.7525 101.643 46.7868 101.533 45.8348C101.42 45.7853 101.311 45.7233 101.219 45.6588C100.647 45.2584 100.075 44.8581 99.5019 44.4577ZM100.464 42.7508C100.613 42.959 100.827 43.0421 101.046 43.0284C100.975 42.721 100.898 42.4161 100.815 42.1124C100.757 42.219 100.678 42.3194 100.592 42.4037C100.5 42.4929 100.396 42.5847 100.464 42.7508Z" fill="#B7DAB2"/>
<mask id="mask1_4_1482" style="mask-type:luminance" maskUnits="userSpaceOnUse" x="32" y="16" width="63" height="85">
<path d="M32.8474 16.184H94.336V100.426H32.8474V16.184Z" fill="white"/>
</mask>
<g mask="url(#mask1_4_1482)">
<path d="M93.713 74.3589C93.1424 73.6486 92.0396 73.4887 91.2504 74.0044C90.5821 74.4407 89.8987 74.8535 89.203 75.2427L87.3674 72.1562C86.5286 72.6334 85.6637 73.0759 84.7727 73.48L86.607 76.5641C81.7972 78.7669 76.4829 79.9147 70.9829 79.9147C61.7442 79.9147 53.057 76.6707 46.5244 70.7815C39.9904 64.891 36.392 57.0605 36.392 48.7305C36.392 42.2227 38.5934 35.9888 42.7555 30.702C45.7819 26.8581 49.6662 23.7256 54.1584 21.4733L55.9926 24.5574C56.8575 24.1211 57.7485 23.7207 58.6615 23.36L56.8245 20.2697C57.5477 19.9771 58.2834 19.7057 59.0327 19.4577C59.9471 19.154 60.4146 18.2405 60.0777 17.4162C59.7422 16.5918 58.7289 16.1704 57.8145 16.4741C50.5696 18.8789 44.3684 23.1616 39.8804 28.8612C35.292 34.6897 32.8665 41.5595 32.8665 48.7305C32.8665 53.369 33.8744 57.87 35.8626 62.1068C37.7821 66.1987 40.5307 69.8741 44.0301 73.0288C47.5309 76.1848 51.6064 78.6615 56.1452 80.3932C60.3912 82.0121 64.8751 82.9095 69.4937 83.0682V89.7446H61.9766C61.3675 89.7446 60.812 90.0595 60.548 90.5553L56.3267 98.4651C55.8207 99.4146 56.588 100.515 57.7567 100.515H84.2104C85.3791 100.515 86.1464 99.4146 85.639 98.4651L81.4191 90.5553C81.1551 90.0595 80.5996 89.7446 79.9891 89.7446H72.4734V83.0682C80.0152 82.8091 87.1941 80.5791 93.3197 76.579C94.1076 76.0646 94.2836 75.0704 93.713 74.3589Z" fill="#E9A283"/>
</g>
</svg>
