<svg xmlns="http://www.w3.org/2000/svg" xmlns:xlink="http://www.w3.org/1999/xlink" width="414" zoomAndPan="magnify" viewBox="0 0 310.5 671.999985" height="896" preserveAspectRatio="xMidYMid meet" version="1.0"><defs><clipPath id="e46b77daa6"><path d="M 0 0.539062 L 310 0.539062 L 310 455 L 0 455 Z M 0 0.539062 " clip-rule="nonzero"/></clipPath><clipPath id="fb8e1860da"><path d="M 0 435.476562 L 310 435.476562 L 310 671.457031 L 0 671.457031 Z M 0 435.476562 " clip-rule="nonzero"/></clipPath></defs><g clip-path="url(#e46b77daa6)"><path fill="#cb6ce6" d="M 0.355469 433.621094 L 0.355469 434.542969 L 20.539062 434.542969 L 20.539062 454.742188 L 21.460938 454.742188 L 21.460938 434.558594 L 41.179688 434.558594 L 41.179688 454.742188 L 42.101562 454.742188 L 42.101562 434.558594 L 61.828125 434.558594 L 61.828125 454.742188 L 62.746094 454.742188 L 62.746094 434.558594 L 82.46875 434.558594 L 82.46875 454.742188 L 83.386719 454.742188 L 83.386719 434.558594 L 103.117188 434.558594 L 103.117188 454.742188 L 104.035156 454.742188 L 104.035156 434.558594 L 123.757812 434.558594 L 123.757812 454.742188 L 124.679688 454.742188 L 124.679688 434.558594 L 144.398438 434.558594 L 144.398438 454.742188 L 145.320312 454.742188 L 145.320312 434.558594 L 165.046875 434.558594 L 165.046875 454.742188 L 165.96875 454.742188 L 165.96875 434.558594 L 185.691406 434.558594 L 185.691406 454.742188 L 186.609375 454.742188 L 186.609375 434.558594 L 206.347656 434.558594 L 206.347656 454.742188 L 207.265625 454.742188 L 207.265625 434.558594 L 226.996094 434.558594 L 226.996094 454.742188 L 227.914062 454.742188 L 227.914062 434.558594 L 247.636719 434.558594 L 247.636719 454.742188 L 248.558594 454.742188 L 248.558594 434.558594 L 268.28125 434.558594 L 268.28125 454.742188 L 269.203125 454.742188 L 269.203125 434.558594 L 288.921875 434.558594 L 288.921875 454.742188 L 289.84375 454.742188 L 289.84375 434.558594 L 310.027344 434.558594 L 310.027344 433.636719 L 289.84375 433.636719 L 289.84375 413.886719 L 310.027344 413.886719 L 310.027344 412.964844 L 289.84375 412.964844 L 289.84375 393.273438 L 310.027344 393.273438 L 310.027344 392.355469 L 289.84375 392.355469 L 289.84375 372.628906 L 310.027344 372.628906 L 310.027344 371.707031 L 289.84375 371.707031 L 289.84375 351.964844 L 310.027344 351.964844 L 310.027344 351.046875 L 289.84375 351.046875 L 289.84375 331.320312 L 310.027344 331.320312 L 310.027344 330.398438 L 289.84375 330.398438 L 289.84375 310.679688 L 310.027344 310.679688 L 310.027344 309.757812 L 289.84375 309.757812 L 289.84375 290.035156 L 310.027344 290.035156 L 310.027344 289.109375 L 289.84375 289.109375 L 289.84375 269.378906 L 310.027344 269.378906 L 310.027344 268.460938 L 289.84375 268.460938 L 289.84375 248.746094 L 310.027344 248.746094 L 310.027344 247.828125 L 289.84375 247.828125 L 289.84375 228.101562 L 310.027344 228.101562 L 310.027344 227.179688 L 289.84375 227.179688 L 289.84375 207.457031 L 310.027344 207.457031 L 310.027344 206.535156 L 289.84375 206.535156 L 289.84375 186.816406 L 310.027344 186.816406 L 310.027344 185.894531 L 289.84375 185.894531 L 289.84375 166.171875 L 310.027344 166.171875 L 310.027344 165.253906 L 289.84375 165.253906 L 289.84375 145.523438 L 310.027344 145.523438 L 310.027344 144.605469 L 289.84375 144.605469 L 289.84375 124.878906 L 310.027344 124.878906 L 310.027344 123.957031 L 289.84375 123.957031 L 289.84375 104.238281 L 310.027344 104.238281 L 310.027344 103.316406 L 289.84375 103.316406 L 289.84375 83.59375 L 310.027344 83.59375 L 310.027344 82.671875 L 289.84375 82.671875 L 289.84375 62.945312 L 310.027344 62.945312 L 310.027344 62.027344 L 289.84375 62.027344 L 289.84375 42.304688 L 310.027344 42.304688 L 310.027344 41.394531 L 289.84375 41.394531 L 289.84375 21.660156 L 310.027344 21.660156 L 310.027344 20.738281 L 289.84375 20.738281 L 289.84375 0.539062 L 288.921875 0.539062 L 288.921875 20.738281 L 269.1875 20.738281 L 269.1875 0.539062 L 268.265625 0.539062 L 268.265625 20.738281 L 248.542969 20.738281 L 248.542969 0.539062 L 247.621094 0.539062 L 247.621094 20.738281 L 227.902344 20.738281 L 227.902344 0.539062 L 226.980469 0.539062 L 226.980469 20.738281 L 207.253906 20.738281 L 207.253906 0.539062 L 206.347656 0.539062 L 206.347656 20.738281 L 186.609375 20.738281 L 186.609375 0.539062 L 185.691406 0.539062 L 185.691406 20.738281 L 165.96875 20.738281 L 165.96875 0.539062 L 165.046875 0.539062 L 165.046875 20.738281 L 145.320312 20.738281 L 145.320312 0.539062 L 144.398438 0.539062 L 144.398438 20.738281 L 124.679688 20.738281 L 124.679688 0.539062 L 123.757812 0.539062 L 123.757812 20.738281 L 104.023438 20.738281 L 104.023438 0.539062 L 103.101562 0.539062 L 103.101562 20.738281 L 83.375 20.738281 L 83.375 0.539062 L 82.453125 0.539062 L 82.453125 20.738281 L 62.746094 20.738281 L 62.746094 0.539062 L 61.828125 0.539062 L 61.828125 20.738281 L 42.101562 20.738281 L 42.101562 0.539062 L 41.179688 0.539062 L 41.179688 20.738281 L 21.460938 20.738281 L 21.460938 0.539062 L 20.539062 0.539062 L 20.539062 20.738281 L 0.355469 20.738281 L 0.355469 21.660156 L 20.539062 21.660156 L 20.539062 41.394531 L 0.355469 41.394531 L 0.355469 42.316406 L 20.539062 42.316406 L 20.539062 62.039062 L 0.355469 62.039062 L 0.355469 62.957031 L 20.539062 62.957031 L 20.539062 82.683594 L 0.355469 82.683594 L 0.355469 83.601562 L 20.539062 83.601562 L 20.539062 103.328125 L 0.355469 103.328125 L 0.355469 104.25 L 20.539062 104.25 L 20.539062 123.96875 L 0.355469 123.96875 L 0.355469 124.890625 L 20.539062 124.890625 L 20.539062 144.605469 L 0.355469 144.605469 L 0.355469 145.523438 L 20.539062 145.523438 L 20.539062 165.25 L 0.355469 165.25 L 0.355469 166.167969 L 20.539062 166.167969 L 20.539062 185.894531 L 0.355469 185.894531 L 0.355469 186.816406 L 20.539062 186.816406 L 20.539062 206.535156 L 0.355469 206.535156 L 0.355469 207.457031 L 20.539062 207.457031 L 20.539062 227.179688 L 0.355469 227.179688 L 0.355469 228.101562 L 20.539062 228.101562 L 20.539062 247.828125 L 0.355469 247.828125 L 0.355469 248.746094 L 20.539062 248.746094 L 20.539062 268.46875 L 0.355469 268.46875 L 0.355469 269.386719 L 20.539062 269.386719 L 20.539062 289.109375 L 0.355469 289.109375 L 0.355469 290.03125 L 20.539062 290.03125 L 20.539062 309.757812 L 0.355469 309.757812 L 0.355469 310.679688 L 20.539062 310.679688 L 20.539062 330.398438 L 0.355469 330.398438 L 0.355469 331.320312 L 20.539062 331.320312 L 20.539062 351.046875 L 0.355469 351.046875 L 0.355469 351.964844 L 20.539062 351.964844 L 20.539062 371.691406 L 0.355469 371.691406 L 0.355469 372.609375 L 20.539062 372.609375 L 20.539062 392.335938 L 0.355469 392.335938 L 0.355469 393.273438 L 20.539062 393.273438 L 20.539062 412.996094 L 0.355469 412.996094 L 0.355469 413.914062 L 20.539062 413.914062 L 20.539062 433.640625 Z M 42.101562 433.621094 L 42.101562 413.886719 L 61.828125 413.886719 L 61.828125 433.609375 Z M 42.101562 393.253906 L 61.828125 393.253906 L 61.828125 412.976562 L 42.101562 412.976562 Z M 42.101562 372.609375 L 61.828125 372.609375 L 61.828125 392.335938 L 42.101562 392.335938 Z M 42.101562 351.964844 L 61.828125 351.964844 L 61.828125 371.691406 L 42.101562 371.691406 Z M 42.101562 331.320312 L 61.828125 331.320312 L 61.828125 351.046875 L 42.101562 351.046875 Z M 42.101562 310.679688 L 61.828125 310.679688 L 61.828125 330.398438 L 42.101562 330.398438 Z M 42.101562 290.035156 L 61.828125 290.035156 L 61.828125 309.757812 L 42.101562 309.757812 Z M 42.101562 269.386719 L 61.828125 269.386719 L 61.828125 289.109375 L 42.101562 289.109375 Z M 42.101562 248.746094 L 61.828125 248.746094 L 61.828125 268.46875 L 42.101562 268.46875 Z M 42.101562 228.101562 L 61.828125 228.101562 L 61.828125 247.828125 L 42.101562 247.828125 Z M 42.101562 207.457031 L 61.828125 207.457031 L 61.828125 227.179688 L 42.101562 227.179688 Z M 42.101562 186.816406 L 61.828125 186.816406 L 61.828125 206.535156 L 42.101562 206.535156 Z M 42.101562 166.167969 L 61.828125 166.167969 L 61.828125 185.894531 L 42.101562 185.894531 Z M 42.101562 145.523438 L 61.828125 145.523438 L 61.828125 165.25 L 42.101562 165.25 Z M 42.101562 124.878906 L 61.828125 124.878906 L 61.828125 144.605469 L 42.101562 144.605469 Z M 42.101562 104.238281 L 61.828125 104.238281 L 61.828125 123.957031 L 42.101562 123.957031 Z M 42.101562 83.59375 L 61.828125 83.59375 L 61.828125 103.316406 L 42.101562 103.316406 Z M 42.101562 62.945312 L 61.828125 62.945312 L 61.828125 82.671875 L 42.101562 82.671875 Z M 42.101562 42.304688 L 61.828125 42.304688 L 61.828125 62.027344 L 42.101562 62.027344 Z M 268.265625 62.027344 L 248.542969 62.027344 L 248.542969 42.304688 L 268.265625 42.304688 Z M 268.265625 82.671875 L 248.542969 82.671875 L 248.542969 62.945312 L 268.265625 62.945312 Z M 268.265625 103.316406 L 248.542969 103.316406 L 248.542969 83.59375 L 268.265625 83.59375 Z M 268.265625 123.957031 L 248.542969 123.957031 L 248.542969 104.238281 L 268.265625 104.238281 Z M 268.265625 144.605469 L 248.542969 144.605469 L 248.542969 124.878906 L 268.265625 124.878906 Z M 268.265625 165.25 L 248.542969 165.25 L 248.542969 145.523438 L 268.265625 145.523438 Z M 268.265625 185.894531 L 248.542969 185.894531 L 248.542969 166.171875 L 268.265625 166.171875 Z M 268.265625 206.535156 L 248.542969 206.535156 L 248.542969 186.816406 L 268.265625 186.816406 Z M 268.265625 227.179688 L 248.542969 227.179688 L 248.542969 207.457031 L 268.265625 207.457031 Z M 268.265625 247.828125 L 248.542969 247.828125 L 248.542969 228.101562 L 268.265625 228.101562 Z M 268.265625 268.46875 L 248.542969 268.46875 L 248.542969 248.746094 L 268.265625 248.746094 Z M 268.265625 289.117188 L 248.542969 289.117188 L 248.542969 269.386719 L 268.265625 269.386719 Z M 268.265625 309.757812 L 248.542969 309.757812 L 248.542969 290.035156 L 268.265625 290.035156 Z M 268.265625 330.398438 L 248.542969 330.398438 L 248.542969 310.679688 L 268.265625 310.679688 Z M 268.265625 351.046875 L 248.542969 351.046875 L 248.542969 331.320312 L 268.265625 331.320312 Z M 268.265625 371.691406 L 248.542969 371.691406 L 248.542969 351.964844 L 268.265625 351.964844 Z M 268.265625 392.335938 L 248.542969 392.335938 L 248.542969 372.609375 L 268.265625 372.609375 Z M 268.265625 412.976562 L 248.542969 412.976562 L 248.542969 393.273438 L 268.265625 393.273438 Z M 62.746094 393.273438 L 82.46875 393.273438 L 82.46875 412.996094 L 62.746094 412.996094 Z M 62.746094 372.628906 L 82.46875 372.628906 L 82.46875 392.355469 L 62.746094 392.355469 Z M 62.746094 351.984375 L 82.46875 351.984375 L 82.46875 371.707031 L 62.746094 371.707031 Z M 62.746094 331.339844 L 82.46875 331.339844 L 82.46875 351.0625 L 62.746094 351.0625 Z M 62.746094 310.695312 L 82.46875 310.695312 L 82.46875 330.417969 L 62.746094 330.417969 Z M 62.746094 290.054688 L 82.46875 290.054688 L 82.46875 309.757812 L 62.746094 309.757812 Z M 62.746094 269.40625 L 82.46875 269.40625 L 82.46875 289.109375 L 62.746094 289.109375 Z M 62.746094 248.765625 L 82.46875 248.765625 L 82.46875 268.484375 L 62.746094 268.484375 Z M 62.746094 228.121094 L 82.46875 228.121094 L 82.46875 247.84375 L 62.746094 247.84375 Z M 62.746094 207.472656 L 82.46875 207.472656 L 82.46875 227.199219 L 62.746094 227.199219 Z M 62.746094 186.832031 L 82.46875 186.832031 L 82.46875 206.554688 L 62.746094 206.554688 Z M 62.746094 166.1875 L 82.46875 166.1875 L 82.46875 185.914062 L 62.746094 185.914062 Z M 62.746094 145.542969 L 82.46875 145.542969 L 82.46875 165.265625 L 62.746094 165.265625 Z M 62.746094 124.898438 L 82.46875 124.898438 L 82.46875 144.605469 L 62.746094 144.605469 Z M 62.746094 104.253906 L 82.46875 104.253906 L 82.46875 123.976562 L 62.746094 123.976562 Z M 62.746094 83.609375 L 82.46875 83.609375 L 82.46875 103.335938 L 62.746094 103.335938 Z M 62.746094 62.964844 L 82.46875 62.964844 L 82.46875 82.691406 L 62.746094 82.691406 Z M 247.621094 82.691406 L 227.902344 82.691406 L 227.902344 62.945312 L 247.621094 62.945312 Z M 247.621094 103.335938 L 227.902344 103.335938 L 227.902344 83.59375 L 247.621094 83.59375 Z M 247.621094 123.976562 L 227.902344 123.976562 L 227.902344 104.238281 L 247.621094 104.238281 Z M 247.621094 144.621094 L 227.902344 144.621094 L 227.902344 124.878906 L 247.621094 124.878906 Z M 247.621094 165.265625 L 227.902344 165.265625 L 227.902344 145.523438 L 247.621094 145.523438 Z M 247.621094 185.914062 L 227.902344 185.914062 L 227.902344 166.171875 L 247.621094 166.171875 Z M 247.621094 206.554688 L 227.902344 206.554688 L 227.902344 186.816406 L 247.621094 186.816406 Z M 247.621094 227.199219 L 227.902344 227.199219 L 227.902344 207.457031 L 247.621094 207.457031 Z M 247.621094 247.84375 L 227.902344 247.84375 L 227.902344 228.101562 L 247.621094 228.101562 Z M 247.621094 268.484375 L 227.902344 268.484375 L 227.902344 248.746094 L 247.621094 248.746094 Z M 247.621094 289.136719 L 227.902344 289.136719 L 227.902344 269.40625 L 247.621094 269.40625 Z M 247.621094 309.777344 L 227.902344 309.777344 L 227.902344 290.035156 L 247.621094 290.035156 Z M 247.621094 330.417969 L 227.902344 330.417969 L 227.902344 310.679688 L 247.621094 310.679688 Z M 247.621094 351.0625 L 227.902344 351.0625 L 227.902344 331.320312 L 247.621094 331.320312 Z M 247.621094 371.707031 L 227.902344 371.707031 L 227.902344 351.964844 L 247.621094 351.964844 Z M 247.621094 392.355469 L 227.902344 392.355469 L 227.902344 372.628906 L 247.621094 372.628906 Z M 83.386719 372.628906 L 103.117188 372.628906 L 103.117188 392.355469 L 83.386719 392.355469 Z M 83.386719 351.984375 L 103.117188 351.984375 L 103.117188 371.707031 L 83.386719 371.707031 Z M 83.386719 331.339844 L 103.117188 331.339844 L 103.117188 351.0625 L 83.386719 351.0625 Z M 83.386719 310.695312 L 103.117188 310.695312 L 103.117188 330.417969 L 83.386719 330.417969 Z M 83.386719 290.054688 L 103.117188 290.054688 L 103.117188 309.757812 L 83.386719 309.757812 Z M 83.386719 269.40625 L 103.117188 269.40625 L 103.117188 289.109375 L 83.386719 289.109375 Z M 83.386719 248.765625 L 103.117188 248.765625 L 103.117188 268.484375 L 83.386719 268.484375 Z M 83.386719 228.121094 L 103.117188 228.121094 L 103.117188 247.84375 L 83.386719 247.84375 Z M 83.386719 207.472656 L 103.117188 207.472656 L 103.117188 227.199219 L 83.386719 227.199219 Z M 83.386719 186.832031 L 103.117188 186.832031 L 103.117188 206.554688 L 83.386719 206.554688 Z M 83.386719 166.1875 L 103.117188 166.1875 L 103.117188 185.914062 L 83.386719 185.914062 Z M 83.386719 145.542969 L 103.117188 145.542969 L 103.117188 165.265625 L 83.386719 165.265625 Z M 83.386719 124.898438 L 103.117188 124.898438 L 103.117188 144.605469 L 83.386719 144.605469 Z M 83.386719 104.253906 L 103.117188 104.253906 L 103.117188 123.976562 L 83.386719 123.976562 Z M 83.386719 83.609375 L 103.117188 83.609375 L 103.117188 103.335938 L 83.386719 103.335938 Z M 226.980469 103.335938 L 207.253906 103.335938 L 207.253906 83.59375 L 226.980469 83.59375 Z M 226.980469 123.976562 L 207.253906 123.976562 L 207.253906 104.238281 L 226.980469 104.238281 Z M 226.980469 144.621094 L 207.253906 144.621094 L 207.253906 124.878906 L 226.980469 124.878906 Z M 226.980469 165.265625 L 207.253906 165.265625 L 207.253906 145.523438 L 226.980469 145.523438 Z M 226.980469 185.914062 L 207.253906 185.914062 L 207.253906 166.171875 L 226.980469 166.171875 Z M 226.980469 206.554688 L 207.253906 206.554688 L 207.253906 186.816406 L 226.980469 186.816406 Z M 226.980469 227.199219 L 207.253906 227.199219 L 207.253906 207.457031 L 226.980469 207.457031 Z M 226.980469 247.84375 L 207.253906 247.84375 L 207.253906 228.101562 L 226.980469 228.101562 Z M 226.980469 268.484375 L 207.253906 268.484375 L 207.253906 248.746094 L 226.980469 248.746094 Z M 226.980469 289.136719 L 207.253906 289.136719 L 207.253906 269.40625 L 226.980469 269.40625 Z M 226.980469 309.777344 L 207.253906 309.777344 L 207.253906 290.035156 L 226.980469 290.035156 Z M 226.980469 330.417969 L 207.253906 330.417969 L 207.253906 310.679688 L 226.980469 310.679688 Z M 226.980469 351.0625 L 207.253906 351.0625 L 207.253906 331.320312 L 226.980469 331.320312 Z M 226.980469 371.707031 L 207.253906 371.707031 L 207.253906 351.964844 L 226.980469 351.964844 Z M 104.023438 351.964844 L 123.742188 351.964844 L 123.742188 371.691406 L 104.023438 371.691406 Z M 104.023438 331.320312 L 123.742188 331.320312 L 123.742188 351.046875 L 104.023438 351.046875 Z M 104.023438 310.679688 L 123.742188 310.679688 L 123.742188 330.398438 L 104.023438 330.398438 Z M 104.023438 290.035156 L 123.742188 290.035156 L 123.742188 309.757812 L 104.023438 309.757812 Z M 104.023438 269.386719 L 123.742188 269.386719 L 123.742188 289.109375 L 104.023438 289.109375 Z M 104.023438 248.746094 L 123.742188 248.746094 L 123.742188 268.46875 L 104.023438 268.46875 Z M 104.023438 228.101562 L 123.742188 228.101562 L 123.742188 247.828125 L 104.023438 247.828125 Z M 104.023438 207.457031 L 123.742188 207.457031 L 123.742188 227.179688 L 104.023438 227.179688 Z M 104.023438 186.816406 L 123.742188 186.816406 L 123.742188 206.535156 L 104.023438 206.535156 Z M 104.023438 166.167969 L 123.742188 166.167969 L 123.742188 185.894531 L 104.023438 185.894531 Z M 104.023438 145.523438 L 123.742188 145.523438 L 123.742188 165.25 L 104.023438 165.25 Z M 104.023438 124.878906 L 123.742188 124.878906 L 123.742188 144.605469 L 104.023438 144.605469 Z M 104.023438 104.238281 L 123.742188 104.238281 L 123.742188 123.957031 L 104.023438 123.957031 Z M 206.347656 123.957031 L 186.609375 123.957031 L 186.609375 104.238281 L 206.347656 104.238281 Z M 206.347656 144.605469 L 186.609375 144.605469 L 186.609375 124.878906 L 206.347656 124.878906 Z M 206.347656 165.25 L 186.609375 165.25 L 186.609375 145.523438 L 206.347656 145.523438 Z M 206.347656 185.894531 L 186.609375 185.894531 L 186.609375 166.171875 L 206.347656 166.171875 Z M 206.347656 206.535156 L 186.609375 206.535156 L 186.609375 186.816406 L 206.347656 186.816406 Z M 206.347656 227.179688 L 186.609375 227.179688 L 186.609375 207.457031 L 206.347656 207.457031 Z M 206.347656 247.828125 L 186.609375 247.828125 L 186.609375 228.101562 L 206.347656 228.101562 Z M 206.347656 268.46875 L 186.609375 268.46875 L 186.609375 248.746094 L 206.347656 248.746094 Z M 206.347656 289.117188 L 186.609375 289.117188 L 186.609375 269.386719 L 206.347656 269.386719 Z M 206.347656 309.757812 L 186.609375 309.757812 L 186.609375 290.035156 L 206.347656 290.035156 Z M 206.347656 330.398438 L 186.609375 330.398438 L 186.609375 310.679688 L 206.347656 310.679688 Z M 206.347656 351.046875 L 186.609375 351.046875 L 186.609375 331.320312 L 206.347656 331.320312 Z M 124.679688 331.320312 L 144.398438 331.320312 L 144.398438 351.046875 L 124.679688 351.046875 Z M 124.679688 310.679688 L 144.398438 310.679688 L 144.398438 330.398438 L 124.679688 330.398438 Z M 124.679688 290.035156 L 144.398438 290.035156 L 144.398438 309.757812 L 124.679688 309.757812 Z M 124.679688 269.386719 L 144.398438 269.386719 L 144.398438 289.109375 L 124.679688 289.109375 Z M 124.679688 248.746094 L 144.398438 248.746094 L 144.398438 268.46875 L 124.679688 268.46875 Z M 124.679688 228.101562 L 144.398438 228.101562 L 144.398438 247.828125 L 124.679688 247.828125 Z M 124.679688 207.457031 L 144.398438 207.457031 L 144.398438 227.179688 L 124.679688 227.179688 Z M 124.679688 186.816406 L 144.398438 186.816406 L 144.398438 206.535156 L 124.679688 206.535156 Z M 124.679688 166.167969 L 144.398438 166.167969 L 144.398438 185.894531 L 124.679688 185.894531 Z M 124.679688 145.523438 L 144.398438 145.523438 L 144.398438 165.25 L 124.679688 165.25 Z M 124.679688 124.878906 L 144.398438 124.878906 L 144.398438 144.605469 L 124.679688 144.605469 Z M 185.691406 144.605469 L 165.96875 144.605469 L 165.96875 124.878906 L 185.691406 124.878906 Z M 185.691406 165.25 L 165.96875 165.25 L 165.96875 145.523438 L 185.691406 145.523438 Z M 185.691406 185.894531 L 165.96875 185.894531 L 165.96875 166.171875 L 185.691406 166.171875 Z M 185.691406 206.535156 L 165.96875 206.535156 L 165.96875 186.816406 L 185.691406 186.816406 Z M 185.691406 227.179688 L 165.96875 227.179688 L 165.96875 207.457031 L 185.691406 207.457031 Z M 185.691406 247.828125 L 165.96875 247.828125 L 165.96875 228.101562 L 185.691406 228.101562 Z M 185.691406 268.46875 L 165.96875 268.46875 L 165.96875 248.746094 L 185.691406 248.746094 Z M 185.691406 289.117188 L 165.96875 289.117188 L 165.96875 269.386719 L 185.691406 269.386719 Z M 185.691406 309.757812 L 165.96875 309.757812 L 165.96875 290.035156 L 185.691406 290.035156 Z M 185.691406 330.398438 L 165.96875 330.398438 L 165.96875 310.679688 L 185.691406 310.679688 Z M 145.320312 310.679688 L 165.046875 310.679688 L 165.046875 330.398438 L 145.320312 330.398438 Z M 145.320312 290.035156 L 165.046875 290.035156 L 165.046875 309.757812 L 145.320312 309.757812 Z M 145.320312 269.386719 L 165.046875 269.386719 L 165.046875 289.109375 L 145.320312 289.109375 Z M 145.320312 248.746094 L 165.046875 248.746094 L 165.046875 268.46875 L 145.320312 268.46875 Z M 145.320312 228.101562 L 165.046875 228.101562 L 165.046875 247.828125 L 145.320312 247.828125 Z M 145.320312 207.457031 L 165.046875 207.457031 L 165.046875 227.179688 L 145.320312 227.179688 Z M 145.320312 186.816406 L 165.046875 186.816406 L 165.046875 206.535156 L 145.320312 206.535156 Z M 145.320312 166.167969 L 165.046875 166.167969 L 165.046875 185.894531 L 145.320312 185.894531 Z M 145.320312 145.523438 L 165.046875 145.523438 L 165.046875 165.25 L 145.320312 165.25 Z M 165.046875 144.605469 L 145.320312 144.605469 L 145.320312 124.878906 L 165.046875 124.878906 Z M 145.320312 331.320312 L 165.046875 331.320312 L 165.046875 351.046875 L 145.320312 351.046875 Z M 165.96875 331.320312 L 185.691406 331.320312 L 185.691406 351.046875 L 165.96875 351.046875 Z M 185.691406 123.957031 L 165.96875 123.957031 L 165.96875 104.238281 L 185.691406 104.238281 Z M 165.046875 123.957031 L 145.320312 123.957031 L 145.320312 104.238281 L 165.046875 104.238281 Z M 144.398438 123.957031 L 124.679688 123.957031 L 124.679688 104.238281 L 144.398438 104.238281 Z M 124.679688 351.964844 L 144.398438 351.964844 L 144.398438 371.691406 L 124.679688 371.691406 Z M 145.320312 351.964844 L 165.046875 351.964844 L 165.046875 371.691406 L 145.320312 371.691406 Z M 165.96875 351.964844 L 185.691406 351.964844 L 185.691406 371.691406 L 165.96875 371.691406 Z M 186.609375 351.964844 L 206.347656 351.964844 L 206.347656 371.691406 L 186.609375 371.691406 Z M 206.347656 103.316406 L 186.609375 103.316406 L 186.609375 83.59375 L 206.347656 83.59375 Z M 185.703125 103.316406 L 165.96875 103.316406 L 165.96875 83.59375 L 185.691406 83.59375 Z M 165.0625 103.316406 L 145.320312 103.316406 L 145.320312 83.59375 L 165.046875 83.59375 Z M 144.414062 103.316406 L 124.679688 103.316406 L 124.679688 83.59375 L 144.398438 83.59375 Z M 123.773438 103.316406 L 104.023438 103.316406 L 104.023438 83.59375 L 123.742188 83.59375 Z M 104.023438 372.609375 L 123.742188 372.609375 L 123.742188 392.335938 L 104.023438 392.335938 Z M 124.664062 372.609375 L 144.398438 372.609375 L 144.398438 392.335938 L 124.679688 392.335938 Z M 145.304688 372.609375 L 165.035156 372.609375 L 165.035156 392.335938 L 145.320312 392.335938 Z M 165.953125 372.609375 L 185.675781 372.609375 L 185.675781 392.335938 L 165.96875 392.335938 Z M 186.597656 372.609375 L 206.347656 372.609375 L 206.347656 392.335938 L 186.609375 392.335938 Z M 207.238281 372.609375 L 226.964844 372.609375 L 226.964844 392.335938 L 207.238281 392.335938 Z M 226.964844 82.671875 L 207.238281 82.671875 L 207.238281 62.945312 L 226.964844 62.945312 Z M 206.316406 82.671875 L 186.609375 82.671875 L 186.609375 62.945312 L 206.347656 62.945312 Z M 185.675781 82.671875 L 165.96875 82.671875 L 165.96875 62.945312 L 185.691406 62.945312 Z M 165.035156 82.671875 L 145.320312 82.671875 L 145.320312 62.945312 L 165.046875 62.945312 Z M 144.386719 82.671875 L 124.679688 82.671875 L 124.679688 62.945312 L 144.398438 62.945312 Z M 123.742188 82.671875 L 104.023438 82.671875 L 104.023438 62.945312 L 123.742188 62.945312 Z M 103.101562 82.671875 L 83.375 82.671875 L 83.375 62.945312 L 103.101562 62.945312 Z M 83.386719 393.273438 L 103.117188 393.273438 L 103.117188 412.996094 L 83.386719 412.996094 Z M 104.035156 393.273438 L 123.757812 393.273438 L 123.757812 412.996094 L 104.023438 412.996094 Z M 124.679688 393.273438 L 144.398438 393.273438 L 144.398438 412.996094 L 124.679688 412.996094 Z M 145.320312 393.273438 L 165.046875 393.273438 L 165.046875 412.996094 L 145.320312 412.996094 Z M 165.96875 393.273438 L 185.691406 393.273438 L 185.691406 412.996094 L 165.96875 412.996094 Z M 186.609375 393.273438 L 206.347656 393.273438 L 206.347656 412.996094 L 186.609375 412.996094 Z M 207.253906 393.273438 L 226.980469 393.273438 L 226.980469 412.996094 L 207.253906 412.996094 Z M 227.902344 393.273438 L 247.621094 393.273438 L 247.621094 412.996094 L 227.902344 412.996094 Z M 247.621094 62.046875 L 227.902344 62.046875 L 227.902344 42.304688 L 247.621094 42.304688 Z M 226.980469 62.046875 L 207.253906 62.046875 L 207.253906 42.304688 L 226.980469 42.304688 Z M 206.332031 62.046875 L 186.609375 62.046875 L 186.609375 42.304688 L 206.347656 42.304688 Z M 185.691406 62.046875 L 165.96875 62.046875 L 165.96875 42.304688 L 185.691406 42.304688 Z M 165.046875 62.046875 L 145.320312 62.046875 L 145.320312 42.304688 L 165.046875 42.304688 Z M 144.398438 62.046875 L 124.679688 62.046875 L 124.679688 42.304688 L 144.398438 42.304688 Z M 123.757812 62.046875 L 104.023438 62.046875 L 104.023438 42.304688 L 123.742188 42.304688 Z M 103.117188 62.046875 L 83.386719 62.046875 L 83.386719 42.304688 L 103.117188 42.304688 Z M 82.46875 62.046875 L 62.746094 62.046875 L 62.746094 42.304688 L 82.46875 42.304688 Z M 62.746094 433.621094 L 62.746094 413.886719 L 82.46875 413.886719 L 82.46875 433.609375 Z M 83.386719 433.621094 L 83.386719 413.886719 L 103.117188 413.886719 L 103.117188 433.609375 Z M 104.035156 433.621094 L 104.035156 413.886719 L 123.757812 413.886719 L 123.757812 433.609375 Z M 124.679688 433.621094 L 124.679688 413.886719 L 144.398438 413.886719 L 144.398438 433.609375 Z M 145.320312 433.621094 L 145.320312 413.886719 L 165.050781 413.886719 L 165.050781 433.609375 Z M 165.96875 433.621094 L 165.96875 413.886719 L 185.691406 413.886719 L 185.691406 433.609375 Z M 186.609375 433.621094 L 186.609375 413.886719 L 206.347656 413.886719 L 206.347656 433.609375 Z M 207.253906 433.621094 L 207.253906 413.886719 L 226.980469 413.886719 L 226.980469 433.609375 Z M 227.902344 433.621094 L 227.902344 413.886719 L 247.621094 413.886719 L 247.621094 433.609375 Z M 248.542969 433.621094 L 248.542969 413.886719 L 268.269531 413.886719 L 268.269531 433.609375 Z M 288.910156 433.621094 L 269.1875 433.621094 L 269.1875 413.886719 L 288.910156 413.886719 Z M 288.910156 412.976562 L 269.1875 412.976562 L 269.1875 393.273438 L 288.910156 393.273438 Z M 288.910156 392.335938 L 269.1875 392.335938 L 269.1875 372.609375 L 288.910156 372.609375 Z M 288.910156 371.691406 L 269.1875 371.691406 L 269.1875 351.964844 L 288.910156 351.964844 Z M 288.910156 351.046875 L 269.1875 351.046875 L 269.1875 331.320312 L 288.910156 331.320312 Z M 288.910156 330.398438 L 269.1875 330.398438 L 269.1875 310.679688 L 288.910156 310.679688 Z M 288.910156 309.757812 L 269.1875 309.757812 L 269.1875 290.035156 L 288.910156 290.035156 Z M 288.910156 289.117188 L 269.1875 289.117188 L 269.1875 269.386719 L 288.910156 269.386719 Z M 288.910156 268.46875 L 269.1875 268.46875 L 269.1875 248.746094 L 288.910156 248.746094 Z M 288.910156 247.828125 L 269.1875 247.828125 L 269.1875 228.101562 L 288.910156 228.101562 Z M 288.910156 227.179688 L 269.1875 227.179688 L 269.1875 207.457031 L 288.910156 207.457031 Z M 288.910156 206.535156 L 269.1875 206.535156 L 269.1875 186.816406 L 288.910156 186.816406 Z M 288.910156 185.894531 L 269.1875 185.894531 L 269.1875 166.171875 L 288.910156 166.171875 Z M 288.910156 165.25 L 269.1875 165.25 L 269.1875 145.523438 L 288.910156 145.523438 Z M 288.910156 144.605469 L 269.1875 144.605469 L 269.1875 124.878906 L 288.910156 124.878906 Z M 288.910156 123.957031 L 269.1875 123.957031 L 269.1875 104.238281 L 288.910156 104.238281 Z M 288.910156 103.316406 L 269.1875 103.316406 L 269.1875 83.59375 L 288.910156 83.59375 Z M 288.910156 82.671875 L 269.1875 82.671875 L 269.1875 62.945312 L 288.910156 62.945312 Z M 288.910156 62.027344 L 269.1875 62.027344 L 269.1875 42.304688 L 288.910156 42.304688 Z M 288.910156 21.660156 L 288.910156 41.394531 L 269.1875 41.394531 L 269.1875 21.660156 Z M 268.269531 21.660156 L 268.269531 41.394531 L 248.542969 41.394531 L 248.542969 21.660156 Z M 247.621094 21.660156 L 247.621094 41.394531 L 227.902344 41.394531 L 227.902344 21.660156 Z M 226.980469 21.660156 L 226.980469 41.394531 L 207.253906 41.394531 L 207.253906 21.660156 Z M 206.332031 21.660156 L 206.332031 41.394531 L 186.609375 41.394531 L 186.609375 21.660156 Z M 185.691406 21.660156 L 185.691406 41.394531 L 165.96875 41.394531 L 165.96875 21.660156 Z M 165.050781 21.660156 L 165.050781 41.394531 L 145.320312 41.394531 L 145.320312 21.660156 Z M 144.398438 21.660156 L 144.398438 41.394531 L 124.679688 41.394531 L 124.679688 21.660156 Z M 123.757812 21.660156 L 123.757812 41.394531 L 104.023438 41.394531 L 104.023438 21.660156 Z M 103.117188 21.660156 L 103.117188 41.394531 L 83.386719 41.394531 L 83.386719 21.660156 Z M 82.46875 21.660156 L 82.46875 41.394531 L 62.746094 41.394531 L 62.746094 21.660156 Z M 61.828125 21.660156 L 61.828125 41.394531 L 42.101562 41.394531 L 42.101562 21.660156 Z M 21.460938 21.660156 L 41.179688 21.660156 L 41.179688 41.394531 L 21.460938 41.394531 Z M 21.460938 42.304688 L 41.179688 42.304688 L 41.179688 62.027344 L 21.460938 62.027344 Z M 21.460938 62.945312 L 41.179688 62.945312 L 41.179688 82.671875 L 21.460938 82.671875 Z M 21.460938 83.59375 L 41.179688 83.59375 L 41.179688 103.316406 L 21.460938 103.316406 Z M 21.460938 104.238281 L 41.179688 104.238281 L 41.179688 123.957031 L 21.460938 123.957031 Z M 21.460938 124.878906 L 41.179688 124.878906 L 41.179688 144.605469 L 21.460938 144.605469 Z M 21.460938 145.523438 L 41.179688 145.523438 L 41.179688 165.25 L 21.460938 165.25 Z M 21.460938 166.167969 L 41.179688 166.167969 L 41.179688 185.894531 L 21.460938 185.894531 Z M 21.460938 186.816406 L 41.179688 186.816406 L 41.179688 206.535156 L 21.460938 206.535156 Z M 21.460938 207.457031 L 41.179688 207.457031 L 41.179688 227.179688 L 21.460938 227.179688 Z M 21.460938 228.101562 L 41.179688 228.101562 L 41.179688 247.828125 L 21.460938 247.828125 Z M 21.460938 248.746094 L 41.179688 248.746094 L 41.179688 268.46875 L 21.460938 268.46875 Z M 21.460938 269.386719 L 41.179688 269.386719 L 41.179688 289.109375 L 21.460938 289.109375 Z M 21.460938 290.035156 L 41.179688 290.035156 L 41.179688 309.757812 L 21.460938 309.757812 Z M 21.460938 310.679688 L 41.179688 310.679688 L 41.179688 330.398438 L 21.460938 330.398438 Z M 21.460938 331.320312 L 41.179688 331.320312 L 41.179688 351.046875 L 21.460938 351.046875 Z M 21.460938 351.964844 L 41.179688 351.964844 L 41.179688 371.691406 L 21.460938 371.691406 Z M 21.460938 372.609375 L 41.179688 372.609375 L 41.179688 392.335938 L 21.460938 392.335938 Z M 21.460938 393.253906 L 41.179688 393.253906 L 41.179688 412.976562 L 21.460938 412.976562 Z M 21.460938 413.898438 L 41.179688 413.898438 L 41.179688 433.621094 L 21.460938 433.621094 Z M 21.460938 413.898438 " fill-opacity="1" fill-rule="nonzero"/></g><g clip-path="url(#fb8e1860da)"><path fill="#cb6ce6" d="M 0.355469 868.558594 L 0.355469 869.480469 L 20.539062 869.480469 L 20.539062 889.679688 L 21.460938 889.679688 L 21.460938 869.492188 L 41.179688 869.492188 L 41.179688 889.679688 L 42.101562 889.679688 L 42.101562 869.492188 L 61.828125 869.492188 L 61.828125 889.679688 L 62.746094 889.679688 L 62.746094 869.492188 L 82.46875 869.492188 L 82.46875 889.679688 L 83.386719 889.679688 L 83.386719 869.492188 L 103.117188 869.492188 L 103.117188 889.679688 L 104.035156 889.679688 L 104.035156 869.492188 L 123.757812 869.492188 L 123.757812 889.679688 L 124.679688 889.679688 L 124.679688 869.492188 L 144.398438 869.492188 L 144.398438 889.679688 L 145.320312 889.679688 L 145.320312 869.492188 L 165.046875 869.492188 L 165.046875 889.679688 L 165.96875 889.679688 L 165.96875 869.492188 L 185.691406 869.492188 L 185.691406 889.679688 L 186.609375 889.679688 L 186.609375 869.492188 L 206.347656 869.492188 L 206.347656 889.679688 L 207.265625 889.679688 L 207.265625 869.492188 L 226.996094 869.492188 L 226.996094 889.679688 L 227.914062 889.679688 L 227.914062 869.492188 L 247.636719 869.492188 L 247.636719 889.679688 L 248.558594 889.679688 L 248.558594 869.492188 L 268.28125 869.492188 L 268.28125 889.679688 L 269.203125 889.679688 L 269.203125 869.492188 L 288.921875 869.492188 L 288.921875 889.679688 L 289.84375 889.679688 L 289.84375 869.492188 L 310.027344 869.492188 L 310.027344 868.574219 L 289.84375 868.574219 L 289.84375 848.824219 L 310.027344 848.824219 L 310.027344 847.902344 L 289.84375 847.902344 L 289.84375 828.210938 L 310.027344 828.210938 L 310.027344 827.289062 L 289.84375 827.289062 L 289.84375 807.566406 L 310.027344 807.566406 L 310.027344 806.644531 L 289.84375 806.644531 L 289.84375 786.902344 L 310.027344 786.902344 L 310.027344 785.980469 L 289.84375 785.980469 L 289.84375 766.257812 L 310.027344 766.257812 L 310.027344 765.335938 L 289.84375 765.335938 L 289.84375 745.617188 L 310.027344 745.617188 L 310.027344 744.695312 L 289.84375 744.695312 L 289.84375 724.972656 L 310.027344 724.972656 L 310.027344 724.046875 L 289.84375 724.046875 L 289.84375 704.316406 L 310.027344 704.316406 L 310.027344 703.398438 L 289.84375 703.398438 L 289.84375 683.683594 L 310.027344 683.683594 L 310.027344 682.761719 L 289.84375 682.761719 L 289.84375 663.039062 L 310.027344 663.039062 L 310.027344 662.117188 L 289.84375 662.117188 L 289.84375 642.394531 L 310.027344 642.394531 L 310.027344 641.472656 L 289.84375 641.472656 L 289.84375 621.75 L 310.027344 621.75 L 310.027344 620.832031 L 289.84375 620.832031 L 289.84375 601.109375 L 310.027344 601.109375 L 310.027344 600.191406 L 289.84375 600.191406 L 289.84375 580.460938 L 310.027344 580.460938 L 310.027344 579.539062 L 289.84375 579.539062 L 289.84375 559.816406 L 310.027344 559.816406 L 310.027344 558.894531 L 289.84375 558.894531 L 289.84375 539.175781 L 310.027344 539.175781 L 310.027344 538.253906 L 289.84375 538.253906 L 289.84375 518.527344 L 310.027344 518.527344 L 310.027344 517.609375 L 289.84375 517.609375 L 289.84375 497.882812 L 310.027344 497.882812 L 310.027344 496.964844 L 289.84375 496.964844 L 289.84375 477.242188 L 310.027344 477.242188 L 310.027344 476.332031 L 289.84375 476.332031 L 289.84375 456.597656 L 310.027344 456.597656 L 310.027344 455.675781 L 289.84375 455.675781 L 289.84375 435.476562 L 288.921875 435.476562 L 288.921875 455.675781 L 269.1875 455.675781 L 269.1875 435.476562 L 268.265625 435.476562 L 268.265625 455.675781 L 248.542969 455.675781 L 248.542969 435.476562 L 247.621094 435.476562 L 247.621094 455.675781 L 227.902344 455.675781 L 227.902344 435.476562 L 226.980469 435.476562 L 226.980469 455.675781 L 207.253906 455.675781 L 207.253906 435.476562 L 206.347656 435.476562 L 206.347656 455.675781 L 186.609375 455.675781 L 186.609375 435.476562 L 185.691406 435.476562 L 185.691406 455.675781 L 165.96875 455.675781 L 165.96875 435.476562 L 165.046875 435.476562 L 165.046875 455.675781 L 145.320312 455.675781 L 145.320312 435.476562 L 144.398438 435.476562 L 144.398438 455.675781 L 124.679688 455.675781 L 124.679688 435.476562 L 123.757812 435.476562 L 123.757812 455.675781 L 104.023438 455.675781 L 104.023438 435.476562 L 103.101562 435.476562 L 103.101562 455.675781 L 83.375 455.675781 L 83.375 435.476562 L 82.453125 435.476562 L 82.453125 455.675781 L 62.746094 455.675781 L 62.746094 435.476562 L 61.828125 435.476562 L 61.828125 455.675781 L 42.101562 455.675781 L 42.101562 435.476562 L 41.179688 435.476562 L 41.179688 455.675781 L 21.460938 455.675781 L 21.460938 435.476562 L 20.539062 435.476562 L 20.539062 455.675781 L 0.355469 455.675781 L 0.355469 456.597656 L 20.539062 456.597656 L 20.539062 476.332031 L 0.355469 476.332031 L 0.355469 477.253906 L 20.539062 477.253906 L 20.539062 496.976562 L 0.355469 496.976562 L 0.355469 497.894531 L 20.539062 497.894531 L 20.539062 517.621094 L 0.355469 517.621094 L 0.355469 518.539062 L 20.539062 518.539062 L 20.539062 538.265625 L 0.355469 538.265625 L 0.355469 539.183594 L 20.539062 539.183594 L 20.539062 558.90625 L 0.355469 558.90625 L 0.355469 559.828125 L 20.539062 559.828125 L 20.539062 579.539062 L 0.355469 579.539062 L 0.355469 580.460938 L 20.539062 580.460938 L 20.539062 600.1875 L 0.355469 600.1875 L 0.355469 601.105469 L 20.539062 601.105469 L 20.539062 620.832031 L 0.355469 620.832031 L 0.355469 621.75 L 20.539062 621.75 L 20.539062 641.472656 L 0.355469 641.472656 L 0.355469 642.394531 L 20.539062 642.394531 L 20.539062 662.117188 L 0.355469 662.117188 L 0.355469 663.039062 L 20.539062 663.039062 L 20.539062 682.761719 L 0.355469 682.761719 L 0.355469 683.683594 L 20.539062 683.683594 L 20.539062 703.40625 L 0.355469 703.40625 L 0.355469 704.324219 L 20.539062 704.324219 L 20.539062 724.046875 L 0.355469 724.046875 L 0.355469 724.964844 L 20.539062 724.964844 L 20.539062 744.695312 L 0.355469 744.695312 L 0.355469 745.617188 L 20.539062 745.617188 L 20.539062 765.335938 L 0.355469 765.335938 L 0.355469 766.257812 L 20.539062 766.257812 L 20.539062 785.980469 L 0.355469 785.980469 L 0.355469 786.902344 L 20.539062 786.902344 L 20.539062 806.628906 L 0.355469 806.628906 L 0.355469 807.546875 L 20.539062 807.546875 L 20.539062 827.273438 L 0.355469 827.273438 L 0.355469 828.210938 L 20.539062 828.210938 L 20.539062 847.933594 L 0.355469 847.933594 L 0.355469 848.851562 L 20.539062 848.851562 L 20.539062 868.578125 Z M 42.101562 868.558594 L 42.101562 848.824219 L 61.828125 848.824219 L 61.828125 868.546875 Z M 42.101562 828.191406 L 61.828125 828.191406 L 61.828125 847.914062 L 42.101562 847.914062 Z M 42.101562 807.546875 L 61.828125 807.546875 L 61.828125 827.273438 L 42.101562 827.273438 Z M 42.101562 786.902344 L 61.828125 786.902344 L 61.828125 806.628906 L 42.101562 806.628906 Z M 42.101562 766.257812 L 61.828125 766.257812 L 61.828125 785.980469 L 42.101562 785.980469 Z M 42.101562 745.617188 L 61.828125 745.617188 L 61.828125 765.335938 L 42.101562 765.335938 Z M 42.101562 724.972656 L 61.828125 724.972656 L 61.828125 744.695312 L 42.101562 744.695312 Z M 42.101562 704.324219 L 61.828125 704.324219 L 61.828125 724.046875 L 42.101562 724.046875 Z M 42.101562 683.683594 L 61.828125 683.683594 L 61.828125 703.40625 L 42.101562 703.40625 Z M 42.101562 663.039062 L 61.828125 663.039062 L 61.828125 682.761719 L 42.101562 682.761719 Z M 42.101562 642.394531 L 61.828125 642.394531 L 61.828125 662.117188 L 42.101562 662.117188 Z M 42.101562 621.75 L 61.828125 621.75 L 61.828125 641.472656 L 42.101562 641.472656 Z M 42.101562 601.105469 L 61.828125 601.105469 L 61.828125 620.832031 L 42.101562 620.832031 Z M 42.101562 580.460938 L 61.828125 580.460938 L 61.828125 600.1875 L 42.101562 600.1875 Z M 42.101562 559.816406 L 61.828125 559.816406 L 61.828125 579.539062 L 42.101562 579.539062 Z M 42.101562 539.175781 L 61.828125 539.175781 L 61.828125 558.894531 L 42.101562 558.894531 Z M 42.101562 518.527344 L 61.828125 518.527344 L 61.828125 538.253906 L 42.101562 538.253906 Z M 42.101562 497.882812 L 61.828125 497.882812 L 61.828125 517.609375 L 42.101562 517.609375 Z M 42.101562 477.242188 L 61.828125 477.242188 L 61.828125 496.964844 L 42.101562 496.964844 Z M 268.265625 496.964844 L 248.542969 496.964844 L 248.542969 477.242188 L 268.265625 477.242188 Z M 268.265625 517.609375 L 248.542969 517.609375 L 248.542969 497.882812 L 268.265625 497.882812 Z M 268.265625 538.253906 L 248.542969 538.253906 L 248.542969 518.527344 L 268.265625 518.527344 Z M 268.265625 558.894531 L 248.542969 558.894531 L 248.542969 539.175781 L 268.265625 539.175781 Z M 268.265625 579.539062 L 248.542969 579.539062 L 248.542969 559.816406 L 268.265625 559.816406 Z M 268.265625 600.1875 L 248.542969 600.1875 L 248.542969 580.460938 L 268.265625 580.460938 Z M 268.265625 620.832031 L 248.542969 620.832031 L 248.542969 601.109375 L 268.265625 601.109375 Z M 268.265625 641.472656 L 248.542969 641.472656 L 248.542969 621.75 L 268.265625 621.75 Z M 268.265625 662.117188 L 248.542969 662.117188 L 248.542969 642.394531 L 268.265625 642.394531 Z M 268.265625 682.761719 L 248.542969 682.761719 L 248.542969 663.039062 L 268.265625 663.039062 Z M 268.265625 703.40625 L 248.542969 703.40625 L 248.542969 683.683594 L 268.265625 683.683594 Z M 268.265625 724.054688 L 248.542969 724.054688 L 248.542969 704.324219 L 268.265625 704.324219 Z M 268.265625 744.695312 L 248.542969 744.695312 L 248.542969 724.972656 L 268.265625 724.972656 Z M 268.265625 765.335938 L 248.542969 765.335938 L 248.542969 745.617188 L 268.265625 745.617188 Z M 268.265625 785.980469 L 248.542969 785.980469 L 248.542969 766.257812 L 268.265625 766.257812 Z M 268.265625 806.628906 L 248.542969 806.628906 L 248.542969 786.902344 L 268.265625 786.902344 Z M 268.265625 827.273438 L 248.542969 827.273438 L 248.542969 807.546875 L 268.265625 807.546875 Z M 268.265625 847.914062 L 248.542969 847.914062 L 248.542969 828.210938 L 268.265625 828.210938 Z M 62.746094 828.210938 L 82.46875 828.210938 L 82.46875 847.933594 L 62.746094 847.933594 Z M 62.746094 807.566406 L 82.46875 807.566406 L 82.46875 827.289062 L 62.746094 827.289062 Z M 62.746094 786.921875 L 82.46875 786.921875 L 82.46875 806.644531 L 62.746094 806.644531 Z M 62.746094 766.273438 L 82.46875 766.273438 L 82.46875 786 L 62.746094 786 Z M 62.746094 745.632812 L 82.46875 745.632812 L 82.46875 765.355469 L 62.746094 765.355469 Z M 62.746094 724.992188 L 82.46875 724.992188 L 82.46875 744.695312 L 62.746094 744.695312 Z M 62.746094 704.34375 L 82.46875 704.34375 L 82.46875 724.046875 L 62.746094 724.046875 Z M 62.746094 683.703125 L 82.46875 683.703125 L 82.46875 703.421875 L 62.746094 703.421875 Z M 62.746094 663.054688 L 82.46875 663.054688 L 82.46875 682.78125 L 62.746094 682.78125 Z M 62.746094 642.410156 L 82.46875 642.410156 L 82.46875 662.136719 L 62.746094 662.136719 Z M 62.746094 621.769531 L 82.46875 621.769531 L 82.46875 641.492188 L 62.746094 641.492188 Z M 62.746094 601.125 L 82.46875 601.125 L 82.46875 620.847656 L 62.746094 620.847656 Z M 62.746094 580.480469 L 82.46875 580.480469 L 82.46875 600.203125 L 62.746094 600.203125 Z M 62.746094 559.835938 L 82.46875 559.835938 L 82.46875 579.539062 L 62.746094 579.539062 Z M 62.746094 539.191406 L 82.46875 539.191406 L 82.46875 558.914062 L 62.746094 558.914062 Z M 62.746094 518.546875 L 82.46875 518.546875 L 82.46875 538.273438 L 62.746094 538.273438 Z M 62.746094 497.902344 L 82.46875 497.902344 L 82.46875 517.628906 L 62.746094 517.628906 Z M 247.621094 517.628906 L 227.902344 517.628906 L 227.902344 497.882812 L 247.621094 497.882812 Z M 247.621094 538.273438 L 227.902344 538.273438 L 227.902344 518.527344 L 247.621094 518.527344 Z M 247.621094 558.914062 L 227.902344 558.914062 L 227.902344 539.175781 L 247.621094 539.175781 Z M 247.621094 579.558594 L 227.902344 579.558594 L 227.902344 559.816406 L 247.621094 559.816406 Z M 247.621094 600.203125 L 227.902344 600.203125 L 227.902344 580.460938 L 247.621094 580.460938 Z M 247.621094 620.847656 L 227.902344 620.847656 L 227.902344 601.109375 L 247.621094 601.109375 Z M 247.621094 641.492188 L 227.902344 641.492188 L 227.902344 621.75 L 247.621094 621.75 Z M 247.621094 662.136719 L 227.902344 662.136719 L 227.902344 642.394531 L 247.621094 642.394531 Z M 247.621094 682.78125 L 227.902344 682.78125 L 227.902344 663.039062 L 247.621094 663.039062 Z M 247.621094 703.421875 L 227.902344 703.421875 L 227.902344 683.683594 L 247.621094 683.683594 Z M 247.621094 724.070312 L 227.902344 724.070312 L 227.902344 704.34375 L 247.621094 704.34375 Z M 247.621094 744.714844 L 227.902344 744.714844 L 227.902344 724.972656 L 247.621094 724.972656 Z M 247.621094 765.355469 L 227.902344 765.355469 L 227.902344 745.617188 L 247.621094 745.617188 Z M 247.621094 786 L 227.902344 786 L 227.902344 766.257812 L 247.621094 766.257812 Z M 247.621094 806.644531 L 227.902344 806.644531 L 227.902344 786.902344 L 247.621094 786.902344 Z M 247.621094 827.289062 L 227.902344 827.289062 L 227.902344 807.566406 L 247.621094 807.566406 Z M 83.386719 807.566406 L 103.117188 807.566406 L 103.117188 827.289062 L 83.386719 827.289062 Z M 83.386719 786.921875 L 103.117188 786.921875 L 103.117188 806.644531 L 83.386719 806.644531 Z M 83.386719 766.273438 L 103.117188 766.273438 L 103.117188 786 L 83.386719 786 Z M 83.386719 745.632812 L 103.117188 745.632812 L 103.117188 765.355469 L 83.386719 765.355469 Z M 83.386719 724.992188 L 103.117188 724.992188 L 103.117188 744.695312 L 83.386719 744.695312 Z M 83.386719 704.34375 L 103.117188 704.34375 L 103.117188 724.046875 L 83.386719 724.046875 Z M 83.386719 683.703125 L 103.117188 683.703125 L 103.117188 703.421875 L 83.386719 703.421875 Z M 83.386719 663.054688 L 103.117188 663.054688 L 103.117188 682.78125 L 83.386719 682.78125 Z M 83.386719 642.410156 L 103.117188 642.410156 L 103.117188 662.136719 L 83.386719 662.136719 Z M 83.386719 621.769531 L 103.117188 621.769531 L 103.117188 641.492188 L 83.386719 641.492188 Z M 83.386719 601.125 L 103.117188 601.125 L 103.117188 620.847656 L 83.386719 620.847656 Z M 83.386719 580.480469 L 103.117188 580.480469 L 103.117188 600.203125 L 83.386719 600.203125 Z M 83.386719 559.835938 L 103.117188 559.835938 L 103.117188 579.539062 L 83.386719 579.539062 Z M 83.386719 539.191406 L 103.117188 539.191406 L 103.117188 558.914062 L 83.386719 558.914062 Z M 83.386719 518.546875 L 103.117188 518.546875 L 103.117188 538.273438 L 83.386719 538.273438 Z M 226.980469 538.273438 L 207.253906 538.273438 L 207.253906 518.527344 L 226.980469 518.527344 Z M 226.980469 558.914062 L 207.253906 558.914062 L 207.253906 539.175781 L 226.980469 539.175781 Z M 226.980469 579.558594 L 207.253906 579.558594 L 207.253906 559.816406 L 226.980469 559.816406 Z M 226.980469 600.203125 L 207.253906 600.203125 L 207.253906 580.460938 L 226.980469 580.460938 Z M 226.980469 620.847656 L 207.253906 620.847656 L 207.253906 601.109375 L 226.980469 601.109375 Z M 226.980469 641.492188 L 207.253906 641.492188 L 207.253906 621.75 L 226.980469 621.75 Z M 226.980469 662.136719 L 207.253906 662.136719 L 207.253906 642.394531 L 226.980469 642.394531 Z M 226.980469 682.78125 L 207.253906 682.78125 L 207.253906 663.039062 L 226.980469 663.039062 Z M 226.980469 703.421875 L 207.253906 703.421875 L 207.253906 683.683594 L 226.980469 683.683594 Z M 226.980469 724.070312 L 207.253906 724.070312 L 207.253906 704.34375 L 226.980469 704.34375 Z M 226.980469 744.714844 L 207.253906 744.714844 L 207.253906 724.972656 L 226.980469 724.972656 Z M 226.980469 765.355469 L 207.253906 765.355469 L 207.253906 745.617188 L 226.980469 745.617188 Z M 226.980469 786 L 207.253906 786 L 207.253906 766.257812 L 226.980469 766.257812 Z M 226.980469 806.644531 L 207.253906 806.644531 L 207.253906 786.902344 L 226.980469 786.902344 Z M 104.023438 786.902344 L 123.742188 786.902344 L 123.742188 806.628906 L 104.023438 806.628906 Z M 104.023438 766.257812 L 123.742188 766.257812 L 123.742188 785.980469 L 104.023438 785.980469 Z M 104.023438 745.617188 L 123.742188 745.617188 L 123.742188 765.335938 L 104.023438 765.335938 Z M 104.023438 724.972656 L 123.742188 724.972656 L 123.742188 744.695312 L 104.023438 744.695312 Z M 104.023438 704.324219 L 123.742188 704.324219 L 123.742188 724.046875 L 104.023438 724.046875 Z M 104.023438 683.683594 L 123.742188 683.683594 L 123.742188 703.40625 L 104.023438 703.40625 Z M 104.023438 663.039062 L 123.742188 663.039062 L 123.742188 682.761719 L 104.023438 682.761719 Z M 104.023438 642.394531 L 123.742188 642.394531 L 123.742188 662.117188 L 104.023438 662.117188 Z M 104.023438 621.75 L 123.742188 621.75 L 123.742188 641.472656 L 104.023438 641.472656 Z M 104.023438 601.105469 L 123.742188 601.105469 L 123.742188 620.832031 L 104.023438 620.832031 Z M 104.023438 580.460938 L 123.742188 580.460938 L 123.742188 600.1875 L 104.023438 600.1875 Z M 104.023438 559.816406 L 123.742188 559.816406 L 123.742188 579.539062 L 104.023438 579.539062 Z M 104.023438 539.175781 L 123.742188 539.175781 L 123.742188 558.894531 L 104.023438 558.894531 Z M 206.347656 558.894531 L 186.609375 558.894531 L 186.609375 539.175781 L 206.347656 539.175781 Z M 206.347656 579.539062 L 186.609375 579.539062 L 186.609375 559.816406 L 206.347656 559.816406 Z M 206.347656 600.1875 L 186.609375 600.1875 L 186.609375 580.460938 L 206.347656 580.460938 Z M 206.347656 620.832031 L 186.609375 620.832031 L 186.609375 601.109375 L 206.347656 601.109375 Z M 206.347656 641.472656 L 186.609375 641.472656 L 186.609375 621.75 L 206.347656 621.75 Z M 206.347656 662.117188 L 186.609375 662.117188 L 186.609375 642.394531 L 206.347656 642.394531 Z M 206.347656 682.761719 L 186.609375 682.761719 L 186.609375 663.039062 L 206.347656 663.039062 Z M 206.347656 703.40625 L 186.609375 703.40625 L 186.609375 683.683594 L 206.347656 683.683594 Z M 206.347656 724.054688 L 186.609375 724.054688 L 186.609375 704.324219 L 206.347656 704.324219 Z M 206.347656 744.695312 L 186.609375 744.695312 L 186.609375 724.972656 L 206.347656 724.972656 Z M 206.347656 765.335938 L 186.609375 765.335938 L 186.609375 745.617188 L 206.347656 745.617188 Z M 206.347656 785.980469 L 186.609375 785.980469 L 186.609375 766.257812 L 206.347656 766.257812 Z M 124.679688 766.257812 L 144.398438 766.257812 L 144.398438 785.980469 L 124.679688 785.980469 Z M 124.679688 745.617188 L 144.398438 745.617188 L 144.398438 765.335938 L 124.679688 765.335938 Z M 124.679688 724.972656 L 144.398438 724.972656 L 144.398438 744.695312 L 124.679688 744.695312 Z M 124.679688 704.324219 L 144.398438 704.324219 L 144.398438 724.046875 L 124.679688 724.046875 Z M 124.679688 683.683594 L 144.398438 683.683594 L 144.398438 703.40625 L 124.679688 703.40625 Z M 124.679688 663.039062 L 144.398438 663.039062 L 144.398438 682.761719 L 124.679688 682.761719 Z M 124.679688 642.394531 L 144.398438 642.394531 L 144.398438 662.117188 L 124.679688 662.117188 Z M 124.679688 621.75 L 144.398438 621.75 L 144.398438 641.472656 L 124.679688 641.472656 Z M 124.679688 601.105469 L 144.398438 601.105469 L 144.398438 620.832031 L 124.679688 620.832031 Z M 124.679688 580.460938 L 144.398438 580.460938 L 144.398438 600.1875 L 124.679688 600.1875 Z M 124.679688 559.816406 L 144.398438 559.816406 L 144.398438 579.539062 L 124.679688 579.539062 Z M 185.691406 579.539062 L 165.96875 579.539062 L 165.96875 559.816406 L 185.691406 559.816406 Z M 185.691406 600.1875 L 165.96875 600.1875 L 165.96875 580.460938 L 185.691406 580.460938 Z M 185.691406 620.832031 L 165.96875 620.832031 L 165.96875 601.109375 L 185.691406 601.109375 Z M 185.691406 641.472656 L 165.96875 641.472656 L 165.96875 621.75 L 185.691406 621.75 Z M 185.691406 662.117188 L 165.96875 662.117188 L 165.96875 642.394531 L 185.691406 642.394531 Z M 185.691406 682.761719 L 165.96875 682.761719 L 165.96875 663.039062 L 185.691406 663.039062 Z M 185.691406 703.40625 L 165.96875 703.40625 L 165.96875 683.683594 L 185.691406 683.683594 Z M 185.691406 724.054688 L 165.96875 724.054688 L 165.96875 704.324219 L 185.691406 704.324219 Z M 185.691406 744.695312 L 165.96875 744.695312 L 165.96875 724.972656 L 185.691406 724.972656 Z M 185.691406 765.335938 L 165.96875 765.335938 L 165.96875 745.617188 L 185.691406 745.617188 Z M 145.320312 745.617188 L 165.046875 745.617188 L 165.046875 765.335938 L 145.320312 765.335938 Z M 145.320312 724.972656 L 165.046875 724.972656 L 165.046875 744.695312 L 145.320312 744.695312 Z M 145.320312 704.324219 L 165.046875 704.324219 L 165.046875 724.046875 L 145.320312 724.046875 Z M 145.320312 683.683594 L 165.046875 683.683594 L 165.046875 703.40625 L 145.320312 703.40625 Z M 145.320312 663.039062 L 165.046875 663.039062 L 165.046875 682.761719 L 145.320312 682.761719 Z M 145.320312 642.394531 L 165.046875 642.394531 L 165.046875 662.117188 L 145.320312 662.117188 Z M 145.320312 621.75 L 165.046875 621.75 L 165.046875 641.472656 L 145.320312 641.472656 Z M 145.320312 601.105469 L 165.046875 601.105469 L 165.046875 620.832031 L 145.320312 620.832031 Z M 145.320312 580.460938 L 165.046875 580.460938 L 165.046875 600.1875 L 145.320312 600.1875 Z M 165.046875 579.539062 L 145.320312 579.539062 L 145.320312 559.816406 L 165.046875 559.816406 Z M 145.320312 766.257812 L 165.046875 766.257812 L 165.046875 785.980469 L 145.320312 785.980469 Z M 165.96875 766.257812 L 185.691406 766.257812 L 185.691406 785.980469 L 165.96875 785.980469 Z M 185.691406 558.894531 L 165.96875 558.894531 L 165.96875 539.175781 L 185.691406 539.175781 Z M 165.046875 558.894531 L 145.320312 558.894531 L 145.320312 539.175781 L 165.046875 539.175781 Z M 144.398438 558.894531 L 124.679688 558.894531 L 124.679688 539.175781 L 144.398438 539.175781 Z M 124.679688 786.902344 L 144.398438 786.902344 L 144.398438 806.628906 L 124.679688 806.628906 Z M 145.320312 786.902344 L 165.046875 786.902344 L 165.046875 806.628906 L 145.320312 806.628906 Z M 165.96875 786.902344 L 185.691406 786.902344 L 185.691406 806.628906 L 165.96875 806.628906 Z M 186.609375 786.902344 L 206.347656 786.902344 L 206.347656 806.628906 L 186.609375 806.628906 Z M 206.347656 538.253906 L 186.609375 538.253906 L 186.609375 518.527344 L 206.347656 518.527344 Z M 185.703125 538.253906 L 165.96875 538.253906 L 165.96875 518.527344 L 185.691406 518.527344 Z M 165.0625 538.253906 L 145.320312 538.253906 L 145.320312 518.527344 L 165.046875 518.527344 Z M 144.414062 538.253906 L 124.679688 538.253906 L 124.679688 518.527344 L 144.398438 518.527344 Z M 123.773438 538.253906 L 104.023438 538.253906 L 104.023438 518.527344 L 123.742188 518.527344 Z M 104.023438 807.546875 L 123.742188 807.546875 L 123.742188 827.273438 L 104.023438 827.273438 Z M 124.664062 807.546875 L 144.398438 807.546875 L 144.398438 827.273438 L 124.679688 827.273438 Z M 145.304688 807.546875 L 165.035156 807.546875 L 165.035156 827.273438 L 145.320312 827.273438 Z M 165.953125 807.546875 L 185.675781 807.546875 L 185.675781 827.273438 L 165.96875 827.273438 Z M 186.597656 807.546875 L 206.347656 807.546875 L 206.347656 827.273438 L 186.609375 827.273438 Z M 207.238281 807.546875 L 226.964844 807.546875 L 226.964844 827.273438 L 207.238281 827.273438 Z M 226.964844 517.609375 L 207.238281 517.609375 L 207.238281 497.882812 L 226.964844 497.882812 Z M 206.316406 517.609375 L 186.609375 517.609375 L 186.609375 497.882812 L 206.347656 497.882812 Z M 185.675781 517.609375 L 165.96875 517.609375 L 165.96875 497.882812 L 185.691406 497.882812 Z M 165.035156 517.609375 L 145.320312 517.609375 L 145.320312 497.882812 L 165.046875 497.882812 Z M 144.386719 517.609375 L 124.679688 517.609375 L 124.679688 497.882812 L 144.398438 497.882812 Z M 123.742188 517.609375 L 104.023438 517.609375 L 104.023438 497.882812 L 123.742188 497.882812 Z M 103.101562 517.609375 L 83.375 517.609375 L 83.375 497.882812 L 103.101562 497.882812 Z M 83.386719 828.210938 L 103.117188 828.210938 L 103.117188 847.933594 L 83.386719 847.933594 Z M 104.035156 828.210938 L 123.757812 828.210938 L 123.757812 847.933594 L 104.023438 847.933594 Z M 124.679688 828.210938 L 144.398438 828.210938 L 144.398438 847.933594 L 124.679688 847.933594 Z M 145.320312 828.210938 L 165.046875 828.210938 L 165.046875 847.933594 L 145.320312 847.933594 Z M 165.96875 828.210938 L 185.691406 828.210938 L 185.691406 847.933594 L 165.96875 847.933594 Z M 186.609375 828.210938 L 206.347656 828.210938 L 206.347656 847.933594 L 186.609375 847.933594 Z M 207.253906 828.210938 L 226.980469 828.210938 L 226.980469 847.933594 L 207.253906 847.933594 Z M 227.902344 828.210938 L 247.621094 828.210938 L 247.621094 847.933594 L 227.902344 847.933594 Z M 247.621094 496.980469 L 227.902344 496.980469 L 227.902344 477.242188 L 247.621094 477.242188 Z M 226.980469 496.980469 L 207.253906 496.980469 L 207.253906 477.242188 L 226.980469 477.242188 Z M 206.332031 496.980469 L 186.609375 496.980469 L 186.609375 477.242188 L 206.347656 477.242188 Z M 185.691406 496.980469 L 165.96875 496.980469 L 165.96875 477.242188 L 185.691406 477.242188 Z M 165.046875 496.980469 L 145.320312 496.980469 L 145.320312 477.242188 L 165.046875 477.242188 Z M 144.398438 496.980469 L 124.679688 496.980469 L 124.679688 477.242188 L 144.398438 477.242188 Z M 123.757812 496.980469 L 104.023438 496.980469 L 104.023438 477.242188 L 123.742188 477.242188 Z M 103.117188 496.980469 L 83.386719 496.980469 L 83.386719 477.242188 L 103.117188 477.242188 Z M 82.46875 496.980469 L 62.746094 496.980469 L 62.746094 477.242188 L 82.46875 477.242188 Z M 62.746094 868.558594 L 62.746094 848.824219 L 82.46875 848.824219 L 82.46875 868.546875 Z M 83.386719 868.558594 L 83.386719 848.824219 L 103.117188 848.824219 L 103.117188 868.546875 Z M 104.035156 868.558594 L 104.035156 848.824219 L 123.757812 848.824219 L 123.757812 868.546875 Z M 124.679688 868.558594 L 124.679688 848.824219 L 144.398438 848.824219 L 144.398438 868.546875 Z M 145.320312 868.558594 L 145.320312 848.824219 L 165.050781 848.824219 L 165.050781 868.546875 Z M 165.96875 868.558594 L 165.96875 848.824219 L 185.691406 848.824219 L 185.691406 868.546875 Z M 186.609375 868.558594 L 186.609375 848.824219 L 206.347656 848.824219 L 206.347656 868.546875 Z M 207.253906 868.558594 L 207.253906 848.824219 L 226.980469 848.824219 L 226.980469 868.546875 Z M 227.902344 868.558594 L 227.902344 848.824219 L 247.621094 848.824219 L 247.621094 868.546875 Z M 248.542969 868.558594 L 248.542969 848.824219 L 268.269531 848.824219 L 268.269531 868.546875 Z M 288.910156 868.558594 L 269.1875 868.558594 L 269.1875 848.824219 L 288.910156 848.824219 Z M 288.910156 847.914062 L 269.1875 847.914062 L 269.1875 828.210938 L 288.910156 828.210938 Z M 288.910156 827.273438 L 269.1875 827.273438 L 269.1875 807.546875 L 288.910156 807.546875 Z M 288.910156 806.628906 L 269.1875 806.628906 L 269.1875 786.902344 L 288.910156 786.902344 Z M 288.910156 785.980469 L 269.1875 785.980469 L 269.1875 766.257812 L 288.910156 766.257812 Z M 288.910156 765.335938 L 269.1875 765.335938 L 269.1875 745.617188 L 288.910156 745.617188 Z M 288.910156 744.695312 L 269.1875 744.695312 L 269.1875 724.972656 L 288.910156 724.972656 Z M 288.910156 724.054688 L 269.1875 724.054688 L 269.1875 704.324219 L 288.910156 704.324219 Z M 288.910156 703.40625 L 269.1875 703.40625 L 269.1875 683.683594 L 288.910156 683.683594 Z M 288.910156 682.761719 L 269.1875 682.761719 L 269.1875 663.039062 L 288.910156 663.039062 Z M 288.910156 662.117188 L 269.1875 662.117188 L 269.1875 642.394531 L 288.910156 642.394531 Z M 288.910156 641.472656 L 269.1875 641.472656 L 269.1875 621.75 L 288.910156 621.75 Z M 288.910156 620.832031 L 269.1875 620.832031 L 269.1875 601.109375 L 288.910156 601.109375 Z M 288.910156 600.1875 L 269.1875 600.1875 L 269.1875 580.460938 L 288.910156 580.460938 Z M 288.910156 579.539062 L 269.1875 579.539062 L 269.1875 559.816406 L 288.910156 559.816406 Z M 288.910156 558.894531 L 269.1875 558.894531 L 269.1875 539.175781 L 288.910156 539.175781 Z M 288.910156 538.253906 L 269.1875 538.253906 L 269.1875 518.527344 L 288.910156 518.527344 Z M 288.910156 517.609375 L 269.1875 517.609375 L 269.1875 497.882812 L 288.910156 497.882812 Z M 288.910156 496.964844 L 269.1875 496.964844 L 269.1875 477.242188 L 288.910156 477.242188 Z M 288.910156 456.597656 L 288.910156 476.332031 L 269.1875 476.332031 L 269.1875 456.597656 Z M 268.269531 456.597656 L 268.269531 476.332031 L 248.542969 476.332031 L 248.542969 456.597656 Z M 247.621094 456.597656 L 247.621094 476.332031 L 227.902344 476.332031 L 227.902344 456.597656 Z M 226.980469 456.597656 L 226.980469 476.332031 L 207.253906 476.332031 L 207.253906 456.597656 Z M 206.332031 456.597656 L 206.332031 476.332031 L 186.609375 476.332031 L 186.609375 456.597656 Z M 185.691406 456.597656 L 185.691406 476.332031 L 165.96875 476.332031 L 165.96875 456.597656 Z M 165.050781 456.597656 L 165.050781 476.332031 L 145.320312 476.332031 L 145.320312 456.597656 Z M 144.398438 456.597656 L 144.398438 476.332031 L 124.679688 476.332031 L 124.679688 456.597656 Z M 123.757812 456.597656 L 123.757812 476.332031 L 104.023438 476.332031 L 104.023438 456.597656 Z M 103.117188 456.597656 L 103.117188 476.332031 L 83.386719 476.332031 L 83.386719 456.597656 Z M 82.46875 456.597656 L 82.46875 476.332031 L 62.746094 476.332031 L 62.746094 456.597656 Z M 61.828125 456.597656 L 61.828125 476.332031 L 42.101562 476.332031 L 42.101562 456.597656 Z M 21.460938 456.597656 L 41.179688 456.597656 L 41.179688 476.332031 L 21.460938 476.332031 Z M 21.460938 477.242188 L 41.179688 477.242188 L 41.179688 496.964844 L 21.460938 496.964844 Z M 21.460938 497.882812 L 41.179688 497.882812 L 41.179688 517.609375 L 21.460938 517.609375 Z M 21.460938 518.527344 L 41.179688 518.527344 L 41.179688 538.253906 L 21.460938 538.253906 Z M 21.460938 539.175781 L 41.179688 539.175781 L 41.179688 558.894531 L 21.460938 558.894531 Z M 21.460938 559.816406 L 41.179688 559.816406 L 41.179688 579.539062 L 21.460938 579.539062 Z M 21.460938 580.460938 L 41.179688 580.460938 L 41.179688 600.1875 L 21.460938 600.1875 Z M 21.460938 601.105469 L 41.179688 601.105469 L 41.179688 620.832031 L 21.460938 620.832031 Z M 21.460938 621.75 L 41.179688 621.75 L 41.179688 641.472656 L 21.460938 641.472656 Z M 21.460938 642.394531 L 41.179688 642.394531 L 41.179688 662.117188 L 21.460938 662.117188 Z M 21.460938 663.039062 L 41.179688 663.039062 L 41.179688 682.761719 L 21.460938 682.761719 Z M 21.460938 683.683594 L 41.179688 683.683594 L 41.179688 703.40625 L 21.460938 703.40625 Z M 21.460938 704.324219 L 41.179688 704.324219 L 41.179688 724.046875 L 21.460938 724.046875 Z M 21.460938 724.972656 L 41.179688 724.972656 L 41.179688 744.695312 L 21.460938 744.695312 Z M 21.460938 745.617188 L 41.179688 745.617188 L 41.179688 765.335938 L 21.460938 765.335938 Z M 21.460938 766.257812 L 41.179688 766.257812 L 41.179688 785.980469 L 21.460938 785.980469 Z M 21.460938 786.902344 L 41.179688 786.902344 L 41.179688 806.628906 L 21.460938 806.628906 Z M 21.460938 807.546875 L 41.179688 807.546875 L 41.179688 827.273438 L 21.460938 827.273438 Z M 21.460938 828.191406 L 41.179688 828.191406 L 41.179688 847.914062 L 21.460938 847.914062 Z M 21.460938 848.835938 L 41.179688 848.835938 L 41.179688 868.558594 L 21.460938 868.558594 Z M 21.460938 848.835938 " fill-opacity="1" fill-rule="nonzero"/></g></svg>