<svg xmlns="http://www.w3.org/2000/svg" xmlns:xlink="http://www.w3.org/1999/xlink" width="500" zoomAndPan="magnify" viewBox="0 0 375 374.999991" height="500" preserveAspectRatio="xMidYMid meet" version="1.0"><defs><clipPath id="29f1373336"><path d="M 0 14.378906 L 375 14.378906 L 375 347.378906 L 0 347.378906 Z M 0 14.378906 " clip-rule="nonzero"/></clipPath></defs><g clip-path="url(#29f1373336)"><path fill="#ffffff" d="M 334.738281 14.378906 L 147.726562 150.527344 C 134.339844 144.027344 119.042969 140.582031 103.363281 140.582031 C 46.382812 140.582031 0.105469 186.859375 0.105469 243.839844 C 0.105469 300.824219 46.382812 347.097656 103.363281 347.097656 C 160.347656 347.097656 206.621094 300.824219 206.621094 243.839844 C 206.621094 240.78125 206.621094 238.105469 206.238281 235.046875 L 231.480469 217.070312 L 221.917969 199.859375 L 241.039062 186.476562 L 237.214844 163.53125 L 252.515625 152.058594 L 283.109375 165.441406 L 294.582031 155.882812 L 290.757812 131.023438 L 306.054688 119.550781 L 321.351562 127.199219 L 330.914062 121.460938 L 329 104.253906 L 340.472656 94.691406 L 363.421875 106.164062 L 374.894531 98.515625 L 367.246094 33.503906 L 195.148438 157.792969 L 187.5 144.40625 L 361.507812 18.203125 Z M 103.363281 155.882812 C 151.933594 155.882812 191.324219 195.273438 191.324219 243.839844 C 191.324219 292.410156 151.933594 331.800781 103.363281 331.800781 C 54.796875 331.800781 15.402344 292.410156 15.402344 243.839844 C 15.402344 195.273438 54.796875 155.882812 103.363281 155.882812 Z M 101.453125 167.355469 C 58.238281 167.355469 23.054688 202.539062 23.054688 245.753906 C 23.054688 288.96875 58.238281 324.152344 101.453125 324.152344 C 144.667969 324.152344 179.851562 288.96875 179.851562 245.753906 C 179.851562 202.539062 144.667969 167.355469 101.453125 167.355469 Z M 80.417969 228.542969 C 97.246094 228.542969 111.011719 242.3125 111.011719 259.140625 C 111.011719 275.964844 97.246094 289.734375 80.417969 289.734375 C 63.589844 289.734375 49.824219 275.964844 49.824219 259.140625 C 49.824219 242.3125 63.589844 228.542969 80.417969 228.542969 Z M 80.417969 228.542969 " fill-opacity="1" fill-rule="nonzero"/></g></svg>