<svg xmlns="http://www.w3.org/2000/svg" xmlns:xlink="http://www.w3.org/1999/xlink" width="500" zoomAndPan="magnify" viewBox="0 0 375 374.999991" height="500" preserveAspectRatio="xMidYMid meet" version="1.0"><defs><clipPath id="d193c03211"><path d="M 24.84375 69 L 111 69 L 111 168 L 24.84375 168 Z M 24.84375 69 " clip-rule="nonzero"/></clipPath><clipPath id="d09c2ad8d6"><path d="M 264 69 L 350.34375 69 L 350.34375 168 L 264 168 Z M 264 69 " clip-rule="nonzero"/></clipPath><clipPath id="56abcf8b90"><path d="M 24.84375 207 L 111 207 L 111 306 L 24.84375 306 Z M 24.84375 207 " clip-rule="nonzero"/></clipPath><clipPath id="d568dc0b39"><path d="M 264 207 L 350.34375 207 L 350.34375 306 L 264 306 Z M 264 207 " clip-rule="nonzero"/></clipPath></defs><path fill="#ffffff" d="M 147.542969 213.507812 C 145.953125 213.507812 144.660156 212.214844 144.660156 210.625 L 144.660156 164.496094 C 144.660156 163.46875 145.207031 162.515625 146.101562 162.003906 L 186.046875 138.945312 C 186.9375 138.425781 188.035156 138.425781 188.925781 138.945312 L 228.871094 162.003906 C 230.25 162.800781 230.722656 164.5625 229.925781 165.9375 C 229.132812 167.320312 227.367188 167.792969 225.988281 166.996094 L 187.484375 144.769531 L 150.425781 166.164062 L 150.425781 210.625 C 150.425781 212.214844 149.132812 213.507812 147.542969 213.507812 Z M 147.542969 213.507812 " fill-opacity="1" fill-rule="evenodd"/><path fill="#ffffff" d="M 67.660156 213.507812 C 66.066406 213.507812 64.777344 212.214844 64.777344 210.625 L 64.777344 164.496094 C 64.777344 163.46875 65.324219 162.515625 66.21875 162.003906 L 106.160156 138.945312 C 107.054688 138.425781 108.148438 138.425781 109.042969 138.945312 L 148.984375 162.003906 C 150.367188 162.800781 150.839844 164.5625 150.042969 165.9375 C 149.242188 167.320312 147.484375 167.792969 146.101562 166.996094 L 107.601562 144.769531 L 70.542969 166.164062 L 70.542969 210.625 C 70.542969 212.214844 69.25 213.507812 67.660156 213.507812 Z M 67.660156 213.507812 " fill-opacity="1" fill-rule="evenodd"/><path fill="#ffffff" d="M 147.542969 305.75 C 147.046875 305.75 146.550781 305.628906 146.101562 305.367188 L 106.160156 282.304688 C 105.265625 281.789062 104.71875 280.835938 104.71875 279.804688 L 104.71875 233.6875 C 104.71875 232.65625 105.265625 231.703125 106.160156 231.1875 L 146.101562 208.125 C 146.996094 207.609375 148.089844 207.609375 148.984375 208.125 L 188.929688 231.1875 C 190.308594 231.980469 190.78125 233.746094 189.984375 235.128906 C 189.191406 236.5 187.425781 236.972656 186.042969 236.179688 L 147.542969 213.953125 L 110.484375 235.34375 L 110.484375 278.140625 L 148.984375 300.375 C 150.367188 301.167969 150.839844 302.925781 150.042969 304.308594 C 149.503906 305.230469 148.535156 305.75 147.542969 305.75 Z M 147.542969 305.75 " fill-opacity="1" fill-rule="evenodd"/><path fill="#ffffff" d="M 187.484375 282.6875 C 185.894531 282.6875 184.601562 281.398438 184.601562 279.804688 L 184.605469 233.683594 C 184.605469 232.65625 185.152344 231.703125 186.042969 231.1875 L 225.988281 208.125 C 226.882812 207.609375 227.984375 207.609375 228.867188 208.125 L 268.8125 231.1875 C 270.191406 231.980469 270.664062 233.746094 269.871094 235.125 C 269.074219 236.5 267.308594 236.972656 265.929688 236.175781 L 227.429688 213.949219 L 190.367188 235.34375 L 190.367188 279.804688 C 190.367188 281.394531 189.078125 282.6875 187.484375 282.6875 Z M 227.4375 305.746094 C 226.4375 305.746094 225.46875 305.230469 224.9375 304.308594 C 224.140625 302.925781 224.613281 301.167969 225.988281 300.375 L 265.929688 277.304688 C 267.3125 276.511719 269.074219 276.984375 269.871094 278.363281 C 270.664062 279.746094 270.191406 281.503906 268.8125 282.304688 L 228.871094 305.363281 C 228.417969 305.628906 227.921875 305.75 227.4375 305.746094 Z M 227.4375 305.746094 " fill-opacity="1" fill-rule="evenodd"/><path fill="#ffffff" d="M 307.320312 213.507812 C 305.722656 213.507812 304.4375 212.214844 304.4375 210.625 L 304.4375 166.164062 L 267.371094 144.769531 L 230.3125 166.164062 L 230.3125 210.625 C 230.3125 212.214844 229.019531 213.507812 227.429688 213.507812 C 225.835938 213.507812 224.546875 212.214844 224.546875 210.625 L 224.546875 164.496094 C 224.546875 163.46875 225.09375 162.515625 225.988281 162.003906 L 265.929688 138.945312 C 266.824219 138.425781 267.925781 138.425781 268.8125 138.945312 L 308.761719 162.003906 C 309.648438 162.515625 310.203125 163.46875 310.203125 164.496094 L 310.203125 210.625 C 310.203125 212.214844 308.910156 213.507812 307.320312 213.507812 Z M 307.320312 213.507812 " fill-opacity="1" fill-rule="evenodd"/><path fill="#ffffff" d="M 187.484375 144.320312 C 185.894531 144.320312 184.601562 143.027344 184.601562 141.4375 L 184.605469 95.316406 C 184.605469 94.289062 185.152344 93.335938 186.042969 92.816406 L 225.988281 69.757812 C 226.882812 69.246094 227.984375 69.246094 228.867188 69.757812 L 268.8125 92.816406 C 270.191406 93.613281 270.664062 95.378906 269.871094 96.757812 C 269.074219 98.132812 267.308594 98.605469 265.929688 97.808594 L 227.429688 75.582031 L 190.367188 96.984375 L 190.367188 141.4375 C 190.367188 143.027344 189.078125 144.320312 187.484375 144.320312 Z M 187.484375 144.320312 " fill-opacity="1" fill-rule="evenodd"/><path fill="#ffffff" d="M 107.601562 144.320312 C 106.007812 144.320312 104.71875 143.027344 104.71875 141.4375 L 104.71875 95.316406 C 104.71875 94.289062 105.265625 93.335938 106.160156 92.816406 L 146.101562 69.757812 C 146.996094 69.246094 148.089844 69.246094 148.984375 69.757812 L 188.929688 92.816406 C 190.308594 93.613281 190.78125 95.378906 189.984375 96.757812 C 189.191406 98.132812 187.425781 98.605469 186.042969 97.808594 L 147.542969 75.582031 L 110.484375 96.984375 L 110.484375 141.4375 C 110.484375 143.027344 109.191406 144.320312 107.601562 144.320312 Z M 107.601562 144.320312 " fill-opacity="1" fill-rule="evenodd"/><path fill="#ffffff" d="M 227.429688 75.140625 C 225.835938 75.140625 224.546875 73.847656 224.546875 72.257812 L 224.546875 27.796875 L 187.484375 6.402344 L 150.425781 27.796875 L 150.425781 72.257812 C 150.425781 73.847656 149.136719 75.140625 147.542969 75.140625 C 145.953125 75.140625 144.660156 73.847656 144.660156 72.257812 L 144.664062 26.128906 C 144.664062 25.101562 145.210938 24.148438 146.101562 23.636719 L 186.046875 0.578125 C 186.9375 0.0585938 188.035156 0.0585938 188.925781 0.578125 L 228.871094 23.636719 C 229.761719 24.148438 230.3125 25.101562 230.3125 26.128906 L 230.3125 72.257812 C 230.3125 73.847656 229.019531 75.140625 227.429688 75.140625 Z M 227.429688 75.140625 " fill-opacity="1" fill-rule="evenodd"/><path fill="#ffffff" d="M 150.425781 347.328125 L 187.484375 368.722656 L 224.546875 347.328125 L 224.546875 304.53125 L 187.484375 283.132812 L 150.425781 304.53125 Z M 187.484375 374.9375 C 186.992188 374.9375 186.496094 374.800781 186.042969 374.546875 L 146.101562 351.488281 C 145.207031 350.96875 144.660156 350.023438 144.660156 348.988281 L 144.660156 302.867188 C 144.660156 301.839844 145.207031 300.886719 146.101562 300.375 L 186.042969 277.308594 C 186.9375 276.796875 188.035156 276.796875 188.925781 277.308594 L 228.871094 300.375 C 229.761719 300.882812 230.308594 301.839844 230.308594 302.867188 L 230.3125 348.984375 C 230.3125 350.023438 229.761719 350.96875 228.867188 351.484375 L 188.929688 374.546875 C 188.484375 374.800781 187.980469 374.9375 187.484375 374.9375 Z M 187.484375 374.9375 " fill-opacity="1" fill-rule="evenodd"/><g clip-path="url(#d193c03211)"><path fill="#ffffff" d="M 67.652344 167.378906 C 67.164062 167.378906 66.667969 167.261719 66.21875 166.996094 L 26.273438 143.9375 C 25.382812 143.417969 24.835938 142.464844 24.835938 141.4375 L 24.835938 95.316406 C 24.835938 94.289062 25.382812 93.335938 26.273438 92.816406 L 66.21875 69.757812 C 67.105469 69.246094 68.207031 69.246094 69.101562 69.757812 L 109.042969 92.816406 C 110.417969 93.613281 110.890625 95.378906 110.09375 96.757812 C 109.296875 98.132812 107.535156 98.605469 106.160156 97.808594 L 67.660156 75.582031 L 30.597656 96.984375 L 30.597656 139.769531 L 69.101562 162.003906 C 70.472656 162.800781 70.945312 164.566406 70.152344 165.9375 C 69.621094 166.863281 68.648438 167.378906 67.652344 167.378906 Z M 67.652344 167.378906 " fill-opacity="1" fill-rule="evenodd"/></g><g clip-path="url(#d09c2ad8d6)"><path fill="#ffffff" d="M 307.320312 167.378906 C 306.320312 167.378906 305.351562 166.863281 304.820312 165.9375 C 304.023438 164.566406 304.496094 162.800781 305.878906 162.003906 L 344.382812 139.769531 L 344.382812 96.984375 L 307.320312 75.582031 L 270.253906 96.984375 L 270.253906 141.4375 C 270.253906 143.027344 268.96875 144.320312 267.371094 144.320312 C 265.78125 144.320312 264.488281 143.027344 264.488281 141.4375 L 264.488281 95.316406 C 264.488281 94.289062 265.042969 93.335938 265.929688 92.816406 L 305.878906 69.757812 C 306.765625 69.246094 307.867188 69.246094 308.761719 69.757812 L 348.703125 92.816406 C 349.597656 93.335938 350.144531 94.289062 350.144531 95.316406 L 350.144531 141.4375 C 350.144531 142.464844 349.597656 143.417969 348.703125 143.9375 L 308.761719 166.996094 C 308.304688 167.257812 307.808594 167.378906 307.320312 167.378906 Z M 307.320312 167.378906 " fill-opacity="1" fill-rule="evenodd"/></g><g clip-path="url(#56abcf8b90)"><path fill="#ffffff" d="M 67.660156 305.75 C 67.164062 305.75 66.660156 305.621094 66.21875 305.367188 L 26.273438 282.304688 C 25.382812 281.789062 24.832031 280.835938 24.832031 279.804688 L 24.835938 233.6875 C 24.835938 232.65625 25.382812 231.703125 26.273438 231.1875 L 66.21875 208.125 C 67.109375 207.609375 68.207031 207.609375 69.101562 208.125 L 109.042969 231.1875 C 110.425781 231.980469 110.890625 233.746094 110.09375 235.128906 C 109.296875 236.5 107.535156 236.972656 106.160156 236.179688 L 67.660156 213.953125 L 30.597656 235.34375 L 30.597656 278.140625 L 67.660156 299.539062 L 106.160156 277.304688 C 107.535156 276.511719 109.296875 276.984375 110.09375 278.363281 C 110.890625 279.746094 110.421875 281.503906 109.042969 282.304688 L 69.101562 305.367188 C 68.648438 305.621094 68.152344 305.75 67.660156 305.75 Z M 67.660156 305.75 " fill-opacity="1" fill-rule="evenodd"/></g><g clip-path="url(#d568dc0b39)"><path fill="#ffffff" d="M 270.253906 278.140625 L 307.320312 299.539062 L 344.378906 278.140625 L 344.378906 235.34375 L 307.320312 213.953125 L 270.253906 235.34375 Z M 307.320312 305.75 C 306.816406 305.75 306.320312 305.621094 305.878906 305.367188 L 265.929688 282.304688 C 265.042969 281.789062 264.488281 280.835938 264.488281 279.804688 L 264.488281 233.6875 C 264.488281 232.65625 265.042969 231.703125 265.929688 231.1875 L 305.878906 208.125 C 306.765625 207.609375 307.867188 207.609375 308.761719 208.125 L 348.703125 231.1875 C 349.597656 231.703125 350.144531 232.65625 350.144531 233.6875 L 350.144531 279.804688 C 350.144531 280.835938 349.597656 281.789062 348.703125 282.304688 L 308.761719 305.367188 C 308.308594 305.621094 307.816406 305.75 307.320312 305.75 Z M 307.320312 305.75 " fill-opacity="1" fill-rule="evenodd"/></g></svg>