<svg xmlns="http://www.w3.org/2000/svg" xmlns:xlink="http://www.w3.org/1999/xlink" width="336" zoomAndPan="magnify" viewBox="0 0 252 143.999998" height="192" preserveAspectRatio="xMidYMid meet" version="1.0"><defs><g/><clipPath id="c9ff1a910f"><path d="M 16.476562 7.390625 L 240.722656 7.390625 L 240.722656 137.140625 L 16.476562 137.140625 Z M 16.476562 7.390625 " clip-rule="nonzero"/></clipPath><clipPath id="a0e30ce611"><path d="M 128.675781 7.390625 L 240.871094 72.417969 L 128.675781 137.445312 L 16.476562 72.417969 Z M 128.675781 7.390625 " clip-rule="nonzero"/></clipPath><clipPath id="e1fdbc7bc1"><path d="M 33.21875 17.097656 L 224.46875 17.097656 L 224.46875 128 L 33.21875 128 Z M 33.21875 17.097656 " clip-rule="nonzero"/></clipPath><clipPath id="4ddb418875"><path d="M 128.675781 17.097656 L 224.128906 72.421875 L 128.675781 127.746094 L 33.21875 72.421875 Z M 128.675781 17.097656 " clip-rule="nonzero"/></clipPath><clipPath id="3469c2cb3f"><path d="M 49.425781 26.488281 L 207.671875 26.488281 L 207.671875 117.988281 L 49.425781 117.988281 Z M 49.425781 26.488281 " clip-rule="nonzero"/></clipPath><clipPath id="dd6cae1aa2"><path d="M 128.671875 26.488281 L 207.917969 72.421875 L 128.671875 118.351562 L 49.425781 72.421875 Z M 128.671875 26.488281 " clip-rule="nonzero"/></clipPath><clipPath id="f77e84d8ab"><path d="M 64.609375 35.289062 L 192.855469 35.289062 L 192.855469 109.539062 L 64.609375 109.539062 Z M 64.609375 35.289062 " clip-rule="nonzero"/></clipPath><clipPath id="924eeb9740"><path d="M 128.671875 35.289062 L 192.738281 72.417969 L 128.671875 109.550781 L 64.609375 72.417969 Z M 128.671875 35.289062 " clip-rule="nonzero"/></clipPath><clipPath id="010f9bc942"><path d="M 78.40625 43.285156 L 178.902344 43.285156 L 178.902344 101.785156 L 78.40625 101.785156 Z M 78.40625 43.285156 " clip-rule="nonzero"/></clipPath><clipPath id="312d3f47cd"><path d="M 128.671875 43.285156 L 178.933594 72.417969 L 128.671875 101.550781 L 78.40625 72.417969 Z M 128.671875 43.285156 " clip-rule="nonzero"/></clipPath><clipPath id="22b0c2b6e4"><path d="M 93.332031 51.9375 L 163.832031 51.9375 L 163.832031 93 L 93.332031 93 Z M 93.332031 51.9375 " clip-rule="nonzero"/></clipPath><clipPath id="8a0eaa01fb"><path d="M 128.675781 51.9375 L 164.015625 72.421875 L 128.675781 92.90625 L 93.332031 72.421875 Z M 128.675781 51.9375 " clip-rule="nonzero"/></clipPath><clipPath id="cd6402d4aa"><path d="M 105.5625 59.027344 L 152 59.027344 L 152 86 L 105.5625 86 Z M 105.5625 59.027344 " clip-rule="nonzero"/></clipPath><clipPath id="2949a27fc8"><path d="M 128.671875 59.027344 L 151.78125 72.421875 L 128.671875 85.816406 L 105.5625 72.421875 Z M 128.671875 59.027344 " clip-rule="nonzero"/></clipPath><clipPath id="dead06172e"><path d="M 116.835938 65.5625 L 140.835938 65.5625 L 140.835938 79.0625 L 116.835938 79.0625 Z M 116.835938 65.5625 " clip-rule="nonzero"/></clipPath><clipPath id="57bc570349"><path d="M 128.671875 65.5625 L 140.507812 72.421875 L 128.671875 79.28125 L 116.835938 72.421875 Z M 128.671875 65.5625 " clip-rule="nonzero"/></clipPath><clipPath id="a8d8958d82"><path d="M 0 52.4375 L 252 52.4375 L 252 92.40625 L 0 92.40625 Z M 0 52.4375 " clip-rule="nonzero"/></clipPath></defs><g clip-path="url(#c9ff1a910f)"><g clip-path="url(#a0e30ce611)"><path stroke-linecap="butt" transform="matrix(0.75, 0, 0, 0.75, 16.477798, 7.391252)" fill="none" stroke-linejoin="miter" d="M 149.59732 -0.000836058 L 299.191079 86.702294 L 149.59732 173.405424 L -0.00164714 86.702294 Z M 149.59732 -0.000836058 " stroke="#c293ff" stroke-width="2" stroke-opacity="1" stroke-miterlimit="4"/></g></g><g clip-path="url(#e1fdbc7bc1)"><g clip-path="url(#4ddb418875)"><path stroke-linecap="butt" transform="matrix(0.75, 0, 0, 0.75, 33.21943, 17.097145)" fill="none" stroke-linejoin="miter" d="M 127.275134 0.000682319 L 254.545967 73.766307 L 127.275134 147.531932 L -0.000906756 73.766307 Z M 127.275134 0.000682319 " stroke="#af7eef" stroke-width="2" stroke-opacity="1" stroke-miterlimit="4"/></g></g><g clip-path="url(#3469c2cb3f)"><g clip-path="url(#dd6cae1aa2)"><path stroke-linecap="butt" transform="matrix(0.75, 0, 0, 0.75, 49.423835, 26.489781)" fill="none" stroke-linejoin="miter" d="M 105.664059 -0.00199913 L 211.330732 61.242796 L 105.664059 122.482383 L 0.00259464 61.242796 Z M 105.664059 -0.00199913 " stroke="#9f6edf" stroke-width="2" stroke-opacity="1" stroke-miterlimit="4"/></g></g><g clip-path="url(#f77e84d8ab)"><g clip-path="url(#924eeb9740)"><path stroke-linecap="butt" transform="matrix(0.75, 0, 0, 0.75, 64.607751, 35.288452)" fill="none" stroke-linejoin="miter" d="M 85.418837 0.000814004 L 170.840717 49.506025 L 85.418837 99.016445 L 0.0021651 49.506025 Z M 85.418837 0.000814004 " stroke="#8c60c6" stroke-width="2" stroke-opacity="1" stroke-miterlimit="4"/></g></g><g clip-path="url(#010f9bc942)"><g clip-path="url(#312d3f47cd)"><path stroke-linecap="butt" transform="matrix(0.75, 0, 0, 0.75, 78.405233, 43.284839)" fill="none" stroke-linejoin="miter" d="M 67.022194 0.000422407 L 134.037823 38.844175 L 67.022194 77.687927 L 0.00135632 38.844175 Z M 67.022194 0.000422407 " stroke="#794faf" stroke-width="2" stroke-opacity="1" stroke-miterlimit="4"/></g></g><g clip-path="url(#22b0c2b6e4)"><g clip-path="url(#8a0eaa01fb)"><path stroke-linecap="butt" transform="matrix(0.75, 0, 0, 0.75, 93.330765, 51.936676)" fill="none" stroke-linejoin="miter" d="M 47.126692 0.00109902 L 94.246486 27.313601 L 47.126692 54.626102 L 0.00168876 27.313601 Z M 47.126692 0.00109902 " stroke="#9f6edf" stroke-width="2" stroke-opacity="1" stroke-miterlimit="4"/></g></g><g clip-path="url(#cd6402d4aa)"><g clip-path="url(#2949a27fc8)"><path stroke-linecap="butt" transform="matrix(0.75, 0, 0, 0.75, 105.562438, 59.027005)" fill="none" stroke-linejoin="miter" d="M 30.812584 0.000451779 L 61.625086 17.859828 L 30.812584 35.719204 L 0.0000821915 17.859828 Z M 30.812584 0.000451779 " stroke="#8c60c6" stroke-width="2" stroke-opacity="1" stroke-miterlimit="4"/></g></g><g clip-path="url(#dead06172e)"><g clip-path="url(#57bc570349)"><path stroke-linecap="butt" transform="matrix(0.75, 0, 0, 0.75, 116.836752, 65.562171)" fill="none" stroke-linejoin="miter" d="M 15.780165 0.00043876 L 31.561416 9.146273 L 15.780165 18.292107 L -0.00108612 9.146273 Z M 15.780165 0.00043876 " stroke="#794faf" stroke-width="2" stroke-opacity="1" stroke-miterlimit="4"/></g></g><g clip-path="url(#a8d8958d82)"><path fill="#000000" d="M 0 52.4375 L 251.992188 52.4375 L 251.992188 92.40625 L 0 92.40625 Z M 0 52.4375 " fill-opacity="1" fill-rule="nonzero"/></g><g fill="#ffffff" fill-opacity="1"><g transform="translate(48.08268, 89.658564)"><g><path d="M 2 -35.09375 L 7.515625 -35.09375 L 7.515625 -5.015625 L 16.59375 -5.015625 L 16.59375 0 L 2 0 Z M 2 -35.09375 "/></g></g></g><g fill="#ffffff" fill-opacity="1"><g transform="translate(65.173839, 89.658564)"><g><path d="M 10.28125 -19.546875 L 18 -19.546875 L 18 -8.421875 C 18 -5.578125 17.300781 -3.394531 15.90625 -1.875 C 14.519531 -0.351562 12.476562 0.40625 9.78125 0.40625 C 7.070312 0.40625 5.019531 -0.351562 3.625 -1.875 C 2.238281 -3.394531 1.546875 -5.578125 1.546875 -8.421875 L 1.546875 -26.671875 C 1.546875 -29.503906 2.238281 -31.679688 3.625 -33.203125 C 5.019531 -34.722656 7.070312 -35.484375 9.78125 -35.484375 C 12.476562 -35.484375 14.519531 -34.722656 15.90625 -33.203125 C 17.300781 -31.679688 18 -29.503906 18 -26.671875 L 18 -23.265625 L 12.78125 -23.265625 L 12.78125 -27.015625 C 12.78125 -28.285156 12.519531 -29.175781 12 -29.6875 C 11.488281 -30.207031 10.796875 -30.46875 9.921875 -30.46875 C 9.054688 -30.46875 8.363281 -30.207031 7.84375 -29.6875 C 7.320312 -29.175781 7.0625 -28.285156 7.0625 -27.015625 L 7.0625 -8.0625 C 7.0625 -6.800781 7.320312 -5.914062 7.84375 -5.40625 C 8.363281 -4.90625 9.054688 -4.65625 9.921875 -4.65625 C 10.796875 -4.65625 11.488281 -4.90625 12 -5.40625 C 12.519531 -5.914062 12.78125 -6.800781 12.78125 -8.0625 L 12.78125 -14.53125 L 10.28125 -14.53125 Z M 10.28125 -19.546875 "/></g></g></g><g fill="#ffffff" fill-opacity="1"><g transform="translate(84.720911, 89.658564)"><g><path d="M 6.921875 -25.40625 L 6.921875 0 L 1.953125 0 L 1.953125 -35.09375 L 8.875 -35.09375 L 14.53125 -14.078125 L 14.53125 -35.09375 L 19.453125 -35.09375 L 19.453125 0 L 13.78125 0 Z M 6.921875 -25.40625 "/></g></g></g><g fill="#ffffff" fill-opacity="1"><g transform="translate(106.12245, 89.658564)"><g><path d="M 7.171875 -11.625 L 0.203125 -35.09375 L 5.96875 -35.09375 L 10.171875 -19.09375 L 14.390625 -35.09375 L 19.65625 -35.09375 L 12.6875 -11.625 L 12.6875 0 L 7.171875 0 Z M 7.171875 -11.625 "/></g></g></g><g fill="#ffffff" fill-opacity="1"><g transform="translate(128.675927, 69.826282)"><g><path d="M 4.625 -6.078125 L 3.96875 0 L 1.515625 0 L 0.25 -11.390625 L 1.984375 -11.390625 L 2.953125 -2.40625 L 3.8125 -11.390625 L 5.53125 -11.390625 L 6.4375 -2.34375 L 7.359375 -11.390625 L 8.921875 -11.390625 L 7.65625 0 L 5.28125 0 Z M 4.625 -6.078125 "/></g></g></g><g fill="#ffffff" fill-opacity="1"><g transform="translate(137.842682, 69.826282)"><g><path d="M 2.4375 -6.59375 L 4.90625 -6.59375 L 4.90625 -4.96875 L 2.4375 -4.96875 L 2.4375 -1.625 L 5.53125 -1.625 L 5.53125 0 L 0.65625 0 L 0.65625 -11.390625 L 5.53125 -11.390625 L 5.53125 -9.765625 L 2.4375 -9.765625 Z M 2.4375 -6.59375 "/></g></g></g><g fill="#ffffff" fill-opacity="1"><g transform="translate(143.834447, 69.826282)"><g><path d="M 3.359375 -11.390625 C 4.285156 -11.390625 4.957031 -11.171875 5.375 -10.734375 C 5.800781 -10.304688 6.015625 -9.65625 6.015625 -8.78125 L 6.015625 -8.375 C 6.015625 -7.78125 5.921875 -7.289062 5.734375 -6.90625 C 5.546875 -6.53125 5.253906 -6.253906 4.859375 -6.078125 C 5.335938 -5.890625 5.675781 -5.585938 5.875 -5.171875 C 6.082031 -4.753906 6.1875 -4.238281 6.1875 -3.625 L 6.1875 -2.703125 C 6.1875 -1.828125 5.957031 -1.15625 5.5 -0.6875 C 5.039062 -0.226562 4.363281 0 3.46875 0 L 0.65625 0 L 0.65625 -11.390625 Z M 2.4375 -5.125 L 2.4375 -1.625 L 3.46875 -1.625 C 3.769531 -1.625 4 -1.703125 4.15625 -1.859375 C 4.3125 -2.023438 4.390625 -2.320312 4.390625 -2.75 L 4.390625 -3.75 C 4.390625 -4.28125 4.300781 -4.640625 4.125 -4.828125 C 3.945312 -5.023438 3.648438 -5.125 3.234375 -5.125 Z M 2.4375 -9.765625 L 2.4375 -6.75 L 3.140625 -6.75 C 3.472656 -6.75 3.734375 -6.835938 3.921875 -7.015625 C 4.117188 -7.191406 4.21875 -7.507812 4.21875 -7.96875 L 4.21875 -8.59375 C 4.21875 -9.007812 4.144531 -9.304688 4 -9.484375 C 3.851562 -9.671875 3.625 -9.765625 3.3125 -9.765625 Z M 2.4375 -9.765625 "/></g></g></g><g fill="#ffffff" fill-opacity="1"><g transform="translate(150.444928, 69.826282)"><g><path d="M 0.421875 -8.65625 C 0.421875 -9.582031 0.640625 -10.289062 1.078125 -10.78125 C 1.515625 -11.28125 2.175781 -11.53125 3.0625 -11.53125 C 3.9375 -11.53125 4.59375 -11.28125 5.03125 -10.78125 C 5.476562 -10.289062 5.703125 -9.582031 5.703125 -8.65625 L 5.703125 -8.21875 L 4 -8.21875 L 4 -8.78125 C 4 -9.1875 3.921875 -9.472656 3.765625 -9.640625 C 3.609375 -9.816406 3.390625 -9.90625 3.109375 -9.90625 C 2.828125 -9.90625 2.609375 -9.816406 2.453125 -9.640625 C 2.296875 -9.472656 2.21875 -9.1875 2.21875 -8.78125 C 2.21875 -8.382812 2.300781 -8.035156 2.46875 -7.734375 C 2.644531 -7.441406 2.863281 -7.160156 3.125 -6.890625 C 3.382812 -6.628906 3.660156 -6.363281 3.953125 -6.09375 C 4.253906 -5.832031 4.535156 -5.539062 4.796875 -5.21875 C 5.054688 -4.90625 5.273438 -4.546875 5.453125 -4.140625 C 5.628906 -3.742188 5.71875 -3.273438 5.71875 -2.734375 C 5.71875 -1.804688 5.488281 -1.097656 5.03125 -0.609375 C 4.582031 -0.117188 3.921875 0.125 3.046875 0.125 C 2.160156 0.125 1.492188 -0.117188 1.046875 -0.609375 C 0.597656 -1.097656 0.375 -1.804688 0.375 -2.734375 L 0.375 -3.515625 L 2.0625 -3.515625 L 2.0625 -2.625 C 2.0625 -2.207031 2.144531 -1.914062 2.3125 -1.75 C 2.488281 -1.59375 2.71875 -1.515625 3 -1.515625 C 3.28125 -1.515625 3.503906 -1.59375 3.671875 -1.75 C 3.835938 -1.914062 3.921875 -2.207031 3.921875 -2.625 C 3.921875 -3.007812 3.832031 -3.351562 3.65625 -3.65625 C 3.488281 -3.957031 3.273438 -4.238281 3.015625 -4.5 C 2.753906 -4.769531 2.472656 -5.035156 2.171875 -5.296875 C 1.867188 -5.566406 1.585938 -5.859375 1.328125 -6.171875 C 1.066406 -6.484375 0.847656 -6.835938 0.671875 -7.234375 C 0.503906 -7.640625 0.421875 -8.113281 0.421875 -8.65625 Z M 0.421875 -8.65625 "/></g></g></g><g fill="#ffffff" fill-opacity="1"><g transform="translate(156.534388, 69.826282)"><g><path d="M 0.65625 -11.390625 L 2.4375 -11.390625 L 2.4375 0 L 0.65625 0 Z M 0.65625 -11.390625 "/></g></g></g><g fill="#ffffff" fill-opacity="1"><g transform="translate(159.627962, 69.826282)"><g><path d="M 0.15625 -11.390625 L 5.703125 -11.390625 L 5.703125 -9.765625 L 3.828125 -9.765625 L 3.828125 0 L 2.03125 0 L 2.03125 -9.765625 L 0.15625 -9.765625 Z M 0.15625 -11.390625 "/></g></g></g><g fill="#ffffff" fill-opacity="1"><g transform="translate(165.489474, 69.826282)"><g><path d="M 2.4375 -6.59375 L 4.90625 -6.59375 L 4.90625 -4.96875 L 2.4375 -4.96875 L 2.4375 -1.625 L 5.53125 -1.625 L 5.53125 0 L 0.65625 0 L 0.65625 -11.390625 L 5.53125 -11.390625 L 5.53125 -9.765625 L 2.4375 -9.765625 Z M 2.4375 -6.59375 "/></g></g></g><g fill="#ffffff" fill-opacity="1"><g transform="translate(171.48124, 69.826282)"><g/></g></g><g fill="#ffffff" fill-opacity="1"><g transform="translate(174.004944, 69.826282)"><g><path d="M 0.65625 -11.390625 L 3.484375 -11.390625 C 4.378906 -11.390625 5.046875 -11.148438 5.484375 -10.671875 C 5.929688 -10.203125 6.15625 -9.503906 6.15625 -8.578125 L 6.15625 -2.8125 C 6.15625 -1.894531 5.929688 -1.195312 5.484375 -0.71875 C 5.046875 -0.238281 4.378906 0 3.484375 0 L 0.65625 0 Z M 2.4375 -9.765625 L 2.4375 -1.625 L 3.453125 -1.625 C 3.734375 -1.625 3.953125 -1.703125 4.109375 -1.859375 C 4.273438 -2.023438 4.359375 -2.316406 4.359375 -2.734375 L 4.359375 -8.65625 C 4.359375 -9.070312 4.273438 -9.359375 4.109375 -9.515625 C 3.953125 -9.679688 3.734375 -9.765625 3.453125 -9.765625 Z M 2.4375 -9.765625 "/></g></g></g><g fill="#ffffff" fill-opacity="1"><g transform="translate(180.647989, 69.826282)"><g><path d="M 2.4375 -6.59375 L 4.90625 -6.59375 L 4.90625 -4.96875 L 2.4375 -4.96875 L 2.4375 -1.625 L 5.53125 -1.625 L 5.53125 0 L 0.65625 0 L 0.65625 -11.390625 L 5.53125 -11.390625 L 5.53125 -9.765625 L 2.4375 -9.765625 Z M 2.4375 -6.59375 "/></g></g></g><g fill="#ffffff" fill-opacity="1"><g transform="translate(186.639754, 69.826282)"><g><path d="M 0.421875 -8.65625 C 0.421875 -9.582031 0.640625 -10.289062 1.078125 -10.78125 C 1.515625 -11.28125 2.175781 -11.53125 3.0625 -11.53125 C 3.9375 -11.53125 4.59375 -11.28125 5.03125 -10.78125 C 5.476562 -10.289062 5.703125 -9.582031 5.703125 -8.65625 L 5.703125 -8.21875 L 4 -8.21875 L 4 -8.78125 C 4 -9.1875 3.921875 -9.472656 3.765625 -9.640625 C 3.609375 -9.816406 3.390625 -9.90625 3.109375 -9.90625 C 2.828125 -9.90625 2.609375 -9.816406 2.453125 -9.640625 C 2.296875 -9.472656 2.21875 -9.1875 2.21875 -8.78125 C 2.21875 -8.382812 2.300781 -8.035156 2.46875 -7.734375 C 2.644531 -7.441406 2.863281 -7.160156 3.125 -6.890625 C 3.382812 -6.628906 3.660156 -6.363281 3.953125 -6.09375 C 4.253906 -5.832031 4.535156 -5.539062 4.796875 -5.21875 C 5.054688 -4.90625 5.273438 -4.546875 5.453125 -4.140625 C 5.628906 -3.742188 5.71875 -3.273438 5.71875 -2.734375 C 5.71875 -1.804688 5.488281 -1.097656 5.03125 -0.609375 C 4.582031 -0.117188 3.921875 0.125 3.046875 0.125 C 2.160156 0.125 1.492188 -0.117188 1.046875 -0.609375 C 0.597656 -1.097656 0.375 -1.804688 0.375 -2.734375 L 0.375 -3.515625 L 2.0625 -3.515625 L 2.0625 -2.625 C 2.0625 -2.207031 2.144531 -1.914062 2.3125 -1.75 C 2.488281 -1.59375 2.71875 -1.515625 3 -1.515625 C 3.28125 -1.515625 3.503906 -1.59375 3.671875 -1.75 C 3.835938 -1.914062 3.921875 -2.207031 3.921875 -2.625 C 3.921875 -3.007812 3.832031 -3.351562 3.65625 -3.65625 C 3.488281 -3.957031 3.273438 -4.238281 3.015625 -4.5 C 2.753906 -4.769531 2.472656 -5.035156 2.171875 -5.296875 C 1.867188 -5.566406 1.585938 -5.859375 1.328125 -6.171875 C 1.066406 -6.484375 0.847656 -6.835938 0.671875 -7.234375 C 0.503906 -7.640625 0.421875 -8.113281 0.421875 -8.65625 Z M 0.421875 -8.65625 "/></g></g></g><g fill="#ffffff" fill-opacity="1"><g transform="translate(192.729214, 69.826282)"><g><path d="M 0.65625 -11.390625 L 2.4375 -11.390625 L 2.4375 0 L 0.65625 0 Z M 0.65625 -11.390625 "/></g></g></g><g fill="#ffffff" fill-opacity="1"><g transform="translate(195.822789, 69.826282)"><g><path d="M 3.34375 -6.34375 L 5.84375 -6.34375 L 5.84375 -2.734375 C 5.84375 -1.804688 5.617188 -1.097656 5.171875 -0.609375 C 4.722656 -0.117188 4.054688 0.125 3.171875 0.125 C 2.296875 0.125 1.628906 -0.117188 1.171875 -0.609375 C 0.722656 -1.097656 0.5 -1.804688 0.5 -2.734375 L 0.5 -8.65625 C 0.5 -9.582031 0.722656 -10.289062 1.171875 -10.78125 C 1.628906 -11.28125 2.296875 -11.53125 3.171875 -11.53125 C 4.054688 -11.53125 4.722656 -11.28125 5.171875 -10.78125 C 5.617188 -10.289062 5.84375 -9.582031 5.84375 -8.65625 L 5.84375 -7.546875 L 4.15625 -7.546875 L 4.15625 -8.78125 C 4.15625 -9.1875 4.066406 -9.472656 3.890625 -9.640625 C 3.722656 -9.816406 3.5 -9.90625 3.21875 -9.90625 C 2.9375 -9.90625 2.710938 -9.816406 2.546875 -9.640625 C 2.378906 -9.472656 2.296875 -9.1875 2.296875 -8.78125 L 2.296875 -2.625 C 2.296875 -2.207031 2.378906 -1.914062 2.546875 -1.75 C 2.710938 -1.59375 2.9375 -1.515625 3.21875 -1.515625 C 3.5 -1.515625 3.722656 -1.59375 3.890625 -1.75 C 4.066406 -1.914062 4.15625 -2.207031 4.15625 -2.625 L 4.15625 -4.71875 L 3.34375 -4.71875 Z M 3.34375 -6.34375 "/></g></g></g><g fill="#ffffff" fill-opacity="1"><g transform="translate(202.172762, 69.826282)"><g><path d="M 2.25 -8.25 L 2.25 0 L 0.640625 0 L 0.640625 -11.390625 L 2.875 -11.390625 L 4.71875 -4.578125 L 4.71875 -11.390625 L 6.3125 -11.390625 L 6.3125 0 L 4.484375 0 Z M 2.25 -8.25 "/></g></g></g><g fill="#ffffff" fill-opacity="1"><g transform="translate(128.675927, 86.633494)"><g><path d="M 0.671875 -3.625 C 0.671875 -4.21875 0.765625 -4.71875 0.953125 -5.125 C 1.140625 -5.53125 1.457031 -5.832031 1.90625 -6.03125 C 1.082031 -6.375 0.671875 -7.15625 0.671875 -8.375 L 0.671875 -8.578125 C 0.671875 -9.503906 0.890625 -10.203125 1.328125 -10.671875 C 1.765625 -11.148438 2.4375 -11.390625 3.34375 -11.390625 L 5.390625 -11.390625 L 5.390625 -9.765625 L 3.375 -9.765625 C 3.09375 -9.765625 2.867188 -9.679688 2.703125 -9.515625 C 2.535156 -9.359375 2.453125 -9.070312 2.453125 -8.65625 L 2.453125 -7.96875 C 2.453125 -7.507812 2.546875 -7.191406 2.734375 -7.015625 C 2.929688 -6.835938 3.195312 -6.75 3.53125 -6.75 L 4.3125 -6.75 L 4.3125 -8.03125 L 6.109375 -8.03125 L 6.109375 -6.75 L 6.578125 -6.75 L 6.578125 -5.125 L 6.109375 -5.125 L 6.109375 -1.390625 C 6.109375 -1.097656 6.117188 -0.847656 6.140625 -0.640625 C 6.160156 -0.429688 6.210938 -0.21875 6.296875 0 L 4.484375 0 C 4.429688 -0.113281 4.394531 -0.226562 4.375 -0.34375 C 4.351562 -0.457031 4.332031 -0.640625 4.3125 -0.890625 C 4 -0.210938 3.445312 0.125 2.65625 0.125 C 1.988281 0.125 1.488281 -0.09375 1.15625 -0.53125 C 0.832031 -0.976562 0.671875 -1.625 0.671875 -2.46875 Z M 2.453125 -2.625 C 2.453125 -2.207031 2.535156 -1.914062 2.703125 -1.75 C 2.878906 -1.582031 3.109375 -1.5 3.390625 -1.5 C 3.660156 -1.5 3.875 -1.570312 4.03125 -1.71875 C 4.195312 -1.875 4.289062 -2.128906 4.3125 -2.484375 L 4.3125 -5.125 L 3.625 -5.125 C 3.21875 -5.125 2.921875 -5.015625 2.734375 -4.796875 C 2.546875 -4.585938 2.453125 -4.210938 2.453125 -3.671875 Z M 2.453125 -2.625 "/></g></g></g><g fill="#ffffff" fill-opacity="1"><g transform="translate(135.416667, 86.633494)"><g/></g></g><g fill="#ffffff" fill-opacity="1"><g transform="translate(137.940371, 86.633494)"><g><path d="M 0.65625 -11.390625 L 3.484375 -11.390625 C 4.378906 -11.390625 5.046875 -11.148438 5.484375 -10.671875 C 5.929688 -10.203125 6.15625 -9.503906 6.15625 -8.578125 L 6.15625 -2.8125 C 6.15625 -1.894531 5.929688 -1.195312 5.484375 -0.71875 C 5.046875 -0.238281 4.378906 0 3.484375 0 L 0.65625 0 Z M 2.4375 -9.765625 L 2.4375 -1.625 L 3.453125 -1.625 C 3.734375 -1.625 3.953125 -1.703125 4.109375 -1.859375 C 4.273438 -2.023438 4.359375 -2.316406 4.359375 -2.734375 L 4.359375 -8.65625 C 4.359375 -9.070312 4.273438 -9.359375 4.109375 -9.515625 C 3.953125 -9.679688 3.734375 -9.765625 3.453125 -9.765625 Z M 2.4375 -9.765625 "/></g></g></g><g fill="#ffffff" fill-opacity="1"><g transform="translate(144.583416, 86.633494)"><g><path d="M 2.4375 -6.59375 L 4.90625 -6.59375 L 4.90625 -4.96875 L 2.4375 -4.96875 L 2.4375 -1.625 L 5.53125 -1.625 L 5.53125 0 L 0.65625 0 L 0.65625 -11.390625 L 5.53125 -11.390625 L 5.53125 -9.765625 L 2.4375 -9.765625 Z M 2.4375 -6.59375 "/></g></g></g><g fill="#ffffff" fill-opacity="1"><g transform="translate(150.575182, 86.633494)"><g><path d="M 3.359375 -2.09375 L 4.71875 -11.390625 L 6.359375 -11.390625 L 4.609375 0 L 1.9375 0 L 0.171875 -11.390625 L 1.984375 -11.390625 Z M 3.359375 -2.09375 "/></g></g></g><g fill="#ffffff" fill-opacity="1"><g transform="translate(157.120538, 86.633494)"><g><path d="M 2.4375 -6.59375 L 4.90625 -6.59375 L 4.90625 -4.96875 L 2.4375 -4.96875 L 2.4375 -1.625 L 5.53125 -1.625 L 5.53125 0 L 0.65625 0 L 0.65625 -11.390625 L 5.53125 -11.390625 L 5.53125 -9.765625 L 2.4375 -9.765625 Z M 2.4375 -6.59375 "/></g></g></g><g fill="#ffffff" fill-opacity="1"><g transform="translate(163.112304, 86.633494)"><g><path d="M 0.65625 -11.390625 L 2.4375 -11.390625 L 2.4375 -1.625 L 5.390625 -1.625 L 5.390625 0 L 0.65625 0 Z M 0.65625 -11.390625 "/></g></g></g><g fill="#ffffff" fill-opacity="1"><g transform="translate(168.664458, 86.633494)"><g><path d="M 2.296875 -2.625 C 2.296875 -2.207031 2.378906 -1.914062 2.546875 -1.75 C 2.710938 -1.582031 2.9375 -1.5 3.21875 -1.5 C 3.5 -1.5 3.722656 -1.582031 3.890625 -1.75 C 4.066406 -1.914062 4.15625 -2.207031 4.15625 -2.625 L 4.15625 -8.78125 C 4.15625 -9.1875 4.066406 -9.472656 3.890625 -9.640625 C 3.722656 -9.816406 3.5 -9.90625 3.21875 -9.90625 C 2.9375 -9.90625 2.710938 -9.816406 2.546875 -9.640625 C 2.378906 -9.472656 2.296875 -9.1875 2.296875 -8.78125 Z M 0.5 -8.65625 C 0.5 -9.582031 0.734375 -10.289062 1.203125 -10.78125 C 1.671875 -11.28125 2.34375 -11.53125 3.21875 -11.53125 C 4.101562 -11.53125 4.773438 -11.28125 5.234375 -10.78125 C 5.703125 -10.289062 5.9375 -9.582031 5.9375 -8.65625 L 5.9375 -2.734375 C 5.9375 -1.804688 5.703125 -1.097656 5.234375 -0.609375 C 4.773438 -0.117188 4.101562 0.125 3.21875 0.125 C 2.34375 0.125 1.671875 -0.117188 1.203125 -0.609375 C 0.734375 -1.097656 0.5 -1.804688 0.5 -2.734375 Z M 0.5 -8.65625 "/></g></g></g><g fill="#ffffff" fill-opacity="1"><g transform="translate(175.11212, 86.633494)"><g><path d="M 3.28125 -11.390625 C 4.1875 -11.390625 4.859375 -11.148438 5.296875 -10.671875 C 5.734375 -10.203125 5.953125 -9.503906 5.953125 -8.578125 L 5.953125 -7.09375 C 5.953125 -6.175781 5.734375 -5.476562 5.296875 -5 C 4.859375 -4.519531 4.1875 -4.28125 3.28125 -4.28125 L 2.4375 -4.28125 L 2.4375 0 L 0.65625 0 L 0.65625 -11.390625 Z M 2.4375 -9.765625 L 2.4375 -5.90625 L 3.28125 -5.90625 C 3.570312 -5.90625 3.789062 -5.976562 3.9375 -6.125 C 4.09375 -6.28125 4.171875 -6.566406 4.171875 -6.984375 L 4.171875 -8.6875 C 4.171875 -9.101562 4.09375 -9.382812 3.9375 -9.53125 C 3.789062 -9.6875 3.570312 -9.765625 3.28125 -9.765625 Z M 2.4375 -9.765625 "/></g></g></g><g fill="#ffffff" fill-opacity="1"><g transform="translate(181.250424, 86.633494)"><g><path d="M 4.4375 -3.3125 L 5.671875 -11.390625 L 8.15625 -11.390625 L 8.15625 0 L 6.46875 0 L 6.46875 -8.171875 L 5.21875 0 L 3.53125 0 L 2.203125 -8.0625 L 2.203125 0 L 0.640625 0 L 0.640625 -11.390625 L 3.125 -11.390625 Z M 4.4375 -3.3125 "/></g></g></g><g fill="#ffffff" fill-opacity="1"><g transform="translate(190.058971, 86.633494)"><g><path d="M 2.4375 -6.59375 L 4.90625 -6.59375 L 4.90625 -4.96875 L 2.4375 -4.96875 L 2.4375 -1.625 L 5.53125 -1.625 L 5.53125 0 L 0.65625 0 L 0.65625 -11.390625 L 5.53125 -11.390625 L 5.53125 -9.765625 L 2.4375 -9.765625 Z M 2.4375 -6.59375 "/></g></g></g><g fill="#ffffff" fill-opacity="1"><g transform="translate(196.050737, 86.633494)"><g><path d="M 2.25 -8.25 L 2.25 0 L 0.640625 0 L 0.640625 -11.390625 L 2.875 -11.390625 L 4.71875 -4.578125 L 4.71875 -11.390625 L 6.3125 -11.390625 L 6.3125 0 L 4.484375 0 Z M 2.25 -8.25 "/></g></g></g><g fill="#ffffff" fill-opacity="1"><g transform="translate(203.00314, 86.633494)"><g><path d="M 0.15625 -11.390625 L 5.703125 -11.390625 L 5.703125 -9.765625 L 3.828125 -9.765625 L 3.828125 0 L 2.03125 0 L 2.03125 -9.765625 L 0.15625 -9.765625 Z M 0.15625 -11.390625 "/></g></g></g><g fill="#ffffff" fill-opacity="1"><g transform="translate(208.865807, 86.633494)"><g/></g></g></svg>