<svg width="153" height="272" viewBox="0 0 153 272" fill="none" xmlns="http://www.w3.org/2000/svg">
<path d="M15 2H138C145.456 2 151.5 8.04416 151.5 15.5V256.5C151.5 263.956 145.456 270 138 270H15C7.54813 270 1.5 263.929 1.5 256.469V255.932V255.396V254.86V254.326V253.792V253.258V252.726V252.194V251.663V251.133V250.603V250.075V249.547V249.02V248.493V247.967V247.442V246.918V246.395V245.872V245.35V244.828V244.308V243.788V243.268V242.75V242.232V241.715V241.199V240.683V240.168V239.654V239.14V238.627V238.115V237.603V237.092V236.582V236.072V235.563V235.055V234.547V234.041V233.534V233.029V232.524V232.019V231.515V231.012V230.51V230.008V229.507V229.006V228.506V228.007V227.508V227.01V226.513V226.016V225.52V225.024V224.529V224.034V223.541V223.047V222.555V222.062V221.571V221.08V220.589V220.1V219.61V219.122V218.634V218.146V217.659V217.172V216.687V216.201V215.716V215.232V214.748V214.265V213.782V213.3V212.818V212.337V211.857V211.377V210.897V210.418V209.939V209.461V208.984V208.507V208.03V207.554V207.078V206.603V206.129V205.654V205.181V204.708V204.235V203.762V203.291V202.819V202.348V201.878V201.408V200.938V200.469V200.001V199.532V199.065V198.597V198.13V197.664V197.198V196.732V196.267V195.802V195.338V194.874V194.41V193.947V193.484V193.022V192.56V192.098V191.637V191.176V190.715V190.255V189.795V189.336V188.877V188.419V187.96V187.502V187.045V186.588V186.131V185.674V185.218V184.762V184.307V183.852V183.397V182.942V182.488V182.034V181.581V181.128V180.675V180.222V179.77V179.318V178.866V178.415V177.964V177.513V177.062V176.612V176.162V175.713V175.263V174.814V174.365V173.917V173.468V173.02V172.572V172.125V171.678V171.231V170.784V170.337V169.891V169.445V168.999V168.553V168.108V167.663V167.218V166.773V166.329V165.884V165.44V164.996V164.553V164.109V163.666V163.223V162.78V162.337V161.895V161.452V161.01V160.568V160.126V159.685V159.243V158.802V158.361V157.92V157.479V157.038V156.597V156.157V155.717V155.276V154.836V154.397V153.957V153.517V153.078V152.638V152.199V151.76V151.321V150.882V150.443V150.004V149.566V149.127V148.689V148.25V147.812V147.374V146.936V146.498V146.06V145.622V145.184V144.746V144.309V143.871V143.433V142.996V142.558V142.121V141.684V141.246V140.809V140.372V139.934V139.497V139.06V138.623V138.186V137.748V137.311V136.874V136.437V136V135.563V135.126V134.689V134.251V133.814V133.377V132.94V132.503V132.066V131.628V131.191V130.754V130.316V129.879V129.442V129.004V128.567V128.129V127.691V127.254V126.816V126.378V125.94V125.502V125.064V124.626V124.188V123.75V123.311V122.873V122.434V121.996V121.557V121.118V120.679V120.24V119.801V119.362V118.922V118.483V118.043V117.603V117.164V116.723V116.283V115.843V115.403V114.962V114.521V114.08V113.639V113.198V112.757V112.315V111.874V111.432V110.99V110.548V110.105V109.663V109.22V108.777V108.334V107.891V107.447V107.004V106.56V106.116V105.671V105.227V104.782V104.337V103.892V103.447V103.001V102.555V102.109V101.663V101.216V100.769V100.322V99.8751V99.4275V98.9798V98.5317V98.0834V97.6348V97.186V96.7368V96.2875V95.8378V95.3879V94.9376V94.4871V94.0363V93.5852V93.1339V92.6822V92.2302V91.7779V91.3253V90.8724V90.4192V89.9657V89.5119V89.0577V88.6032V88.1484V87.6932V87.2377V86.7819V86.3258V85.8693V85.4124V84.9552V84.4977V84.0397V83.5815V83.1228V82.6638V82.2045V81.7448V81.2847V80.8242V80.3633V79.9021V79.4404V78.9784V78.516V78.0532V77.59V77.1264V76.6624V76.1979V75.7331V75.2679V74.8022V74.3361V73.8696V73.4027V72.9353V72.4675V71.9993V71.5307V71.0615V70.592V70.122V69.6516V69.1806V68.7093V68.2375V67.7652V67.2924V66.8192V66.3456V65.8714V65.3968V64.9216V64.446V63.9699V63.4934V63.0163V62.5387V62.0606V61.5821V61.103V60.6234V60.1433V59.6627V59.1815V58.6999V58.2177V57.735V57.2518V56.768V56.2837V55.7989V55.3135V54.8275V54.3411V53.854V53.3664V52.8783V52.3896V51.9003V51.4105V50.9201V50.4291V49.9376V49.4454V48.9527V48.4594V47.9655V47.471V46.976V46.4803V45.984V45.4871V44.9897V44.4916V43.9929V43.4935V42.9936V42.493V41.9918V41.49V40.9876V40.4845V39.9808V39.4764V38.9714V38.4658V37.9595V37.4525V36.9449V36.4366V35.9277V35.4181V34.9078V34.3969V33.8853V33.373V32.8601V32.3464V31.8321V31.317V30.8013V30.2849V29.7678V29.25V28.7315V28.2123V27.6923V27.1717V26.6503V26.1282V25.6054V25.0819V24.5576V24.0326V23.5069V22.9804V22.4532V21.9252V21.3965V20.8671V20.3369V19.8059V19.2742V18.7417V18.2084V17.6744V17.1396V16.604V16.0677V15.5305C1.5 8.07071 7.54812 2 15 2Z" fill="#DFD2EA" stroke="#9B6EC8" stroke-width="3"/>
<path d="M0 16C0 7.71573 6.71573 1 15 1H138C146.284 1 153 7.71573 153 16V34H0V16Z" fill="#9B6EC8"/>
<path d="M55 17.5H99" stroke="#DFD2EA" stroke-width="4" stroke-linecap="round"/>
<rect x="11.5" y="44.5" width="128" height="37" fill="#CAE4DE" stroke="#4E8E96"/>
<rect x="11.5" y="92.5" width="128" height="37" fill="#CAE4DE" stroke="#4E8E96"/>
<rect x="11.5" y="189.5" width="128" height="37" fill="#CAE4DE" stroke="#4E8E96"/>
<rect x="11.5" y="140.5" width="59" height="38" fill="#CAE4DE" stroke="#4E8E96"/>
<rect x="80.5" y="140.5" width="59" height="38" fill="#CAE4DE" stroke="#4E8E96"/>
<path d="M0 257C0 265.284 6.71573 272 15 272H138C146.284 272 153 265.284 153 257V239H0V257Z" fill="#9B6EC8"/>
<circle cx="77" cy="256" r="11.5" fill="#9B6EC8" stroke="#DFD2EA"/>
</svg>
