<svg xmlns="http://www.w3.org/2000/svg" xmlns:xlink="http://www.w3.org/1999/xlink" width="500" zoomAndPan="magnify" viewBox="0 0 375 374.999991" height="500" preserveAspectRatio="xMidYMid meet" version="1.0"><path fill="#ffffff" d="M 42 42 L 0 42 L 0 0 L 42 0 Z M 375 0 L 375 83.625 L 333.523438 83.625 L 333.523438 124.949219 L 375 124.949219 L 375 166.949219 L 333.523438 166.949219 L 333.523438 208.273438 L 375 208.273438 L 375 250.273438 L 333.523438 250.273438 L 333.523438 291.601562 L 375 291.601562 L 375 333.601562 L 333.523438 333.601562 L 333.523438 375 L 291.523438 375 L 291.523438 333 L 333 333 L 333 291.75 L 250.050781 291.75 L 250.050781 375 L 208.050781 375 L 208.050781 291.75 L 166.949219 291.75 L 166.949219 333.375 L 125.324219 333.375 L 125.324219 375 L 0 375 L 0 249.75 L 41.625 249.75 L 41.625 208.5 L 0 208.5 L 0 83.25 L 83.324219 83.25 L 83.324219 0 L 125.324219 0 L 125.324219 41.625 L 166.648438 41.625 L 166.648438 0 L 208.648438 0 L 208.648438 42 L 167.023438 42 L 167.023438 124.949219 L 208.125 124.949219 L 208.125 83.25 L 249.75 83.25 L 249.75 0 Z M 291.675781 42 L 291.675781 83.25 L 333 83.25 L 333 42 Z M 208.648438 291.375 L 249.75 291.375 L 249.75 250.050781 L 208.648438 250.050781 Z M 291.675781 166.5 L 333 166.5 L 333 125.25 L 291.675781 125.25 Z M 249.75 125.25 L 208.648438 125.25 L 208.648438 166.5 L 249.75 166.5 Z M 166.949219 166.875 L 125.324219 166.875 L 125.324219 208.199219 L 208.050781 208.199219 L 208.050781 166.875 Z M 124.949219 208.5 L 83.625 208.5 L 83.625 249.75 L 124.949219 249.75 Z M 124.949219 83.625 L 83.625 83.625 L 83.625 124.949219 L 124.949219 124.949219 Z M 42 125.25 L 42 166.5 L 83.324219 166.5 L 83.324219 125.25 Z M 83.324219 333 L 83.324219 291.75 L 42 291.75 L 42 333 Z M 125.324219 291.375 L 166.648438 291.375 L 166.648438 250.050781 L 125.324219 250.050781 Z M 291.523438 249.75 L 291.523438 208.5 L 250.050781 208.5 L 250.050781 249.75 Z M 291.523438 249.75 " fill-opacity="1" fill-rule="nonzero"/></svg>