<svg xmlns="http://www.w3.org/2000/svg" xmlns:xlink="http://www.w3.org/1999/xlink" width="500" zoomAndPan="magnify" viewBox="0 0 375 374.999991" height="500" preserveAspectRatio="xMidYMid meet" version="1.0"><defs><clipPath id="b7d33c50b7"><path d="M 79.074219 79.074219 L 295.824219 79.074219 L 295.824219 295.824219 L 79.074219 295.824219 Z M 79.074219 79.074219 " clip-rule="nonzero"/></clipPath></defs><path fill="#dfd2ea" d="M 22.320312 216.667969 C 28.875 203.46875 39.765625 191.628906 40.625 176.945312 C 41.890625 155.660156 21.507812 137.039062 24.445312 115.9375 C 26.796875 98.988281 43.652344 87.554688 60.371094 83.851562 C 77.046875 80.144531 94.492188 81.90625 111.4375 79.511719 C 132.722656 76.53125 152.472656 67.128906 172.175781 58.589844 C 191.878906 50.046875 212.53125 42.050781 233.996094 42.140625 C 255.460938 42.230469 278.191406 52.125 287.816406 71.332031 C 293.558594 82.722656 294.144531 96.007812 298.617188 107.9375 C 307.023438 130.398438 327.722656 145.402344 344.351562 162.617188 C 361.027344 179.835938 374.855469 205.097656 365.183594 227.015625 C 354.65625 250.875 323.203125 256.707031 305.304688 275.640625 C 288.585938 293.308594 283.660156 322.414062 261.652344 332.804688 C 246.695312 339.855469 228.796875 335.335938 213.839844 328.242188 C 198.882812 321.148438 184.871094 311.476562 168.738281 307.859375 C 130.148438 299.230469 88.4375 320.332031 49.753906 306.867188 C 16.039062 295.027344 7.996094 245.453125 22.320312 216.667969 Z M 22.320312 216.667969 " fill-opacity="1" fill-rule="nonzero"/><g clip-path="url(#b7d33c50b7)"><path fill="#cae4de" d="M 79.074219 79.074219 L 295.917969 79.074219 L 295.917969 295.917969 L 79.074219 295.917969 Z M 79.074219 79.074219 " fill-opacity="1" fill-rule="nonzero"/></g><path fill="#77bdc6" d="M 93.0625 93.0625 L 135.03125 93.0625 L 135.03125 135.03125 L 93.0625 135.03125 Z M 93.0625 93.0625 " fill-opacity="1" fill-rule="nonzero"/><path fill="#77bdc6" d="M 93.0625 239.957031 L 135.03125 239.957031 L 135.03125 281.925781 L 93.0625 281.925781 Z M 93.0625 239.957031 " fill-opacity="1" fill-rule="nonzero"/><path fill="#77bdc6" d="M 239.957031 93.0625 L 281.925781 93.0625 L 281.925781 135.03125 L 239.957031 135.03125 Z M 239.957031 93.0625 " fill-opacity="1" fill-rule="nonzero"/><path fill="#77bdc6" d="M 281.925781 285.425781 L 246.953125 285.425781 C 245.019531 285.425781 243.453125 283.859375 243.453125 281.925781 C 243.453125 279.996094 245.019531 278.429688 246.953125 278.429688 L 278.429688 278.429688 L 278.429688 246.953125 C 278.429688 245.019531 279.996094 243.453125 281.925781 243.453125 C 283.859375 243.453125 285.425781 245.019531 285.425781 246.953125 L 285.425781 281.925781 C 285.425781 283.859375 283.859375 285.425781 281.925781 285.425781 Z M 281.925781 285.425781 " fill-opacity="1" fill-rule="nonzero"/><path fill="#77bdc6" d="M 180.5 285.425781 L 163.011719 285.425781 C 161.082031 285.425781 159.515625 283.859375 159.515625 281.925781 L 159.515625 243.453125 L 149.023438 243.453125 C 147.089844 243.453125 145.527344 241.890625 145.527344 239.957031 C 145.527344 238.027344 147.089844 236.460938 149.023438 236.460938 L 163.011719 236.460938 C 164.945312 236.460938 166.511719 238.027344 166.511719 239.957031 L 166.511719 278.429688 L 180.5 278.429688 C 182.433594 278.429688 183.996094 279.996094 183.996094 281.925781 C 183.996094 283.859375 182.433594 285.425781 180.5 285.425781 Z M 180.5 285.425781 " fill-opacity="1" fill-rule="nonzero"/><path fill="#77bdc6" d="M 149.023438 285.425781 C 147.089844 285.425781 145.527344 283.859375 145.527344 281.925781 L 145.527344 250.449219 C 145.527344 248.519531 147.089844 246.953125 149.023438 246.953125 C 150.953125 246.953125 152.519531 248.519531 152.519531 250.449219 L 152.519531 281.925781 C 152.519531 283.859375 150.953125 285.425781 149.023438 285.425781 Z M 149.023438 285.425781 " fill-opacity="1" fill-rule="nonzero"/><path fill="#77bdc6" d="M 197.988281 285.425781 L 194.488281 285.425781 C 192.558594 285.425781 190.992188 283.859375 190.992188 281.925781 C 190.992188 279.996094 192.558594 278.429688 194.488281 278.429688 L 197.988281 278.429688 C 199.917969 278.429688 201.484375 279.996094 201.484375 281.925781 C 201.484375 283.859375 199.917969 285.425781 197.988281 285.425781 Z M 197.988281 285.425781 " fill-opacity="1" fill-rule="nonzero"/><path fill="#77bdc6" d="M 232.960938 285.425781 L 211.976562 285.425781 C 210.046875 285.425781 208.480469 283.859375 208.480469 281.925781 C 208.480469 279.996094 210.046875 278.429688 211.976562 278.429688 L 232.960938 278.429688 C 234.894531 278.429688 236.460938 279.996094 236.460938 281.925781 C 236.460938 283.859375 234.894531 285.425781 232.960938 285.425781 Z M 232.960938 285.425781 " fill-opacity="1" fill-rule="nonzero"/><path fill="#77bdc6" d="M 177.003906 267.9375 C 175.070312 267.9375 173.503906 266.371094 173.503906 264.441406 L 173.503906 253.949219 C 173.503906 252.015625 175.070312 250.449219 177.003906 250.449219 L 208.480469 250.449219 C 210.410156 250.449219 211.976562 252.015625 211.976562 253.949219 C 211.976562 255.878906 210.410156 257.445312 208.480469 257.445312 L 180.5 257.445312 L 180.5 264.441406 C 180.5 266.371094 178.933594 267.9375 177.003906 267.9375 Z M 177.003906 267.9375 " fill-opacity="1" fill-rule="nonzero"/><path fill="#77bdc6" d="M 225.96875 271.433594 L 190.992188 271.433594 C 189.0625 271.433594 187.496094 269.867188 187.496094 267.9375 C 187.496094 266.003906 189.0625 264.441406 190.992188 264.441406 L 225.96875 264.441406 C 227.898438 264.441406 229.464844 266.003906 229.464844 267.9375 C 229.464844 269.867188 227.898438 271.433594 225.96875 271.433594 Z M 225.96875 271.433594 " fill-opacity="1" fill-rule="nonzero"/><path fill="#cae4de" d="M 107.054688 107.054688 L 121.042969 107.054688 L 121.042969 121.042969 L 107.054688 121.042969 Z M 107.054688 107.054688 " fill-opacity="1" fill-rule="nonzero"/><path fill="#cae4de" d="M 103.554688 250.449219 L 124.539062 250.449219 L 124.539062 271.433594 L 103.554688 271.433594 Z M 103.554688 250.449219 " fill-opacity="1" fill-rule="nonzero"/><path fill="#cae4de" d="M 250.449219 103.554688 L 271.433594 103.554688 L 271.433594 124.539062 L 250.449219 124.539062 Z M 250.449219 103.554688 " fill-opacity="1" fill-rule="nonzero"/><path fill="#77bdc6" d="M 110.550781 187.496094 L 93.0625 187.496094 C 91.132812 187.496094 89.566406 185.929688 89.566406 183.996094 L 89.566406 149.023438 C 89.566406 147.089844 91.132812 145.527344 93.0625 145.527344 C 94.996094 145.527344 96.5625 147.089844 96.5625 149.023438 L 96.5625 180.5 L 110.550781 180.5 C 112.480469 180.5 114.046875 182.066406 114.046875 183.996094 C 114.046875 185.929688 112.480469 187.496094 110.550781 187.496094 Z M 110.550781 187.496094 " fill-opacity="1" fill-rule="nonzero"/><path fill="#77bdc6" d="M 135.03125 190.992188 C 133.101562 190.992188 131.535156 189.425781 131.535156 187.496094 L 131.535156 152.519531 L 107.054688 152.519531 C 105.121094 152.519531 103.554688 150.953125 103.554688 149.023438 C 103.554688 147.089844 105.121094 145.527344 107.054688 145.527344 L 135.03125 145.527344 C 136.964844 145.527344 138.53125 147.089844 138.53125 149.023438 L 138.53125 187.496094 C 138.53125 189.425781 136.964844 190.992188 135.03125 190.992188 Z M 135.03125 190.992188 " fill-opacity="1" fill-rule="nonzero"/><path fill="#77bdc6" d="M 117.546875 177.003906 C 115.613281 177.003906 114.046875 175.4375 114.046875 173.503906 L 114.046875 166.511719 L 107.054688 166.511719 C 105.121094 166.511719 103.554688 164.945312 103.554688 163.011719 C 103.554688 161.082031 105.121094 159.515625 107.054688 159.515625 L 117.546875 159.515625 C 119.476562 159.515625 121.042969 161.082031 121.042969 163.011719 L 121.042969 173.503906 C 121.042969 175.4375 119.476562 177.003906 117.546875 177.003906 Z M 117.546875 177.003906 " fill-opacity="1" fill-rule="nonzero"/><path fill="#77bdc6" d="M 135.03125 229.464844 L 93.0625 229.464844 C 91.132812 229.464844 89.566406 227.898438 89.566406 225.96875 L 89.566406 197.988281 C 89.566406 196.054688 91.132812 194.488281 93.0625 194.488281 C 94.996094 194.488281 96.5625 196.054688 96.5625 197.988281 L 96.5625 222.46875 L 135.03125 222.46875 C 136.964844 222.46875 138.53125 224.035156 138.53125 225.96875 C 138.53125 227.898438 136.964844 229.464844 135.03125 229.464844 Z M 135.03125 229.464844 " fill-opacity="1" fill-rule="nonzero"/><path fill="#77bdc6" d="M 135.03125 201.484375 L 107.054688 201.484375 C 105.121094 201.484375 103.554688 199.917969 103.554688 197.988281 C 103.554688 196.054688 105.121094 194.488281 107.054688 194.488281 L 135.03125 194.488281 C 136.964844 194.488281 138.53125 196.054688 138.53125 197.988281 C 138.53125 199.917969 136.964844 201.484375 135.03125 201.484375 Z M 135.03125 201.484375 " fill-opacity="1" fill-rule="nonzero"/><path fill="#77bdc6" d="M 107.054688 218.972656 C 105.121094 218.972656 103.554688 217.40625 103.554688 215.476562 L 103.554688 208.480469 C 103.554688 206.546875 105.121094 204.984375 107.054688 204.984375 C 108.984375 204.984375 110.550781 206.546875 110.550781 208.480469 L 110.550781 215.476562 C 110.550781 217.40625 108.984375 218.972656 107.054688 218.972656 Z M 107.054688 218.972656 " fill-opacity="1" fill-rule="nonzero"/><path fill="#77bdc6" d="M 135.03125 215.476562 L 121.042969 215.476562 C 119.113281 215.476562 117.546875 213.910156 117.546875 211.976562 C 117.546875 210.046875 119.113281 208.480469 121.042969 208.480469 L 135.03125 208.480469 C 136.964844 208.480469 138.53125 210.046875 138.53125 211.976562 C 138.53125 213.910156 136.964844 215.476562 135.03125 215.476562 Z M 135.03125 215.476562 " fill-opacity="1" fill-rule="nonzero"/><path fill="#77bdc6" d="M 187.496094 96.5625 L 149.023438 96.5625 C 147.089844 96.5625 145.527344 94.996094 145.527344 93.0625 C 145.527344 91.132812 147.089844 89.566406 149.023438 89.566406 L 187.496094 89.566406 C 189.425781 89.566406 190.992188 91.132812 190.992188 93.0625 C 190.992188 94.996094 189.425781 96.5625 187.496094 96.5625 Z M 187.496094 96.5625 " fill-opacity="1" fill-rule="nonzero"/><path fill="#77bdc6" d="M 225.96875 138.53125 C 224.035156 138.53125 222.46875 136.964844 222.46875 135.03125 L 222.46875 96.5625 L 204.984375 96.5625 C 203.050781 96.5625 201.484375 94.996094 201.484375 93.0625 C 201.484375 91.132812 203.050781 89.566406 204.984375 89.566406 L 225.96875 89.566406 C 227.898438 89.566406 229.464844 91.132812 229.464844 93.0625 L 229.464844 135.03125 C 229.464844 136.964844 227.898438 138.53125 225.96875 138.53125 Z M 225.96875 138.53125 " fill-opacity="1" fill-rule="nonzero"/><path fill="#77bdc6" d="M 183.996094 124.539062 L 149.023438 124.539062 C 147.089844 124.539062 145.527344 122.972656 145.527344 121.042969 L 145.527344 110.550781 C 145.527344 108.621094 147.089844 107.054688 149.023438 107.054688 C 150.953125 107.054688 152.519531 108.621094 152.519531 110.550781 L 152.519531 117.546875 L 183.996094 117.546875 C 185.929688 117.546875 187.496094 119.113281 187.496094 121.042969 C 187.496094 122.972656 185.929688 124.539062 183.996094 124.539062 Z M 183.996094 124.539062 " fill-opacity="1" fill-rule="nonzero"/><path fill="#77bdc6" d="M 197.988281 124.539062 C 196.054688 124.539062 194.488281 122.972656 194.488281 121.042969 L 194.488281 110.550781 L 163.011719 110.550781 C 161.082031 110.550781 159.515625 108.984375 159.515625 107.054688 C 159.515625 105.121094 161.082031 103.554688 163.011719 103.554688 L 197.988281 103.554688 C 199.917969 103.554688 201.484375 105.121094 201.484375 107.054688 L 201.484375 121.042969 C 201.484375 122.972656 199.917969 124.539062 197.988281 124.539062 Z M 197.988281 124.539062 " fill-opacity="1" fill-rule="nonzero"/><path fill="#77bdc6" d="M 211.976562 149.023438 C 210.046875 149.023438 208.480469 147.457031 208.480469 145.527344 L 208.480469 107.054688 C 208.480469 105.121094 210.046875 103.554688 211.976562 103.554688 C 213.910156 103.554688 215.476562 105.121094 215.476562 107.054688 L 215.476562 145.527344 C 215.476562 147.457031 213.910156 149.023438 211.976562 149.023438 Z M 211.976562 149.023438 " fill-opacity="1" fill-rule="nonzero"/><path fill="#77bdc6" d="M 211.976562 190.992188 L 149.023438 190.992188 C 147.089844 190.992188 145.527344 189.425781 145.527344 187.496094 C 145.527344 185.5625 147.089844 183.996094 149.023438 183.996094 L 208.480469 183.996094 L 208.480469 173.503906 C 208.480469 171.574219 210.046875 170.007812 211.976562 170.007812 C 213.910156 170.007812 215.476562 171.574219 215.476562 173.503906 L 215.476562 187.496094 C 215.476562 189.425781 213.910156 190.992188 211.976562 190.992188 Z M 211.976562 190.992188 " fill-opacity="1" fill-rule="nonzero"/><path fill="#77bdc6" d="M 197.988281 222.46875 L 180.5 222.46875 C 178.570312 222.46875 177.003906 220.902344 177.003906 218.972656 L 177.003906 204.984375 L 149.023438 204.984375 C 147.089844 204.984375 145.527344 203.417969 145.527344 201.484375 C 145.527344 199.554688 147.089844 197.988281 149.023438 197.988281 L 180.5 197.988281 C 182.433594 197.988281 183.996094 199.554688 183.996094 201.484375 L 183.996094 215.476562 L 197.988281 215.476562 C 199.917969 215.476562 201.484375 217.042969 201.484375 218.972656 C 201.484375 220.902344 199.917969 222.46875 197.988281 222.46875 Z M 197.988281 222.46875 " fill-opacity="1" fill-rule="nonzero"/><path fill="#77bdc6" d="M 225.96875 163.011719 L 197.988281 163.011719 C 196.054688 163.011719 194.488281 161.445312 194.488281 159.515625 L 194.488281 138.53125 L 149.023438 138.53125 C 147.089844 138.53125 145.527344 136.964844 145.527344 135.03125 C 145.527344 133.101562 147.089844 131.535156 149.023438 131.535156 L 197.988281 131.535156 C 199.917969 131.535156 201.484375 133.101562 201.484375 135.03125 L 201.484375 156.019531 L 225.96875 156.019531 C 227.898438 156.019531 229.464844 157.582031 229.464844 159.515625 C 229.464844 161.445312 227.898438 163.011719 225.96875 163.011719 Z M 225.96875 163.011719 " fill-opacity="1" fill-rule="nonzero"/><path fill="#77bdc6" d="M 180.5 152.519531 L 149.023438 152.519531 C 147.089844 152.519531 145.527344 150.953125 145.527344 149.023438 C 145.527344 147.089844 147.089844 145.527344 149.023438 145.527344 L 180.5 145.527344 C 182.433594 145.527344 183.996094 147.089844 183.996094 149.023438 C 183.996094 150.953125 182.433594 152.519531 180.5 152.519531 Z M 180.5 152.519531 " fill-opacity="1" fill-rule="nonzero"/><path fill="#77bdc6" d="M 166.511719 177.003906 L 163.011719 177.003906 C 161.082031 177.003906 159.515625 175.4375 159.515625 173.503906 L 159.515625 166.511719 L 149.023438 166.511719 C 147.089844 166.511719 145.527344 164.945312 145.527344 163.011719 C 145.527344 161.082031 147.089844 159.515625 149.023438 159.515625 L 163.011719 159.515625 C 164.945312 159.515625 166.511719 161.082031 166.511719 163.011719 L 166.511719 170.007812 C 168.441406 170.007812 170.007812 171.574219 170.007812 173.503906 C 170.007812 175.4375 168.441406 177.003906 166.511719 177.003906 Z M 166.511719 177.003906 " fill-opacity="1" fill-rule="nonzero"/><path fill="#77bdc6" d="M 183.996094 177.003906 C 182.066406 177.003906 180.5 175.4375 180.5 173.503906 L 180.5 166.511719 L 177.003906 166.511719 C 175.070312 166.511719 173.503906 164.945312 173.503906 163.011719 C 173.503906 161.082031 175.070312 159.515625 177.003906 159.515625 L 183.996094 159.515625 C 185.929688 159.515625 187.496094 161.082031 187.496094 163.011719 L 187.496094 173.503906 C 187.496094 175.4375 185.929688 177.003906 183.996094 177.003906 Z M 183.996094 177.003906 " fill-opacity="1" fill-rule="nonzero"/><path fill="#77bdc6" d="M 281.925781 208.480469 C 279.996094 208.480469 278.429688 206.914062 278.429688 204.984375 L 278.429688 152.519531 L 264.441406 152.519531 C 262.507812 152.519531 260.941406 150.953125 260.941406 149.023438 C 260.941406 147.089844 262.507812 145.527344 264.441406 145.527344 L 281.925781 145.527344 C 283.859375 145.527344 285.425781 147.089844 285.425781 149.023438 L 285.425781 204.984375 C 285.425781 206.914062 283.859375 208.480469 281.925781 208.480469 Z M 281.925781 208.480469 " fill-opacity="1" fill-rule="nonzero"/><path fill="#77bdc6" d="M 257.445312 208.480469 C 255.511719 208.480469 253.949219 206.914062 253.949219 204.984375 L 253.949219 177.003906 L 243.453125 177.003906 C 241.523438 177.003906 239.957031 175.4375 239.957031 173.503906 L 239.957031 149.023438 C 239.957031 147.089844 241.523438 145.527344 243.453125 145.527344 L 250.449219 145.527344 C 252.382812 145.527344 253.949219 147.089844 253.949219 149.023438 C 253.949219 150.953125 252.382812 152.519531 250.449219 152.519531 L 246.953125 152.519531 L 246.953125 170.007812 L 257.445312 170.007812 C 259.375 170.007812 260.941406 171.574219 260.941406 173.503906 L 260.941406 204.984375 C 260.941406 206.914062 259.375 208.480469 257.445312 208.480469 Z M 257.445312 208.480469 " fill-opacity="1" fill-rule="nonzero"/><path fill="#77bdc6" d="M 170.007812 229.464844 L 149.023438 229.464844 C 147.089844 229.464844 145.527344 227.898438 145.527344 225.96875 L 145.527344 215.476562 C 145.527344 213.542969 147.089844 211.976562 149.023438 211.976562 C 150.953125 211.976562 152.519531 213.542969 152.519531 215.476562 L 152.519531 222.46875 L 170.007812 222.46875 C 171.9375 222.46875 173.503906 224.035156 173.503906 225.96875 C 173.503906 227.898438 171.9375 229.464844 170.007812 229.464844 Z M 170.007812 229.464844 " fill-opacity="1" fill-rule="nonzero"/><path fill="#77bdc6" d="M 166.511719 218.972656 L 159.515625 218.972656 C 157.582031 218.972656 156.019531 217.40625 156.019531 215.476562 C 156.019531 213.542969 157.582031 211.976562 159.515625 211.976562 L 166.511719 211.976562 C 168.441406 211.976562 170.007812 213.542969 170.007812 215.476562 C 170.007812 217.40625 168.441406 218.972656 166.511719 218.972656 Z M 166.511719 218.972656 " fill-opacity="1" fill-rule="nonzero"/><path fill="#77bdc6" d="M 243.453125 208.480469 C 241.523438 208.480469 239.957031 206.914062 239.957031 204.984375 L 239.957031 187.496094 C 239.957031 185.5625 241.523438 183.996094 243.453125 183.996094 C 245.386719 183.996094 246.953125 185.5625 246.953125 187.496094 L 246.953125 204.984375 C 246.953125 206.914062 245.386719 208.480469 243.453125 208.480469 Z M 243.453125 208.480469 " fill-opacity="1" fill-rule="nonzero"/><path fill="#77bdc6" d="M 225.96875 204.984375 L 194.488281 204.984375 C 192.558594 204.984375 190.992188 203.417969 190.992188 201.484375 C 190.992188 199.554688 192.558594 197.988281 194.488281 197.988281 L 222.46875 197.988281 L 222.46875 173.503906 C 222.46875 171.574219 224.035156 170.007812 225.96875 170.007812 C 227.898438 170.007812 229.464844 171.574219 229.464844 173.503906 L 229.464844 201.484375 C 229.464844 203.417969 227.898438 204.984375 225.96875 204.984375 Z M 225.96875 204.984375 " fill-opacity="1" fill-rule="nonzero"/><path fill="#77bdc6" d="M 215.476562 243.453125 L 177.003906 243.453125 C 175.070312 243.453125 173.503906 241.890625 173.503906 239.957031 C 173.503906 238.027344 175.070312 236.460938 177.003906 236.460938 L 211.976562 236.460938 L 211.976562 215.476562 C 211.976562 213.542969 213.542969 211.976562 215.476562 211.976562 C 217.40625 211.976562 218.972656 213.542969 218.972656 215.476562 L 218.972656 239.957031 C 218.972656 241.890625 217.40625 243.453125 215.476562 243.453125 Z M 215.476562 243.453125 " fill-opacity="1" fill-rule="nonzero"/><path fill="#77bdc6" d="M 281.925781 236.460938 C 279.996094 236.460938 278.429688 234.894531 278.429688 232.960938 L 278.429688 222.46875 L 267.9375 222.46875 C 266.003906 222.46875 264.441406 220.902344 264.441406 218.972656 C 264.441406 217.042969 266.003906 215.476562 267.9375 215.476562 L 281.925781 215.476562 C 283.859375 215.476562 285.425781 217.042969 285.425781 218.972656 L 285.425781 232.960938 C 285.425781 234.894531 283.859375 236.460938 281.925781 236.460938 Z M 281.925781 236.460938 " fill-opacity="1" fill-rule="nonzero"/><path fill="#77bdc6" d="M 267.9375 236.460938 L 253.949219 236.460938 C 252.015625 236.460938 250.449219 234.894531 250.449219 232.960938 L 250.449219 222.46875 L 229.464844 222.46875 C 227.535156 222.46875 225.96875 220.902344 225.96875 218.972656 C 225.96875 217.042969 227.535156 215.476562 229.464844 215.476562 L 253.949219 215.476562 C 255.878906 215.476562 257.445312 217.042969 257.445312 218.972656 L 257.445312 229.464844 L 267.9375 229.464844 C 269.867188 229.464844 271.433594 231.03125 271.433594 232.960938 C 271.433594 234.894531 269.867188 236.460938 267.9375 236.460938 Z M 267.9375 236.460938 " fill-opacity="1" fill-rule="nonzero"/><path fill="#77bdc6" d="M 239.957031 257.445312 L 229.464844 257.445312 C 227.535156 257.445312 225.96875 255.878906 225.96875 253.949219 L 225.96875 229.464844 C 225.96875 227.535156 227.535156 225.96875 229.464844 225.96875 C 231.394531 225.96875 232.960938 227.535156 232.960938 229.464844 L 232.960938 250.449219 L 239.957031 250.449219 C 241.890625 250.449219 243.453125 252.015625 243.453125 253.949219 C 243.453125 255.878906 241.890625 257.445312 239.957031 257.445312 Z M 239.957031 257.445312 " fill-opacity="1" fill-rule="nonzero"/><path fill="#77bdc6" d="M 267.9375 271.433594 C 266.003906 271.433594 264.441406 269.867188 264.441406 267.9375 L 264.441406 250.449219 L 253.949219 250.449219 C 252.015625 250.449219 250.449219 248.882812 250.449219 246.953125 C 250.449219 245.019531 252.015625 243.453125 253.949219 243.453125 L 267.9375 243.453125 C 269.867188 243.453125 271.433594 245.019531 271.433594 246.953125 L 271.433594 267.9375 C 271.433594 269.867188 269.867188 271.433594 267.9375 271.433594 Z M 267.9375 271.433594 " fill-opacity="1" fill-rule="nonzero"/><path fill="#77bdc6" d="M 239.957031 246.953125 C 238.027344 246.953125 236.460938 245.386719 236.460938 243.453125 L 236.460938 229.464844 C 236.460938 227.535156 238.027344 225.96875 239.957031 225.96875 C 241.890625 225.96875 243.453125 227.535156 243.453125 229.464844 L 243.453125 243.453125 C 243.453125 245.386719 241.890625 246.953125 239.957031 246.953125 Z M 239.957031 246.953125 " fill-opacity="1" fill-rule="nonzero"/><path fill="#77bdc6" d="M 253.949219 271.433594 L 236.460938 271.433594 C 234.527344 271.433594 232.960938 269.867188 232.960938 267.9375 C 232.960938 266.003906 234.527344 264.441406 236.460938 264.441406 L 250.449219 264.441406 L 250.449219 257.445312 C 250.449219 255.511719 252.015625 253.949219 253.949219 253.949219 C 255.878906 253.949219 257.445312 255.511719 257.445312 257.445312 L 257.445312 267.9375 C 257.445312 269.867188 255.878906 271.433594 253.949219 271.433594 Z M 253.949219 271.433594 " fill-opacity="1" fill-rule="nonzero"/></svg>