<svg xmlns="http://www.w3.org/2000/svg" xmlns:xlink="http://www.w3.org/1999/xlink" width="500" zoomAndPan="magnify" viewBox="0 0 375 374.999991" height="500" preserveAspectRatio="xMidYMid meet" version="1.0"><path fill="#ffffff" d="M 151.96875 0.671875 C 67.667969 1.597656 0.078125 70.699219 1.003906 155 C 1.925781 239.289062 71.019531 306.886719 155.328125 305.960938 C 186.457031 305.621094 216.738281 295.761719 242.125 277.710938 L 329.308594 364.882812 C 339.292969 374.734375 355.386719 374.632812 365.238281 364.636719 C 374.992188 354.75 374.992188 338.847656 365.238281 328.949219 L 278.054688 241.777344 C 326.917969 173.085938 310.824219 77.773438 242.125 28.90625 C 215.804688 10.207031 184.246094 0.320312 151.96875 0.671875 Z M 150.132812 27.09375 C 219.75 25.148438 277.769531 79.996094 279.714844 149.628906 C 279.742188 150.851562 279.769531 152.078125 279.769531 153.296875 C 279.796875 222.941406 223.355469 279.429688 153.71875 279.46875 C 84.070312 279.496094 27.582031 223.066406 27.546875 153.414062 C 27.546875 153.378906 27.546875 153.34375 27.546875 153.304688 C 27.472656 84.976562 81.824219 29.003906 150.132812 27.09375 Z M 150.132812 27.09375 " fill-opacity="1" fill-rule="nonzero"/><path fill="#ffffff" d="M 119.613281 59.78125 C 126.515625 57.3125 134.109375 60.894531 136.585938 67.796875 C 139.042969 74.652344 135.523438 82.207031 128.691406 84.738281 C 99.859375 95.230469 80.667969 122.636719 80.667969 153.3125 C 80.667969 160.648438 74.722656 166.59375 67.394531 166.59375 C 60.0625 166.59375 54.121094 160.648438 54.121094 153.3125 C 54.121094 111.472656 80.289062 74.089844 119.613281 59.78125 Z M 119.613281 59.78125 " fill-opacity="1" fill-rule="nonzero"/></svg>