<svg xmlns="http://www.w3.org/2000/svg" xmlns:xlink="http://www.w3.org/1999/xlink" width="500" zoomAndPan="magnify" viewBox="0 0 375 374.999991" height="500" preserveAspectRatio="xMidYMid meet" version="1.0"><defs><clipPath id="190da7c54d"><path d="M 37.5 29.1875 L 348 29.1875 L 348 356.9375 L 37.5 356.9375 Z M 37.5 29.1875 " clip-rule="nonzero"/></clipPath><clipPath id="57968c082a"><path d="M 58.292969 57.347656 L 259 57.347656 L 259 258 L 58.292969 258 Z M 58.292969 57.347656 " clip-rule="nonzero"/></clipPath><clipPath id="92ea764935"><path d="M 218 222 L 326 222 L 326 328.847656 L 218 328.847656 Z M 218 222 " clip-rule="nonzero"/></clipPath></defs><g clip-path="url(#190da7c54d)"><path fill="#dfd2ea" d="M 261.0625 356.710938 C 260.5 356.710938 259.933594 356.710938 259.371094 356.710938 C 256.914062 356.710938 254.460938 356.710938 252 356.714844 C 249.683594 356.734375 247.429688 356.238281 245.191406 355.753906 C 239.734375 354.582031 234.34375 353.132812 229.074219 351.265625 C 225.535156 350.007812 222.066406 348.566406 218.621094 347.066406 C 210.832031 343.667969 203.238281 339.820312 195.332031 336.679688 C 190.261719 334.667969 185.054688 333.148438 179.636719 332.355469 C 177.039062 331.976562 174.445312 331.652344 171.824219 331.484375 C 170.277344 331.386719 168.730469 331.199219 167.1875 331.296875 C 164.292969 331.480469 161.398438 331.675781 158.511719 332.015625 C 155.160156 332.410156 151.835938 332.9375 148.515625 333.515625 C 145.789062 333.988281 143.097656 334.625 140.425781 335.316406 C 135.515625 336.578125 130.660156 338.054688 125.894531 339.773438 C 120.28125 341.800781 114.597656 343.566406 108.777344 344.890625 C 105.667969 345.601562 102.527344 346.019531 99.34375 346.296875 C 95.347656 346.652344 91.355469 346.582031 87.367188 346.503906 C 82.066406 346.398438 76.964844 345.242188 72.125 343.011719 C 70.117188 342.089844 68.171875 341.058594 66.238281 339.988281 C 64.375 338.953125 62.773438 337.574219 61.15625 336.222656 C 59.574219 334.894531 58.054688 333.488281 56.59375 332.023438 C 53.417969 328.839844 50.828125 325.214844 48.542969 321.375 C 44.925781 315.289062 42.21875 308.789062 40.152344 302.027344 C 39.136719 298.710938 38.496094 295.300781 38.167969 291.832031 C 38.058594 290.664062 37.957031 289.496094 37.921875 288.328125 C 38.074219 286.542969 37.800781 284.78125 37.660156 283.015625 C 37.5 280.996094 38.136719 279.015625 37.921875 277 C 38.050781 274.179688 38.558594 271.414062 39.078125 268.648438 C 39.714844 265.285156 40.394531 261.929688 41.4375 258.65625 C 42.421875 255.558594 43.59375 252.539062 44.902344 249.578125 C 46.15625 246.738281 47.433594 243.902344 48.84375 241.140625 C 51.707031 235.527344 54.734375 230.003906 57.90625 224.558594 C 60.796875 219.601562 63.542969 214.566406 66.429688 209.609375 C 68.960938 205.253906 71.316406 200.808594 73.472656 196.261719 C 76.234375 190.433594 78.667969 184.480469 80.132812 178.175781 C 80.886719 174.929688 81.425781 171.65625 81.78125 168.335938 C 82.042969 165.839844 82.078125 163.347656 81.933594 160.871094 C 81.777344 158.210938 81.644531 155.542969 81.230469 152.890625 C 80.8125 150.207031 80.625 147.488281 80.289062 144.792969 C 79.992188 142.421875 79.648438 140.058594 79.308594 137.691406 C 78.894531 134.816406 78.460938 131.941406 78.046875 129.070312 C 77.691406 126.613281 77.324219 124.15625 77 121.695312 C 76.757812 119.835938 76.480469 117.972656 76.390625 116.105469 C 76.195312 112.070312 75.726562 108.042969 75.820312 104.003906 C 76.023438 95.398438 77.363281 87.003906 80.707031 79.007812 C 82.472656 74.789062 84.671875 70.792969 87.082031 66.914062 C 89.296875 63.355469 91.816406 60.039062 94.695312 56.976562 C 98.382812 53.0625 102.503906 49.683594 106.835938 46.523438 C 112.933594 42.070312 119.722656 38.972656 126.710938 36.296875 C 132.105469 34.230469 137.574219 32.351562 143.21875 31.074219 C 145.914062 30.464844 148.628906 29.980469 151.390625 29.714844 C 154.804688 29.382812 158.21875 29.1875 161.652344 29.195312 C 164.472656 29.195312 167.269531 29.480469 170.074219 29.691406 C 172.511719 29.875 174.914062 30.242188 177.324219 30.597656 C 180.167969 31.019531 182.914062 31.808594 185.621094 32.746094 C 189.453125 34.070312 193.113281 35.789062 196.679688 37.699219 C 199.828125 39.390625 202.910156 41.199219 206.054688 42.890625 C 208.992188 44.476562 212.035156 45.859375 215.042969 47.3125 C 219.96875 49.6875 225.132812 51.394531 230.355469 52.964844 C 234.410156 54.183594 238.574219 54.863281 242.714844 55.65625 C 244.578125 56.015625 246.519531 56.308594 248.449219 55.824219 C 248.804688 55.730469 249.199219 55.78125 249.574219 55.777344 C 252.023438 55.769531 254.46875 55.777344 256.917969 55.757812 C 260.207031 55.734375 263.476562 56.023438 266.753906 56.253906 C 269.28125 56.429688 271.804688 56.652344 274.316406 56.945312 C 277.804688 57.351562 281.242188 58.113281 284.636719 59.058594 C 288.851562 60.234375 292.996094 61.640625 296.917969 63.578125 C 301.386719 65.78125 305.761719 68.183594 309.699219 71.277344 C 314.300781 74.902344 317.589844 79.519531 319.882812 84.90625 C 321.273438 88.171875 322.371094 91.507812 322.820312 95.015625 C 323.246094 98.324219 323.304688 101.644531 323 104.992188 C 322.484375 110.691406 320.578125 115.972656 318.574219 121.242188 C 316.367188 127.050781 314.609375 132.992188 313.414062 139.082031 C 312.980469 141.277344 312.6875 143.527344 312.722656 145.792969 C 312.761719 148.476562 312.675781 151.164062 312.765625 153.847656 C 312.84375 156.140625 313.183594 158.417969 313.472656 160.695312 C 313.863281 163.769531 314.398438 166.8125 314.992188 169.847656 C 315.757812 173.765625 316.605469 177.671875 317.972656 181.425781 C 319.730469 186.234375 321.613281 191 323.488281 195.761719 C 324.246094 197.683594 325.085938 199.578125 325.972656 201.445312 C 327.628906 204.929688 329.332031 208.390625 331.039062 211.851562 C 333.015625 215.859375 335.058594 219.835938 336.992188 223.863281 C 339.457031 228.988281 341.957031 234.101562 343.699219 239.539062 C 345.1875 244.191406 346.464844 248.90625 347.132812 253.75 C 347.5625 256.859375 347.867188 259.996094 347.789062 263.152344 C 347.789062 265.421875 347.789062 267.691406 347.789062 269.957031 C 347.617188 278.601562 345.089844 286.558594 340.851562 294.042969 C 338.3125 298.527344 335.113281 302.488281 331.667969 306.292969 C 328.480469 309.816406 325.300781 313.339844 321.832031 316.578125 C 319.179688 319.050781 316.574219 321.5625 314.089844 324.1875 C 310.859375 327.601562 307.703125 331.078125 304.375 334.398438 C 301.210938 337.554688 297.824219 340.441406 294.273438 343.148438 C 290.679688 345.890625 286.964844 348.433594 282.953125 350.511719 C 277.503906 353.339844 271.777344 355.359375 265.660156 356.179688 C 264.128906 356.386719 262.601562 356.597656 261.0625 356.710938 Z M 261.0625 356.710938 " fill-opacity="1" fill-rule="nonzero"/></g><g clip-path="url(#57968c082a)"><path fill="#e9a283" d="M 158.964844 257.277344 C 104.691406 257.734375 59.039062 213.925781 58.71875 157.820312 C 58.402344 102.703125 103.164062 57.773438 157.925781 57.507812 C 159.5625 57.496094 161.199219 57.527344 162.832031 57.597656 C 164.46875 57.667969 166.101562 57.777344 167.730469 57.929688 C 169.359375 58.078125 170.984375 58.269531 172.605469 58.5 C 174.226562 58.730469 175.839844 59 177.449219 59.3125 C 179.054688 59.621094 180.652344 59.972656 182.246094 60.359375 C 183.835938 60.75 185.414062 61.175781 186.984375 61.640625 C 188.550781 62.109375 190.109375 62.613281 191.652344 63.15625 C 193.195312 63.699219 194.726562 64.277344 196.242188 64.894531 C 197.757812 65.515625 199.257812 66.167969 200.742188 66.859375 C 202.226562 67.550781 203.691406 68.28125 205.136719 69.042969 C 206.585938 69.808594 208.015625 70.605469 209.421875 71.441406 C 210.832031 72.273438 212.21875 73.140625 213.585938 74.042969 C 214.949219 74.945312 216.292969 75.882812 217.613281 76.847656 C 218.933594 77.816406 220.226562 78.816406 221.5 79.847656 C 222.769531 80.882812 224.015625 81.945312 225.234375 83.035156 C 226.449219 84.128906 227.640625 85.25 228.804688 86.402344 C 229.96875 87.554688 231.101562 88.734375 232.207031 89.941406 C 233.3125 91.148438 234.386719 92.382812 235.433594 93.640625 C 236.476562 94.902344 237.492188 96.1875 238.472656 97.496094 C 239.453125 98.808594 240.402344 100.140625 241.320312 101.496094 C 242.234375 102.855469 243.117188 104.230469 243.964844 105.632812 C 244.8125 107.03125 245.625 108.453125 246.40625 109.890625 C 247.183594 111.332031 247.925781 112.789062 248.632812 114.265625 C 249.339844 115.742188 250.011719 117.234375 250.644531 118.746094 C 251.277344 120.253906 251.871094 121.777344 252.429688 123.316406 C 252.988281 124.855469 253.507812 126.40625 253.992188 127.972656 C 254.472656 129.535156 254.917969 131.109375 255.324219 132.695312 C 255.726562 134.28125 256.09375 135.878906 256.417969 137.480469 C 256.746094 139.085938 257.03125 140.695312 257.277344 142.3125 C 257.527344 143.933594 257.734375 145.554688 257.902344 147.183594 C 258.070312 148.8125 258.195312 150.445312 258.28125 152.078125 C 258.371094 153.710938 258.417969 155.347656 258.421875 156.984375 C 258.722656 211.898438 214.105469 257.375 158.964844 257.277344 Z M 76.914062 157.527344 C 77.113281 202.722656 113.738281 239.511719 158.648438 239.191406 C 204.28125 238.886719 240.246094 202.828125 240.21875 157.269531 C 240.191406 112.074219 203.34375 75.410156 158.464844 75.691406 C 113.191406 75.96875 76.71875 112.5625 76.914062 157.527344 Z M 76.914062 157.527344 " fill-opacity="1" fill-rule="nonzero"/></g><g clip-path="url(#92ea764935)"><path fill="#e9a283" d="M 218.667969 240.746094 C 223.371094 236.15625 227.902344 231.773438 232.378906 227.339844 C 233.398438 226.265625 234.347656 225.128906 235.222656 223.933594 C 236.835938 221.878906 237.765625 221.621094 240.097656 223.160156 C 245.089844 226.457031 250.148438 229.675781 254.933594 233.25 C 275.203125 248.34375 293.699219 265.492188 311.769531 283.105469 C 314.082031 285.351562 316.441406 287.566406 318.640625 289.9375 C 325.296875 297.082031 326.976562 305.445312 323.3125 314.382812 C 319.648438 323.324219 312.5 327.9375 302.878906 328.285156 C 301.390625 328.351562 299.914062 328.261719 298.445312 328.011719 C 296.976562 327.765625 295.550781 327.367188 294.167969 326.816406 C 292.785156 326.265625 291.472656 325.578125 290.238281 324.746094 C 289 323.917969 287.863281 322.96875 286.828125 321.898438 C 271.589844 306.617188 256.777344 290.890625 242.953125 274.300781 C 234.941406 264.679688 227.234375 254.855469 220.648438 244.183594 C 219.875 242.933594 219.175781 241.640625 218.667969 240.746094 Z M 218.667969 240.746094 " fill-opacity="1" fill-rule="nonzero"/></g><path fill="#cae4de" d="M 158.464844 75.691406 C 113.191406 75.96875 76.71875 112.5625 76.914062 157.527344 C 77.113281 202.722656 113.738281 239.511719 158.648438 239.191406 C 204.28125 238.886719 240.246094 202.828125 240.21875 157.269531 C 240.191406 112.074219 203.34375 75.410156 158.464844 75.691406 Z M 158.464844 75.691406 " fill-opacity="1" fill-rule="nonzero"/><path fill="#77bdc6" d="M 150.195312 96.28125 C 149.144531 92.601562 145.628906 90.832031 142.105469 90.164062 C 141.179688 90.578125 140.261719 91.015625 139.351562 91.460938 C 136.871094 92.691406 134.453125 94.042969 132.101562 95.511719 C 129.753906 96.980469 127.480469 98.558594 125.285156 100.253906 C 123.089844 101.945312 120.980469 103.738281 118.964844 105.640625 C 116.945312 107.539062 115.023438 109.53125 113.203125 111.621094 C 111.378906 113.707031 109.664062 115.878906 108.054688 118.136719 C 106.445312 120.390625 104.949219 122.722656 103.570312 125.125 C 102.1875 127.527344 100.929688 129.996094 99.792969 132.523438 C 98.652344 135.046875 97.640625 137.625 96.757812 140.253906 C 96.449219 141.175781 96.15625 142.105469 95.875 143.042969 C 96.09375 143.527344 96.351562 143.988281 96.648438 144.429688 C 96.945312 144.871094 97.277344 145.28125 97.644531 145.664062 C 98.015625 146.046875 98.410156 146.398438 98.839844 146.710938 C 99.269531 147.027344 99.71875 147.304688 100.195312 147.542969 C 100.667969 147.777344 101.160156 147.976562 101.671875 148.128906 C 102.179688 148.28125 102.695312 148.390625 103.226562 148.453125 C 103.753906 148.519531 104.28125 148.539062 104.8125 148.511719 C 105.34375 148.484375 105.867188 148.414062 106.386719 148.296875 C 106.5625 147.625 106.75 146.957031 106.949219 146.296875 C 107.710938 143.714844 108.617188 141.183594 109.664062 138.703125 C 110.710938 136.21875 111.890625 133.804688 113.203125 131.457031 C 114.519531 129.105469 115.960938 126.835938 117.527344 124.644531 C 119.09375 122.457031 120.777344 120.359375 122.574219 118.355469 C 124.375 116.355469 126.28125 114.457031 128.289062 112.667969 C 130.300781 110.875 132.40625 109.203125 134.601562 107.644531 C 136.796875 106.085938 139.074219 104.65625 141.429688 103.351562 C 143.785156 102.046875 146.207031 100.878906 148.691406 99.84375 C 149.257812 99.601562 149.835938 99.375 150.414062 99.148438 C 150.546875 98.175781 150.472656 97.222656 150.195312 96.28125 Z M 150.195312 96.28125 " fill-opacity="1" fill-rule="nonzero"/><path fill="#77bdc6" d="M 110.773438 197.558594 C 107.703125 191 105.667969 184.132812 104.667969 176.960938 C 104.582031 176.355469 104.507812 175.753906 104.4375 175.140625 C 103.007812 174.675781 101.550781 174.5625 100.070312 174.804688 C 99.359375 174.894531 98.671875 175.0625 98.003906 175.3125 C 97.335938 175.566406 96.707031 175.894531 96.121094 176.296875 C 95.53125 176.699219 94.996094 177.164062 94.519531 177.695312 C 94.042969 178.222656 93.632812 178.804688 93.292969 179.429688 C 93.425781 180.3125 93.566406 181.1875 93.726562 182.058594 C 94.828125 188.210938 96.597656 194.167969 99.035156 199.925781 C 99.332031 200.625 99.636719 201.320312 99.953125 202.027344 C 102.769531 203.128906 105.800781 203.335938 108.765625 201.828125 C 109.933594 201.230469 110.886719 200.390625 111.621094 199.300781 C 111.332031 198.722656 111.046875 198.140625 110.773438 197.558594 Z M 110.773438 197.558594 " fill-opacity="1" fill-rule="nonzero"/></svg>