<svg xmlns="http://www.w3.org/2000/svg" xmlns:xlink="http://www.w3.org/1999/xlink" width="500" zoomAndPan="magnify" viewBox="0 0 375 179.999997" height="240" preserveAspectRatio="xMidYMid meet" version="1.0"><path fill="#efd2c5" d="M 355.542969 29.238281 C 344.773438 11.34375 323.3125 0 302.429688 1.800781 C 278.707031 3.832031 256.25 16.671875 232.988281 20.15625 C 212.714844 23.183594 192.136719 21.691406 171.828125 19.8125 C 134.84375 16.363281 95.335938 10.808594 60.613281 27.667969 C 32.257812 41.464844 10.449219 68.671875 3.554688 99.523438 C 0.601562 112.78125 0.332031 128.148438 7.730469 140.105469 C 16.238281 153.902344 32.027344 156.546875 46.972656 154.476562 C 65.214844 151.988281 82.191406 145.664062 100.890625 145.894531 C 120.628906 146.125 139.980469 150.988281 158.796875 156.433594 C 193.210938 166.394531 228.582031 180 265.0625 175.859375 C 295.992188 172.335938 324.65625 155.320312 343.546875 130.71875 C 364.972656 102.78125 374.667969 61.007812 355.542969 29.238281 Z M 355.542969 29.238281 " fill-opacity="1" fill-rule="nonzero"/><path fill="#efd2c5" d="M 355.542969 29.238281 C 344.773438 11.34375 323.3125 0 302.429688 1.800781 C 278.707031 3.832031 256.25 16.671875 232.988281 20.15625 C 212.714844 23.183594 192.136719 21.691406 171.828125 19.8125 C 134.84375 16.363281 95.335938 10.808594 60.613281 27.667969 C 32.257812 41.464844 10.449219 68.671875 3.554688 99.523438 C 0.601562 112.78125 0.332031 128.148438 7.730469 140.105469 C 16.238281 153.902344 32.027344 156.546875 46.972656 154.476562 C 65.214844 151.988281 82.191406 145.664062 100.890625 145.894531 C 120.628906 146.125 139.980469 150.988281 158.796875 156.433594 C 193.210938 166.394531 228.582031 180 265.0625 175.859375 C 295.992188 172.335938 324.65625 155.320312 343.546875 130.71875 C 364.972656 102.78125 374.667969 61.007812 355.542969 29.238281 Z M 355.542969 29.238281 " fill-opacity="1" fill-rule="nonzero"/></svg>