<svg xmlns="http://www.w3.org/2000/svg" xmlns:xlink="http://www.w3.org/1999/xlink" width="499" zoomAndPan="magnify" viewBox="0 0 374.25 214.499994" height="286" preserveAspectRatio="xMidYMid meet" version="1.0"><defs><clipPath id="f8990a9821"><path d="M 0.0625 1.585938 L 368 1.585938 L 368 213 L 0.0625 213 Z M 0.0625 1.585938 " clip-rule="nonzero"/></clipPath><clipPath id="f6cf924d49"><path d="M 1.4375 0 L 372 0 L 372 213 L 1.4375 213 Z M 1.4375 0 " clip-rule="nonzero"/></clipPath></defs><g clip-path="url(#f8990a9821)"><path fill="#dfd2ea" d="M 361.167969 50.359375 C 358.070312 41.265625 353.949219 33.152344 347.738281 25.789062 C 342.816406 19.953125 336.417969 15.082031 329.644531 11.59375 C 315.257812 4.183594 298.96875 1.746094 282.925781 1.679688 C 262.160156 1.589844 241.46875 3.261719 220.8125 5.238281 C 199.574219 7.273438 178.335938 9.523438 156.996094 10.066406 C 135.578125 10.613281 114.058594 9.800781 92.679688 8.546875 C 82.984375 7.976562 73.242188 7.078125 63.527344 7.28125 C 59.671875 7.359375 55.714844 7.621094 51.808594 8.210938 C 50.707031 8.265625 49.605469 8.359375 48.507812 8.476562 C 48.050781 8.46875 47.597656 8.472656 47.148438 8.488281 C 41.066406 8.699219 35.507812 10.421875 30.0625 13.074219 C 28.058594 14.054688 26.113281 15.210938 24.25 16.492188 C 23.097656 17.175781 22.066406 18.023438 20.992188 18.839844 C 20.589844 19.144531 20.207031 19.480469 19.84375 19.835938 C 19.097656 20.457031 18.363281 21.09375 17.652344 21.738281 C 14.003906 25.042969 10.828125 29.03125 8.363281 33.285156 C 2.839844 42.828125 0.734375 53.792969 0.414062 64.707031 C 0.144531 74.03125 1.199219 83.332031 1.710938 92.628906 C 2.25 102.46875 1.757812 112.3125 1.320312 122.148438 C 0.828125 133.210938 0.800781 144.246094 2.835938 155.179688 C 3.960938 161.222656 6.011719 167.003906 8.515625 172.605469 C 10.332031 176.671875 12.539062 180.59375 15.183594 184.179688 C 18.003906 188.003906 20.910156 191.609375 24.574219 194.664062 C 28.070312 197.578125 31.660156 200.214844 35.75 202.226562 C 39.855469 204.246094 44.105469 205.949219 48.527344 207.121094 C 52.078125 208.054688 55.71875 208.691406 59.363281 209.179688 C 67.652344 211.34375 76.363281 212.285156 84.773438 212.648438 C 105.324219 213.539062 125.917969 212.164062 146.4375 211.078125 C 156.921875 210.527344 167.414062 210.082031 177.917969 210.046875 C 188.542969 210.011719 199.167969 210.324219 209.789062 210.683594 C 231.050781 211.398438 252.335938 212.316406 273.605469 211.238281 C 283.292969 210.746094 293.132812 210.089844 302.554688 207.648438 C 309.996094 205.71875 317.355469 202.691406 323.863281 198.578125 C 330.191406 194.578125 335.964844 189.660156 340.703125 183.859375 C 343.4375 180.507812 346.015625 177.097656 348.25 173.390625 C 350.582031 169.53125 352.457031 165.453125 354.265625 161.328125 C 357.644531 153.636719 359.984375 145.523438 361.945312 137.367188 C 364.3125 127.515625 365.929688 117.433594 366.847656 107.34375 C 368.574219 88.398438 367.332031 68.460938 361.167969 50.359375 Z M 361.167969 50.359375 " fill-opacity="1" fill-rule="nonzero"/></g><g clip-path="url(#f6cf924d49)"><path fill="#dfd2ea" d="M 365.25 49.140625 C 362.128906 39.980469 357.980469 31.804688 351.722656 24.386719 C 346.761719 18.503906 340.316406 13.597656 333.492188 10.085938 C 318.996094 2.617188 302.585938 0.164062 286.421875 0.09375 C 265.5 0.00390625 244.65625 1.691406 223.84375 3.683594 C 202.449219 5.730469 181.050781 7.996094 159.546875 8.546875 C 137.96875 9.097656 116.289062 8.277344 94.75 7.011719 C 84.980469 6.441406 75.167969 5.535156 65.378906 5.738281 C 61.496094 5.820312 57.507812 6.082031 53.570312 6.675781 C 52.460938 6.730469 51.351562 6.824219 50.246094 6.945312 C 49.789062 6.9375 49.332031 6.9375 48.878906 6.953125 C 42.75 7.167969 37.148438 8.902344 31.664062 11.578125 C 29.640625 12.5625 27.683594 13.730469 25.804688 15.019531 C 24.644531 15.707031 23.605469 16.5625 22.523438 17.382812 C 22.117188 17.691406 21.730469 18.03125 21.367188 18.386719 C 20.613281 19.015625 19.878906 19.65625 19.160156 20.304688 C 15.484375 23.636719 12.285156 27.652344 9.800781 31.941406 C 4.238281 41.550781 2.113281 52.597656 1.792969 63.59375 C 1.519531 72.988281 2.582031 82.359375 3.097656 91.726562 C 3.640625 101.644531 3.148438 111.558594 2.703125 121.46875 C 2.207031 132.613281 2.179688 143.730469 4.230469 154.746094 C 5.363281 160.835938 7.429688 166.660156 9.953125 172.304688 C 11.785156 176.402344 14.007812 180.351562 16.671875 183.964844 C 19.515625 187.820312 22.441406 191.453125 26.132812 194.527344 C 29.65625 197.464844 33.269531 200.121094 37.390625 202.148438 C 41.527344 204.183594 45.808594 205.898438 50.265625 207.078125 C 53.84375 208.019531 57.511719 208.660156 61.183594 209.152344 C 69.535156 211.335938 78.308594 212.28125 86.78125 212.648438 C 107.488281 213.542969 128.238281 212.15625 148.910156 211.066406 C 159.476562 210.507812 170.042969 210.0625 180.625 210.027344 C 191.332031 209.992188 202.039062 210.308594 212.738281 210.667969 C 234.160156 211.386719 255.605469 212.3125 277.03125 211.226562 C 286.792969 210.734375 296.703125 210.070312 306.199219 207.609375 C 313.699219 205.667969 321.113281 202.617188 327.667969 198.472656 C 334.042969 194.441406 339.859375 189.484375 344.632812 183.640625 C 347.390625 180.265625 349.984375 176.828125 352.238281 173.09375 C 354.585938 169.207031 356.476562 165.097656 358.300781 160.941406 C 361.699219 153.191406 364.0625 145.019531 366.035156 136.800781 C 368.421875 126.875 370.050781 116.71875 370.976562 106.554688 C 372.714844 87.464844 371.460938 67.375 365.25 49.140625 Z M 365.25 49.140625 " fill-opacity="1" fill-rule="nonzero"/></g></svg>