<svg xmlns="http://www.w3.org/2000/svg" xmlns:xlink="http://www.w3.org/1999/xlink" width="500" zoomAndPan="magnify" viewBox="0 0 375 374.999991" height="500" preserveAspectRatio="xMidYMid meet" version="1.0"><defs><clipPath id="2bf40c2fd5"><path d="M 0 79.6875 L 369 79.6875 L 369 291.9375 L 0 291.9375 Z M 0 79.6875 " clip-rule="nonzero"/></clipPath><clipPath id="8e0c4ae065"><path d="M 3 79.6875 L 372 79.6875 L 372 291.9375 L 3 291.9375 Z M 3 79.6875 " clip-rule="nonzero"/></clipPath></defs><g clip-path="url(#2bf40c2fd5)"><path fill="#dfd2ea" d="M 361.949219 128.578125 C 358.84375 119.460938 354.714844 111.328125 348.488281 103.949219 C 343.554688 98.097656 337.140625 93.21875 330.351562 89.71875 C 315.929688 82.292969 299.605469 79.851562 283.523438 79.78125 C 262.710938 79.691406 241.972656 81.371094 221.265625 83.351562 C 199.980469 85.386719 178.691406 87.644531 157.300781 88.1875 C 135.832031 88.738281 114.261719 87.921875 92.832031 86.664062 C 83.117188 86.09375 73.351562 85.195312 63.613281 85.398438 C 59.75 85.476562 55.785156 85.738281 51.867188 86.328125 C 50.765625 86.382812 49.660156 86.476562 48.558594 86.59375 C 48.101562 86.589844 47.648438 86.589844 47.199219 86.605469 C 41.101562 86.820312 35.53125 88.542969 30.074219 91.207031 C 28.0625 92.1875 26.113281 93.347656 24.242188 94.628906 C 23.089844 95.3125 22.054688 96.164062 20.980469 96.980469 C 20.574219 97.289062 20.191406 97.625 19.828125 97.980469 C 19.078125 98.605469 18.347656 99.242188 17.632812 99.890625 C 13.976562 103.203125 10.792969 107.199219 8.324219 111.464844 C 2.785156 121.027344 0.671875 132.015625 0.355469 142.957031 C 0.0820312 152.300781 1.140625 161.625 1.652344 170.945312 C 2.195312 180.808594 1.703125 190.675781 1.261719 200.53125 C 0.765625 211.621094 0.742188 222.679688 2.78125 233.640625 C 3.90625 239.695312 5.964844 245.492188 8.472656 251.109375 C 10.292969 255.183594 12.503906 259.113281 15.15625 262.707031 C 17.984375 266.542969 20.898438 270.15625 24.570312 273.21875 C 28.078125 276.136719 31.671875 278.78125 35.769531 280.796875 C 39.886719 282.820312 44.144531 284.53125 48.582031 285.699219 C 52.136719 286.640625 55.785156 287.277344 59.441406 287.765625 C 67.75 289.9375 76.480469 290.878906 84.910156 291.242188 C 105.511719 292.132812 126.152344 290.757812 146.714844 289.671875 C 157.226562 289.117188 167.742188 288.671875 178.269531 288.636719 C 188.921875 288.601562 199.570312 288.914062 210.214844 289.273438 C 231.527344 289.988281 252.863281 290.910156 274.179688 289.832031 C 283.894531 289.339844 293.753906 288.679688 303.199219 286.230469 C 310.660156 284.300781 318.035156 281.261719 324.558594 277.140625 C 330.898438 273.132812 336.6875 268.199219 341.433594 262.386719 C 344.179688 259.027344 346.757812 255.609375 349 251.894531 C 351.339844 248.023438 353.21875 243.9375 355.03125 239.800781 C 358.414062 232.09375 360.765625 223.960938 362.726562 215.785156 C 365.101562 205.910156 366.722656 195.808594 367.644531 185.695312 C 369.375 166.703125 368.125 146.71875 361.949219 128.578125 Z M 361.949219 128.578125 " fill-opacity="1" fill-rule="nonzero"/></g><g clip-path="url(#8e0c4ae065)"><path fill="#dfd2ea" d="M 364.710938 128.578125 C 361.605469 119.460938 357.476562 111.328125 351.25 103.949219 C 346.316406 98.097656 339.90625 93.21875 333.113281 89.71875 C 318.691406 82.292969 302.367188 79.851562 286.285156 79.78125 C 265.472656 79.691406 244.734375 81.371094 224.03125 83.351562 C 202.742188 85.386719 181.453125 87.644531 160.0625 88.1875 C 138.59375 88.738281 117.027344 87.921875 95.597656 86.664062 C 85.878906 86.09375 76.117188 85.195312 66.375 85.398438 C 62.511719 85.476562 58.546875 85.738281 54.628906 86.328125 C 53.527344 86.382812 52.421875 86.476562 51.320312 86.59375 C 50.867188 86.589844 50.410156 86.589844 49.960938 86.605469 C 43.863281 86.820312 38.292969 88.542969 32.835938 91.207031 C 30.824219 92.1875 28.875 93.347656 27.007812 94.628906 C 25.851562 95.3125 24.820312 96.164062 23.742188 96.980469 C 23.335938 97.289062 22.953125 97.625 22.589844 97.980469 C 21.839844 98.605469 21.109375 99.242188 20.394531 99.890625 C 16.738281 103.203125 13.554688 107.199219 11.085938 111.464844 C 5.546875 121.027344 3.4375 132.015625 3.117188 142.957031 C 2.847656 152.300781 3.902344 161.625 4.414062 170.945312 C 4.957031 180.808594 4.464844 190.675781 4.023438 200.53125 C 3.53125 211.621094 3.503906 222.679688 5.542969 233.640625 C 6.671875 239.695312 8.726562 245.492188 11.234375 251.109375 C 13.058594 255.183594 15.269531 259.113281 17.917969 262.707031 C 20.75 266.542969 23.660156 270.15625 27.332031 273.21875 C 30.839844 276.136719 34.433594 278.78125 38.535156 280.796875 C 42.648438 282.820312 46.910156 284.53125 51.34375 285.699219 C 54.898438 286.640625 58.550781 287.277344 62.203125 287.765625 C 70.511719 289.9375 79.242188 290.878906 87.671875 291.242188 C 108.273438 292.132812 128.914062 290.757812 149.476562 289.671875 C 159.988281 289.117188 170.503906 288.671875 181.035156 288.636719 C 191.683594 288.601562 202.335938 288.914062 212.976562 289.273438 C 234.289062 289.988281 255.628906 290.910156 276.945312 289.832031 C 286.65625 289.339844 296.515625 288.679688 305.960938 286.230469 C 313.421875 284.300781 320.796875 281.261719 327.320312 277.140625 C 333.660156 273.132812 339.449219 268.199219 344.195312 262.386719 C 346.941406 259.027344 349.523438 255.609375 351.765625 251.894531 C 354.101562 248.023438 355.980469 243.9375 357.792969 239.800781 C 361.179688 232.09375 363.527344 223.960938 365.492188 215.785156 C 367.863281 205.910156 369.484375 195.808594 370.40625 185.695312 C 372.136719 166.703125 370.886719 146.71875 364.710938 128.578125 Z M 364.710938 128.578125 " fill-opacity="1" fill-rule="nonzero"/></g></svg>