<svg width="395" height="844" viewBox="0 0 395 844" fill="none" xmlns="http://www.w3.org/2000/svg">
<path d="M372.866 832.723C379.964 836.652 387.11 840.428 394.401 843.723L397.041 62.2693C386.281 58.1555 375.642 53.6837 365.494 47.4619C359.298 43.6552 353.028 40.0327 346.977 35.878C340.498 31.447 334.149 26.7091 327.663 22.2781C320.315 17.2741 312.775 12.7716 304.88 9.30252C299.303 6.84657 293.645 4.77947 287.787 3.67429C282.821 2.74308 277.872 1.78116 272.851 1.3002C267.072 0.747612 261.31 0.000591546 255.5 0.000591546C248.426 -0.0198734 241.393 0.49178 234.359 1.3616C228.669 2.05745 223.076 3.32636 217.523 4.92273C205.895 8.26897 194.628 13.1911 183.514 18.6044C169.117 25.6141 155.131 33.729 142.568 45.3948C133.644 53.6734 125.153 62.5251 117.556 72.7787C111.625 80.8015 106.435 89.4894 101.872 98.8118C96.9064 108.973 92.3756 119.442 88.7381 130.494C81.8494 151.441 79.0891 173.432 78.6706 195.976C78.4775 206.557 79.4432 217.107 79.8456 227.678C80.0306 232.569 80.602 237.45 81.101 242.321C81.7689 248.768 82.5254 255.205 83.2577 261.642C84.1108 269.163 85.004 276.695 85.8571 284.226C86.5572 290.427 87.2654 296.618 87.877 302.83C88.5691 309.891 88.9554 317.013 89.8165 324.043C90.6695 330.992 90.9431 337.981 91.2651 344.95C91.5628 351.437 91.4904 357.966 90.9512 364.505C90.2189 373.203 89.1083 381.779 87.5551 390.282C84.5373 406.799 79.5236 422.394 73.834 437.662C69.3918 449.573 64.5391 461.219 59.3242 472.629C53.3771 485.614 47.7196 498.805 41.7644 511.791C35.2298 526.056 28.9929 540.526 23.0941 555.231C20.1889 562.465 17.5573 569.895 14.9741 577.334C12.2781 585.091 9.86386 593.001 7.83587 601.116C5.68717 609.691 4.28689 618.482 2.97514 627.292C1.90481 634.537 0.858624 641.782 0.593055 649.171C1.03567 654.451 -0.276082 659.639 0.0538676 664.93C0.34358 669.555 0.906911 674.17 0.593055 678.847C0.665483 681.907 0.87472 684.966 1.10005 688.026C1.77605 697.113 3.09585 706.047 5.18822 714.734C9.44538 732.448 15.0224 749.476 22.4744 765.419C27.1822 775.478 32.5178 784.975 39.0605 793.315C42.0702 797.152 45.2008 800.836 48.46 804.315C51.7917 807.856 55.0912 811.468 58.9299 814.18C62.9135 816.984 66.9212 819.686 71.0576 822.101C81.0285 827.944 91.5387 830.973 102.459 831.249C110.676 831.454 118.9 831.638 127.133 830.707C133.692 829.98 140.162 828.885 146.568 827.023C158.559 823.554 170.268 818.928 181.832 813.617C191.65 809.115 201.654 805.247 211.769 801.941C217.274 800.13 222.819 798.462 228.436 797.224C235.276 795.709 242.125 794.328 249.03 793.294C254.977 792.404 260.94 791.892 266.903 791.411C270.082 791.156 273.269 791.647 276.456 791.903C281.856 792.343 287.199 793.192 292.551 794.185C303.713 796.262 314.44 800.243 324.886 805.513C341.174 813.74 356.819 823.82 372.866 832.723Z" fill="#B7DAB2"/>
</svg>
