<svg width="411" height="638" viewBox="0 0 411 638" fill="none" xmlns="http://www.w3.org/2000/svg">
<path fill-rule="evenodd" clip-rule="evenodd" d="M312.281 637.992H309.675C305.889 637.992 302.109 637.992 298.317 637.999C294.803 638.037 291.382 637.101 287.986 636.171L287.825 636.128C279.417 633.845 271.11 631.022 262.99 627.384C257.537 624.934 252.192 622.126 246.883 619.204C242.228 616.637 237.618 613.938 233.008 611.238C225.732 606.978 218.455 602.716 210.997 598.971C203.184 595.053 195.161 592.093 186.812 590.548C182.809 589.81 178.813 589.178 174.774 588.851C174.202 588.805 173.631 588.75 173.06 588.694C171.248 588.518 169.437 588.341 167.629 588.486C163.169 588.843 158.709 589.224 154.261 589.886C149.096 590.655 143.974 591.682 138.858 592.808C134.656 593.729 130.509 594.969 126.392 596.316C118.826 598.774 111.344 601.65 104.001 604.998C95.3512 608.947 86.5934 612.387 77.6248 614.966C72.8336 616.351 67.9942 617.165 63.0886 617.705C56.931 618.398 50.7795 618.261 44.6339 618.109C36.4659 617.903 28.6049 615.651 21.1472 611.306C18.0534 609.51 15.0558 607.501 12.0764 605.417C9.39765 603.535 7.06997 601.071 4.74627 598.611L4.71948 598.583C4.56149 598.415 4.40352 598.248 4.24545 598.081C1.80769 595.494 -0.533751 592.755 -2.78491 589.901L-0.76248 380.563C1.48767 375.685 3.68099 370.768 5.87411 365.851L5.87478 365.85C8.02272 361.034 10.1705 356.22 12.3713 351.442C16.2717 342.958 19.9012 334.298 23.2238 325.441C27.4794 314.088 31.2293 302.492 33.4865 290.21C34.6481 283.887 35.4788 277.51 36.0265 271.043C36.4298 266.18 36.484 261.325 36.2613 256.501C36.2497 256.252 36.2382 256.002 36.2267 255.753L36.2053 255.287C35.9859 250.508 35.7661 245.719 35.1778 240.955C34.7862 237.777 34.5258 234.572 34.2655 231.368C34.0978 229.304 33.9301 227.239 33.7272 225.181C33.3087 220.956 32.8297 216.742 32.3501 212.524L32.2164 211.348C31.8927 208.507 31.5613 205.665 31.23 202.825L31.2296 202.822C30.908 200.065 30.5865 197.309 30.2722 194.554C30.1563 193.541 30.0395 192.527 29.9227 191.514L29.9222 191.51C29.4875 187.738 29.0528 183.965 28.6591 180.188C28.6011 179.625 28.5417 179.061 28.4823 178.497C28.16 175.437 27.837 172.37 27.7201 169.299C27.6216 166.727 27.478 164.157 27.3345 161.586C27.0393 156.302 26.7441 151.019 26.8413 145.726C27.1543 128.962 29.2189 112.61 34.3713 97.0338C37.0919 88.8159 40.4807 81.0315 44.1945 73.4755C47.6074 66.5435 51.4897 60.0832 55.9258 54.1175C61.6079 46.4931 67.9581 39.911 74.6333 33.7551C84.0292 25.0806 94.4905 19.0464 105.259 13.8341C113.571 9.80882 121.998 6.14871 130.696 3.6605C134.849 2.47346 139.032 1.5299 143.288 1.01247C148.548 0.365687 153.809 -0.0147776 159.1 0.000439857C162.547 0.000439857 165.971 0.349903 169.397 0.699499C170.29 0.79066 171.183 0.881831 172.077 0.966817C175.593 1.30161 179.062 1.94981 182.537 2.59929L183.249 2.73217C187.631 3.55396 191.862 5.09105 196.033 6.91726C201.938 9.49679 207.578 12.8449 213.074 16.5658C215.517 18.225 217.934 19.942 220.35 21.6587C222.733 23.351 225.114 25.0429 227.52 26.6785C230.889 28.9779 234.348 31.0581 237.807 33.1387L237.809 33.1397C238.997 33.8542 240.185 34.5687 241.37 35.2922C248.96 39.9186 256.917 43.2439 264.965 46.3028C270.127 48.2644 275.405 49.5092 280.682 50.7538C281.791 51.0155 282.901 51.2772 284.009 51.5456C286.88 52.2457 289.872 52.8163 292.845 51.8728C293.243 51.7402 293.672 51.756 294.099 51.7717C294.26 51.7777 294.421 51.7836 294.579 51.7815C295.951 51.776 297.323 51.7745 298.694 51.7729C301.094 51.7703 303.493 51.7677 305.895 51.7435C310.159 51.705 314.402 52.0976 318.649 52.4905C319.45 52.5646 320.25 52.6386 321.051 52.7098C324.946 53.0522 328.834 53.486 332.704 54.0567C338.079 54.848 343.376 56.3319 348.607 58.1733C355.101 60.4637 361.488 63.203 367.531 66.9772C374.417 71.2688 381.158 75.9486 387.226 81.9751C394.316 89.0364 399.384 98.0307 402.918 108.524C405.06 114.885 406.752 121.383 407.444 128.217C408.1 134.662 408.19 141.13 407.721 147.651C406.926 158.753 403.989 169.04 400.901 179.305C397.5 190.62 394.792 202.194 392.95 214.057C392.282 218.333 391.83 222.716 391.884 227.129C391.909 229.302 391.901 231.475 391.893 233.649C391.881 236.707 391.87 239.765 391.951 242.82C392.052 246.565 392.436 250.288 392.82 254.008L392.82 254.01L392.822 254.024C392.895 254.736 392.969 255.447 393.04 256.159C393.642 262.147 394.467 268.075 395.382 273.987C396.561 281.619 397.867 289.229 399.974 296.541C402.569 305.514 405.34 314.409 408.108 323.295L408.109 323.299L408.473 324.467L405.921 559.814C401.834 564.631 397.819 569.524 393.991 574.637C392.525 576.595 391.069 578.564 389.614 580.533C386.126 585.25 382.64 589.964 379.022 594.528C374.146 600.676 368.927 606.299 363.456 611.572C357.918 616.914 352.194 621.868 346.013 625.916C337.616 631.425 328.792 635.359 319.366 636.957L319.059 637.009L319.055 637.01C316.799 637.396 314.549 637.781 312.281 637.992Z" fill="#E9A283"/>
</svg>
