<svg xmlns="http://www.w3.org/2000/svg" xmlns:xlink="http://www.w3.org/1999/xlink" width="500" zoomAndPan="magnify" viewBox="0 0 375 374.999991" height="500" preserveAspectRatio="xMidYMid meet" version="1.0"><defs><clipPath id="974933304b"><path d="M 19.5 15.285156 L 355.5 15.285156 L 355.5 357 L 19.5 357 Z M 19.5 15.285156 " clip-rule="nonzero"/></clipPath><clipPath id="97909aa940"><path d="M 24.75 15.285156 L 350.25 15.285156 C 351.640625 15.285156 352.976562 15.839844 353.960938 16.824219 C 354.945312 17.808594 355.5 19.140625 355.5 20.535156 L 355.5 351.464844 C 355.5 352.859375 354.945312 354.191406 353.960938 355.175781 C 352.976562 356.160156 351.640625 356.714844 350.25 356.714844 L 24.75 356.714844 C 23.359375 356.714844 22.023438 356.160156 21.039062 355.175781 C 20.054688 354.191406 19.5 352.859375 19.5 351.464844 L 19.5 20.535156 C 19.5 19.140625 20.054688 17.808594 21.039062 16.824219 C 22.023438 15.839844 23.359375 15.285156 24.75 15.285156 Z M 24.75 15.285156 " clip-rule="nonzero"/></clipPath><clipPath id="24b6ee246e"><path d="M 19.5 15.289062 L 355.5 15.289062 L 355.5 356.535156 L 19.5 356.535156 Z M 19.5 15.289062 " clip-rule="nonzero"/></clipPath><clipPath id="592430813b"><path d="M 24.75 15.289062 L 350.238281 15.289062 C 351.632812 15.289062 352.96875 15.839844 353.953125 16.824219 C 354.9375 17.808594 355.488281 19.144531 355.488281 20.539062 L 355.488281 351.457031 C 355.488281 352.851562 354.9375 354.1875 353.953125 355.171875 C 352.96875 356.15625 351.632812 356.707031 350.238281 356.707031 L 24.75 356.707031 C 23.359375 356.707031 22.023438 356.15625 21.039062 355.171875 C 20.054688 354.1875 19.5 352.851562 19.5 351.457031 L 19.5 20.539062 C 19.5 19.144531 20.054688 17.808594 21.039062 16.824219 C 22.023438 15.839844 23.359375 15.289062 24.75 15.289062 Z M 24.75 15.289062 " clip-rule="nonzero"/></clipPath><clipPath id="fbb8c8a856"><path d="M 64.480469 254.0625 L 121.011719 254.0625 L 121.011719 321.59375 L 64.480469 321.59375 Z M 64.480469 254.0625 " clip-rule="nonzero"/></clipPath><clipPath id="2abeb1ebb3"><path d="M 192.601562 214.441406 L 249.136719 214.441406 L 249.136719 321.59375 L 192.601562 321.59375 Z M 192.601562 214.441406 " clip-rule="nonzero"/></clipPath><clipPath id="a55ec58a87"><path d="M 127.308594 176.75 L 183.84375 176.75 L 183.84375 321.59375 L 127.308594 321.59375 Z M 127.308594 176.75 " clip-rule="nonzero"/></clipPath><clipPath id="d9b9525eb8"><path d="M 258.128906 137.660156 L 314.660156 137.660156 L 314.660156 321.59375 L 258.128906 321.59375 Z M 258.128906 137.660156 " clip-rule="nonzero"/></clipPath><clipPath id="8fe3834410"><path d="M 41.078125 322 L 333 322 L 333 336 L 41.078125 336 Z M 41.078125 322 " clip-rule="nonzero"/></clipPath></defs><g clip-path="url(#974933304b)"><g clip-path="url(#97909aa940)"><path fill="#dfd2ea" d="M 19.5 15.285156 L 355.5 15.285156 L 355.5 356.53125 L 19.5 356.53125 Z M 19.5 15.285156 " fill-opacity="1" fill-rule="nonzero"/></g></g><g clip-path="url(#24b6ee246e)"><g clip-path="url(#592430813b)"><path stroke-linecap="butt" transform="matrix(0.75, 0, 0, 0.75, 19.501073, 15.287411)" fill="none" stroke-linejoin="miter" d="M 6.99857 0.00220265 L 440.982974 0.00220265 C 442.842349 0.00220265 444.623599 0.736578 445.936099 2.049078 C 447.248599 3.361578 447.982974 5.142828 447.982974 7.002203 L 447.982974 448.22619 C 447.982974 450.085566 447.248599 451.866816 445.936099 453.179316 C 444.623599 454.491816 442.842349 455.226191 440.982974 455.226191 L 6.99857 455.226191 C 5.144403 455.226191 3.363153 454.491816 2.050653 453.179316 C 0.738153 451.866816 -0.00143021 450.085566 -0.00143021 448.22619 L -0.00143021 7.002203 C -0.00143021 5.142828 0.738153 3.361578 2.050653 2.049078 C 3.363153 0.736578 5.144403 0.00220265 6.99857 0.00220265 Z M 6.99857 0.00220265 " stroke="#000000" stroke-width="16" stroke-opacity="1" stroke-miterlimit="4"/></g></g><g clip-path="url(#fbb8c8a856)"><path fill="#77bdc6" d="M 64.480469 254.0625 L 121.011719 254.0625 L 121.011719 321.636719 L 64.480469 321.636719 Z M 64.480469 254.0625 " fill-opacity="1" fill-rule="nonzero"/></g><g clip-path="url(#2abeb1ebb3)"><path fill="#9b6ec8" d="M 192.601562 214.441406 L 249.136719 214.441406 L 249.136719 321.546875 L 192.601562 321.546875 Z M 192.601562 214.441406 " fill-opacity="1" fill-rule="nonzero"/></g><g clip-path="url(#a55ec58a87)"><path fill="#b7dab2" d="M 127.308594 176.75 L 183.84375 176.75 L 183.84375 321.617188 L 127.308594 321.617188 Z M 127.308594 176.75 " fill-opacity="1" fill-rule="nonzero"/></g><g clip-path="url(#d9b9525eb8)"><path fill="#cae4de" d="M 258.128906 137.660156 L 314.660156 137.660156 L 314.660156 321.617188 L 258.128906 321.617188 Z M 258.128906 137.660156 " fill-opacity="1" fill-rule="nonzero"/></g><path fill="#000000" d="M 193.242188 335.476562 L 193.242188 176.789062 C 193.242188 173.351562 190.535156 170.511719 187.035156 170.511719 L 123.367188 170.511719 C 119.933594 170.511719 117.160156 173.285156 117.160156 176.789062 L 117.160156 335.476562 L 129.839844 335.476562 L 129.839844 183.199219 L 180.5625 183.199219 L 180.5625 335.476562 Z M 193.242188 335.476562 " fill-opacity="1" fill-rule="evenodd"/><path fill="#000000" d="M 129.839844 246.648438 L 59.964844 246.648438 C 56.53125 246.648438 53.757812 249.421875 53.757812 252.925781 L 53.757812 335.476562 L 66.4375 335.476562 L 66.4375 259.335938 L 129.839844 259.335938 Z M 129.839844 246.648438 " fill-opacity="1" fill-rule="evenodd"/><path fill="#000000" d="M 151.964844 101.640625 L 214.707031 133.761719 L 311.332031 59.410156 L 303.605469 49.363281 L 213.253906 118.761719 L 151.503906 87.101562 L 53.757812 145.859375 L 60.296875 156.761719 L 65.710938 153.457031 Z M 151.964844 101.640625 " fill-opacity="1" fill-rule="nonzero"/><path fill="#000000" d="M 316.285156 47.25 L 308.359375 97.414062 L 295.878906 95.429688 L 301.820312 57.824219 L 264.242188 51.875 L 266.222656 39.316406 Z M 316.285156 47.25 " fill-opacity="1" fill-rule="evenodd"/><path fill="#000000" d="M 320.050781 335.476562 L 320.050781 138.71875 C 320.050781 135.28125 317.34375 132.441406 313.84375 132.441406 L 250.175781 132.441406 C 246.742188 132.441406 243.964844 135.21875 243.964844 138.71875 L 243.964844 335.476562 L 256.648438 335.476562 L 256.648438 145.128906 L 307.371094 145.128906 L 307.371094 335.476562 Z M 320.050781 335.476562 " fill-opacity="1" fill-rule="evenodd"/><g clip-path="url(#8fe3834410)"><path fill="#000000" d="M 41.078125 322.785156 L 332.730469 322.785156 L 332.730469 335.476562 L 41.078125 335.476562 Z M 41.078125 322.785156 " fill-opacity="1" fill-rule="evenodd"/></g><path fill="#000000" d="M 180.5625 208.578125 L 256.648438 208.578125 L 256.648438 221.269531 L 180.5625 221.269531 Z M 180.5625 208.578125 " fill-opacity="1" fill-rule="evenodd"/></svg>