<svg width="411" height="222" viewBox="0 0 411 222" fill="none" xmlns="http://www.w3.org/2000/svg">
<mask id="mask0_2005_460" style="mask-type:luminance" maskUnits="userSpaceOnUse" x="35" y="31" width="336" height="185">
<path d="M35.9553 31.6042H370.905V215.833H35.9553V31.6042Z" fill="white"/>
</mask>
<g mask="url(#mask0_2005_460)">
<mask id="mask1_2005_460" style="mask-type:luminance" maskUnits="userSpaceOnUse" x="35" y="4" width="337" height="212">
<path d="M35.6251 23.9982V196.005C35.6251 207.015 45.8188 215.94 58.3942 215.94H348.386C360.961 215.94 371.155 207.015 371.155 196.005V23.9982C371.155 12.9882 360.961 4.06343 348.386 4.06343H58.3942C45.8188 4.06343 35.6251 12.9882 35.6251 23.9982Z" fill="white"/>
</mask>
<g mask="url(#mask1_2005_460)">
<mask id="mask2_2005_460" style="mask-type:luminance" maskUnits="userSpaceOnUse" x="36" y="4" width="335" height="212">
<path d="M58.7914 4.4097H347.99C360.566 4.4097 370.759 13.336 370.759 24.346V195.658C370.759 206.668 360.566 215.594 347.99 215.594H58.7914C46.2144 215.594 36.0206 206.668 36.0206 195.658V24.346C36.0206 13.336 46.2144 4.4097 58.7914 4.4097Z" fill="white"/>
</mask>
<g mask="url(#mask2_2005_460)">
<path fill-rule="evenodd" clip-rule="evenodd" d="M371.046 31.9805V196.961C371.046 209.612 363.826 215.94 349.376 215.94H57.402C43.009 215.94 35.816 209.612 35.816 196.961V31.9805H371.046Z" fill="#DFD2EA"/>
</g>
</g>
</g>
<mask id="mask3_2005_460" style="mask-type:luminance" maskUnits="userSpaceOnUse" x="35" y="4" width="336" height="28">
<path d="M35.9553 4.35249H370.905V31.9896H35.9553V4.35249Z" fill="white"/>
</mask>
<g mask="url(#mask3_2005_460)">
<mask id="mask4_2005_460" style="mask-type:luminance" maskUnits="userSpaceOnUse" x="35" y="4" width="337" height="212">
<path d="M35.6251 23.9982V196.005C35.6251 207.015 45.8188 215.94 58.3942 215.94H348.386C360.961 215.94 371.155 207.015 371.155 196.005V23.9982C371.155 12.9882 360.961 4.06343 348.386 4.06343H58.3942C45.8188 4.06343 35.6251 12.9882 35.6251 23.9982Z" fill="white"/>
</mask>
<g mask="url(#mask4_2005_460)">
<mask id="mask5_2005_460" style="mask-type:luminance" maskUnits="userSpaceOnUse" x="36" y="4" width="335" height="212">
<path d="M58.7914 4.40971H347.99C360.566 4.40971 370.759 13.336 370.759 24.346V195.658C370.759 206.668 360.566 215.594 347.99 215.594H58.7914C46.2144 215.594 36.0206 206.668 36.0206 195.658V24.346C36.0206 13.336 46.2144 4.40971 58.7914 4.40971Z" fill="white"/>
</mask>
<g mask="url(#mask5_2005_460)">
<path fill-rule="evenodd" clip-rule="evenodd" d="M337.735 23.8266C339.342 23.8266 340.749 23.274 341.939 22.178C343.136 21.1798 343.731 19.9543 343.731 18.491C343.731 17.0818 343.136 15.8247 341.939 14.7286C340.749 13.7305 339.342 13.2397 337.735 13.2397C336.061 13.2397 334.6 13.7305 333.346 14.7286C332.213 15.8247 331.639 17.0818 331.639 18.491C331.639 19.9543 332.213 21.1798 333.346 22.178C334.6 23.274 336.061 23.8266 337.735 23.8266ZM360.215 18.491C360.215 17.0818 359.613 15.8247 358.425 14.7286C357.228 13.7305 355.821 13.2397 354.212 13.2397C352.54 13.2397 351.077 13.7305 349.825 14.7286C348.685 15.8247 348.124 17.0818 348.124 18.491C348.124 19.9543 348.685 21.1798 349.825 22.178C351.077 23.274 352.54 23.8266 354.212 23.8266C355.821 23.8266 357.228 23.274 358.425 22.178C359.613 21.1798 360.215 19.9543 360.215 18.491ZM371.046 31.9805H35.816V16.609C35.816 13.1599 37.2158 10.2015 40.029 7.75048C42.8354 5.28894 46.2075 4.06343 50.1471 4.06343H356.717C360.664 4.06343 364.036 5.28894 366.842 7.75048C369.647 10.2015 371.046 13.1599 371.046 16.609V31.9805ZM321.34 23.8266C322.956 23.8266 324.356 23.274 325.551 22.178C326.741 21.1798 327.343 19.9543 327.343 18.491C327.343 17.0818 326.741 15.8247 325.551 14.7286C324.356 13.7305 322.956 13.2397 321.34 13.2397C319.674 13.2397 318.205 13.7305 316.952 14.7286C315.818 15.8247 315.253 17.0818 315.253 18.491C315.253 19.9543 315.818 21.1798 316.952 22.178C318.205 23.274 319.674 23.8266 321.34 23.8266Z" fill="#9B6EC8"/>
</g>
</g>
</g>
<mask id="mask6_2005_460" style="mask-type:luminance" maskUnits="userSpaceOnUse" x="315" y="13" width="46" height="11">
<path d="M315.204 13.1042H360.547V23.8958H315.204V13.1042Z" fill="white"/>
</mask>
<g mask="url(#mask6_2005_460)">
<mask id="mask7_2005_460" style="mask-type:luminance" maskUnits="userSpaceOnUse" x="35" y="4" width="337" height="212">
<path d="M35.6251 23.9982V196.005C35.6251 207.015 45.8188 215.94 58.3942 215.94H348.386C360.961 215.94 371.155 207.015 371.155 196.005V23.9982C371.155 12.9882 360.961 4.06343 348.386 4.06343H58.3942C45.8188 4.06343 35.6251 12.9882 35.6251 23.9982Z" fill="white"/>
</mask>
<g mask="url(#mask7_2005_460)">
<mask id="mask8_2005_460" style="mask-type:luminance" maskUnits="userSpaceOnUse" x="36" y="4" width="335" height="212">
<path d="M58.7914 4.40971H347.99C360.566 4.40971 370.759 13.336 370.759 24.346V195.658C370.759 206.668 360.566 215.594 347.99 215.594H58.7914C46.2144 215.594 36.0206 206.668 36.0206 195.658V24.346C36.0206 13.336 46.2144 4.40971 58.7914 4.40971Z" fill="white"/>
</mask>
<g mask="url(#mask8_2005_460)">
<path fill-rule="evenodd" clip-rule="evenodd" d="M360.215 18.491C360.215 19.9543 359.613 21.1798 358.425 22.178C357.228 23.274 355.821 23.8266 354.212 23.8266C352.54 23.8266 351.077 23.274 349.825 22.178C348.685 21.1798 348.124 19.9543 348.124 18.491C348.124 17.0818 348.685 15.8247 349.825 14.7286C351.077 13.7305 352.54 13.2397 354.212 13.2397C355.821 13.2397 357.228 13.7305 358.425 14.7286C359.613 15.8247 360.215 17.0818 360.215 18.491ZM337.735 23.8266C336.061 23.8266 334.6 23.274 333.346 22.178C332.213 21.1798 331.639 19.9543 331.639 18.491C331.639 17.0818 332.213 15.8247 333.346 14.7286C334.6 13.7305 336.061 13.2397 337.735 13.2397C339.342 13.2397 340.749 13.7305 341.939 14.7286C343.136 15.8247 343.731 17.0818 343.731 18.491C343.731 19.9543 343.136 21.1798 341.939 22.178C340.749 23.274 339.342 23.8266 337.735 23.8266ZM321.34 23.8266C319.674 23.8266 318.205 23.274 316.952 22.178C315.818 21.1798 315.253 19.9543 315.253 18.491C315.253 17.0818 315.818 15.8247 316.952 14.7286C318.205 13.7305 319.674 13.2397 321.34 13.2397C322.956 13.2397 324.356 13.7305 325.551 14.7286C326.741 15.8247 327.343 17.0818 327.343 18.491C327.343 19.9543 326.741 21.1798 325.551 22.178C324.356 23.274 322.956 23.8266 321.34 23.8266Z" fill="#B7DAB2"/>
</g>
</g>
</g>
<mask id="mask9_2005_460" style="mask-type:luminance" maskUnits="userSpaceOnUse" x="35" y="4" width="337" height="212">
<path d="M35.6251 4.06343H371.232V215.842H35.6251V4.06343Z" fill="white"/>
</mask>
<g mask="url(#mask9_2005_460)">
<mask id="mask10_2005_460" style="mask-type:luminance" maskUnits="userSpaceOnUse" x="35" y="4" width="337" height="212">
<path d="M35.6251 23.9982V196.005C35.6251 207.015 45.8188 215.94 58.3942 215.94H348.386C360.961 215.94 371.155 207.015 371.155 196.005V23.9982C371.155 12.9882 360.961 4.06343 348.386 4.06343H58.3942C45.8188 4.06343 35.6251 12.9882 35.6251 23.9982Z" fill="white"/>
</mask>
<g mask="url(#mask10_2005_460)">
<mask id="mask11_2005_460" style="mask-type:luminance" maskUnits="userSpaceOnUse" x="35" y="4" width="337" height="212">
<path d="M35.6251 23.9982V196.002C35.6251 207.012 45.8188 215.937 58.3942 215.937H348.382C360.958 215.937 371.151 207.012 371.151 196.002V23.9982C371.151 12.9882 360.958 4.06343 348.382 4.06343H58.3942C45.8188 4.06343 35.6251 12.9882 35.6251 23.9982Z" fill="white"/>
</mask>
<g mask="url(#mask11_2005_460)">
<path d="M35.6251 23.9982V196.002C35.6251 207.012 45.8188 215.937 58.3942 215.937H348.382C360.958 215.937 371.151 207.012 371.151 196.002V23.9982C371.151 12.9882 360.958 4.06343 348.382 4.06343H58.3942C45.8188 4.06343 35.6251 12.9882 35.6251 23.9982Z" stroke="black" stroke-width="6"/>
</g>
</g>
</g>
<mask id="mask12_2005_460" style="mask-type:luminance" maskUnits="userSpaceOnUse" x="64" y="42" width="120" height="80">
<path d="M64.7601 42.3838H183.302V121.262H64.7601V42.3838Z" fill="white"/>
</mask>
<g mask="url(#mask12_2005_460)">
<path d="M64.7601 42.3838H183.358V121.262H64.7601V42.3838Z" fill="#CAE4DE"/>
</g>
<mask id="mask13_2005_460" style="mask-type:luminance" maskUnits="userSpaceOnUse" x="64" y="42" width="120" height="80">
<path d="M64.7601 42.3853H183.231V121.259H64.7601V42.3853Z" fill="white"/>
</mask>
<g mask="url(#mask13_2005_460)">
<path d="M64.7601 42.3853H183.298V121.259H64.7601V42.3853Z" stroke="black" stroke-width="4"/>
</g>
<mask id="mask14_2005_460" style="mask-type:luminance" maskUnits="userSpaceOnUse" x="76" y="51" width="96" height="62">
<path d="M76.682 51.1746H171.392V112.138H76.682V51.1746Z" fill="white"/>
</mask>
<g mask="url(#mask14_2005_460)">
<path d="M178.552 48.0341V118.424H68.5965V48.0341H178.552ZM182.803 44.3169H64.3268V122.182H182.803V44.3169ZM81.2836 107.31H165.867L147.14 64.7094L123.565 91.8993L107.848 78.3058L81.2836 107.31ZM91.811 66.5612C88.3047 66.5612 85.4691 69.0543 85.4691 72.1392C85.4691 75.221 88.3064 77.7157 91.811 77.7157C95.3138 77.7157 98.1511 75.221 98.1511 72.1392C98.1511 69.0543 95.3138 66.5612 91.811 66.5612Z" fill="black"/>
</g>
<mask id="mask15_2005_460" style="mask-type:luminance" maskUnits="userSpaceOnUse" x="64" y="126" width="80" height="76">
<path d="M64.7601 126.442H143.892V201.457H64.7601V126.442Z" fill="white"/>
</mask>
<g mask="url(#mask15_2005_460)">
<path d="M64.7601 126.442H143.892V201.406H64.7601V126.442Z" fill="#B7DAB2"/>
</g>
<mask id="mask16_2005_460" style="mask-type:luminance" maskUnits="userSpaceOnUse" x="64" y="126" width="80" height="76">
<path d="M64.7618 126.442H143.889V201.454H64.7618V126.442Z" fill="white"/>
</mask>
<g mask="url(#mask16_2005_460)">
<path d="M64.7618 126.442H143.889V201.454H64.7618V126.442Z" stroke="black" stroke-width="4"/>
</g>
<path d="M114.682 153.699L115.04 161.432H114.366C113.334 158.702 112.419 156.84 111.622 155.843C110.824 154.848 109.675 154.35 108.176 154.35H107.749V174.626H110.741V175.27H97.8993V174.626H100.891V154.35H100.43C98.931 154.35 97.7686 154.867 96.9432 155.903C96.1212 156.939 95.2184 158.782 94.2331 161.432H93.5659L93.9167 153.699H114.682Z" fill="black"/>
<mask id="mask17_2005_460" style="mask-type:luminance" maskUnits="userSpaceOnUse" x="270" y="140" width="71" height="62">
<path d="M270.511 140.225H340.053V201.111H270.511V140.225Z" fill="white"/>
</mask>
<g mask="url(#mask17_2005_460)">
<path d="M331.443 201.455H279.117C274.146 201.455 270.115 197.927 270.115 193.573V147.761C270.115 143.407 274.146 139.879 279.117 139.879H331.443C336.416 139.879 340.446 143.407 340.446 147.761V193.573C340.446 197.927 336.416 201.455 331.443 201.455Z" fill="#FFCCAA"/>
</g>
<path d="M299.358 172.444L278.273 186.019V155.433L299.358 172.444Z" fill="black"/>
<path d="M331.381 186.397H279.181L300.022 172.978L304.971 176.971C305.141 177.108 305.42 177.108 305.59 176.971L310.539 172.978L331.381 186.397Z" fill="black"/>
<path d="M332.287 155.433V186.019L311.201 172.444L332.287 155.433Z" fill="black"/>
<path d="M331.597 154.936L310.213 172.188C310.209 172.191 310.204 172.194 310.2 172.198L305.281 176.167L300.361 172.198C300.356 172.194 300.352 172.191 300.347 172.188L278.964 154.936H331.597Z" fill="black"/>
<mask id="mask18_2005_460" style="mask-type:luminance" maskUnits="userSpaceOnUse" x="270" y="139" width="71" height="63">
<path d="M270.115 139.878H340.405V201.419H270.115V139.878Z" fill="white"/>
</mask>
<g mask="url(#mask18_2005_460)">
<path d="M270.115 139.878V201.455H340.446V139.878H270.115Z" stroke="black" stroke-width="4"/>
</g>
<mask id="mask19_2005_460" style="mask-type:luminance" maskUnits="userSpaceOnUse" x="197" y="42" width="144" height="91">
<path d="M197.05 42.3838H340.45V132.684H197.05V42.3838Z" fill="white"/>
</mask>
<g mask="url(#mask19_2005_460)">
<path d="M197.05 42.3838H340.476V132.684H197.05V42.3838Z" fill="#77BDC6"/>
</g>
<mask id="mask20_2005_460" style="mask-type:luminance" maskUnits="userSpaceOnUse" x="197" y="42" width="144" height="91">
<path d="M197.05 42.3853H340.445V132.681H197.05V42.3853Z" fill="white"/>
</mask>
<g mask="url(#mask20_2005_460)">
<path d="M197.05 42.3853H340.445V132.681H197.05V42.3853Z" stroke="black" stroke-width="4"/>
</g>
<path d="M320.461 109.208C320.461 103.579 320.451 97.9485 320.477 92.3178C320.48 91.7111 320.344 91.4958 319.589 91.5064C316.565 91.547 313.54 91.538 310.515 91.5124C309.884 91.5064 309.623 91.5967 309.623 92.232C309.647 103.492 309.647 114.752 309.623 126.013C309.623 126.643 309.877 126.74 310.512 126.734C313.536 126.709 316.561 126.7 319.586 126.74C320.336 126.749 320.48 126.545 320.477 125.93C320.451 120.357 320.461 114.783 320.461 109.208Z" fill="black"/>
<path d="M275.528 91.4792C272.566 91.5063 269.603 91.5169 266.642 91.4747C265.813 91.4612 265.551 91.6253 265.557 92.3946C265.598 97.9711 265.579 103.548 265.579 109.124C265.579 114.728 265.589 120.333 265.565 125.938C265.563 126.533 265.682 126.781 266.452 126.769C269.477 126.73 272.505 126.737 275.532 126.764C276.189 126.77 276.416 126.627 276.416 126.018C276.395 114.752 276.395 103.486 276.416 92.22C276.417 91.6102 276.18 91.4732 275.528 91.4792Z" fill="black"/>
<path d="M305.599 95.3831C305.599 94.7508 305.329 94.6544 304.7 94.6604C301.804 94.6845 298.906 94.7041 296.01 94.6514C295.07 94.6333 294.76 94.8035 294.771 95.6962C294.827 100.68 294.798 105.663 294.798 110.646C294.798 115.714 294.81 120.783 294.783 125.851C294.779 126.534 294.982 126.783 295.806 126.77C298.765 126.731 301.728 126.743 304.689 126.764C305.31 126.769 305.601 126.686 305.599 126.043C305.575 115.822 305.575 105.603 305.599 95.3831Z" fill="black"/>
<path d="M289.999 103.341C287.003 103.379 284.009 103.371 281.014 103.344C280.354 103.338 280.13 103.493 280.132 104.097C280.154 111.393 280.154 118.687 280.132 125.983C280.132 126.588 280.355 126.74 281.016 126.734C284.011 126.709 287.005 126.701 289.999 126.739C290.788 126.749 291.041 126.573 291.032 125.855C290.991 122.249 291.013 118.645 291.013 115.039C291.013 111.434 290.991 107.828 291.032 104.224C291.041 103.504 290.786 103.331 289.999 103.341Z" fill="black"/>
<mask id="mask21_2005_460" style="mask-type:luminance" maskUnits="userSpaceOnUse" x="324" y="108" width="12" height="19">
<path d="M324.009 108.302H335.012V126.802H324.009V108.302Z" fill="white"/>
</mask>
<g mask="url(#mask21_2005_460)">
<path d="M334.252 108.352C331.229 108.38 328.205 108.386 325.183 108.349C324.403 108.34 324.139 108.507 324.151 109.226C324.2 111.982 324.17 114.74 324.17 117.496C324.17 120.312 324.188 123.123 324.158 125.935C324.151 126.548 324.342 126.776 325.08 126.77C328.134 126.74 331.19 126.739 334.245 126.769C334.93 126.773 335.124 126.563 335.122 125.985C335.104 120.358 335.104 114.732 335.124 109.105C335.129 108.507 334.918 108.344 334.252 108.352Z" fill="black"/>
</g>
<path d="M291.971 65.9078C291.975 65.7105 291.99 65.5133 291.978 65.3161C291.839 62.8997 289.509 61.0524 286.972 61.343C283.272 61.766 281.612 64.6913 283.396 67.6512L284.525 68.6749C287.151 70.0751 289.512 69.6054 291.485 67.2929C291.646 66.8322 291.808 66.3715 291.971 65.9078ZM287.309 67.3561C286.027 67.3696 285.048 66.5476 285.017 65.429C284.984 64.3029 286.016 63.3619 287.285 63.3559C288.489 63.3499 289.579 64.2682 289.619 65.3191C289.66 66.3986 288.589 67.3425 287.309 67.3576V67.3561Z" fill="black"/>
<mask id="mask22_2005_460" style="mask-type:luminance" maskUnits="userSpaceOnUse" x="200" y="111" width="10" height="9">
<path d="M200.372 111H209.993V119.479H200.372V111Z" fill="white"/>
</mask>
<g mask="url(#mask22_2005_460)">
<path d="M204.03 111.406C201.935 111.808 200.374 113.499 200.383 115.422C200.393 117.359 202.011 119.034 204.216 119.383C206.42 119.734 208.554 118.716 209.342 116.942C210.141 115.142 209.589 113.608 208.128 112.254L206.681 111.539C205.806 111.357 204.943 111.23 204.03 111.406ZM207.366 115.456C207.307 116.572 206.221 117.436 204.927 117.392C203.677 117.35 202.744 116.456 202.773 115.33C202.802 114.241 203.854 113.344 205.075 113.367C206.317 113.389 207.421 114.398 207.366 115.456Z" fill="black"/>
</g>
<path d="M325.126 60.6971C325.921 61.0148 326.726 61.2286 327.625 61.2105C329.836 61.1698 331.704 59.8359 332.13 57.9254C332.528 56.1414 331.377 54.1676 329.522 53.451C327.439 52.647 325.011 53.198 323.765 54.7864C322.432 56.4846 322.674 58.1603 323.935 59.8013L325.126 60.6971ZM327.622 55.1176C328.827 55.1567 329.83 56.0902 329.819 57.1681C329.809 58.3259 328.8 59.2021 327.508 59.172C326.256 59.1434 325.188 58.1783 325.221 57.1064C325.254 56.0631 326.44 55.0785 327.622 55.1176Z" fill="black"/>
<path d="M312.568 79.2107C314.948 77.9023 315.358 75.2135 313.512 73.0289L312.286 72.1723C310.257 71.409 308.39 71.6077 306.705 72.8919L305.757 74.0693C305.678 74.3387 305.59 74.6082 305.52 74.8807C305.09 76.5398 305.79 78.1658 307.336 79.1098C308.942 80.0899 310.902 80.1275 312.568 79.2107ZM307.709 75.8202C307.707 74.7166 308.761 73.8058 310.035 73.8073C311.361 73.8103 312.352 74.6715 312.347 75.8187C312.343 76.8936 311.217 77.8527 309.991 77.8271C308.827 77.8015 307.709 76.8214 307.709 75.8202Z" fill="black"/>
<path d="M240.844 95.0684C238.879 94.546 237.13 94.8562 235.617 96.0937L234.728 97.3734C234.693 97.5119 234.664 97.6504 234.623 97.7859C233.987 99.8575 235.14 101.902 237.379 102.664C239.673 103.445 242.184 102.614 243.25 100.68C244.256 98.8564 243.726 97.2485 242.234 95.8107L240.844 95.0684ZM239.078 100.923C237.852 100.908 236.762 99.9253 236.784 98.8534C236.808 97.7498 237.892 96.842 239.156 96.8676C240.334 96.8932 241.424 97.8612 241.422 98.8835C241.42 99.9464 240.28 100.939 239.078 100.923Z" fill="black"/>
<path d="M257.664 76.6076C257.538 76.3833 257.421 76.1544 257.285 75.9361C256.4 74.5179 255.067 73.7185 253.187 73.7124C251.289 73.7079 249.827 74.4336 248.978 75.9075C247.993 77.6208 248.429 79.2197 249.764 80.6725L251.103 81.4991C252.144 81.7836 253.203 81.9899 254.285 81.7219C256.388 81.201 257.468 79.9002 257.825 78.074C257.77 77.5847 257.717 77.0969 257.664 76.6091V76.6076ZM253.134 79.7948C251.862 79.7873 250.806 78.8629 250.813 77.7593C250.818 76.6558 251.884 75.7344 253.15 75.7389C254.353 75.7419 255.395 76.6588 255.416 77.7322C255.438 78.8373 254.372 79.8008 253.134 79.7948Z" fill="black"/>
<path d="M275.019 75.9783C272.045 74.6669 269.341 75.4754 268.041 78.0664L267.732 79.4244C267.789 79.7286 267.83 80.0357 267.907 80.3368C268.585 82.9399 271.962 84.2783 274.641 83.0212C276.751 82.029 278.079 79.4455 276.187 76.9298C275.797 76.6121 275.408 76.2959 275.021 75.9783H275.019ZM272.462 81.4644C271.247 81.4795 270.131 80.5009 270.137 79.4274C270.144 78.2862 271.154 77.4206 272.466 77.4281C273.773 77.4371 274.768 78.3299 274.743 79.4696C274.717 80.5084 273.642 81.4494 272.462 81.4644Z" fill="black"/>
<path d="M223.647 91.3076C223.09 88.9499 220.476 87.5784 217.817 88.2107C214.6 88.977 213.001 92.7529 216.115 95.3093L217.516 96.029C220.849 96.4084 222.219 95.7956 223.621 93.3024C223.685 92.7966 223.75 92.2892 223.813 91.7834C223.757 91.6253 223.685 91.4702 223.647 91.3076ZM221.404 92.1914C221.368 93.2663 220.321 94.1621 219.104 94.1621C217.847 94.1621 216.784 93.2136 216.801 92.1071C216.82 91.002 217.898 90.0821 219.152 90.1062C220.405 90.1318 221.442 91.0938 221.404 92.1914Z" fill="black"/>
<path d="M251.131 119.883C244.345 119.889 237.558 119.886 230.771 119.875C230.114 119.874 229.801 119.947 229.794 120.637C229.786 121.381 230.222 121.357 230.814 121.355C234.191 121.345 237.568 121.351 240.946 121.351C244.323 121.351 247.7 121.351 251.078 121.351C251.645 121.351 252.228 121.479 252.238 120.641C252.249 119.847 251.748 119.881 251.131 119.883Z" fill="black"/>
<path d="M251.262 122.754C247.819 122.766 244.378 122.76 240.935 122.76C237.527 122.76 234.117 122.772 230.707 122.749C230.071 122.745 229.794 122.855 229.799 123.481C229.806 124.076 230.014 124.237 230.683 124.235C237.534 124.216 244.385 124.216 251.236 124.232C251.889 124.234 252.243 124.145 252.233 123.46C252.226 122.796 251.846 122.751 251.262 122.754Z" fill="black"/>
<path d="M230.606 112.432C237.526 112.412 244.447 112.411 251.368 112.429C251.96 112.429 252.231 112.335 252.231 111.744C252.23 111.152 251.963 111.054 251.37 111.057C247.926 111.077 244.481 111.068 241.037 111.068C237.56 111.068 234.083 111.075 230.606 111.059C230.054 111.056 229.796 111.145 229.808 111.702C229.818 112.225 229.942 112.433 230.606 112.432Z" fill="black"/>
<path d="M230.778 115.297C237.603 115.291 244.428 115.291 251.253 115.297C251.791 115.297 252.226 115.352 252.238 114.637C252.25 113.87 251.764 113.937 251.2 113.939C247.821 113.943 244.44 113.945 241.059 113.942C237.648 113.942 234.234 113.945 230.823 113.937C230.252 113.937 229.784 113.877 229.799 114.64C229.81 115.357 230.241 115.297 230.778 115.297Z" fill="black"/>
<path d="M216.115 95.3093C212.971 100.719 209.825 106.13 206.68 111.54C207.312 111.543 207.768 111.822 208.124 112.256C209.178 110.426 210.234 108.596 211.288 106.766C213.362 103.186 215.437 99.6076 217.516 96.029C216.925 95.9763 216.39 95.8363 216.115 95.3093Z" fill="black"/>
<path d="M206.68 111.54L208.124 112.254C207.77 111.822 207.314 111.544 206.68 111.54Z" fill="black"/>
<path d="M216.115 95.3093C216.39 95.8363 216.925 95.9763 217.516 96.029L216.115 95.3093Z" fill="black"/>
<path d="M249.764 80.6725L240.844 95.0684C241.501 95.0368 241.916 95.356 242.232 95.8107L251.102 81.4976C250.474 81.4494 250.029 81.1739 249.764 80.6725Z" fill="black"/>
<path d="M240.844 95.0684L242.232 95.8122C241.916 95.356 241.503 95.0368 240.844 95.0684Z" fill="black"/>
<path d="M249.764 80.6725C250.029 81.1739 250.476 81.4479 251.103 81.4991L249.764 80.6725Z" fill="black"/>
<path d="M313.512 73.0289C317.385 68.9188 321.256 64.8087 325.127 60.6971C324.497 60.6354 324.109 60.3282 323.935 59.8013C321.662 62.1876 319.376 64.5678 317.117 66.9631C315.49 68.6885 313.896 70.4364 312.286 72.1738C312.926 72.2054 313.268 72.5637 313.512 73.0289Z" fill="black"/>
<path d="M325.126 60.6971L323.935 59.8013C324.108 60.3282 324.497 60.6354 325.126 60.6971Z" fill="black"/>
<path d="M313.512 73.0289C313.268 72.5637 312.928 72.2054 312.286 72.1723L313.512 73.0289Z" fill="black"/>
<path d="M306.703 72.8919C306.383 72.7609 306.055 72.6465 305.745 72.499C301.152 70.3039 296.561 68.1088 291.973 65.9093C292.134 66.4603 291.921 66.9089 291.484 67.2974L305.757 74.0708C305.816 73.5197 306.127 73.1238 306.703 72.8919Z" fill="black"/>
<path d="M291.971 65.9078C291.809 66.37 291.646 66.8322 291.483 67.2943C291.921 66.9074 292.134 66.4588 291.971 65.9078Z" fill="black"/>
<path d="M306.703 72.8919C306.127 73.1238 305.816 73.5182 305.757 74.0693L306.703 72.8919Z" fill="black"/>
<path d="M235.617 96.0937L223.814 91.7834C223.92 92.3058 224.078 92.8342 223.621 93.3009C224.862 93.584 225.992 94.1139 227.168 94.54C229.7 95.4599 232.21 96.4279 234.728 97.3749C234.755 96.8058 234.999 96.3512 235.617 96.0937Z" fill="black"/>
<path d="M234.728 97.3749L235.617 96.0952C234.999 96.3512 234.755 96.8058 234.728 97.3749Z" fill="black"/>
<path d="M223.814 91.7834C223.75 92.2892 223.685 92.7951 223.621 93.3009C224.079 92.8342 223.921 92.3073 223.814 91.7834Z" fill="black"/>
<path d="M283.394 67.6527C282.439 68.5981 281.485 69.5421 280.531 70.4876C278.691 72.3168 276.854 74.1475 275.019 75.9783C275.663 76.0566 275.969 76.451 276.187 76.9298L284.525 68.6764C283.831 68.6042 283.514 68.2097 283.394 67.6527Z" fill="black"/>
<path d="M283.394 67.6527C283.514 68.2112 283.831 68.6042 284.525 68.6764L283.394 67.6527Z" fill="black"/>
<path d="M275.019 75.9783C275.41 76.2959 275.798 76.6121 276.187 76.9298C275.969 76.451 275.661 76.0581 275.019 75.9783Z" fill="black"/>
<path d="M225.387 111.235C223.329 111.235 223.329 111.235 223.329 113.004C223.329 114.892 223.329 114.892 225.476 114.892C227.631 114.892 227.631 114.892 227.631 113.179C227.631 111.235 227.631 111.235 225.387 111.235Z" fill="black"/>
<path d="M225.425 120.258C223.329 120.258 223.329 120.258 223.329 122.106C223.329 123.916 223.329 123.916 225.439 123.916C227.631 123.916 227.631 123.916 227.631 122.179C227.631 120.258 227.631 120.258 225.425 120.258Z" fill="black"/>
<path d="M268.04 78.0664L257.664 76.6076C258.023 77.0698 257.992 77.5651 257.825 78.0725L267.73 79.4244C267.558 78.9261 267.556 78.4534 268.04 78.0664Z" fill="black"/>
<path d="M257.664 76.6076C257.717 77.0969 257.77 77.5847 257.826 78.0725C257.996 77.5651 258.024 77.0698 257.664 76.6076Z" fill="black"/>
<path d="M268.041 78.0664C267.556 78.4534 267.558 78.9231 267.73 79.4244L268.041 78.0664Z" fill="black"/>
<path d="M218.937 68.5966C216.533 68.5966 214.108 68.6027 211.644 68.6027C212.734 75.5432 216.675 79.9378 223.461 82.0862C229.732 84.0705 235.727 83.3373 241.477 79.31C239.763 77.821 238.095 76.3697 236.449 74.9394C235.495 75.5778 234.449 76.0641 233.313 76.3998C232.176 76.7356 231.007 76.9027 229.806 76.9012C224.252 76.9012 219.662 73.2864 218.937 68.5966Z" fill="black"/>
<mask id="mask23_2005_460" style="mask-type:luminance" maskUnits="userSpaceOnUse" x="231" y="51" width="18" height="27">
<path d="M231.123 51.4335H248.292V77.4687H231.123V51.4335Z" fill="white"/>
</mask>
<g mask="url(#mask23_2005_460)">
<path d="M240.777 67.296C240.779 68.3529 240.586 69.3827 240.198 70.3854C239.809 71.3866 239.245 72.3064 238.509 73.145C240.098 74.5723 241.69 75.9995 243.283 77.4283C248.23 72.7054 249.336 66.2391 246.242 60.5934C243.336 55.2894 238.547 52.2181 231.268 51.4458C231.268 53.6152 231.261 55.7139 231.261 57.775C236.631 58.3983 240.777 62.4226 240.777 67.296Z" fill="black"/>
</g>
<path d="M227.956 57.8276V51.7874C219.659 51.7708 212.167 58.3093 212.115 65.6368H219C219.793 61.6486 223.396 58.5066 227.956 57.8276Z" fill="black"/>
<mask id="mask24_2005_460" style="mask-type:luminance" maskUnits="userSpaceOnUse" x="150" y="126" width="41" height="35">
<path d="M150.887 126.442H190.254V160.226H150.887V126.442Z" fill="white"/>
</mask>
<g mask="url(#mask24_2005_460)">
<path d="M150.887 126.442H190.228V160.226H150.887V126.442Z" fill="#E9A283"/>
</g>
<mask id="mask25_2005_460" style="mask-type:luminance" maskUnits="userSpaceOnUse" x="150" y="126" width="41" height="35">
<path d="M150.887 126.444H190.158V160.223H150.887V126.444Z" fill="white"/>
</mask>
<g mask="url(#mask25_2005_460)">
<path d="M150.887 126.444H190.251V160.223H150.887V126.444Z" stroke="black" stroke-width="4"/>
</g>
<mask id="mask26_2005_460" style="mask-type:luminance" maskUnits="userSpaceOnUse" x="157" y="131" width="27" height="24">
<path d="M157.32 131.734H183.72V154.847H157.32V131.734Z" fill="white"/>
</mask>
<g mask="url(#mask26_2005_460)">
<path d="M182.758 145.099C183.276 145.099 183.7 144.727 183.7 144.274V142.28C183.7 141.826 183.276 141.455 182.758 141.455H181.78C181.262 141.455 180.715 141.1 180.562 140.666L179.728 138.893C179.482 138.494 179.582 137.905 179.948 137.585L180.64 136.978C181.006 136.657 181.006 136.133 180.64 135.813L179.03 134.402C178.664 134.081 178.064 134.081 177.697 134.402L177.006 135.009C176.64 135.329 175.966 135.415 175.51 135.201L173.484 134.471C172.989 134.337 172.585 133.857 172.585 133.404V132.549C172.585 132.094 172.16 131.724 171.643 131.724H169.366C168.848 131.724 168.424 132.094 168.424 132.549V133.404C168.424 133.857 168.018 134.337 167.524 134.471L165.499 135.201C165.041 135.415 164.369 135.329 164.003 135.009L163.311 134.402C162.945 134.081 162.345 134.081 161.979 134.402L160.369 135.813C160.003 136.133 160.003 136.657 160.369 136.978L161.06 137.585C161.427 137.905 161.526 138.494 161.282 138.893L160.446 140.666C160.295 141.1 159.747 141.455 159.229 141.455H158.251C157.733 141.455 157.31 141.826 157.31 142.279V144.274C157.31 144.727 157.733 145.099 158.251 145.099H159.229C159.747 145.099 160.295 145.453 160.446 145.886L161.282 147.66C161.526 148.059 161.428 148.649 161.062 148.969L160.369 149.575C160.003 149.895 160.003 150.421 160.369 150.741L161.979 152.151C162.345 152.471 162.945 152.471 163.311 152.151L164.003 151.544C164.369 151.225 165.043 151.137 165.499 151.351L167.524 152.083C168.02 152.215 168.424 152.696 168.424 153.149V154.005C168.424 154.459 168.848 154.831 169.366 154.831H171.643C172.16 154.831 172.585 154.459 172.585 154.005V153.149C172.585 152.696 172.989 152.215 173.484 152.083L175.51 151.351C175.966 151.137 176.64 151.223 177.006 151.544L177.699 152.151C178.065 152.471 178.664 152.471 179.03 152.151L180.64 150.741C181.006 150.421 181.006 149.895 180.64 149.575L179.948 148.969C179.582 148.649 179.482 148.059 179.728 147.66L180.562 145.886C180.714 145.453 181.262 145.099 181.781 145.099H182.758ZM170.504 148.03C167.505 148.03 165.076 145.901 165.076 143.277C165.076 140.651 167.505 138.524 170.504 138.524C173.502 138.524 175.933 140.651 175.933 143.277C175.933 145.901 173.502 148.03 170.504 148.03Z" fill="black"/>
</g>
<mask id="mask27_2005_460" style="mask-type:luminance" maskUnits="userSpaceOnUse" x="150" y="163" width="41" height="39">
<path d="M150.887 163.95H190.254V201.457H150.887V163.95Z" fill="white"/>
</mask>
<g mask="url(#mask27_2005_460)">
<path d="M150.887 163.95H190.254V201.513H150.887V163.95Z" fill="#4E8E96"/>
</g>
<mask id="mask28_2005_460" style="mask-type:luminance" maskUnits="userSpaceOnUse" x="150" y="163" width="41" height="39">
<path d="M150.887 163.951H190.158V201.454H150.887V163.951Z" fill="white"/>
</mask>
<g mask="url(#mask28_2005_460)">
<path d="M150.887 163.951H190.251V201.454H150.887V163.951Z" stroke="black" stroke-width="4"/>
</g>
<mask id="mask29_2005_460" style="mask-type:luminance" maskUnits="userSpaceOnUse" x="197" y="139" width="66" height="63">
<path d="M197.05 139.878H262.363V201.457H197.05V139.878Z" fill="white"/>
</mask>
<g mask="url(#mask29_2005_460)">
<path d="M197.05 139.878H262.363V201.529H197.05V139.878Z" fill="#9B6EC8"/>
</g>
<mask id="mask30_2005_460" style="mask-type:luminance" maskUnits="userSpaceOnUse" x="197" y="139" width="66" height="63">
<path d="M197.05 139.878H262.362V201.419H197.05V139.878Z" fill="white"/>
</mask>
<g mask="url(#mask30_2005_460)">
<path d="M197.05 139.878H262.362V201.455H197.05V139.878Z" stroke="black" stroke-width="4"/>
</g>
<mask id="mask31_2005_460" style="mask-type:luminance" maskUnits="userSpaceOnUse" x="154" y="166" width="34" height="34">
<path d="M154.174 166.572H187.503V199.221H154.174V166.572Z" fill="white"/>
</mask>
<g mask="url(#mask31_2005_460)">
<path d="M184.077 167.906H170.518C170.513 167.906 170.51 167.906 170.506 167.906C169.992 167.906 169.576 168.269 169.576 168.719C169.576 168.934 169.674 169.142 169.848 169.294C170.023 169.446 170.259 169.532 170.506 169.532H184.077C184.591 169.532 185.008 169.168 185.008 168.719C185.008 168.269 184.591 167.906 184.077 167.906ZM184.077 171.866L170.518 171.867C170.513 171.867 170.51 171.866 170.506 171.866C169.992 171.866 169.576 172.23 169.576 172.68C169.576 172.896 169.674 173.103 169.848 173.255C170.023 173.407 170.259 173.493 170.506 173.493H184.077C184.591 173.493 185.008 173.129 185.008 172.68C185.008 172.23 184.591 171.866 184.077 171.866ZM165.052 169.532V175.828L157.862 175.827V175.828V169.532H165.052ZM156.934 167.906C156.419 167.906 156.003 168.269 156.003 168.719V176.641C156.003 176.857 156.101 177.064 156.275 177.216C156.45 177.368 156.686 177.454 156.934 177.454H165.982C166.494 177.454 166.911 177.09 166.911 176.641V168.719C166.911 168.504 166.813 168.296 166.639 168.144C166.464 167.99 166.228 167.906 165.982 167.906H156.934ZM184.077 175.827L170.517 175.828C170.513 175.828 170.51 175.827 170.506 175.827C169.992 175.827 169.576 176.191 169.576 176.641C169.576 176.857 169.674 177.064 169.848 177.216C170.023 177.368 170.259 177.454 170.506 177.454H184.077C184.591 177.454 185.008 177.09 185.008 176.641C185.008 176.191 184.591 175.827 184.077 175.827ZM156.934 179.788C156.419 179.788 156.003 180.152 156.003 180.602C156.003 181.051 156.419 181.415 156.934 181.415H184.077C184.591 181.415 185.008 181.051 185.008 180.602C185.008 180.154 184.591 179.789 184.077 179.789H156.946C156.942 179.788 156.937 179.788 156.934 179.788ZM156.934 183.749C156.419 183.749 156.003 184.113 156.003 184.563C156.003 185.012 156.419 185.376 156.934 185.376H184.077C184.591 185.376 185.008 185.012 185.008 184.563C185.008 184.115 184.591 183.75 184.077 183.75L156.946 183.749V183.75C156.942 183.749 156.937 183.749 156.934 183.749ZM156.934 187.71C156.419 187.71 156.003 188.074 156.003 188.524C156.003 188.973 156.419 189.337 156.934 189.337H184.077C184.591 189.337 185.008 188.973 185.008 188.524C185.008 188.074 184.591 187.711 184.077 187.711L156.946 187.71V187.711C156.942 187.71 156.937 187.71 156.934 187.71ZM179.553 191.671C179.041 191.671 178.624 192.035 178.624 192.486C178.624 192.934 179.041 193.299 179.553 193.299H184.077C184.591 193.299 185.008 192.934 185.008 192.486C185.008 192.035 184.591 191.671 184.077 191.671H179.563L179.562 191.673C179.56 191.671 179.556 191.671 179.553 191.671ZM156.934 191.671C156.419 191.671 156.003 192.035 156.003 192.486C156.003 192.701 156.101 192.909 156.275 193.061C156.45 193.213 156.686 193.299 156.934 193.299H175.031C175.543 193.299 175.959 192.934 175.959 192.486C175.959 192.035 175.543 191.671 175.031 191.671H156.946V191.673C156.942 191.671 156.937 191.671 156.934 191.671ZM156.934 195.632C156.419 195.632 156.003 195.996 156.003 196.447C156.003 196.895 156.419 197.26 156.934 197.26H175.031C175.543 197.26 175.959 196.895 175.959 196.447C175.959 195.996 175.543 195.632 175.031 195.632H156.944V195.634C156.94 195.632 156.937 195.632 156.934 195.632ZM179.553 195.632C179.041 195.632 178.624 195.996 178.624 196.447C178.624 196.895 179.041 197.26 179.553 197.26H184.077C184.591 197.26 185.008 196.895 185.008 196.447C185.008 195.996 184.591 195.632 184.077 195.632H179.565V195.634C179.562 195.632 179.558 195.632 179.553 195.632ZM153.338 165.571H187.673V199.593H148.814V199.595V169.532H151.479V196.447C151.479 196.895 151.895 197.26 152.409 197.26C152.922 197.26 153.338 196.895 153.338 196.447V165.571ZM152.409 163.945C152.162 163.945 151.926 164.029 151.751 164.183C151.577 164.335 151.479 164.543 151.479 164.758V167.906H147.885C147.637 167.906 147.402 167.99 147.226 168.144C147.053 168.296 146.955 168.504 146.955 168.719V200.408C146.955 200.623 147.053 200.831 147.226 200.983C147.402 201.135 147.637 201.221 147.885 201.221H188.601C189.116 201.221 189.532 200.856 189.532 200.408V164.758C189.532 164.309 189.116 163.945 188.601 163.945H152.409Z" fill="black"/>
</g>
<mask id="mask32_2005_460" style="mask-type:luminance" maskUnits="userSpaceOnUse" x="207" y="155" width="45" height="32">
<path d="M207.641 155.213H251.862V186.128H207.641V155.213Z" fill="white"/>
</mask>
<g mask="url(#mask32_2005_460)">
<path d="M225.33 155.213H212.064C209.622 155.213 207.665 156.943 207.665 159.078L207.643 182.263C207.643 184.399 209.622 186.128 212.064 186.128H247.439C249.881 186.128 251.86 184.399 251.86 182.263V162.942C251.86 160.808 249.881 159.078 247.439 159.078H229.751L225.33 155.213Z" fill="black"/>
</g>
</svg>
