<svg width="350" height="134" viewBox="0 0 350 134" fill="none" xmlns="http://www.w3.org/2000/svg">
<mask id="mask0_4_1010" style="mask-type:luminance" maskUnits="userSpaceOnUse" x="0" y="0" width="124" height="130">
<path d="M0.219391 0.236786H123.079V129.887H0.219391V0.236786Z" fill="white"/>
</mask>
<g mask="url(#mask0_4_1010)">
<path d="M6.1357 112.027H26.1547V129.848H6.1357V112.027ZM30.2499 129.848H50.2689V93.8004H30.2499V129.848ZM54.8194 129.848H74.8385V75.9779H54.8194V129.848ZM78.9336 129.848H98.9542V57.7513H78.9336V129.848ZM103.048 39.9301V129.848H123.068V39.9301H103.048ZM97.1343 21.2982L104.869 23.729L99.408 0.236786L78.4798 15.2231L85.3041 17.6526C70.7448 54.1057 39.8048 83.269 0.220612 99.0661C43.9 86.5092 78.9336 57.7513 97.1343 21.2982Z" fill="#DFD2EA"/>
</g>
<mask id="mask1_4_1010" style="mask-type:luminance" maskUnits="userSpaceOnUse" x="181" y="23" width="87" height="107">
<path d="M181.011 23.1538H267.82V129.887H181.011V23.1538Z" fill="white"/>
</mask>
<g mask="url(#mask1_4_1010)">
<path d="M266.762 42.2767C266.738 42.2539 246.08 23.7638 246.106 23.7852C245.67 23.3959 245.073 23.1698 244.442 23.1698H190.408C185.227 23.1698 181.011 26.9238 181.011 31.5366V121.465C181.011 126.078 185.227 129.831 190.408 129.831H258.539C263.72 129.831 267.936 126.078 267.936 121.465C267.936 120.181 267.937 44.2914 267.933 44.1362C267.954 43.3322 267.473 42.6432 266.762 42.2767ZM246.791 30.3312L259.819 41.993H246.791V30.3312ZM258.539 125.649H190.408C187.818 125.649 185.709 123.772 185.709 121.465V31.5366C185.709 29.2302 187.818 27.3532 190.408 27.3532H242.093V44.0841C242.093 45.2386 243.145 46.1751 244.442 46.1751H263.236V121.465C263.236 123.772 261.129 125.649 258.539 125.649Z" fill="#DFD2EA"/>
</g>
<path d="M206.854 79.6382C215.922 79.6382 223.299 73.0708 223.299 64.9983C223.299 56.9259 215.922 50.3585 206.854 50.3585C197.786 50.3585 190.408 56.9259 190.408 64.9983C190.408 73.0708 197.786 79.6382 206.854 79.6382ZM218.364 62.9073H209.203V54.7519C213.798 55.5854 217.426 58.8162 218.364 62.9073ZM204.503 54.7519V64.9983C204.503 66.1529 205.555 67.0893 206.854 67.0893H218.364C217.271 71.8574 212.525 75.4548 206.854 75.4548C200.377 75.4548 195.106 70.7643 195.106 64.9983C195.106 59.948 199.149 55.7232 204.503 54.7519Z" fill="#DFD2EA"/>
<path d="M256.188 117.283H251.49V98.46C251.49 97.3055 250.438 96.369 249.141 96.369H239.743C238.446 96.369 237.394 97.3055 237.394 98.46V117.283H232.696V88.0036C232.696 86.849 231.644 85.9126 230.346 85.9126H220.949C219.652 85.9126 218.6 86.849 218.6 88.0036V117.283H213.9V98.46C213.9 97.3055 212.848 96.369 211.552 96.369H202.154C200.857 96.369 199.805 97.3055 199.805 98.46V117.283H195.106V88.0036C195.106 86.849 194.054 85.9126 192.757 85.9126C191.46 85.9126 190.408 86.849 190.408 88.0036V119.374C190.408 120.529 191.46 121.465 192.757 121.465C207.799 121.465 243.713 121.465 256.188 121.465C257.487 121.465 258.539 120.529 258.539 119.374C258.539 118.22 257.487 117.283 256.188 117.283ZM204.503 117.283V100.552H209.203V117.283H204.503ZM223.299 117.283V90.0946H227.997V117.283H223.299ZM242.093 117.283V100.552H246.791V117.283H242.093Z" fill="#DFD2EA"/>
<path d="M192.757 46.1751H235.045C236.342 46.1751 237.394 45.2386 237.394 44.0841V33.6276C237.394 32.4731 236.342 31.5366 235.045 31.5366H192.757C191.46 31.5366 190.408 32.4731 190.408 33.6276V44.0841C190.408 45.2386 191.46 46.1751 192.757 46.1751ZM195.106 35.7186H232.696V41.993H195.106V35.7186Z" fill="#DFD2EA"/>
<path d="M256.188 50.3585H235.045C233.748 50.3585 232.696 51.295 232.696 52.4495C232.696 53.6054 233.748 54.5419 235.045 54.5419H256.188C257.487 54.5419 258.539 53.6054 258.539 52.4495C258.539 51.295 257.487 50.3585 256.188 50.3585Z" fill="#DFD2EA"/>
<path d="M256.188 58.7239H235.045C233.748 58.7239 232.696 59.6604 232.696 60.8149C232.696 61.9708 233.748 62.9073 235.045 62.9073H256.188C257.487 62.9073 258.539 61.9708 258.539 60.8149C258.539 59.6604 257.487 58.7239 256.188 58.7239Z" fill="#DFD2EA"/>
<path d="M256.188 67.0893H235.045C233.748 67.0893 232.696 68.0258 232.696 69.1804C232.696 70.3362 233.748 71.2727 235.045 71.2727H256.188C257.487 71.2727 258.539 70.3362 258.539 69.1804C258.539 68.0258 257.487 67.0893 256.188 67.0893Z" fill="#CAE4DE"/>
<path d="M256.188 75.4548H235.045C233.748 75.4548 232.696 76.3913 232.696 77.5471C232.696 78.7017 233.748 79.6382 235.045 79.6382H256.188C257.487 79.6382 258.539 78.7017 258.539 77.5471C258.539 76.3913 257.487 75.4548 256.188 75.4548Z" fill="#DFD2EA"/>
<path d="M293.536 70.5222C281 70.5222 270.838 67.6017 270.838 63.9976V121.868C270.838 125.472 281 128.393 293.536 128.393C306.071 128.393 316.233 125.472 316.233 121.868V63.9963C316.233 67.6017 306.071 70.5222 293.536 70.5222Z" fill="#DFD2EA"/>
<mask id="mask2_4_1010" style="mask-type:luminance" maskUnits="userSpaceOnUse" x="269" y="62" width="50" height="68">
<path d="M269.164 62.4176H318.164V129.887H269.164V62.4176Z" fill="white"/>
</mask>
<g mask="url(#mask2_4_1010)">
<path d="M293.536 129.87C281.431 129.87 269.179 127.122 269.179 121.868V63.9963C269.179 63.1815 269.921 62.5207 270.838 62.5207C271.753 62.5207 272.495 63.1815 272.495 63.9963C272.495 64.601 273.654 65.9575 277.996 67.2057C282.122 68.3924 287.641 69.0452 293.536 69.0452C299.43 69.0452 304.949 68.3924 309.075 67.2057C313.417 65.9575 314.576 64.6023 314.576 63.9963C314.576 63.1815 315.318 62.5207 316.233 62.5207C317.15 62.5207 317.893 63.1815 317.893 63.9963V121.868C317.893 127.122 305.64 129.87 293.536 129.87ZM272.495 68.2412V121.868C272.495 122.473 273.654 123.829 277.996 125.076C282.122 126.263 287.641 126.917 293.536 126.917C299.43 126.917 304.949 126.263 309.075 125.076C313.417 123.829 314.576 122.473 314.576 121.868V68.2412C310.115 70.7215 301.791 71.9992 293.536 71.9992C285.28 71.9992 276.956 70.7215 272.495 68.2412Z" fill="white"/>
</g>
<path d="M293.536 83.2222C281 83.2222 270.838 80.3004 270.838 76.6963V87.942C270.838 91.5462 281 94.468 293.536 94.468C306.071 94.468 316.233 91.5462 316.233 87.942V76.6963C316.233 80.3004 306.071 83.2222 293.536 83.2222Z" fill="#DFD2EA"/>
<mask id="mask3_4_1010" style="mask-type:luminance" maskUnits="userSpaceOnUse" x="269" y="75" width="50" height="21">
<path d="M269.164 75.0895H318.164V95.981H269.164V75.0895Z" fill="white"/>
</mask>
<g mask="url(#mask3_4_1010)">
<path d="M293.536 95.9449C281.431 95.9449 269.179 93.1957 269.179 87.942V76.6963C269.179 75.8815 269.921 75.2206 270.838 75.2206C271.753 75.2206 272.495 75.8815 272.495 76.6963C272.495 77.301 273.654 78.6575 277.996 79.9057C282.122 81.0924 287.641 81.7452 293.536 81.7452C299.43 81.7452 304.949 81.0924 309.075 79.9057C313.417 78.6575 314.576 77.301 314.576 76.6963C314.576 75.8815 315.318 75.2206 316.233 75.2206C317.15 75.2206 317.893 75.8815 317.893 76.6963V87.942C317.893 93.1957 305.64 95.9449 293.536 95.9449ZM272.495 80.9399V87.942C272.495 88.5467 273.654 89.9033 277.996 91.1515C282.122 92.3381 287.641 92.991 293.536 92.991C299.43 92.991 304.949 92.3381 309.075 91.1515C313.417 89.9033 314.576 88.5467 314.576 87.942V80.9399C310.115 83.4202 301.791 84.6991 293.536 84.6991C285.28 84.6991 276.956 83.4202 272.495 80.9399Z" fill="white"/>
</g>
<path d="M293.536 94.4452C281 94.4452 270.838 91.5234 270.838 87.9193V99.1651C270.838 102.769 281 105.691 293.536 105.691C306.071 105.691 316.233 102.769 316.233 99.1651V87.9193C316.233 91.5234 306.071 94.4452 293.536 94.4452Z" fill="#DFD2EA"/>
<mask id="mask4_4_1010" style="mask-type:luminance" maskUnits="userSpaceOnUse" x="269" y="86" width="50" height="22">
<path d="M269.164 86.3915H318.164V107.283H269.164V86.3915Z" fill="white"/>
</mask>
<g mask="url(#mask4_4_1010)">
<path d="M293.536 107.168C281.431 107.168 269.179 104.419 269.179 99.1651V87.9193C269.179 87.1046 269.921 86.4424 270.838 86.4424C271.753 86.4424 272.495 87.1046 272.495 87.9193C272.495 88.524 273.654 89.8806 277.996 91.1288C282.122 92.3154 287.641 92.9683 293.536 92.9683C299.43 92.9683 304.949 92.3154 309.075 91.1288C313.417 89.8806 314.576 88.524 314.576 87.9193C314.576 87.1046 315.318 86.4424 316.233 86.4424C317.15 86.4424 317.893 87.1046 317.893 87.9193V99.1651C317.893 104.419 305.64 107.168 293.536 107.168ZM272.495 92.1629V99.1651C272.495 99.7698 273.654 101.126 277.996 102.375C282.122 103.56 287.641 104.214 293.536 104.214C299.43 104.214 304.949 103.56 309.075 102.375C313.417 101.126 314.576 99.7698 314.576 99.1651V92.1629C310.115 94.6432 301.791 95.9222 293.536 95.9222C285.28 95.9222 276.956 94.6432 272.495 92.1629Z" fill="white"/>
</g>
<path d="M293.536 105.738C281 105.738 270.838 102.817 270.838 99.2132V110.459C270.838 114.062 281 116.984 293.536 116.984C306.071 116.984 316.233 114.062 316.233 110.459V99.2132C316.233 102.817 306.071 105.738 293.536 105.738Z" fill="#DFD2EA"/>
<mask id="mask5_4_1010" style="mask-type:luminance" maskUnits="userSpaceOnUse" x="269" y="97" width="50" height="22">
<path d="M269.164 97.6935H318.164V118.585H269.164V97.6935Z" fill="white"/>
</mask>
<g mask="url(#mask5_4_1010)">
<path d="M293.536 118.461C281.431 118.461 269.179 115.711 269.179 110.459V99.2132C269.179 98.3972 269.921 97.7363 270.838 97.7363C271.753 97.7363 272.495 98.3972 272.495 99.2132C272.495 99.8179 273.654 101.174 277.996 102.421C282.122 103.608 287.641 104.262 293.536 104.262C299.43 104.262 304.949 103.608 309.075 102.421C313.417 101.174 314.576 99.8179 314.576 99.2132C314.576 98.3972 315.318 97.7363 316.233 97.7363C317.15 97.7363 317.893 98.3972 317.893 99.2132V110.459C317.893 115.711 305.64 118.461 293.536 118.461ZM272.495 103.457V110.459C272.495 111.062 273.654 112.419 277.996 113.667C282.122 114.854 287.641 115.507 293.536 115.507C299.43 115.507 304.949 114.854 309.075 113.667C313.417 112.419 314.576 111.064 314.576 110.459V103.457C310.115 105.936 301.791 107.215 293.536 107.215C285.28 107.215 276.956 105.936 272.495 103.457Z" fill="white"/>
</g>
<path d="M293.536 117.144C281 117.144 270.838 114.222 270.838 110.618V121.864C270.838 125.468 281 128.39 293.536 128.39C306.071 128.39 316.233 125.468 316.233 121.864V110.618C316.233 114.222 306.071 117.144 293.536 117.144Z" fill="#DFD2EA"/>
<mask id="mask6_4_1010" style="mask-type:luminance" maskUnits="userSpaceOnUse" x="269" y="108" width="50" height="22">
<path d="M269.164 108.995H318.164V129.887H269.164V108.995Z" fill="white"/>
</mask>
<g mask="url(#mask6_4_1010)">
<path d="M293.536 129.866C281.431 129.866 269.179 127.118 269.179 121.864V110.618C269.179 109.802 269.921 109.141 270.838 109.141C271.753 109.141 272.495 109.802 272.495 110.618C272.495 111.223 273.654 112.579 277.996 113.828C282.122 115.014 287.641 115.667 293.536 115.667C299.43 115.667 304.949 115.014 309.075 113.828C313.417 112.579 314.576 111.223 314.576 110.618C314.576 109.802 315.318 109.141 316.233 109.141C317.15 109.141 317.893 109.802 317.893 110.618V121.864C317.893 127.118 305.64 129.866 293.536 129.866ZM272.495 114.862V121.864C272.495 122.469 273.654 123.824 277.996 125.072C282.122 126.259 287.641 126.913 293.536 126.913C299.43 126.913 304.949 126.259 309.075 125.072C313.417 123.824 314.576 122.469 314.576 121.864V114.862C310.115 117.342 301.791 118.62 293.536 118.62C285.28 118.62 276.956 117.342 272.495 114.862Z" fill="white"/>
</g>
<path d="M316.233 63.9976C316.233 64.2103 316.197 64.4244 316.125 64.6371C316.051 64.8498 315.943 65.0612 315.797 65.2699C315.653 65.4799 315.473 65.6873 315.256 65.892C315.042 66.0953 314.791 66.2973 314.506 66.494C314.221 66.692 313.904 66.8846 313.554 67.0733C313.204 67.2619 312.822 67.4452 312.409 67.6231C311.995 67.7997 311.553 67.9723 311.082 68.1369C310.61 68.3027 310.111 68.4606 309.586 68.6118C309.06 68.763 308.51 68.9061 307.935 69.0412C307.361 69.1777 306.764 69.3048 306.146 69.4225C305.529 69.5416 304.891 69.6513 304.235 69.7516C303.58 69.8533 302.909 69.9443 302.222 70.0259C301.536 70.1075 300.835 70.1797 300.125 70.2413C299.414 70.3041 298.692 70.3563 297.963 70.3978C297.235 70.4393 296.5 70.47 295.76 70.4914C295.021 70.5128 294.279 70.5222 293.536 70.5222C292.792 70.5222 292.05 70.5128 291.311 70.4914C290.571 70.47 289.836 70.4393 289.107 70.3978C288.379 70.3563 287.657 70.3041 286.946 70.2413C286.236 70.1797 285.537 70.1075 284.848 70.0259C284.162 69.9443 283.491 69.8533 282.836 69.7516C282.179 69.6513 281.544 69.5416 280.925 69.4225C280.307 69.3048 279.71 69.1777 279.136 69.0412C278.561 68.9061 278.011 68.763 277.485 68.6118C276.96 68.4606 276.461 68.3027 275.989 68.1369C275.517 67.9723 275.076 67.7997 274.662 67.6231C274.249 67.4452 273.867 67.2619 273.517 67.0733C273.167 66.8846 272.85 66.692 272.564 66.494C272.28 66.2973 272.031 66.0953 271.814 65.892C271.598 65.6873 271.418 65.4799 271.273 65.2699C271.128 65.0612 271.019 64.8498 270.946 64.6371C270.874 64.4244 270.838 64.2103 270.838 63.9976C270.838 63.7836 270.874 63.5708 270.946 63.3581C271.019 63.1454 271.128 62.934 271.273 62.724C271.418 62.514 271.598 62.3079 271.814 62.1033C272.031 61.8986 272.28 61.6979 272.564 61.4999C272.85 61.3032 273.167 61.1092 273.517 60.9206C273.867 60.732 274.249 60.55 274.662 60.3721C275.076 60.1942 275.517 60.0229 275.989 59.857C276.461 59.6925 276.96 59.5346 277.485 59.3834C278.011 59.2323 278.561 59.0891 279.136 58.9527C279.71 58.8175 280.307 58.6905 280.925 58.5714C281.544 58.4523 282.179 58.3426 282.836 58.2423C283.491 58.1419 284.162 58.0496 284.85 57.968C285.537 57.8864 286.236 57.8142 286.946 57.7526C287.657 57.6911 288.379 57.6389 289.107 57.5975C289.836 57.556 290.571 57.5239 291.311 57.5038C292.05 57.4824 292.792 57.4717 293.536 57.4717C294.279 57.4717 295.021 57.4824 295.76 57.5038C296.5 57.5239 297.235 57.556 297.963 57.5975C298.692 57.6389 299.414 57.6911 300.125 57.7526C300.835 57.8142 301.536 57.8864 302.222 57.968C302.909 58.0496 303.58 58.1419 304.235 58.2423C304.891 58.3426 305.529 58.4523 306.146 58.5714C306.764 58.6905 307.361 58.8175 307.935 58.9527C308.51 59.0891 309.06 59.2323 309.586 59.3834C310.111 59.5346 310.61 59.6925 311.082 59.857C311.553 60.0229 311.995 60.1942 312.409 60.3721C312.822 60.55 313.204 60.732 313.554 60.9206C313.904 61.1092 314.221 61.3032 314.506 61.4999C314.791 61.6979 315.042 61.8986 315.256 62.1033C315.473 62.3079 315.653 62.514 315.797 62.724C315.943 62.934 316.051 63.1454 316.125 63.3581C316.197 63.5708 316.233 63.7836 316.233 63.9976Z" fill="#DFD2EA"/>
<mask id="mask7_4_1010" style="mask-type:luminance" maskUnits="userSpaceOnUse" x="269" y="55" width="50" height="18">
<path d="M269.164 55.9854H318.164V72.0072H269.164V55.9854Z" fill="white"/>
</mask>
<g mask="url(#mask7_4_1010)">
<path d="M293.536 71.9993C281.431 71.9993 269.179 69.2514 269.179 63.9978C269.179 58.7442 281.431 55.9949 293.536 55.9949C305.64 55.9949 317.893 58.7442 317.893 63.9978C317.893 69.2514 305.64 71.9993 293.536 71.9993ZM293.536 58.9488C287.641 58.9488 282.122 59.6017 277.996 60.7884C273.654 62.0365 272.495 63.3918 272.495 63.9965C272.495 64.6025 273.654 65.9577 277.996 67.2059C282.122 68.3926 287.641 69.0454 293.536 69.0454C299.43 69.0454 304.949 68.3926 309.075 67.2059C313.417 65.9577 314.576 64.6025 314.576 63.9965C314.576 63.3918 313.417 62.0365 309.075 60.7884C304.949 59.6017 299.43 58.9488 293.536 58.9488Z" fill="white"/>
</g>
<path d="M293.153 59.3166C292.112 59.3166 291.088 59.3353 290.089 59.3701C299.779 59.7126 307.203 61.6538 307.203 63.9963C307.203 66.3402 299.779 68.2814 290.089 68.6252C291.088 68.66 292.112 68.6787 293.153 68.6787C304.296 68.6787 313.33 66.5823 313.33 63.9963C313.33 61.4116 304.296 59.3166 293.153 59.3166Z" fill="#DFD2EA"/>
<path d="M348.201 108.098C348.201 108.741 348.165 109.382 348.094 110.022C348.024 110.661 347.919 111.296 347.777 111.927C347.636 112.557 347.462 113.179 347.251 113.794C347.042 114.41 346.799 115.014 346.522 115.607C346.246 116.201 345.938 116.782 345.598 117.349C345.257 117.915 344.887 118.466 344.486 119C344.085 119.535 343.655 120.05 343.197 120.546C342.74 121.044 342.256 121.519 341.745 121.974C341.234 122.427 340.701 122.859 340.141 123.266C339.584 123.674 339.005 124.057 338.404 124.414C337.805 124.771 337.185 125.1 336.55 125.404C335.913 125.706 335.26 125.98 334.593 126.227C333.927 126.473 333.248 126.69 332.557 126.875C331.867 127.063 331.167 127.218 330.459 127.344C329.751 127.469 329.037 127.563 328.319 127.626C327.6 127.689 326.881 127.721 326.159 127.721C325.436 127.721 324.717 127.689 323.998 127.626C323.28 127.563 322.566 127.469 321.858 127.344C321.15 127.218 320.452 127.063 319.76 126.875C319.069 126.69 318.39 126.473 317.724 126.227C317.057 125.98 316.405 125.706 315.767 125.404C315.132 125.1 314.512 124.771 313.913 124.414C313.312 124.057 312.733 123.674 312.176 123.266C311.617 122.859 311.083 122.427 310.572 121.974C310.063 121.519 309.577 121.044 309.12 120.546C308.662 120.05 308.232 119.535 307.831 119C307.43 118.466 307.06 117.915 306.719 117.349C306.379 116.782 306.071 116.201 305.795 115.607C305.518 115.014 305.275 114.41 305.066 113.794C304.855 113.179 304.681 112.557 304.54 111.927C304.398 111.296 304.293 110.661 304.223 110.022C304.152 109.382 304.116 108.741 304.116 108.098C304.116 107.456 304.152 106.815 304.223 106.175C304.293 105.536 304.398 104.9 304.54 104.27C304.681 103.64 304.855 103.017 305.066 102.403C305.275 101.787 305.518 101.183 305.795 100.59C306.071 99.9959 306.379 99.4152 306.719 98.848C307.06 98.2821 307.43 97.7309 307.831 97.1971C308.232 96.662 308.662 96.1469 309.12 95.6506C309.577 95.1529 310.063 94.678 310.572 94.2231C311.083 93.7683 311.617 93.3375 312.176 92.9295C312.733 92.5228 313.312 92.1401 313.913 91.7829C314.512 91.4257 315.132 91.0966 315.767 90.7929C316.405 90.4906 317.057 90.215 317.724 89.9702C318.39 89.724 319.069 89.5073 319.76 89.3213C320.452 89.134 321.15 88.9789 321.858 88.8531C322.566 88.7273 323.28 88.6337 323.998 88.5708C324.717 88.5079 325.436 88.4758 326.159 88.4758C326.881 88.4758 327.6 88.5079 328.319 88.5708C329.037 88.6337 329.751 88.7273 330.459 88.8531C331.167 88.9789 331.867 89.134 332.557 89.3213C333.248 89.5073 333.927 89.724 334.593 89.9702C335.26 90.215 335.913 90.4906 336.55 90.7929C337.185 91.0966 337.805 91.4257 338.404 91.7829C339.005 92.1401 339.584 92.5228 340.141 92.9295C340.701 93.3375 341.234 93.7683 341.745 94.2231C342.256 94.678 342.74 95.1529 343.197 95.6506C343.655 96.1469 344.085 96.662 344.486 97.1971C344.887 97.7309 345.257 98.2821 345.598 98.848C345.938 99.4152 346.246 99.9959 346.522 100.59C346.799 101.183 347.042 101.787 347.251 102.403C347.462 103.017 347.636 103.64 347.777 104.27C347.919 104.9 348.024 105.536 348.094 106.175C348.165 106.815 348.201 107.456 348.201 108.098Z" fill="#DFD2EA"/>
<mask id="mask8_4_1010" style="mask-type:luminance" maskUnits="userSpaceOnUse" x="302" y="86" width="48" height="44">
<path d="M302.391 86.734H349.916V129.202H302.391V86.734Z" fill="white"/>
</mask>
<g mask="url(#mask8_4_1010)">
<path d="M326.159 129.198C313.089 129.198 302.457 119.733 302.457 108.098C302.457 96.464 313.091 86.9989 326.159 86.9989C339.228 86.9989 349.86 96.464 349.86 108.098C349.86 119.733 339.228 129.198 326.159 129.198ZM326.159 89.9528C314.92 89.9528 305.775 98.0935 305.775 108.098C305.775 118.103 314.92 126.244 326.159 126.244C337.399 126.244 346.542 118.103 346.542 108.098C346.542 98.0935 337.399 89.9528 326.159 89.9528Z" fill="white"/>
</g>
<path d="M340.902 108.098C340.902 108.741 340.867 109.382 340.795 110.022C340.725 110.661 340.619 111.296 340.478 111.927C340.338 112.557 340.163 113.179 339.954 113.794C339.743 114.41 339.5 115.014 339.225 115.607C338.948 116.201 338.64 116.782 338.299 117.349C337.959 117.915 337.588 118.466 337.187 119C336.786 119.535 336.357 120.05 335.899 120.546C335.441 121.044 334.957 121.519 334.446 121.974C333.935 122.427 333.401 122.859 332.844 123.266C332.285 123.674 331.706 124.057 331.107 124.414C330.505 124.771 329.888 125.1 329.251 125.404C328.613 125.706 327.963 125.98 327.295 126.227C326.628 126.473 325.949 126.69 325.258 126.875C324.568 127.063 323.868 127.218 323.16 127.344C322.452 127.469 321.74 127.563 321.02 127.626C320.301 127.689 319.581 127.721 318.86 127.721C318.137 127.721 317.417 127.689 316.699 127.626C315.981 127.563 315.267 127.469 314.559 127.344C313.851 127.218 313.152 127.063 312.461 126.875C311.77 126.69 311.092 126.473 310.425 126.227C309.758 125.98 309.105 125.706 308.47 125.404C307.832 125.1 307.215 124.771 306.614 124.414C306.014 124.057 305.434 123.674 304.876 123.266C304.319 122.859 303.784 122.427 303.273 121.974C302.763 121.519 302.28 121.044 301.821 120.546C301.363 120.05 300.933 119.535 300.532 119C300.132 118.466 299.761 117.915 299.42 117.349C299.08 116.782 298.772 116.201 298.495 115.607C298.219 115.014 297.977 114.41 297.767 113.794C297.558 113.179 297.382 112.557 297.241 111.927C297.101 111.296 296.994 110.661 296.924 110.022C296.853 109.382 296.818 108.741 296.818 108.098C296.818 107.456 296.853 106.815 296.924 106.175C296.994 105.536 297.101 104.9 297.241 104.27C297.382 103.64 297.558 103.017 297.767 102.403C297.977 101.787 298.219 101.183 298.495 100.59C298.772 99.9959 299.08 99.4152 299.42 98.848C299.761 98.2821 300.132 97.7309 300.532 97.1971C300.933 96.662 301.363 96.1469 301.821 95.6506C302.28 95.1529 302.763 94.678 303.273 94.2231C303.784 93.7683 304.319 93.3375 304.876 92.9295C305.434 92.5228 306.014 92.1401 306.614 91.7829C307.215 91.4257 307.832 91.0966 308.47 90.7929C309.105 90.4906 309.758 90.215 310.425 89.9702C311.092 89.724 311.77 89.5073 312.461 89.3213C313.152 89.134 313.851 88.9789 314.559 88.8531C315.267 88.7273 315.981 88.6337 316.699 88.5708C317.417 88.5079 318.137 88.4758 318.86 88.4758C319.581 88.4758 320.301 88.5079 321.02 88.5708C321.74 88.6337 322.452 88.7273 323.16 88.8531C323.868 88.9789 324.568 89.134 325.258 89.3213C325.949 89.5073 326.628 89.724 327.295 89.9702C327.963 90.215 328.613 90.4906 329.251 90.7929C329.888 91.0966 330.505 91.4257 331.105 91.7829C331.706 92.1401 332.285 92.5228 332.844 92.9295C333.401 93.3375 333.935 93.7683 334.446 94.2231C334.957 94.678 335.441 95.1529 335.899 95.6506C336.357 96.1469 336.786 96.662 337.187 97.1971C337.588 97.7309 337.959 98.2821 338.299 98.848C338.64 99.4152 338.948 99.9959 339.225 100.59C339.5 101.183 339.743 101.787 339.954 102.403C340.163 103.017 340.338 103.64 340.478 104.27C340.619 104.9 340.725 105.536 340.795 106.175C340.867 106.815 340.902 107.456 340.902 108.098Z" fill="#DFD2EA"/>
<path d="M318.86 129.198C305.792 129.198 295.159 119.733 295.159 108.098C295.159 96.464 305.792 86.9989 318.86 86.9989C331.929 86.9989 342.561 96.464 342.561 108.098C342.561 119.733 331.929 129.198 318.86 129.198ZM318.86 89.9528C307.621 89.9528 298.476 98.0935 298.476 108.098C298.476 118.103 307.621 126.244 318.86 126.244C330.1 126.244 339.243 118.103 339.243 108.098C339.243 98.0935 330.1 89.9528 318.86 89.9528Z" fill="white"/>
<path d="M318.378 91.1943C317.356 91.1943 316.355 91.2679 315.378 91.4057C324.44 92.686 331.367 99.6708 331.367 108.098C331.367 116.526 324.439 123.511 315.378 124.791C316.355 124.929 317.356 125.003 318.378 125.003C328.864 125.003 337.367 117.434 337.367 108.098C337.367 98.7624 328.864 91.1943 318.378 91.1943Z" fill="#DFD2EA"/>
<path d="M318.441 116.142C313.841 116.142 310.237 113.903 310.237 111.045C310.237 110.229 310.979 109.568 311.896 109.568C312.811 109.568 313.554 110.229 313.554 111.045C313.554 112.036 315.689 113.188 318.441 113.188C321.193 113.188 323.328 112.036 323.328 111.045C323.328 110.054 321.193 108.902 318.441 108.902C313.841 108.902 310.237 106.664 310.237 103.806C310.237 100.948 313.841 98.7089 318.441 98.7089C323.041 98.7089 326.645 100.948 326.645 103.806C326.645 104.621 325.902 105.283 324.987 105.283C324.07 105.283 323.328 104.621 323.328 103.806C323.328 102.815 321.193 101.663 318.441 101.663C315.689 101.663 313.554 102.815 313.554 103.806C313.554 104.797 315.689 105.949 318.441 105.949C323.041 105.949 326.645 108.187 326.645 111.045C326.646 113.903 323.041 116.142 318.441 116.142Z" fill="white"/>
<path d="M318.86 118.592C317.943 118.592 317.201 117.931 317.201 117.115V97.7363C317.201 96.9202 317.943 96.2593 318.86 96.2593C319.775 96.2593 320.518 96.9202 320.518 97.7363V117.115C320.518 117.931 319.775 118.592 318.86 118.592Z" fill="white"/>
<mask id="mask9_4_1010" style="mask-type:luminance" maskUnits="userSpaceOnUse" x="210" y="70" width="75" height="43">
<path d="M210.899 70.2306H284.694V112.141H210.899V70.2306Z" fill="white"/>
</mask>
<g mask="url(#mask9_4_1010)">
<mask id="mask10_4_1010" style="mask-type:luminance" maskUnits="userSpaceOnUse" x="210" y="70" width="75" height="43">
<path d="M214.36 70.2306H281.213C282.131 70.2306 283.01 70.5557 283.66 71.1323C284.309 71.7102 284.674 72.4942 284.674 73.3116V109.061C284.674 109.877 284.309 110.661 283.66 111.239C283.01 111.817 282.131 112.141 281.213 112.141H214.36C213.442 112.141 212.561 111.817 211.912 111.239C211.263 110.661 210.899 109.877 210.899 109.061V73.3116C210.899 72.4942 211.263 71.7102 211.912 71.1323C212.561 70.5557 213.442 70.2306 214.36 70.2306Z" fill="white"/>
</mask>
<g mask="url(#mask10_4_1010)">
<path d="M210.899 70.2306H284.644V112.141H210.899V70.2306Z" fill="#CAE4DE"/>
</g>
</g>
<mask id="mask11_4_1010" style="mask-type:luminance" maskUnits="userSpaceOnUse" x="201" y="67" width="99" height="60">
<path d="M201 67H299.713V126.935H201V67Z" fill="white"/>
</mask>
<g mask="url(#mask11_4_1010)">
<path fill-rule="evenodd" clip-rule="evenodd" d="M212.647 67.0468H254.784V70.1091H217.677C216.302 70.1091 215.176 71.1111 215.176 72.3352V107.226C215.176 108.45 216.302 109.452 217.677 109.452H282.302C283.679 109.452 284.805 108.45 284.805 107.226V96.0897H290.224V109.942C290.224 110.811 289.732 111.583 288.985 112.05H290.224C290.224 112.05 293.282 115.266 299.397 121.7C298.561 124.643 296.895 126.374 294.394 126.897C294.394 126.897 265.208 126.897 206.837 126.897C203.956 126.829 202.01 125.096 201 121.7C201 121.7 204.058 118.484 210.173 112.05H210.995C210.247 111.583 209.755 110.811 209.755 109.942V69.6195C209.755 68.204 211.057 67.0468 212.647 67.0468ZM243.11 123.185H257.286C257.975 123.185 258.537 123.686 258.537 124.298C258.537 124.91 257.975 125.412 257.286 125.412H243.11C242.422 125.412 241.86 124.91 241.86 124.298C241.86 123.686 242.422 123.185 243.11 123.185ZM235.189 122.072C236.856 119.844 237.69 118.731 237.69 118.731C254.368 118.731 262.706 118.731 262.706 118.731C264.374 120.957 265.208 122.072 265.208 122.072C245.195 122.072 235.189 122.072 235.189 122.072Z" fill="#B7DAB2"/>
</g>
<path fill-rule="evenodd" clip-rule="evenodd" d="M245.051 93.4753H253.39V100.898H245.051V93.4753Z" fill="#9B6EC8"/>
<path fill-rule="evenodd" clip-rule="evenodd" d="M257.977 93.1034H265.381V99.6949H257.977V93.1034Z" fill="#9B6EC8"/>
<path fill-rule="evenodd" clip-rule="evenodd" d="M284.216 81.5954H300.061V95.7014H284.216V81.5954Z" fill="#9B6EC8"/>
<path fill-rule="evenodd" clip-rule="evenodd" d="M271.786 90.5508H280.908V98.6714H271.786V90.5508Z" fill="#9B6EC8"/>
<path fill-rule="evenodd" clip-rule="evenodd" d="M263.447 81.6436H272.569V89.7642H263.447V81.6436Z" fill="#9B6EC8"/>
<path fill-rule="evenodd" clip-rule="evenodd" d="M260.086 71.2286H269.209V79.3478H260.086V71.2286Z" fill="#9B6EC8"/>
<path fill-rule="evenodd" clip-rule="evenodd" d="M250.523 84.9828H257.925V91.5742H250.523V84.9828Z" fill="#9B6EC8"/>
<path fill-rule="evenodd" clip-rule="evenodd" d="M274.236 67.8639H287.161V79.3706H274.236V67.8639Z" fill="#9B6EC8"/>
<path fill-rule="evenodd" clip-rule="evenodd" d="M276.763 57.1239H285.885V65.2445H276.763V57.1239Z" fill="#9B6EC8"/>
<mask id="mask12_4_1010" style="mask-type:luminance" maskUnits="userSpaceOnUse" x="289" y="55" width="21" height="19">
<path d="M289.695 55.9854H309.232V73.3771H289.695V55.9854Z" fill="white"/>
</mask>
<g mask="url(#mask12_4_1010)">
<path fill-rule="evenodd" clip-rule="evenodd" d="M290.078 55.9867H309.259V73.0614H290.078V55.9867Z" fill="#9B6EC8"/>
</g>
<path d="M0.219391 129.852H349.877" stroke="black" stroke-width="6.99658"/>
<path d="M295.146 107.646L294.701 111.383H274.661L274.643 111.385L274.198 107.646H295.146Z" fill="white"/>
<mask id="mask13_4_1010" style="mask-type:luminance" maskUnits="userSpaceOnUse" x="272" y="101" width="26" height="18">
<path d="M272.177 101.552H297.266V118.585H272.177V101.552Z" fill="white"/>
</mask>
<g mask="url(#mask13_4_1010)">
<path d="M295.146 107.646L294.701 111.383H274.661L274.643 111.385L274.198 107.646H295.146Z" stroke="black" stroke-width="1.96723" stroke-miterlimit="10"/>
</g>
<mask id="mask14_4_1010" style="mask-type:luminance" maskUnits="userSpaceOnUse" x="275" y="122" width="19" height="8">
<path d="M275.845 122.695H293.542V129.793H275.845V122.695Z" fill="white"/>
</mask>
<g mask="url(#mask14_4_1010)">
<path d="M293.321 122.98L292.666 128.477C292.589 129.114 291.984 129.597 291.267 129.597H278.078C277.357 129.597 276.756 129.114 276.679 128.477L276.022 122.98H293.321Z" fill="white"/>
</g>
<mask id="mask15_4_1010" style="mask-type:luminance" maskUnits="userSpaceOnUse" x="272" y="115" width="26" height="15">
<path d="M272.177 115.503H297.266V129.793H272.177V115.503Z" fill="white"/>
</mask>
<g mask="url(#mask15_4_1010)">
<path d="M293.321 122.98L292.666 128.477C292.589 129.114 291.984 129.597 291.267 129.597H278.078C277.357 129.597 276.756 129.114 276.679 128.477L276.022 122.98H293.321Z" stroke="black" stroke-width="1.96723" stroke-miterlimit="10"/>
</g>
<path d="M294.62 111.383L293.24 122.98H275.941L274.563 111.385L274.58 111.383H294.62Z" fill="#9B6EC8"/>
<mask id="mask16_4_1010" style="mask-type:luminance" maskUnits="userSpaceOnUse" x="272" y="104" width="26" height="26">
<path d="M272.177 104.201H297.266V129.793H272.177V104.201Z" fill="white"/>
</mask>
<g mask="url(#mask16_4_1010)">
<path d="M294.62 111.383L293.24 122.98H275.941L274.563 111.385L274.58 111.383H294.62Z" stroke="black" stroke-width="1.96723" stroke-miterlimit="10"/>
</g>
<path d="M296.872 105.398V107.247C296.872 107.466 296.671 107.646 296.425 107.646H272.919C272.673 107.646 272.471 107.466 272.471 107.247V105.398C272.471 105.177 272.673 104.998 272.919 104.998H296.425C296.671 104.998 296.872 105.177 296.872 105.398Z" fill="white"/>
<mask id="mask17_4_1010" style="mask-type:luminance" maskUnits="userSpaceOnUse" x="272" y="101" width="26" height="14">
<path d="M272.177 101.552H297.266V114.818H272.177V101.552Z" fill="white"/>
</mask>
<g mask="url(#mask17_4_1010)">
<path d="M296.872 105.398V107.247C296.872 107.466 296.671 107.646 296.425 107.646H272.919C272.673 107.646 272.471 107.466 272.471 107.247V105.398C272.471 105.177 272.673 104.998 272.919 104.998H296.425C296.671 104.998 296.872 105.177 296.872 105.398Z" stroke="black" stroke-width="1.96723" stroke-miterlimit="10"/>
</g>
<path d="M295.225 104.999H274.118L275.25 102.453C275.423 102.061 275.848 101.805 276.32 101.805H293.024C293.496 101.805 293.921 102.061 294.095 102.453L295.225 104.999Z" fill="white"/>
<mask id="mask18_4_1010" style="mask-type:luminance" maskUnits="userSpaceOnUse" x="272" y="101" width="26" height="12">
<path d="M272.177 101.552H297.266V112.42H272.177V101.552Z" fill="white"/>
</mask>
<g mask="url(#mask18_4_1010)">
<path d="M295.225 104.999H274.118L275.25 102.453C275.423 102.061 275.848 101.805 276.32 101.805H293.024C293.496 101.805 293.921 102.061 294.095 102.453L295.225 104.999Z" stroke="black" stroke-width="1.96723" stroke-miterlimit="10"/>
</g>
<path d="M294.764 111.383H294.62" stroke="black" stroke-width="1.96723" stroke-miterlimit="10"/>
<path d="M275.941 122.98H275.928" stroke="black" stroke-width="1.96723" stroke-miterlimit="10"/>
<path d="M293.416 122.98H293.24" stroke="black" stroke-width="1.96723" stroke-miterlimit="10"/>
<path d="M289.052 117.182C289.052 117.442 289.023 117.701 288.966 117.956C288.909 118.212 288.823 118.459 288.712 118.7C288.599 118.941 288.463 119.171 288.299 119.388C288.137 119.604 287.952 119.804 287.744 119.988C287.538 120.173 287.313 120.338 287.07 120.482C286.826 120.628 286.569 120.75 286.299 120.85C286.027 120.949 285.749 121.025 285.462 121.076C285.175 121.127 284.884 121.152 284.591 121.152C284.298 121.152 284.008 121.127 283.721 121.076C283.434 121.025 283.155 120.949 282.884 120.85C282.614 120.75 282.357 120.628 282.113 120.482C281.87 120.338 281.644 120.173 281.437 119.988C281.23 119.804 281.045 119.604 280.882 119.388C280.72 119.171 280.582 118.941 280.471 118.7C280.358 118.459 280.274 118.212 280.217 117.956C280.16 117.701 280.131 117.442 280.131 117.182C280.131 116.921 280.16 116.663 280.217 116.407C280.274 116.151 280.358 115.903 280.471 115.662C280.582 115.421 280.72 115.192 280.882 114.976C281.045 114.759 281.23 114.558 281.437 114.373C281.644 114.189 281.87 114.024 282.113 113.88C282.357 113.735 282.614 113.612 282.884 113.513C283.155 113.413 283.434 113.338 283.721 113.287C284.008 113.236 284.298 113.211 284.591 113.211C284.884 113.211 285.175 113.236 285.462 113.287C285.749 113.338 286.027 113.413 286.299 113.513C286.569 113.612 286.826 113.735 287.07 113.88C287.313 114.024 287.538 114.189 287.744 114.373C287.952 114.558 288.137 114.759 288.299 114.976C288.463 115.192 288.599 115.421 288.712 115.662C288.823 115.903 288.909 116.151 288.966 116.407C289.023 116.663 289.052 116.921 289.052 117.182Z" fill="#E9A283"/>
<mask id="mask19_4_1010" style="mask-type:luminance" maskUnits="userSpaceOnUse" x="272" y="105" width="26" height="24">
<path d="M272.177 105.913H297.266V128.517H272.177V105.913Z" fill="white"/>
</mask>
<g mask="url(#mask19_4_1010)">
<path d="M289.052 117.182C289.052 117.442 289.023 117.701 288.966 117.956C288.909 118.212 288.823 118.459 288.712 118.7C288.599 118.941 288.463 119.171 288.299 119.388C288.137 119.604 287.952 119.804 287.744 119.988C287.538 120.173 287.313 120.338 287.07 120.482C286.826 120.628 286.569 120.75 286.299 120.85C286.027 120.949 285.749 121.025 285.462 121.076C285.174 121.127 284.884 121.152 284.591 121.152C284.298 121.152 284.008 121.127 283.721 121.076C283.434 121.025 283.155 120.949 282.884 120.85C282.614 120.75 282.357 120.628 282.113 120.482C281.87 120.338 281.644 120.173 281.437 119.988C281.23 119.804 281.045 119.604 280.882 119.388C280.72 119.171 280.582 118.941 280.471 118.7C280.358 118.459 280.274 118.212 280.217 117.956C280.16 117.701 280.131 117.442 280.131 117.182C280.131 116.921 280.16 116.663 280.217 116.407C280.274 116.151 280.358 115.903 280.471 115.662C280.582 115.421 280.72 115.192 280.882 114.976C281.045 114.759 281.23 114.558 281.437 114.373C281.644 114.189 281.87 114.024 282.113 113.88C282.357 113.735 282.614 113.612 282.884 113.513C283.155 113.413 283.434 113.338 283.721 113.287C284.008 113.236 284.298 113.211 284.591 113.211C284.884 113.211 285.174 113.236 285.462 113.287C285.749 113.338 286.027 113.413 286.299 113.513C286.569 113.612 286.826 113.735 287.07 113.88C287.313 114.024 287.538 114.189 287.744 114.373C287.952 114.558 288.137 114.759 288.299 114.976C288.463 115.192 288.599 115.421 288.712 115.662C288.823 115.903 288.909 116.151 288.966 116.407C289.023 116.663 289.052 116.921 289.052 117.182Z" stroke="black" stroke-width="1.96723" stroke-miterlimit="10"/>
</g>
<mask id="mask20_4_1010" style="mask-type:luminance" maskUnits="userSpaceOnUse" x="297" y="115" width="25" height="15">
<path d="M297.172 115.503H321.397V129.887H297.172V115.503Z" fill="white"/>
</mask>
<g mask="url(#mask20_4_1010)">
<path fill-rule="evenodd" clip-rule="evenodd" d="M297.173 115.517H316.723V116.91L317.699 116.941C319.751 117.016 321.349 118.498 321.349 120.325V122.632C321.349 124.429 319.768 126.077 317.665 126.017L315.814 125.971C314.469 128.263 311.759 129.851 308.664 129.851H305.215C300.79 129.851 297.173 126.631 297.173 122.692V115.517ZM316.723 118.394V122.692C316.723 123.021 316.689 123.365 316.639 123.695C316.588 123.95 316.537 124.219 316.471 124.474L317.699 124.518C318.859 124.564 319.667 123.59 319.667 122.632V120.325C319.667 119.322 318.793 118.483 317.647 118.438L316.723 118.394Z" fill="#E9A283"/>
</g>
<mask id="mask21_4_1010" style="mask-type:luminance" maskUnits="userSpaceOnUse" x="299" y="104" width="5" height="9">
<path d="M299.698 104.225H303.16V112.42H299.698V104.225Z" fill="white"/>
</mask>
<g mask="url(#mask21_4_1010)">
<path d="M301.681 104.375C301.429 104.225 301.076 104.285 300.891 104.51C300.723 104.749 300.79 105.064 301.043 105.213C301.043 105.213 302.49 106.067 300.907 107.909C298.586 110.605 301.043 112.043 301.043 112.043C301.295 112.208 301.665 112.147 301.833 111.908C302.018 111.683 301.95 111.354 301.681 111.204C301.681 111.204 300.236 110.351 301.817 108.523C304.139 105.813 301.699 104.389 301.681 104.375Z" fill="#E9A283"/>
</g>
<mask id="mask22_4_1010" style="mask-type:luminance" maskUnits="userSpaceOnUse" x="305" y="104" width="4" height="9">
<path d="M305.469 104.225H308.546V112.42H305.469V104.225Z" fill="white"/>
</mask>
<g mask="url(#mask22_4_1010)">
<path d="M307.267 104.375C306.998 104.225 306.645 104.285 306.477 104.51C306.292 104.749 306.36 105.064 306.629 105.213C306.629 105.213 308.074 106.067 306.493 107.909C304.172 110.605 306.611 112.043 306.629 112.043C306.881 112.208 307.234 112.147 307.419 111.908C307.588 111.683 307.52 111.354 307.267 111.204C307.267 111.204 305.82 110.351 307.403 108.523C309.725 105.813 307.267 104.389 307.267 104.375Z" fill="#E9A283"/>
</g>
<mask id="mask23_4_1010" style="mask-type:luminance" maskUnits="userSpaceOnUse" x="310" y="104" width="5" height="9">
<path d="M310.855 104.225H314.317V112.42H310.855V104.225Z" fill="white"/>
</mask>
<g mask="url(#mask23_4_1010)">
<path d="M312.837 104.375C312.584 104.225 312.231 104.285 312.045 104.51C311.877 104.749 311.944 105.064 312.197 105.213C312.197 105.213 313.644 106.067 312.063 107.909C309.758 110.605 312.197 112.043 312.197 112.043C312.466 112.208 312.819 112.147 312.987 111.908C313.172 111.683 313.106 111.354 312.837 111.204C312.837 111.204 311.39 110.351 312.971 108.523C315.292 105.813 312.853 104.389 312.837 104.375Z" fill="#E9A283"/>
</g>
<mask id="mask24_4_1010" style="mask-type:luminance" maskUnits="userSpaceOnUse" x="31" y="100" width="42" height="30">
<path d="M31.6703 100.776H72.6221V129.887H31.6703V100.776Z" fill="white"/>
</mask>
<g mask="url(#mask24_4_1010)">
<path fill-rule="evenodd" clip-rule="evenodd" d="M31.8161 100.78H72.547V129.714H31.8161V100.78Z" fill="#E9A283"/>
</g>
<mask id="mask25_4_1010" style="mask-type:luminance" maskUnits="userSpaceOnUse" x="31" y="100" width="42" height="30">
<path d="M31.6703 100.643H72.6221V129.887H31.6703V100.643Z" fill="white"/>
</mask>
<g mask="url(#mask25_4_1010)">
<path d="M31.8161 100.78H72.547V129.714H31.8161V100.78Z" stroke="black" stroke-width="1.03197" stroke-miterlimit="1.5" stroke-linecap="round"/>
</g>
<path fill-rule="evenodd" clip-rule="evenodd" d="M70.5107 102.593V127.902H33.8524V102.593H70.5107Z" fill="#9B6EC8" stroke="black" stroke-width="1.03197" stroke-miterlimit="1.5" stroke-linecap="round"/>
<path fill-rule="evenodd" clip-rule="evenodd" d="M68.8561 106.998H65.6476V104.142H38.7156V106.998H35.507V123.496H38.7156V126.352H65.6476V123.496H68.8561V106.998Z" fill="#B7DAB2" stroke="black" stroke-width="1.03144" stroke-miterlimit="1.5" stroke-linecap="round"/>
<path d="M147.411 60.2718V60.4377H161.452V60.2718C161.452 59.1962 161.545 58.2022 161.823 57.1265H147.133C147.32 58.2022 147.411 59.1962 147.411 60.2718Z" fill="#DFD2EA"/>
<mask id="mask26_4_1010" style="mask-type:luminance" maskUnits="userSpaceOnUse" x="147" y="61" width="15" height="10">
<path d="M147.348 61.7327H161.583V70.1356H147.348V61.7327Z" fill="white"/>
</mask>
<g mask="url(#mask26_4_1010)">
<path d="M147.411 63.3341C147.411 64.9903 148.714 66.3147 150.387 66.6452C150.573 68.466 152.247 69.9563 154.386 69.9563C156.524 69.9563 158.197 68.466 158.383 66.6452C160.057 66.3147 161.359 64.9073 161.359 63.3341V61.7621H147.411V63.3341Z" fill="#DFD2EA"/>
</g>
<path d="M164.799 32.0463C162.01 29.5633 158.29 28.2388 154.386 28.2388C150.48 28.2388 146.854 29.6462 144.065 32.1292C141.368 34.6123 139.788 37.8404 139.788 41.3174C139.788 44.2968 140.996 47.2775 143.134 49.5946C144.808 51.4154 146.017 53.485 146.761 55.7191H162.103C162.754 53.485 164.055 51.4154 165.636 49.5946C167.868 47.2775 169.076 44.2968 169.076 41.2345C169.076 37.8404 167.588 34.5306 164.799 32.0463ZM147.97 36.3514C146.667 37.7575 145.924 39.4967 145.924 41.2345C145.924 42.1456 146.11 43.0553 146.483 43.9663L145.088 44.4627C144.622 43.47 144.437 42.3931 144.437 41.2345C144.437 39.0819 145.273 37.0966 146.854 35.4404C148.342 33.8684 150.48 32.7915 152.805 32.3781L153.083 33.7025C151.038 34.033 149.272 34.944 147.97 36.3514Z" fill="#DFD2EA"/>
<path d="M153.549 21.3691H155.037V25.9217H153.549V21.3691Z" fill="#DFD2EA"/>
<path d="M166.088 29.9419L169.706 26.7231L170.758 27.6596L167.14 30.8784L166.088 29.9419Z" fill="#DFD2EA"/>
<path d="M137.918 55.0235L141.534 51.8033L142.586 52.7398L138.97 55.96L137.918 55.0235Z" fill="#DFD2EA"/>
<mask id="mask27_4_1010" style="mask-type:luminance" maskUnits="userSpaceOnUse" x="171" y="40" width="6" height="3">
<path d="M171.586 40.4987H176.874V42.2111H171.586V40.4987Z" fill="white"/>
</mask>
<g mask="url(#mask27_4_1010)">
<path d="M171.68 40.7382H176.793V42.0626H171.68V40.7382Z" fill="#DFD2EA"/>
</g>
<mask id="mask28_4_1010" style="mask-type:luminance" maskUnits="userSpaceOnUse" x="131" y="40" width="7" height="3">
<path d="M131.884 40.4987H137.345V42.2111H131.884V40.4987Z" fill="white"/>
</mask>
<g mask="url(#mask28_4_1010)">
<path d="M131.884 40.7382H136.998V42.0626H131.884V40.7382Z" fill="#DFD2EA"/>
</g>
<path d="M166.09 52.7973L167.142 51.8609L170.758 55.081L169.706 56.0175L166.09 52.7973Z" fill="#DFD2EA"/>
<path d="M137.917 27.7198L138.968 26.7833L142.584 30.0021L141.532 30.9386L137.917 27.7198Z" fill="#DFD2EA"/>
<path d="M140.425 100.696H152.629V129.312H140.425V100.696Z" fill="#B7DAB2" stroke="black" stroke-width="0.322904" stroke-miterlimit="10"/>
<path d="M126.464 124.833H166.59C166.722 124.833 166.849 124.854 166.97 124.9C167.092 124.945 167.199 125.008 167.292 125.091C167.385 125.174 167.457 125.27 167.507 125.378C167.558 125.487 167.584 125.599 167.584 125.717V129.478H125.47V125.717C125.47 125.599 125.496 125.487 125.545 125.378C125.596 125.27 125.669 125.174 125.762 125.091C125.853 125.008 125.962 124.945 126.083 124.9C126.205 124.854 126.331 124.833 126.464 124.833Z" fill="#77BDC6"/>
<mask id="mask29_4_1010" style="mask-type:luminance" maskUnits="userSpaceOnUse" x="123" y="123" width="47" height="7">
<path d="M123.88 123.38H169.277V129.803H123.88V123.38Z" fill="white"/>
</mask>
<g mask="url(#mask29_4_1010)">
<path d="M126.464 124.833H166.59C166.723 124.833 166.849 124.854 166.971 124.9C167.092 124.945 167.199 125.008 167.292 125.091C167.385 125.174 167.457 125.27 167.507 125.379C167.558 125.487 167.584 125.599 167.584 125.717V129.478H125.47V125.717C125.47 125.599 125.496 125.487 125.545 125.379C125.596 125.27 125.669 125.174 125.762 125.091C125.853 125.008 125.962 124.945 126.083 124.9C126.205 124.854 126.331 124.833 126.464 124.833Z" stroke="black" stroke-width="0.322904" stroke-miterlimit="10"/>
</g>
<mask id="mask30_4_1010" style="mask-type:luminance" maskUnits="userSpaceOnUse" x="123" y="126" width="48" height="4">
<path d="M123.111 126.12H170.047V129.803H123.111V126.12Z" fill="white"/>
</mask>
<g mask="url(#mask30_4_1010)">
<path d="M124.445 126.326H168.609C168.775 126.326 168.935 126.354 169.089 126.411C169.243 126.467 169.379 126.549 169.497 126.653C169.615 126.759 169.706 126.879 169.77 127.017C169.833 127.154 169.866 127.297 169.866 127.445V129.809H123.187V127.445C123.187 127.297 123.22 127.154 123.284 127.017C123.348 126.879 123.438 126.759 123.557 126.653C123.674 126.549 123.81 126.467 123.964 126.411C124.118 126.354 124.278 126.326 124.445 126.326Z" fill="#77BDC6"/>
</g>
<mask id="mask31_4_1010" style="mask-type:luminance" maskUnits="userSpaceOnUse" x="121" y="125" width="51" height="5">
<path d="M121.572 125.092H171.201V129.803H121.572V125.092Z" fill="white"/>
</mask>
<g mask="url(#mask31_4_1010)">
<path d="M124.445 126.326H168.609C168.775 126.326 168.935 126.354 169.09 126.411C169.243 126.468 169.38 126.549 169.497 126.653C169.615 126.759 169.706 126.88 169.77 127.017C169.833 127.154 169.866 127.297 169.866 127.445V129.809H123.187V127.445C123.187 127.297 123.22 127.154 123.284 127.017C123.348 126.88 123.438 126.759 123.557 126.653C123.674 126.549 123.81 126.468 123.964 126.411C124.118 126.354 124.278 126.326 124.445 126.326Z" stroke="black" stroke-width="0.322904" stroke-miterlimit="10"/>
</g>
<mask id="mask32_4_1010" style="mask-type:luminance" maskUnits="userSpaceOnUse" x="95" y="64" width="103" height="55">
<path d="M95.9864 64.0779H197.747V118.585H95.9864V64.0779Z" fill="white"/>
</mask>
<g mask="url(#mask32_4_1010)">
<path d="M98.0122 64.1194H195.692C195.82 64.1194 195.946 64.1301 196.071 64.1515C196.196 64.1742 196.317 64.2063 196.435 64.2505C196.552 64.2933 196.663 64.3468 196.77 64.4097C196.875 64.4726 196.973 64.5435 197.063 64.6237C197.153 64.704 197.234 64.791 197.305 64.8859C197.375 64.9796 197.434 65.0786 197.484 65.1843C197.532 65.2886 197.569 65.3957 197.593 65.508C197.619 65.6191 197.631 65.7301 197.631 65.8438V116.803C197.631 116.917 197.619 117.029 197.593 117.14C197.569 117.251 197.532 117.36 197.484 117.464C197.434 117.568 197.375 117.667 197.305 117.762C197.234 117.856 197.153 117.943 197.063 118.023C196.973 118.103 196.875 118.176 196.77 118.238C196.663 118.301 196.552 118.354 196.435 118.398C196.317 118.44 196.196 118.474 196.071 118.495C195.946 118.518 195.82 118.529 195.692 118.529H98.0122C97.8859 118.529 97.7597 118.518 97.635 118.495C97.5102 118.474 97.3885 118.44 97.2713 118.398C97.1541 118.354 97.0414 118.301 96.9362 118.238C96.8295 118.176 96.7318 118.103 96.6416 118.023C96.5529 117.943 96.4718 117.856 96.4012 117.762C96.3305 117.667 96.2704 117.568 96.2223 117.464C96.1727 117.36 96.1367 117.251 96.1126 117.14C96.0871 117.029 96.075 116.917 96.075 116.803V65.8438C96.075 65.7301 96.0871 65.6191 96.1126 65.508C96.1367 65.3957 96.1727 65.2886 96.2223 65.1843C96.2704 65.0786 96.3305 64.9796 96.4012 64.8859C96.4718 64.791 96.5529 64.704 96.6416 64.6237C96.7318 64.5435 96.8295 64.4726 96.9362 64.4097C97.0414 64.3468 97.1541 64.2933 97.2713 64.2505C97.3885 64.2063 97.5102 64.1742 97.635 64.1515C97.7597 64.1301 97.8859 64.1194 98.0122 64.1194Z" fill="#77BDC6"/>
</g>
<mask id="mask33_4_1010" style="mask-type:luminance" maskUnits="userSpaceOnUse" x="95" y="64" width="103" height="56">
<path d="M95.9864 64.0779H197.792V119.955H95.9864V64.0779Z" fill="white"/>
</mask>
<g mask="url(#mask33_4_1010)">
<path d="M98.0122 64.1194H195.692C195.82 64.1194 195.946 64.1301 196.071 64.1515C196.196 64.1742 196.318 64.2063 196.435 64.2505C196.552 64.2933 196.663 64.3468 196.77 64.4097C196.875 64.4726 196.973 64.5435 197.063 64.6237C197.153 64.704 197.234 64.791 197.305 64.8859C197.376 64.9796 197.434 65.0786 197.484 65.1843C197.532 65.2886 197.569 65.3957 197.593 65.508C197.619 65.6191 197.631 65.7301 197.631 65.8438V116.803C197.631 116.917 197.619 117.029 197.593 117.14C197.569 117.251 197.532 117.36 197.484 117.464C197.434 117.568 197.376 117.667 197.305 117.762C197.234 117.856 197.153 117.943 197.063 118.023C196.973 118.103 196.875 118.176 196.77 118.239C196.663 118.301 196.552 118.354 196.435 118.398C196.318 118.441 196.196 118.474 196.071 118.495C195.946 118.518 195.82 118.529 195.692 118.529H98.0122C97.8859 118.529 97.7597 118.518 97.635 118.495C97.5102 118.474 97.3885 118.441 97.2713 118.398C97.1541 118.354 97.0414 118.301 96.9362 118.239C96.8295 118.176 96.7318 118.103 96.6416 118.023C96.5529 117.943 96.4718 117.856 96.4012 117.762C96.3305 117.667 96.2704 117.568 96.2223 117.464C96.1727 117.36 96.1367 117.251 96.1126 117.14C96.0871 117.029 96.075 116.917 96.075 116.803V65.8438C96.075 65.7301 96.0871 65.6191 96.1126 65.508C96.1367 65.3957 96.1727 65.2886 96.2223 65.1843C96.2704 65.0786 96.3305 64.9796 96.4012 64.8859C96.4718 64.791 96.5529 64.704 96.6416 64.6237C96.7318 64.5435 96.8295 64.4726 96.9362 64.4097C97.0414 64.3468 97.1541 64.2933 97.2713 64.2505C97.3885 64.2063 97.5102 64.1742 97.635 64.1515C97.7597 64.1301 97.8859 64.1194 98.0122 64.1194Z" stroke="black" stroke-width="0.322904" stroke-miterlimit="10"/>
</g>
<path d="M99.8021 67.8506H193.252V112.308H99.8021V67.8506Z" fill="#B7DAB2" stroke="black" stroke-width="0.322904" stroke-miterlimit="10"/>
<path d="M150.859 114.796H192.6V117.036H150.859V114.796Z" fill="#B7DAB2" stroke="black" stroke-width="0.322904" stroke-miterlimit="10"/>
<path d="M158.779 114.755V117.036" stroke="black" stroke-width="0.322904" stroke-miterlimit="10"/>
<path d="M166.792 114.755V117.036" stroke="black" stroke-width="0.322904" stroke-miterlimit="10"/>
<path d="M174.898 114.755V117.036" stroke="black" stroke-width="0.322904" stroke-miterlimit="10"/>
<path d="M183.655 114.755V117.036" stroke="black" stroke-width="0.322904" stroke-miterlimit="10"/>
<path d="M73.39 129.285C71.2245 129.285 69.5023 127.721 69.5023 125.793V116.197C69.5023 114.269 71.2245 112.704 73.39 112.704H76.4122V129.285H73.39Z" fill="#DFD2EA"/>
<path d="M76.4122 129.285V112.704H81.5188V129.285H76.4122Z" fill="#B7DAB2"/>
<path d="M81.5188 118.32V112.704H110.059V118.32H81.5188Z" fill="#E9A283"/>
<path d="M81.5188 124.471V118.32H110.059V124.471H81.5188Z" fill="#E9A283"/>
<path d="M81.5188 129.285V124.471H110.059V129.285H81.5188Z" fill="#E9A283"/>
<path d="M110.059 112.704L116.067 116.764V125.226L110.059 129.285V112.704Z" fill="#EFD2C5"/>
<path d="M116.067 116.764L122.199 120.994L116.067 125.226V116.764Z" fill="black"/>
<mask id="mask34_4_1010" style="mask-type:luminance" maskUnits="userSpaceOnUse" x="68" y="112" width="56" height="18">
<path d="M68.9012 112.134H123.111V129.848H68.9012V112.134Z" fill="white"/>
</mask>
<g mask="url(#mask34_4_1010)">
<path d="M123.055 120.994L110.263 129.82H73.3901C70.8954 129.82 68.9012 128.014 68.9012 125.793V116.197C68.9012 113.976 70.8954 112.17 73.3901 112.17H110.263L123.055 120.994ZM109.851 128.751L121.092 120.994L109.851 113.239H73.3871C71.5551 113.239 70.1004 114.566 70.1004 116.197V125.793C70.1004 127.424 71.5551 128.751 73.3871 128.751H109.851Z" fill="black"/>
</g>
<path d="M109.458 129.285V112.704H110.66V129.285H109.458Z" fill="black"/>
<path d="M80.9177 129.285V112.704H82.1199V129.285H80.9177Z" fill="black"/>
<path d="M81.5188 125.007V123.936H110.059V125.007H81.5188Z" fill="black"/>
<path d="M81.5188 118.855V117.786H110.059V118.855H81.5188Z" fill="black"/>
<path d="M115.466 125.274V116.716H116.668V125.274H115.466Z" fill="black"/>
<path d="M75.8111 129.285V112.704H77.0133V129.285H75.8111Z" fill="black"/>
<mask id="mask35_4_1010" style="mask-type:luminance" maskUnits="userSpaceOnUse" x="175" y="97" width="51" height="33">
<path d="M175.161 97.0085H225.054V129.827H175.161V97.0085Z" fill="white"/>
</mask>
<g mask="url(#mask35_4_1010)">
<path fill-rule="evenodd" clip-rule="evenodd" d="M225.054 99.3189V127.496C225.054 128.732 223.944 129.73 222.546 129.73H177.558C176.169 129.73 175.048 128.74 175.048 127.496V99.3189C175.048 98.0814 176.16 97.0848 177.558 97.0848H222.546C223.935 97.0848 225.054 98.0748 225.054 99.3189Z" fill="#9B6EC8"/>
</g>
<path fill-rule="evenodd" clip-rule="evenodd" d="M178.383 114.891C177.462 114.891 176.715 114.226 176.715 113.408C176.715 112.587 177.462 111.924 178.383 111.924C179.303 111.924 180.049 112.587 180.049 113.408C180.049 114.226 179.303 114.891 178.383 114.891Z" fill="#DFD2EA"/>
<path fill-rule="evenodd" clip-rule="evenodd" d="M222.554 114.891C221.634 114.891 220.887 114.226 220.887 113.408C220.887 112.587 221.634 111.924 222.554 111.924C223.475 111.924 224.22 112.587 224.22 113.408C224.22 114.226 223.475 114.891 222.554 114.891Z" fill="#DFD2EA"/>
<path fill-rule="evenodd" clip-rule="evenodd" d="M220.054 98.5684V128.245H181.716V98.5684H220.054Z" fill="#EFD2C5"/>
<path fill-rule="evenodd" clip-rule="evenodd" d="M181.716 98.5684V128.245H220.054L181.716 98.5684Z" fill="#CAE4DE"/>
</svg>
