<svg xmlns="http://www.w3.org/2000/svg" xmlns:xlink="http://www.w3.org/1999/xlink" width="1366" zoomAndPan="magnify" viewBox="0 0 1024.5 576" height="768" preserveAspectRatio="xMidYMid meet" version="1.0"><defs><clipPath id="169e6f32b9"><path d="M 83.863281 158.445312 L 399.457031 158.445312 L 399.457031 533 L 83.863281 533 Z M 83.863281 158.445312 " clip-rule="nonzero"/></clipPath><clipPath id="7acbce2fc1"><path d="M 527.5 221.355469 L 753.140625 221.355469 L 753.140625 533 L 527.5 533 Z M 527.5 221.355469 " clip-rule="nonzero"/></clipPath><clipPath id="ccf0c0b308"><path d="M 445 292 L 482 292 L 482 316.941406 L 445 316.941406 Z M 445 292 " clip-rule="nonzero"/></clipPath><clipPath id="18000c17e7"><path d="M 508 231 L 522.226562 231 L 522.226562 235 L 508 235 Z M 508 231 " clip-rule="nonzero"/></clipPath><clipPath id="3a10bf3ac2"><path d="M 405.28125 231 L 419 231 L 419 235 L 405.28125 235 Z M 405.28125 231 " clip-rule="nonzero"/></clipPath><clipPath id="e647fdb823"><path d="M 300.300781 312.265625 L 558.875 312.265625 L 558.875 458.070312 L 300.300781 458.070312 Z M 300.300781 312.265625 " clip-rule="nonzero"/></clipPath><clipPath id="9c838a3003"><path d="M 309.296875 312.265625 L 549.605469 312.265625 C 551.992188 312.265625 554.28125 313.214844 555.96875 314.902344 C 557.652344 316.589844 558.601562 318.875 558.601562 321.261719 L 558.601562 449.074219 C 558.601562 451.460938 557.652344 453.75 555.96875 455.4375 C 554.28125 457.121094 551.992188 458.070312 549.605469 458.070312 L 309.296875 458.070312 C 306.910156 458.070312 304.621094 457.121094 302.933594 455.4375 C 301.246094 453.75 300.300781 451.460938 300.300781 449.074219 L 300.300781 321.261719 C 300.300781 318.875 301.246094 316.589844 302.933594 314.902344 C 304.621094 313.214844 306.910156 312.265625 309.296875 312.265625 Z M 309.296875 312.265625 " clip-rule="nonzero"/></clipPath><clipPath id="ac64a713fc"><path d="M 756.632812 337 L 890 337 L 890 542.859375 L 756.632812 542.859375 Z M 756.632812 337 " clip-rule="nonzero"/></clipPath><clipPath id="ad94743710"><path d="M 756.632812 376 L 890 376 L 890 440 L 756.632812 440 Z M 756.632812 376 " clip-rule="nonzero"/></clipPath><clipPath id="fdd15d2ba3"><path d="M 756.632812 410 L 890 410 L 890 474 L 756.632812 474 Z M 756.632812 410 " clip-rule="nonzero"/></clipPath><clipPath id="cf1887c956"><path d="M 756.632812 444 L 890 444 L 890 509 L 756.632812 509 Z M 756.632812 444 " clip-rule="nonzero"/></clipPath><clipPath id="14e97832fe"><path d="M 756.632812 479 L 890 479 L 890 542.859375 L 756.632812 542.859375 Z M 756.632812 479 " clip-rule="nonzero"/></clipPath><clipPath id="d510203466"><path d="M 756.632812 317.21875 L 890 317.21875 L 890 367 L 756.632812 367 Z M 756.632812 317.21875 " clip-rule="nonzero"/></clipPath><clipPath id="78349703d1"><path d="M 847 412 L 976.273438 412 L 976.273438 541 L 847 541 Z M 847 412 " clip-rule="nonzero"/></clipPath><clipPath id="5ac802c182"><path d="M 290.3125 302.609375 L 568.429688 302.609375 L 568.429688 490 L 290.3125 490 Z M 290.3125 302.609375 " clip-rule="nonzero"/></clipPath><clipPath id="33a77f48c9"><path d="M 347 516 L 512 516 L 512 532.746094 L 347 532.746094 Z M 347 516 " clip-rule="nonzero"/></clipPath><clipPath id="031786c997"><path d="M 605.1875 365.648438 L 804.261719 365.648438 L 804.261719 490.253906 L 605.1875 490.253906 Z M 605.1875 365.648438 " clip-rule="nonzero"/></clipPath><clipPath id="a281ef07b8"><path d="M 614.183594 365.648438 L 795.199219 365.648438 C 797.585938 365.648438 799.875 366.597656 801.5625 368.285156 C 803.25 369.972656 804.195312 372.261719 804.195312 374.644531 L 804.195312 481.257812 C 804.195312 483.644531 803.25 485.933594 801.5625 487.621094 C 799.875 489.308594 797.585938 490.253906 795.199219 490.253906 L 614.183594 490.253906 C 611.796875 490.253906 609.507812 489.308594 607.820312 487.621094 C 606.132812 485.933594 605.1875 483.644531 605.1875 481.257812 L 605.1875 374.644531 C 605.1875 372.261719 606.132812 369.972656 607.820312 368.285156 C 609.507812 366.597656 611.796875 365.648438 614.183594 365.648438 Z M 614.183594 365.648438 " clip-rule="nonzero"/></clipPath><clipPath id="ada10c83af"><path d="M 584.089844 358 L 840 358 L 840 533 L 584.089844 533 Z M 584.089844 358 " clip-rule="nonzero"/></clipPath><clipPath id="c5610aa46d"><path d="M 811 317.21875 L 861.453125 317.21875 L 861.453125 368 L 811 368 Z M 811 317.21875 " clip-rule="nonzero"/></clipPath><clipPath id="f5c30d28bc"><path d="M 845 470 L 888.417969 470 L 888.417969 532.890625 L 845 532.890625 Z M 845 470 " clip-rule="nonzero"/></clipPath><clipPath id="e329b0b796"><path d="M 841.957031 458.070312 L 891.753906 458.070312 L 891.753906 469 L 841.957031 469 Z M 841.957031 458.070312 " clip-rule="nonzero"/></clipPath><clipPath id="830468bffb"><path d="M 797.773438 492 L 860.742188 492 L 860.742188 534.535156 L 797.773438 534.535156 Z M 797.773438 492 " clip-rule="nonzero"/></clipPath><clipPath id="5914139966"><path d="M 804 459.570312 L 813 459.570312 L 813 483 L 804 483 Z M 804 459.570312 " clip-rule="nonzero"/></clipPath><clipPath id="4fe041c065"><path d="M 819 459.570312 L 827 459.570312 L 827 483 L 819 483 Z M 819 459.570312 " clip-rule="nonzero"/></clipPath><clipPath id="7bcb29ad46"><path d="M 833 459.570312 L 842 459.570312 L 842 483 L 833 483 Z M 833 459.570312 " clip-rule="nonzero"/></clipPath><clipPath id="f989f0a3c5"><path d="M 158.183594 448 L 264.632812 448 L 264.632812 533 L 158.183594 533 Z M 158.183594 448 " clip-rule="nonzero"/></clipPath><clipPath id="6a7bb84220"><path d="M 158.183594 447.613281 L 264.632812 447.613281 L 264.632812 533 L 158.183594 533 Z M 158.183594 447.613281 " clip-rule="nonzero"/></clipPath><clipPath id="dcd2c8331d"><path d="M 508.566406 440 L 638.25 440 L 638.25 535.945312 L 508.566406 535.945312 Z M 508.566406 440 " clip-rule="nonzero"/></clipPath><clipPath id="1481b6dac0"><path d="M 251 493 L 340 493 L 340 534 L 251 534 Z M 251 493 " clip-rule="nonzero"/></clipPath><clipPath id="84400f8905"><path d="M 266.148438 597.523438 L 217.332031 514.046875 L 345.464844 439.121094 L 394.277344 522.601562 Z M 266.148438 597.523438 " clip-rule="nonzero"/></clipPath><clipPath id="1c8aac4354"><path d="M 345.191406 439.050781 L 394.003906 522.527344 L 265.875 597.453125 L 217.0625 513.972656 Z M 345.191406 439.050781 " clip-rule="nonzero"/></clipPath><clipPath id="d91b01fedd"><path d="M 341 493 L 357 493 L 357 534 L 341 534 Z M 341 493 " clip-rule="nonzero"/></clipPath><clipPath id="02cbf8f113"><path d="M 266.148438 597.523438 L 217.332031 514.046875 L 345.464844 439.121094 L 394.277344 522.601562 Z M 266.148438 597.523438 " clip-rule="nonzero"/></clipPath><clipPath id="544d9e8a31"><path d="M 345.191406 439.050781 L 394.003906 522.527344 L 265.875 597.453125 L 217.0625 513.972656 Z M 345.191406 439.050781 " clip-rule="nonzero"/></clipPath><clipPath id="c4dc410cdc"><path d="M 358 493 L 382 493 L 382 534 L 358 534 Z M 358 493 " clip-rule="nonzero"/></clipPath><clipPath id="89ea812d0f"><path d="M 266.148438 597.523438 L 217.332031 514.046875 L 345.464844 439.121094 L 394.277344 522.601562 Z M 266.148438 597.523438 " clip-rule="nonzero"/></clipPath><clipPath id="e420e18f65"><path d="M 345.191406 439.050781 L 394.003906 522.527344 L 265.875 597.453125 L 217.0625 513.972656 Z M 345.191406 439.050781 " clip-rule="nonzero"/></clipPath><clipPath id="1143e00b72"><path d="M 228 495 L 254 495 L 254 534 L 228 534 Z M 228 495 " clip-rule="nonzero"/></clipPath><clipPath id="3548fb2d2a"><path d="M 266.148438 597.523438 L 217.332031 514.046875 L 345.464844 439.121094 L 394.277344 522.601562 Z M 266.148438 597.523438 " clip-rule="nonzero"/></clipPath><clipPath id="c9e52cd947"><path d="M 345.191406 439.050781 L 394.003906 522.527344 L 265.875 597.453125 L 217.0625 513.972656 Z M 345.191406 439.050781 " clip-rule="nonzero"/></clipPath><clipPath id="462836c756"><path d="M 217 508 L 227 508 L 227 520 L 217 520 Z M 217 508 " clip-rule="nonzero"/></clipPath><clipPath id="42c52e60f3"><path d="M 266.148438 597.523438 L 217.332031 514.046875 L 345.464844 439.121094 L 394.277344 522.601562 Z M 266.148438 597.523438 " clip-rule="nonzero"/></clipPath><clipPath id="1f34ce6bc4"><path d="M 345.191406 439.050781 L 394.003906 522.527344 L 265.875 597.453125 L 217.0625 513.972656 Z M 345.191406 439.050781 " clip-rule="nonzero"/></clipPath></defs><g clip-path="url(#169e6f32b9)"><path fill="#f1e7fa" d="M 99.074219 481.402344 L 150.558594 481.402344 L 150.558594 532.890625 L 99.074219 532.890625 Z M 161.089844 532.890625 L 212.578125 532.890625 L 212.578125 428.746094 L 161.089844 428.746094 Z M 224.277344 532.890625 L 275.765625 532.890625 L 275.765625 377.261719 L 224.277344 377.261719 Z M 286.292969 532.890625 L 337.78125 532.890625 L 337.78125 324.605469 L 286.292969 324.605469 Z M 348.3125 273.121094 L 348.3125 532.890625 L 399.796875 532.890625 L 399.796875 273.121094 Z M 333.101562 219.292969 L 352.992188 226.3125 L 338.949219 158.445312 L 285.125 201.742188 L 302.675781 208.761719 C 265.234375 314.074219 185.664062 398.324219 83.863281 443.957031 C 196.195312 407.683594 286.292969 324.605469 333.101562 219.292969 Z M 333.101562 219.292969 " fill-opacity="1" fill-rule="nonzero"/></g><g clip-path="url(#7acbce2fc1)"><path fill="#f1e7fa" d="M 750.390625 277.191406 C 750.328125 277.125 696.632812 223.136719 696.699219 223.199219 C 695.566406 222.0625 694.015625 221.402344 692.375 221.402344 L 551.925781 221.402344 C 538.457031 221.402344 527.5 232.363281 527.5 245.832031 L 527.5 508.410156 C 527.5 521.878906 538.457031 532.835938 551.925781 532.835938 L 729.015625 532.835938 C 742.484375 532.835938 753.441406 521.878906 753.441406 508.410156 C 753.441406 504.660156 753.445312 283.074219 753.433594 282.621094 C 753.488281 280.273438 752.238281 278.261719 750.390625 277.191406 Z M 698.480469 242.3125 L 732.34375 276.363281 L 698.480469 276.363281 Z M 729.015625 520.625 L 551.925781 520.625 C 545.191406 520.625 539.710938 515.144531 539.710938 508.410156 L 539.710938 245.832031 C 539.710938 239.097656 545.191406 233.617188 551.925781 233.617188 L 686.269531 233.617188 L 686.269531 282.46875 C 686.269531 285.839844 689.003906 288.574219 692.375 288.574219 L 741.226562 288.574219 L 741.226562 508.410156 C 741.226562 515.144531 735.75 520.625 729.015625 520.625 Z M 729.015625 520.625 " fill-opacity="1" fill-rule="nonzero"/></g><path fill="#f1e7fa" d="M 594.671875 386.28125 C 618.242188 386.28125 637.417969 367.105469 637.417969 343.535156 C 637.417969 319.964844 618.242188 300.789062 594.671875 300.789062 C 571.101562 300.789062 551.925781 319.964844 551.925781 343.535156 C 551.925781 367.105469 571.101562 386.28125 594.671875 386.28125 Z M 624.589844 337.429688 L 600.777344 337.429688 L 600.777344 313.617188 C 612.722656 316.050781 622.152344 325.484375 624.589844 337.429688 Z M 588.5625 313.617188 L 588.5625 343.535156 C 588.5625 346.90625 591.296875 349.640625 594.671875 349.640625 L 624.589844 349.640625 C 621.75 363.5625 609.414062 374.066406 594.671875 374.066406 C 577.835938 374.066406 564.136719 360.371094 564.136719 343.535156 C 564.136719 328.789062 574.644531 316.453125 588.5625 313.617188 Z M 588.5625 313.617188 " fill-opacity="1" fill-rule="nonzero"/><path fill="#f1e7fa" d="M 722.90625 496.199219 L 710.695312 496.199219 L 710.695312 441.238281 C 710.695312 437.867188 707.960938 435.132812 704.589844 435.132812 L 680.160156 435.132812 C 676.789062 435.132812 674.054688 437.867188 674.054688 441.238281 L 674.054688 496.199219 L 661.84375 496.199219 L 661.84375 410.707031 C 661.84375 407.335938 659.109375 404.601562 655.734375 404.601562 L 631.308594 404.601562 C 627.9375 404.601562 625.203125 407.335938 625.203125 410.707031 L 625.203125 496.199219 L 612.988281 496.199219 L 612.988281 441.238281 C 612.988281 437.867188 610.253906 435.132812 606.882812 435.132812 L 582.457031 435.132812 C 579.085938 435.132812 576.351562 437.867188 576.351562 441.238281 L 576.351562 496.199219 L 564.136719 496.199219 L 564.136719 410.707031 C 564.136719 407.335938 561.402344 404.601562 558.03125 404.601562 C 554.660156 404.601562 551.925781 407.335938 551.925781 410.707031 L 551.925781 502.304688 C 551.925781 505.675781 554.660156 508.410156 558.03125 508.410156 C 597.128906 508.410156 690.480469 508.410156 722.90625 508.410156 C 726.28125 508.410156 729.015625 505.675781 729.015625 502.304688 C 729.015625 498.933594 726.28125 496.199219 722.90625 496.199219 Z M 588.5625 496.199219 L 588.5625 447.347656 L 600.777344 447.347656 L 600.777344 496.199219 Z M 637.417969 496.199219 L 637.417969 416.8125 L 649.628906 416.8125 L 649.628906 496.199219 Z M 686.269531 496.199219 L 686.269531 447.347656 L 698.480469 447.347656 L 698.480469 496.199219 Z M 686.269531 496.199219 " fill-opacity="1" fill-rule="nonzero"/><path fill="#f1e7fa" d="M 558.03125 288.574219 L 667.949219 288.574219 C 671.320312 288.574219 674.054688 285.839844 674.054688 282.46875 L 674.054688 251.9375 C 674.054688 248.566406 671.320312 245.832031 667.949219 245.832031 L 558.03125 245.832031 C 554.660156 245.832031 551.925781 248.566406 551.925781 251.9375 L 551.925781 282.46875 C 551.925781 285.839844 554.660156 288.574219 558.03125 288.574219 Z M 564.136719 258.042969 L 661.84375 258.042969 L 661.84375 276.363281 L 564.136719 276.363281 Z M 564.136719 258.042969 " fill-opacity="1" fill-rule="nonzero"/><path fill="#f1e7fa" d="M 722.90625 300.789062 L 667.949219 300.789062 C 664.578125 300.789062 661.84375 303.523438 661.84375 306.894531 C 661.84375 310.269531 664.578125 313.003906 667.949219 313.003906 L 722.90625 313.003906 C 726.28125 313.003906 729.015625 310.269531 729.015625 306.894531 C 729.015625 303.523438 726.28125 300.789062 722.90625 300.789062 Z M 722.90625 300.789062 " fill-opacity="1" fill-rule="nonzero"/><path fill="#f1e7fa" d="M 722.90625 325.214844 L 667.949219 325.214844 C 664.578125 325.214844 661.84375 327.949219 661.84375 331.320312 C 661.84375 334.695312 664.578125 337.429688 667.949219 337.429688 L 722.90625 337.429688 C 726.28125 337.429688 729.015625 334.695312 729.015625 331.320312 C 729.015625 327.949219 726.28125 325.214844 722.90625 325.214844 Z M 722.90625 325.214844 " fill-opacity="1" fill-rule="nonzero"/><path fill="#f1e7fa" d="M 722.90625 349.640625 L 667.949219 349.640625 C 664.578125 349.640625 661.84375 352.375 661.84375 355.746094 C 661.84375 359.121094 664.578125 361.855469 667.949219 361.855469 L 722.90625 361.855469 C 726.28125 361.855469 729.015625 359.121094 729.015625 355.746094 C 729.015625 352.375 726.28125 349.640625 722.90625 349.640625 Z M 722.90625 349.640625 " fill-opacity="1" fill-rule="nonzero"/><path fill="#f1e7fa" d="M 722.90625 374.066406 L 667.949219 374.066406 C 664.578125 374.066406 661.84375 376.800781 661.84375 380.175781 C 661.84375 383.546875 664.578125 386.28125 667.949219 386.28125 L 722.90625 386.28125 C 726.28125 386.28125 729.015625 383.546875 729.015625 380.175781 C 729.015625 376.800781 726.28125 374.066406 722.90625 374.066406 Z M 722.90625 374.066406 " fill-opacity="1" fill-rule="nonzero"/><path fill="#f1e7fa" d="M 445.644531 288.140625 L 445.644531 288.625 L 482.136719 288.625 L 482.136719 288.140625 C 482.136719 285 482.378906 282.101562 483.105469 278.957031 L 444.917969 278.957031 C 445.402344 282.101562 445.644531 285 445.644531 288.140625 Z M 445.644531 288.140625 " fill-opacity="1" fill-rule="nonzero"/><g clip-path="url(#ccf0c0b308)"><path fill="#f1e7fa" d="M 445.644531 297.085938 C 445.644531 301.917969 449.027344 305.785156 453.375 306.75 C 453.859375 312.070312 458.210938 316.417969 463.769531 316.417969 C 469.328125 316.417969 473.679688 312.070312 474.160156 306.75 C 478.511719 305.785156 481.894531 301.675781 481.894531 297.085938 L 481.894531 292.492188 L 445.644531 292.492188 Z M 445.644531 297.085938 " fill-opacity="1" fill-rule="nonzero"/></g><path fill="#f1e7fa" d="M 490.835938 205.730469 C 483.585938 198.480469 473.917969 194.613281 463.769531 194.613281 C 453.617188 194.613281 444.191406 198.71875 436.941406 205.972656 C 429.933594 213.222656 425.824219 222.648438 425.824219 232.796875 C 425.824219 241.496094 428.96875 250.199219 434.527344 256.964844 C 438.875 262.28125 442.019531 268.324219 443.953125 274.851562 L 483.828125 274.851562 C 485.519531 268.324219 488.902344 262.28125 493.011719 256.964844 C 498.8125 250.199219 501.953125 241.496094 501.953125 232.554688 C 501.953125 222.648438 498.085938 212.980469 490.835938 205.730469 Z M 447.09375 218.296875 C 443.710938 222.40625 441.777344 227.480469 441.777344 232.554688 C 441.777344 235.214844 442.257812 237.871094 443.226562 240.53125 L 439.601562 241.980469 C 438.394531 239.082031 437.910156 235.9375 437.910156 232.554688 C 437.910156 226.273438 440.085938 220.472656 444.191406 215.636719 C 448.058594 211.046875 453.617188 207.902344 459.660156 206.695312 L 460.386719 210.5625 C 455.070312 211.53125 450.476562 214.1875 447.09375 218.296875 Z M 447.09375 218.296875 " fill-opacity="1" fill-rule="nonzero"/><path fill="#f1e7fa" d="M 461.59375 174.550781 L 465.460938 174.550781 L 465.460938 187.84375 L 461.59375 187.84375 Z M 461.59375 174.550781 " fill-opacity="1" fill-rule="nonzero"/><path fill="#f1e7fa" d="M 494.191406 199.585938 L 503.589844 190.183594 L 506.324219 192.917969 L 496.925781 202.320312 Z M 494.191406 199.585938 " fill-opacity="1" fill-rule="nonzero"/><path fill="#f1e7fa" d="M 420.96875 272.816406 L 430.367188 263.417969 L 433.101562 266.148438 L 423.703125 275.550781 Z M 420.96875 272.816406 " fill-opacity="1" fill-rule="nonzero"/><g clip-path="url(#18000c17e7)"><path fill="#f1e7fa" d="M 508.722656 231.105469 L 522.015625 231.105469 L 522.015625 234.972656 L 508.722656 234.972656 Z M 508.722656 231.105469 " fill-opacity="1" fill-rule="nonzero"/></g><g clip-path="url(#3a10bf3ac2)"><path fill="#f1e7fa" d="M 405.28125 231.105469 L 418.574219 231.105469 L 418.574219 234.972656 L 405.28125 234.972656 Z M 405.28125 231.105469 " fill-opacity="1" fill-rule="nonzero"/></g><path fill="#f1e7fa" d="M 494.191406 266.320312 L 496.925781 263.585938 L 506.328125 272.984375 L 503.59375 275.71875 Z M 494.191406 266.320312 " fill-opacity="1" fill-rule="nonzero"/><path fill="#f1e7fa" d="M 420.960938 193.09375 L 423.695312 190.359375 L 433.09375 199.757812 L 430.359375 202.492188 Z M 420.960938 193.09375 " fill-opacity="1" fill-rule="nonzero"/><g clip-path="url(#e647fdb823)"><g clip-path="url(#9c838a3003)"><path fill="#efd2c5" d="M 300.300781 312.265625 L 558.875 312.265625 L 558.875 458.070312 L 300.300781 458.070312 Z M 300.300781 312.265625 " fill-opacity="1" fill-rule="nonzero"/></g></g><path fill="#f1e7fa" d="M 822.941406 361.644531 C 788.835938 361.644531 761.1875 352.71875 761.1875 341.703125 L 761.1875 518.558594 C 761.1875 529.574219 788.835938 538.5 822.941406 538.5 C 857.042969 538.5 884.691406 529.574219 884.691406 518.558594 L 884.691406 341.703125 C 884.691406 352.71875 857.042969 361.644531 822.941406 361.644531 Z M 822.941406 361.644531 " fill-opacity="1" fill-rule="nonzero"/><g clip-path="url(#ac64a713fc)"><path fill="#ffffff" d="M 822.941406 543.015625 C 790.011719 543.015625 756.675781 534.613281 756.675781 518.558594 L 756.675781 341.703125 C 756.675781 339.210938 758.695312 337.191406 761.1875 337.191406 C 763.679688 337.191406 765.699219 339.210938 765.699219 341.703125 C 765.699219 343.550781 768.851562 347.695312 780.660156 351.511719 C 791.890625 355.136719 806.90625 357.132812 822.941406 357.132812 C 838.976562 357.132812 853.992188 355.136719 865.21875 351.511719 C 877.027344 347.695312 880.179688 343.550781 880.179688 341.703125 C 880.179688 339.210938 882.199219 337.191406 884.691406 337.191406 C 887.1875 337.191406 889.207031 339.210938 889.207031 341.703125 L 889.207031 518.558594 C 889.207031 534.613281 855.871094 543.015625 822.941406 543.015625 Z M 765.699219 354.671875 L 765.699219 518.558594 C 765.699219 520.40625 768.851562 524.550781 780.660156 528.367188 C 791.890625 531.992188 806.90625 533.988281 822.941406 533.988281 C 838.976562 533.988281 853.992188 531.992188 865.21875 528.367188 C 877.027344 524.550781 880.179688 520.410156 880.179688 518.558594 L 880.179688 354.671875 C 868.046875 362.25 845.402344 366.160156 822.941406 366.160156 C 800.480469 366.160156 777.832031 362.25 765.699219 354.671875 Z M 765.699219 354.671875 " fill-opacity="1" fill-rule="nonzero"/></g><path fill="#f1e7fa" d="M 822.941406 400.457031 C 788.835938 400.457031 761.1875 391.527344 761.1875 380.515625 L 761.1875 414.882812 C 761.1875 425.894531 788.835938 434.824219 822.941406 434.824219 C 857.042969 434.824219 884.691406 425.894531 884.691406 414.882812 L 884.691406 380.515625 C 884.691406 391.527344 857.042969 400.457031 822.941406 400.457031 Z M 822.941406 400.457031 " fill-opacity="1" fill-rule="nonzero"/><g clip-path="url(#ad94743710)"><path fill="#ffffff" d="M 822.941406 439.335938 C 790.011719 439.335938 756.675781 430.9375 756.675781 414.882812 L 756.675781 380.515625 C 756.675781 378.023438 758.695312 376 761.1875 376 C 763.679688 376 765.699219 378.023438 765.699219 380.515625 C 765.699219 382.363281 768.851562 386.507812 780.660156 390.320312 C 791.890625 393.945312 806.90625 395.945312 822.941406 395.945312 C 838.976562 395.945312 853.992188 393.945312 865.21875 390.320312 C 877.027344 386.507812 880.179688 382.363281 880.179688 380.515625 C 880.179688 378.023438 882.199219 376 884.691406 376 C 887.1875 376 889.207031 378.023438 889.207031 380.515625 L 889.207031 414.882812 C 889.207031 430.9375 855.871094 439.335938 822.941406 439.335938 Z M 765.699219 393.480469 L 765.699219 414.882812 C 765.699219 416.730469 768.851562 420.875 780.660156 424.6875 C 791.890625 428.3125 806.90625 430.308594 822.941406 430.308594 C 838.976562 430.308594 853.992188 428.3125 865.21875 424.6875 C 877.027344 420.875 880.179688 416.730469 880.179688 414.882812 L 880.179688 393.480469 C 868.046875 401.0625 845.402344 404.96875 822.941406 404.96875 C 800.480469 404.96875 777.832031 401.0625 765.699219 393.480469 Z M 765.699219 393.480469 " fill-opacity="1" fill-rule="nonzero"/></g><path fill="#f1e7fa" d="M 822.941406 434.753906 C 788.835938 434.753906 761.1875 425.824219 761.1875 414.8125 L 761.1875 449.179688 C 761.1875 460.191406 788.835938 469.121094 822.941406 469.121094 C 857.042969 469.121094 884.691406 460.191406 884.691406 449.179688 L 884.691406 414.8125 C 884.691406 425.824219 857.042969 434.753906 822.941406 434.753906 Z M 822.941406 434.753906 " fill-opacity="1" fill-rule="nonzero"/><g clip-path="url(#fdd15d2ba3)"><path fill="#ffffff" d="M 822.941406 473.632812 C 790.011719 473.632812 756.675781 465.234375 756.675781 449.179688 L 756.675781 414.8125 C 756.675781 412.320312 758.695312 410.300781 761.1875 410.300781 C 763.679688 410.300781 765.699219 412.320312 765.699219 414.8125 C 765.699219 416.660156 768.851562 420.804688 780.660156 424.621094 C 791.890625 428.246094 806.90625 430.242188 822.941406 430.242188 C 838.976562 430.242188 853.992188 428.246094 865.21875 424.621094 C 877.027344 420.804688 880.179688 416.660156 880.179688 414.8125 C 880.179688 412.320312 882.199219 410.300781 884.691406 410.300781 C 887.1875 410.300781 889.207031 412.320312 889.207031 414.8125 L 889.207031 449.179688 C 889.207031 465.234375 855.871094 473.632812 822.941406 473.632812 Z M 765.699219 427.78125 L 765.699219 449.179688 C 765.699219 451.027344 768.851562 455.171875 780.660156 458.984375 C 791.890625 462.609375 806.90625 464.609375 822.941406 464.609375 C 838.976562 464.609375 853.992188 462.609375 865.21875 458.984375 C 877.027344 455.171875 880.179688 451.027344 880.179688 449.179688 L 880.179688 427.78125 C 868.046875 435.359375 845.402344 439.265625 822.941406 439.265625 C 800.480469 439.265625 777.832031 435.359375 765.699219 427.78125 Z M 765.699219 427.78125 " fill-opacity="1" fill-rule="nonzero"/></g><path fill="#f1e7fa" d="M 822.941406 469.265625 C 788.835938 469.265625 761.1875 460.339844 761.1875 449.324219 L 761.1875 483.691406 C 761.1875 494.707031 788.835938 503.632812 822.941406 503.632812 C 857.042969 503.632812 884.691406 494.707031 884.691406 483.691406 L 884.691406 449.324219 C 884.691406 460.339844 857.042969 469.265625 822.941406 469.265625 Z M 822.941406 469.265625 " fill-opacity="1" fill-rule="nonzero"/><g clip-path="url(#cf1887c956)"><path fill="#ffffff" d="M 822.941406 508.148438 C 790.011719 508.148438 756.675781 499.746094 756.675781 483.691406 L 756.675781 449.324219 C 756.675781 446.832031 758.695312 444.8125 761.1875 444.8125 C 763.679688 444.8125 765.699219 446.832031 765.699219 449.324219 C 765.699219 451.171875 768.851562 455.316406 780.660156 459.132812 C 791.890625 462.757812 806.90625 464.753906 822.941406 464.753906 C 838.976562 464.753906 853.992188 462.757812 865.21875 459.132812 C 877.027344 455.316406 880.179688 451.171875 880.179688 449.324219 C 880.179688 446.832031 882.199219 444.8125 884.691406 444.8125 C 887.1875 444.8125 889.207031 446.832031 889.207031 449.324219 L 889.207031 483.691406 C 889.207031 499.746094 855.871094 508.148438 822.941406 508.148438 Z M 765.699219 462.292969 L 765.699219 483.691406 C 765.699219 485.539062 768.851562 489.683594 780.660156 493.5 C 791.890625 497.125 806.90625 499.121094 822.941406 499.121094 C 838.976562 499.121094 853.992188 497.125 865.21875 493.5 C 877.027344 489.683594 880.179688 485.539062 880.179688 483.691406 L 880.179688 462.292969 C 868.046875 469.871094 845.402344 473.78125 822.941406 473.78125 C 800.480469 473.78125 777.832031 469.871094 765.699219 462.292969 Z M 765.699219 462.292969 " fill-opacity="1" fill-rule="nonzero"/></g><path fill="#f1e7fa" d="M 822.941406 504.121094 C 788.835938 504.121094 761.1875 495.195312 761.1875 484.179688 L 761.1875 518.546875 C 761.1875 529.5625 788.835938 538.488281 822.941406 538.488281 C 857.042969 538.488281 884.691406 529.5625 884.691406 518.546875 L 884.691406 484.179688 C 884.691406 495.195312 857.042969 504.121094 822.941406 504.121094 Z M 822.941406 504.121094 " fill-opacity="1" fill-rule="nonzero"/><g clip-path="url(#14e97832fe)"><path fill="#ffffff" d="M 822.941406 543.003906 C 790.011719 543.003906 756.675781 534.601562 756.675781 518.546875 L 756.675781 484.179688 C 756.675781 481.6875 758.695312 479.667969 761.1875 479.667969 C 763.679688 479.667969 765.699219 481.6875 765.699219 484.179688 C 765.699219 486.027344 768.851562 490.171875 780.660156 493.988281 C 791.890625 497.613281 806.90625 499.609375 822.941406 499.609375 C 838.976562 499.609375 853.992188 497.613281 865.21875 493.988281 C 877.027344 490.171875 880.179688 486.027344 880.179688 484.179688 C 880.179688 481.6875 882.199219 479.667969 884.691406 479.667969 C 887.1875 479.667969 889.207031 481.6875 889.207031 484.179688 L 889.207031 518.546875 C 889.207031 534.601562 855.871094 543.003906 822.941406 543.003906 Z M 765.699219 497.148438 L 765.699219 518.546875 C 765.699219 520.394531 768.851562 524.539062 780.660156 528.355469 C 791.890625 531.980469 806.90625 533.976562 822.941406 533.976562 C 838.976562 533.976562 853.992188 531.980469 865.21875 528.355469 C 877.027344 524.539062 880.179688 520.394531 880.179688 518.546875 L 880.179688 497.148438 C 868.046875 504.726562 845.402344 508.636719 822.941406 508.636719 C 800.480469 508.636719 777.832031 504.726562 765.699219 497.148438 Z M 765.699219 497.148438 " fill-opacity="1" fill-rule="nonzero"/></g><path fill="#f1e7fa" d="M 884.691406 341.703125 C 884.691406 342.355469 884.59375 343.007812 884.394531 343.65625 C 884.195312 344.308594 883.902344 344.953125 883.507812 345.59375 C 883.113281 346.234375 882.621094 346.867188 882.035156 347.492188 C 881.445312 348.117188 880.765625 348.730469 879.992188 349.335938 C 879.21875 349.9375 878.355469 350.527344 877.402344 351.105469 C 876.449219 351.679688 875.410156 352.238281 874.285156 352.78125 C 873.160156 353.324219 871.957031 353.851562 870.675781 354.355469 C 869.390625 354.859375 868.035156 355.34375 866.605469 355.804688 C 865.175781 356.265625 863.679688 356.703125 862.117188 357.117188 C 860.550781 357.535156 858.929688 357.921875 857.25 358.285156 C 855.566406 358.648438 853.832031 358.984375 852.050781 359.292969 C 850.265625 359.597656 848.441406 359.878906 846.570312 360.128906 C 844.703125 360.378906 842.800781 360.597656 840.867188 360.785156 C 838.929688 360.976562 836.972656 361.136719 834.988281 361.261719 C 833.003906 361.390625 831.007812 361.484375 828.992188 361.550781 C 826.980469 361.613281 824.960938 361.644531 822.941406 361.644531 C 820.917969 361.644531 818.898438 361.613281 816.886719 361.550781 C 814.875 361.484375 812.875 361.390625 810.894531 361.261719 C 808.910156 361.136719 806.949219 360.976562 805.015625 360.785156 C 803.078125 360.597656 801.175781 360.378906 799.308594 360.128906 C 797.441406 359.878906 795.613281 359.597656 793.832031 359.292969 C 792.046875 358.984375 790.3125 358.648438 788.632812 358.285156 C 786.949219 357.921875 785.328125 357.535156 783.765625 357.117188 C 782.203125 356.703125 780.703125 356.265625 779.273438 355.804688 C 777.84375 355.34375 776.488281 354.859375 775.207031 354.355469 C 773.921875 353.851562 772.71875 353.324219 771.59375 352.78125 C 770.472656 352.238281 769.433594 351.679688 768.480469 351.105469 C 767.527344 350.527344 766.664062 349.9375 765.890625 349.335938 C 765.113281 348.730469 764.433594 348.117188 763.847656 347.492188 C 763.261719 346.867188 762.769531 346.234375 762.375 345.59375 C 761.980469 344.953125 761.683594 344.308594 761.484375 343.65625 C 761.289062 343.007812 761.1875 342.355469 761.1875 341.703125 C 761.1875 341.050781 761.289062 340.398438 761.484375 339.75 C 761.683594 339.097656 761.980469 338.453125 762.375 337.8125 C 762.769531 337.171875 763.261719 336.539062 763.847656 335.914062 C 764.433594 335.289062 765.113281 334.675781 765.890625 334.070312 C 766.664062 333.46875 767.527344 332.878906 768.480469 332.300781 C 769.433594 331.726562 770.472656 331.167969 771.59375 330.625 C 772.71875 330.082031 773.921875 329.558594 775.207031 329.050781 C 776.488281 328.546875 777.84375 328.0625 779.273438 327.601562 C 780.703125 327.140625 782.203125 326.703125 783.765625 326.289062 C 785.328125 325.875 786.949219 325.484375 788.632812 325.121094 C 790.3125 324.757812 792.046875 324.421875 793.832031 324.117188 C 795.613281 323.808594 797.441406 323.527344 799.308594 323.277344 C 801.175781 323.027344 803.078125 322.808594 805.015625 322.621094 C 806.949219 322.429688 808.910156 322.273438 810.894531 322.144531 C 812.875 322.015625 814.875 321.921875 816.886719 321.855469 C 818.898438 321.792969 820.917969 321.761719 822.941406 321.761719 C 824.960938 321.761719 826.980469 321.792969 828.992188 321.855469 C 831.007812 321.921875 833.003906 322.015625 834.988281 322.144531 C 836.972656 322.273438 838.929688 322.429688 840.867188 322.621094 C 842.800781 322.808594 844.703125 323.027344 846.570312 323.277344 C 848.441406 323.527344 850.265625 323.808594 852.050781 324.117188 C 853.832031 324.421875 855.566406 324.757812 857.25 325.121094 C 858.929688 325.484375 860.550781 325.875 862.117188 326.289062 C 863.679688 326.703125 865.175781 327.140625 866.605469 327.601562 C 868.035156 328.0625 869.390625 328.546875 870.675781 329.050781 C 871.957031 329.558594 873.160156 330.082031 874.285156 330.625 C 875.410156 331.167969 876.449219 331.726562 877.402344 332.300781 C 878.355469 332.878906 879.21875 333.46875 879.992188 334.070312 C 880.765625 334.675781 881.445312 335.289062 882.035156 335.914062 C 882.621094 336.539062 883.113281 337.171875 883.507812 337.8125 C 883.902344 338.453125 884.195312 339.097656 884.394531 339.75 C 884.59375 340.398438 884.691406 341.050781 884.691406 341.703125 Z M 884.691406 341.703125 " fill-opacity="1" fill-rule="nonzero"/><g clip-path="url(#d510203466)"><path fill="#ffffff" d="M 822.941406 366.160156 C 790.011719 366.160156 756.675781 357.757812 756.675781 341.703125 C 756.675781 325.648438 790.011719 317.25 822.941406 317.25 C 855.871094 317.25 889.207031 325.648438 889.207031 341.703125 C 889.207031 357.757812 855.871094 366.160156 822.941406 366.160156 Z M 822.941406 326.273438 C 806.90625 326.273438 791.890625 328.269531 780.660156 331.894531 C 768.851562 335.710938 765.699219 339.855469 765.699219 341.703125 C 765.699219 343.550781 768.851562 347.695312 780.660156 351.511719 C 791.890625 355.136719 806.90625 357.132812 822.941406 357.132812 C 838.976562 357.132812 853.992188 355.136719 865.21875 351.511719 C 877.027344 347.695312 880.179688 343.550781 880.179688 341.703125 C 880.179688 339.855469 877.027344 335.710938 865.21875 331.894531 C 853.992188 328.269531 838.976562 326.273438 822.941406 326.273438 Z M 822.941406 326.273438 " fill-opacity="1" fill-rule="nonzero"/></g><path fill="#f1e7fa" d="M 821.898438 327.398438 C 819.066406 327.398438 816.28125 327.453125 813.566406 327.5625 C 839.925781 328.609375 860.121094 334.539062 860.121094 341.703125 C 860.121094 348.867188 839.925781 354.796875 813.566406 355.84375 C 816.28125 355.953125 819.070312 356.007812 821.898438 356.007812 C 852.214844 356.007812 876.792969 349.605469 876.792969 341.703125 C 876.792969 333.800781 852.214844 327.398438 821.898438 327.398438 Z M 821.898438 327.398438 " fill-opacity="1" fill-rule="nonzero"/><path fill="#f1e7fa" d="M 971.660156 476.480469 C 971.660156 478.441406 971.5625 480.402344 971.371094 482.355469 C 971.179688 484.3125 970.890625 486.253906 970.507812 488.179688 C 970.125 490.105469 969.648438 492.007812 969.078125 493.886719 C 968.507812 495.765625 967.847656 497.613281 967.09375 499.425781 C 966.34375 501.242188 965.503906 503.015625 964.578125 504.746094 C 963.652344 506.480469 962.644531 508.164062 961.554688 509.796875 C 960.460938 511.429688 959.292969 513.003906 958.046875 514.523438 C 956.800781 516.039062 955.484375 517.492188 954.097656 518.882812 C 952.707031 520.269531 951.253906 521.589844 949.734375 522.835938 C 948.21875 524.082031 946.640625 525.25 945.007812 526.339844 C 943.375 527.429688 941.695312 528.441406 939.960938 529.367188 C 938.230469 530.292969 936.457031 531.128906 934.640625 531.882812 C 932.828125 532.632812 930.980469 533.292969 929.101562 533.863281 C 927.222656 534.433594 925.316406 534.910156 923.390625 535.292969 C 921.464844 535.675781 919.527344 535.964844 917.570312 536.15625 C 915.617188 536.351562 913.65625 536.445312 911.691406 536.445312 C 909.730469 536.445312 907.769531 536.351562 905.816406 536.15625 C 903.859375 535.964844 901.921875 535.675781 899.996094 535.292969 C 898.066406 534.910156 896.164062 534.433594 894.285156 533.863281 C 892.40625 533.292969 890.558594 532.632812 888.746094 531.882812 C 886.929688 531.128906 885.15625 530.292969 883.425781 529.367188 C 881.691406 528.441406 880.011719 527.429688 878.378906 526.339844 C 876.746094 525.25 875.167969 524.082031 873.652344 522.835938 C 872.132812 521.589844 870.679688 520.269531 869.289062 518.882812 C 867.902344 517.492188 866.582031 516.039062 865.339844 514.523438 C 864.09375 513.003906 862.921875 511.429688 861.832031 509.796875 C 860.742188 508.164062 859.734375 506.480469 858.808594 504.746094 C 857.882812 503.015625 857.042969 501.242188 856.289062 499.425781 C 855.539062 497.613281 854.878906 495.765625 854.308594 493.886719 C 853.738281 492.007812 853.261719 490.105469 852.878906 488.179688 C 852.496094 486.253906 852.207031 484.3125 852.015625 482.355469 C 851.824219 480.402344 851.726562 478.441406 851.726562 476.480469 C 851.726562 474.515625 851.824219 472.554688 852.015625 470.601562 C 852.207031 468.648438 852.496094 466.707031 852.878906 464.78125 C 853.261719 462.855469 853.738281 460.953125 854.308594 459.070312 C 854.878906 457.191406 855.539062 455.34375 856.289062 453.53125 C 857.042969 451.714844 857.882812 449.941406 858.808594 448.210938 C 859.734375 446.480469 860.742188 444.796875 861.832031 443.164062 C 862.921875 441.53125 864.09375 439.953125 865.339844 438.4375 C 866.582031 436.917969 867.902344 435.464844 869.289062 434.078125 C 870.679688 432.6875 872.132812 431.371094 873.652344 430.125 C 875.167969 428.878906 876.746094 427.710938 878.378906 426.617188 C 880.011719 425.527344 881.691406 424.519531 883.425781 423.59375 C 885.15625 422.667969 886.929688 421.828125 888.746094 421.078125 C 890.558594 420.324219 892.40625 419.664062 894.285156 419.09375 C 896.164062 418.523438 898.066406 418.046875 899.996094 417.664062 C 901.921875 417.28125 903.859375 416.992188 905.816406 416.800781 C 907.769531 416.609375 909.730469 416.511719 911.691406 416.511719 C 913.65625 416.511719 915.617188 416.609375 917.570312 416.800781 C 919.527344 416.992188 921.464844 417.28125 923.390625 417.664062 C 925.316406 418.046875 927.222656 418.523438 929.101562 419.09375 C 930.980469 419.664062 932.828125 420.324219 934.640625 421.078125 C 936.457031 421.828125 938.230469 422.667969 939.960938 423.59375 C 941.695312 424.519531 943.375 425.527344 945.007812 426.617188 C 946.640625 427.710938 948.21875 428.878906 949.734375 430.125 C 951.253906 431.371094 952.707031 432.6875 954.097656 434.078125 C 955.484375 435.464844 956.800781 436.917969 958.046875 438.4375 C 959.292969 439.953125 960.460938 441.53125 961.554688 443.164062 C 962.644531 444.796875 963.652344 446.480469 964.578125 448.210938 C 965.503906 449.941406 966.34375 451.714844 967.09375 453.53125 C 967.847656 455.34375 968.507812 457.191406 969.078125 459.070312 C 969.648438 460.953125 970.125 462.855469 970.507812 464.78125 C 970.890625 466.707031 971.179688 468.648438 971.371094 470.601562 C 971.5625 472.554688 971.660156 474.515625 971.660156 476.480469 Z M 971.660156 476.480469 " fill-opacity="1" fill-rule="nonzero"/><g clip-path="url(#78349703d1)"><path fill="#ffffff" d="M 911.695312 540.960938 C 876.140625 540.960938 847.214844 512.035156 847.214844 476.480469 C 847.214844 440.925781 876.140625 412 911.695312 412 C 947.25 412 976.171875 440.925781 976.171875 476.480469 C 976.171875 512.035156 947.246094 540.960938 911.695312 540.960938 Z M 911.695312 421.023438 C 881.117188 421.023438 856.238281 445.902344 856.238281 476.480469 C 856.238281 507.058594 881.117188 531.933594 911.695312 531.933594 C 942.269531 531.933594 967.148438 507.058594 967.148438 476.480469 C 967.148438 445.902344 942.269531 421.023438 911.695312 421.023438 Z M 911.695312 421.023438 " fill-opacity="1" fill-rule="nonzero"/></g><path fill="#f1e7fa" d="M 951.804688 476.480469 C 951.804688 478.441406 951.707031 480.402344 951.515625 482.355469 C 951.320312 484.3125 951.035156 486.253906 950.652344 488.179688 C 950.269531 490.105469 949.792969 492.007812 949.222656 493.886719 C 948.652344 495.765625 947.992188 497.613281 947.238281 499.425781 C 946.488281 501.242188 945.648438 503.015625 944.722656 504.746094 C 943.796875 506.480469 942.789062 508.164062 941.695312 509.796875 C 940.605469 511.429688 939.4375 513.003906 938.191406 514.523438 C 936.945312 516.039062 935.628906 517.492188 934.238281 518.882812 C 932.851562 520.269531 931.398438 521.589844 929.878906 522.835938 C 928.359375 524.082031 926.785156 525.25 925.152344 526.339844 C 923.519531 527.429688 921.835938 528.441406 920.105469 529.367188 C 918.371094 530.292969 916.597656 531.128906 914.785156 531.882812 C 912.96875 532.632812 911.125 533.292969 909.242188 533.863281 C 907.363281 534.433594 905.460938 534.910156 903.535156 535.292969 C 901.609375 535.675781 899.667969 535.964844 897.714844 536.15625 C 895.761719 536.351562 893.800781 536.445312 891.835938 536.445312 C 889.871094 536.445312 887.914062 536.351562 885.957031 536.15625 C 884.003906 535.964844 882.0625 535.675781 880.136719 535.292969 C 878.210938 534.910156 876.308594 534.433594 874.429688 533.863281 C 872.550781 533.292969 870.703125 532.632812 868.886719 531.882812 C 867.074219 531.128906 865.300781 530.292969 863.566406 529.367188 C 861.835938 528.441406 860.152344 527.429688 858.519531 526.339844 C 856.886719 525.25 855.3125 524.082031 853.792969 522.835938 C 852.277344 521.589844 850.820312 520.269531 849.433594 518.882812 C 848.042969 517.492188 846.726562 516.039062 845.480469 514.523438 C 844.234375 513.003906 843.066406 511.429688 841.976562 509.796875 C 840.882812 508.164062 839.875 506.480469 838.949219 504.746094 C 838.023438 503.015625 837.1875 501.242188 836.433594 499.425781 C 835.683594 497.613281 835.023438 495.765625 834.453125 493.886719 C 833.882812 492.007812 833.40625 490.105469 833.023438 488.179688 C 832.636719 486.253906 832.351562 484.3125 832.160156 482.355469 C 831.964844 480.402344 831.871094 478.441406 831.871094 476.480469 C 831.871094 474.515625 831.964844 472.554688 832.160156 470.601562 C 832.351562 468.648438 832.636719 466.707031 833.023438 464.78125 C 833.40625 462.855469 833.882812 460.953125 834.453125 459.070312 C 835.023438 457.191406 835.683594 455.34375 836.433594 453.53125 C 837.1875 451.714844 838.023438 449.941406 838.949219 448.210938 C 839.875 446.480469 840.882812 444.796875 841.976562 443.164062 C 843.066406 441.53125 844.234375 439.953125 845.480469 438.4375 C 846.726562 436.917969 848.042969 435.464844 849.433594 434.078125 C 850.820312 432.6875 852.277344 431.371094 853.792969 430.125 C 855.3125 428.878906 856.886719 427.710938 858.519531 426.617188 C 860.152344 425.527344 861.835938 424.519531 863.566406 423.59375 C 865.300781 422.667969 867.074219 421.828125 868.886719 421.078125 C 870.703125 420.324219 872.550781 419.664062 874.429688 419.09375 C 876.308594 418.523438 878.210938 418.046875 880.136719 417.664062 C 882.0625 417.28125 884.003906 416.992188 885.957031 416.800781 C 887.914062 416.609375 889.871094 416.511719 891.835938 416.511719 C 893.800781 416.511719 895.761719 416.609375 897.714844 416.800781 C 899.667969 416.992188 901.609375 417.28125 903.535156 417.664062 C 905.460938 418.046875 907.363281 418.523438 909.242188 419.09375 C 911.125 419.664062 912.96875 420.324219 914.785156 421.078125 C 916.597656 421.828125 918.371094 422.667969 920.105469 423.59375 C 921.835938 424.519531 923.519531 425.527344 925.152344 426.617188 C 926.785156 427.710938 928.359375 428.878906 929.878906 430.125 C 931.398438 431.371094 932.851562 432.6875 934.238281 434.078125 C 935.628906 435.464844 936.945312 436.917969 938.191406 438.4375 C 939.4375 439.953125 940.605469 441.53125 941.695312 443.164062 C 942.789062 444.796875 943.796875 446.480469 944.722656 448.210938 C 945.648438 449.941406 946.488281 451.714844 947.238281 453.53125 C 947.992188 455.34375 948.652344 457.191406 949.222656 459.070312 C 949.792969 460.953125 950.269531 462.855469 950.652344 464.78125 C 951.035156 466.707031 951.320312 468.648438 951.515625 470.601562 C 951.707031 472.554688 951.804688 474.515625 951.804688 476.480469 Z M 951.804688 476.480469 " fill-opacity="1" fill-rule="nonzero"/><path fill="#ffffff" d="M 891.835938 540.960938 C 856.28125 540.960938 827.355469 512.035156 827.355469 476.480469 C 827.355469 440.925781 856.285156 412 891.835938 412 C 927.390625 412 956.316406 440.925781 956.316406 476.480469 C 956.316406 512.035156 927.390625 540.960938 891.835938 540.960938 Z M 891.835938 421.023438 C 861.257812 421.023438 836.382812 445.902344 836.382812 476.480469 C 836.382812 507.058594 861.261719 531.933594 891.835938 531.933594 C 922.414062 531.933594 947.289062 507.058594 947.289062 476.480469 C 947.289062 445.902344 922.414062 421.023438 891.835938 421.023438 Z M 891.835938 421.023438 " fill-opacity="1" fill-rule="nonzero"/><path fill="#f1e7fa" d="M 890.523438 424.816406 C 887.746094 424.816406 885.023438 425.042969 882.363281 425.464844 C 907.015625 429.378906 925.863281 450.726562 925.863281 476.480469 C 925.863281 502.234375 907.015625 523.578125 882.363281 527.492188 C 885.023438 527.914062 887.746094 528.140625 890.523438 528.140625 C 919.054688 528.140625 942.1875 505.011719 942.1875 476.480469 C 942.1875 447.945312 919.054688 424.816406 890.523438 424.816406 Z M 890.523438 424.816406 " fill-opacity="1" fill-rule="nonzero"/><path fill="#ffffff" d="M 890.695312 501.058594 C 878.179688 501.058594 868.375 494.21875 868.375 485.484375 C 868.375 482.992188 870.398438 480.972656 872.890625 480.972656 C 875.382812 480.972656 877.402344 482.992188 877.402344 485.484375 C 877.402344 488.511719 883.210938 492.035156 890.695312 492.035156 C 898.183594 492.035156 903.992188 488.511719 903.992188 485.484375 C 903.992188 482.457031 898.183594 478.933594 890.695312 478.933594 C 878.179688 478.933594 868.375 472.09375 868.375 463.359375 C 868.375 454.628906 878.179688 447.785156 890.695312 447.785156 C 903.210938 447.785156 913.015625 454.628906 913.015625 463.359375 C 913.015625 465.851562 910.996094 467.875 908.503906 467.875 C 906.011719 467.875 903.992188 465.851562 903.992188 463.359375 C 903.992188 460.332031 898.183594 456.8125 890.695312 456.8125 C 883.210938 456.8125 877.402344 460.332031 877.402344 463.359375 C 877.402344 466.390625 883.210938 469.910156 890.695312 469.910156 C 903.210938 469.910156 913.015625 476.75 913.015625 485.484375 C 913.019531 494.21875 903.210938 501.058594 890.695312 501.058594 Z M 890.695312 501.058594 " fill-opacity="1" fill-rule="nonzero"/><path fill="#ffffff" d="M 891.835938 508.546875 C 889.34375 508.546875 887.324219 506.527344 887.324219 504.035156 L 887.324219 444.8125 C 887.324219 442.320312 889.34375 440.296875 891.835938 440.296875 C 894.328125 440.296875 896.347656 442.320312 896.347656 444.8125 L 896.347656 504.035156 C 896.347656 506.527344 894.328125 508.546875 891.835938 508.546875 Z M 891.835938 508.546875 " fill-opacity="1" fill-rule="nonzero"/><path stroke-linecap="butt" transform="matrix(0.749634, -0.000000000000000093, 0.000000000000000093, 0.749634, 67.363352, 532.897269)" fill="none" stroke-linejoin="miter" d="M -0.0000946233 3.498056 L 1212.398662 3.498056 " stroke="#000000" stroke-width="7" stroke-opacity="1" stroke-miterlimit="4"/><g clip-path="url(#5ac802c182)"><path fill="#77bdc6" d="M 556.4375 450.78125 L 302.457031 450.78125 L 302.457031 315.929688 C 302.457031 315.324219 302.949219 314.839844 303.550781 314.839844 L 555.351562 314.839844 C 555.945312 314.839844 556.4375 315.324219 556.4375 315.929688 Z M 457.289062 476.910156 C 455.984375 478.214844 454.171875 479.03125 452.175781 479.03125 L 406.71875 479.03125 C 402.722656 479.03125 399.488281 475.785156 399.488281 471.792969 C 399.488281 469.792969 400.296875 467.984375 401.605469 466.675781 C 402.914062 465.367188 404.722656 464.558594 406.71875 464.558594 L 452.175781 464.558594 C 456.171875 464.558594 459.40625 467.796875 459.40625 471.792969 C 459.40625 473.789062 458.601562 475.597656 457.289062 476.910156 Z M 555.351562 302.695312 L 303.550781 302.695312 C 296.25 302.695312 290.308594 308.632812 290.308594 315.929688 L 290.308594 476.128906 C 290.308594 483.421875 296.25 489.363281 303.550781 489.363281 L 555.351562 489.363281 C 562.644531 489.363281 568.585938 483.421875 568.585938 476.128906 L 568.585938 315.929688 C 568.585938 308.632812 562.644531 302.695312 555.351562 302.695312 " fill-opacity="1" fill-rule="nonzero"/></g><path fill="#77bdc6" d="M 455.761719 471.792969 C 455.761719 472.753906 455.386719 473.65625 454.710938 474.335938 C 454.03125 475.011719 453.132812 475.386719 452.175781 475.386719 L 406.71875 475.386719 C 404.742188 475.386719 403.132812 473.773438 403.132812 471.792969 C 403.132812 470.832031 403.5 469.933594 404.1875 469.246094 C 404.863281 468.574219 405.761719 468.203125 406.71875 468.203125 L 452.175781 468.203125 C 454.152344 468.203125 455.761719 469.8125 455.761719 471.792969 " fill-opacity="1" fill-rule="nonzero"/><g clip-path="url(#33a77f48c9)"><path fill="#77bdc6" d="M 511.285156 532.78125 L 347.617188 532.78125 C 350.863281 523.25 359.910156 516.378906 370.523438 516.378906 L 488.375 516.378906 C 499 516.378906 508.035156 523.25 511.285156 532.78125 " fill-opacity="1" fill-rule="nonzero"/></g><path fill="#77bdc6" d="M 460.601562 511.980469 L 398.300781 511.980469 L 404.425781 493.757812 L 454.472656 493.757812 L 460.601562 511.980469 " fill-opacity="1" fill-rule="nonzero"/><g clip-path="url(#031786c997)"><g clip-path="url(#a281ef07b8)"><path fill="#cae4de" d="M 605.1875 365.648438 L 804.261719 365.648438 L 804.261719 490.253906 L 605.1875 490.253906 Z M 605.1875 365.648438 " fill-opacity="1" fill-rule="nonzero"/></g></g><g clip-path="url(#ada10c83af)"><path fill="#e9a283" d="M 614.363281 358.136719 L 723.890625 358.136719 L 723.890625 367.078125 L 627.4375 367.078125 C 623.863281 367.078125 620.9375 370.003906 620.9375 373.578125 L 620.9375 475.453125 C 620.9375 479.027344 623.863281 481.953125 627.4375 481.953125 L 795.417969 481.953125 C 798.996094 481.953125 801.917969 479.027344 801.917969 475.453125 L 801.917969 442.9375 L 816.007812 442.9375 L 816.007812 483.382812 C 816.007812 485.921875 814.730469 488.175781 812.785156 489.539062 L 816.007812 489.539062 C 816.007812 489.539062 823.957031 498.929688 839.851562 517.714844 C 837.679688 526.308594 833.347656 531.363281 826.84375 532.890625 C 826.84375 532.890625 750.984375 532.890625 599.261719 532.890625 C 591.773438 532.691406 586.714844 527.632812 584.089844 517.714844 C 584.089844 517.714844 592.035156 508.324219 607.933594 489.539062 L 610.070312 489.539062 C 608.125 488.175781 606.847656 485.921875 606.847656 483.382812 L 606.847656 365.648438 C 606.847656 361.515625 610.230469 358.136719 614.363281 358.136719 Z M 693.546875 522.050781 L 730.394531 522.050781 C 732.179688 522.050781 733.644531 523.515625 733.644531 525.300781 C 733.644531 527.089844 732.179688 528.554688 730.394531 528.554688 L 693.546875 528.554688 C 691.757812 528.554688 690.292969 527.089844 690.292969 525.300781 C 690.292969 523.515625 691.757812 522.050781 693.546875 522.050781 Z M 672.957031 518.800781 C 677.289062 512.296875 679.457031 509.046875 679.457031 509.046875 C 722.808594 509.046875 744.480469 509.046875 744.480469 509.046875 C 748.816406 515.546875 750.984375 518.800781 750.984375 518.800781 C 698.964844 518.800781 672.957031 518.800781 672.957031 518.800781 Z M 672.957031 518.800781 " fill-opacity="1" fill-rule="evenodd"/></g><path fill="#9b6ec8" d="M 694.628906 426.683594 L 716.304688 426.683594 L 716.304688 448.355469 L 694.628906 448.355469 Z M 694.628906 426.683594 " fill-opacity="1" fill-rule="evenodd"/><path fill="#77bdc6" d="M 728.226562 425.597656 L 747.46875 425.597656 L 747.46875 444.84375 L 728.226562 444.84375 Z M 728.226562 425.597656 " fill-opacity="1" fill-rule="evenodd"/><path fill="#b7dab2" d="M 796.429688 391.996094 L 837.617188 391.996094 L 837.617188 433.183594 L 796.429688 433.183594 Z M 796.429688 391.996094 " fill-opacity="1" fill-rule="evenodd"/><path fill="#b7dab2" d="M 764.121094 418.144531 L 787.832031 418.144531 L 787.832031 441.855469 L 764.121094 441.855469 Z M 764.121094 418.144531 " fill-opacity="1" fill-rule="evenodd"/><path fill="#9b6ec8" d="M 742.445312 392.136719 L 766.15625 392.136719 L 766.15625 415.847656 L 742.445312 415.847656 Z M 742.445312 392.136719 " fill-opacity="1" fill-rule="evenodd"/><path fill="#b7dab2" d="M 733.710938 361.726562 L 757.421875 361.726562 L 757.421875 385.433594 L 733.710938 385.433594 Z M 733.710938 361.726562 " fill-opacity="1" fill-rule="evenodd"/><path fill="#b7dab2" d="M 708.851562 401.886719 L 728.09375 401.886719 L 728.09375 421.132812 L 708.851562 421.132812 Z M 708.851562 401.886719 " fill-opacity="1" fill-rule="evenodd"/><path fill="#77bdc6" d="M 770.488281 351.902344 L 804.085938 351.902344 L 804.085938 385.5 L 770.488281 385.5 Z M 770.488281 351.902344 " fill-opacity="1" fill-rule="evenodd"/><path fill="#9b6ec8" d="M 777.058594 320.542969 L 800.769531 320.542969 L 800.769531 344.253906 L 777.058594 344.253906 Z M 777.058594 320.542969 " fill-opacity="1" fill-rule="evenodd"/><g clip-path="url(#c5610aa46d)"><path fill="#b7dab2" d="M 811.667969 317.222656 L 861.523438 317.222656 L 861.523438 367.078125 L 811.667969 367.078125 Z M 811.667969 317.222656 " fill-opacity="1" fill-rule="evenodd"/></g><g clip-path="url(#f5c30d28bc)"><path fill="#77bdc6" d="M 881.199219 532.890625 L 852.515625 532.890625 C 851.4375 532.890625 850.539062 532.066406 850.453125 530.992188 L 845.539062 470.082031 L 888.171875 470.082031 L 883.257812 530.992188 C 883.171875 532.066406 882.273438 532.890625 881.199219 532.890625 " fill-opacity="1" fill-rule="nonzero"/></g><g clip-path="url(#e329b0b796)"><path fill="#77bdc6" d="M 889.496094 464.328125 L 889.457031 464.328125 C 889.277344 463.261719 888.351562 462.449219 887.230469 462.449219 L 887.003906 462.449219 L 887.003906 460.335938 C 887.003906 459.082031 885.992188 458.070312 884.738281 458.070312 L 848.972656 458.070312 C 847.726562 458.070312 846.714844 459.082031 846.714844 460.335938 L 846.714844 462.449219 L 846.480469 462.449219 C 845.363281 462.449219 844.441406 463.261719 844.253906 464.328125 L 844.222656 464.328125 C 842.96875 464.328125 841.957031 465.339844 841.957031 466.589844 L 841.957031 468.832031 L 891.753906 468.832031 L 891.753906 466.589844 C 891.753906 465.339844 890.742188 464.328125 889.496094 464.328125 " fill-opacity="1" fill-rule="nonzero"/></g><g clip-path="url(#830468bffb)"><path fill="#9b6ec8" d="M 797.777344 492.542969 L 848.59375 492.542969 L 848.59375 496.609375 L 851.128906 496.695312 C 856.464844 496.914062 860.621094 501.246094 860.621094 506.582031 L 860.621094 513.316406 C 860.621094 518.5625 856.507812 523.371094 851.042969 523.199219 L 846.234375 523.066406 C 842.734375 529.757812 835.695312 534.394531 827.648438 534.394531 L 818.683594 534.394531 C 807.179688 534.394531 797.777344 524.992188 797.777344 513.488281 Z M 848.59375 500.9375 L 848.59375 513.488281 C 848.59375 514.453125 848.507812 515.457031 848.375 516.417969 C 848.242188 517.164062 848.113281 517.949219 847.9375 518.695312 L 851.128906 518.824219 C 854.148438 518.957031 856.246094 516.113281 856.246094 513.316406 L 856.246094 506.582031 C 856.246094 503.648438 853.972656 501.203125 851 501.070312 Z M 848.59375 500.9375 " fill-opacity="1" fill-rule="evenodd"/></g><g clip-path="url(#5914139966)"><path fill="#9b6ec8" d="M 809.5 460.007812 C 808.84375 459.570312 807.925781 459.746094 807.445312 460.402344 C 807.007812 461.101562 807.179688 462.019531 807.835938 462.457031 C 807.835938 462.457031 811.597656 464.949219 807.488281 470.328125 C 801.453125 478.199219 807.835938 482.398438 807.835938 482.398438 C 808.492188 482.878906 809.457031 482.703125 809.890625 482.003906 C 810.375 481.347656 810.199219 480.386719 809.5 479.949219 C 809.5 479.949219 805.738281 477.457031 809.847656 472.121094 C 815.882812 464.207031 809.542969 460.050781 809.5 460.007812 Z M 809.5 460.007812 " fill-opacity="1" fill-rule="nonzero"/></g><g clip-path="url(#4fe041c065)"><path fill="#9b6ec8" d="M 824.015625 460.007812 C 823.316406 459.570312 822.398438 459.746094 821.960938 460.402344 C 821.480469 461.101562 821.65625 462.019531 822.355469 462.457031 C 822.355469 462.457031 826.117188 464.949219 822.003906 470.328125 C 815.972656 478.199219 822.3125 482.398438 822.355469 482.398438 C 823.011719 482.878906 823.929688 482.703125 824.410156 482.003906 C 824.847656 481.347656 824.671875 480.386719 824.015625 479.949219 C 824.015625 479.949219 820.257812 477.457031 824.367188 472.121094 C 830.402344 464.207031 824.015625 460.050781 824.015625 460.007812 Z M 824.015625 460.007812 " fill-opacity="1" fill-rule="nonzero"/></g><g clip-path="url(#7bcb29ad46)"><path fill="#9b6ec8" d="M 838.492188 460.007812 C 837.835938 459.570312 836.917969 459.746094 836.4375 460.402344 C 836 461.101562 836.175781 462.019531 836.832031 462.457031 C 836.832031 462.457031 840.589844 464.949219 836.480469 470.328125 C 830.488281 478.199219 836.832031 482.398438 836.832031 482.398438 C 837.53125 482.878906 838.449219 482.703125 838.886719 482.003906 C 839.367188 481.347656 839.191406 480.386719 838.492188 479.949219 C 838.492188 479.949219 834.730469 477.457031 838.84375 472.121094 C 844.875 464.207031 838.535156 460.050781 838.492188 460.007812 Z M 838.492188 460.007812 " fill-opacity="1" fill-rule="nonzero"/></g><g clip-path="url(#f989f0a3c5)"><path fill="#9b6ec8" d="M 158.5625 448.011719 L 264.4375 448.011719 L 264.4375 532.496094 L 158.5625 532.496094 Z M 158.5625 448.011719 " fill-opacity="1" fill-rule="evenodd"/></g><g clip-path="url(#6a7bb84220)"><path stroke-linecap="round" transform="matrix(0.0375967, 0, 0, 0.0387795, 154.194964, 432.558107)" fill="none" stroke-linejoin="miter" d="M 116.168155 398.499818 L 2932.241765 398.499818 L 2932.241765 2577.084962 L 116.168155 2577.084962 Z M 116.168155 398.499818 " stroke="#808080" stroke-width="20.27" stroke-opacity="1" stroke-miterlimit="1.5"/></g><path stroke-linecap="round" transform="matrix(0.0375967, 0, 0, 0.0387795, 154.194964, 432.558107)" fill-opacity="1" fill="#b7dab2" fill-rule="evenodd" stroke-linejoin="miter" d="M 2791.354965 534.988762 L 2791.354965 2440.596019 C 2791.354965 2440.596019 256.951056 2440.596019 256.951056 2440.596019 L 256.951056 534.988762 Z M 2791.354965 534.988762 " stroke="#808080" stroke-width="20.27" stroke-opacity="1" stroke-miterlimit="1.5"/><path stroke-linecap="round" transform="matrix(0.0416876, 0, 0, 0.0391851, 151.206853, 431.715135)" fill-opacity="1" fill="#cae4de" fill-rule="evenodd" stroke-linejoin="miter" d="M 2485.944892 879.232221 L 2285.888985 879.232221 L 2285.888985 666.400401 L 606.63751 666.400401 L 606.63751 879.232221 L 406.581604 879.232221 L 406.581604 2108.572739 L 606.63751 2108.572739 L 606.63751 2321.404559 L 2285.888985 2321.404559 L 2285.888985 2108.572739 L 2485.944892 2108.572739 Z M 2485.944892 879.232221 " stroke="#808080" stroke-width="19.139999" stroke-opacity="1" stroke-miterlimit="1.5"/><g clip-path="url(#dcd2c8331d)"><path fill="#9b6ec8" d="M 638.25 446.867188 L 638.25 529.140625 C 638.25 532.753906 635.363281 535.664062 631.730469 535.664062 L 514.792969 535.664062 C 511.183594 535.664062 508.273438 532.773438 508.273438 529.140625 L 508.273438 446.867188 C 508.273438 443.253906 511.160156 440.34375 514.792969 440.34375 L 631.730469 440.34375 C 635.339844 440.34375 638.25 443.234375 638.25 446.867188 Z M 638.25 446.867188 " fill-opacity="1" fill-rule="evenodd"/></g><path fill="#efd2c5" d="M 516.9375 492.335938 C 514.546875 492.335938 512.605469 490.394531 512.605469 488.003906 C 512.605469 485.613281 514.546875 483.671875 516.9375 483.671875 C 519.328125 483.671875 521.269531 485.613281 521.269531 488.003906 C 521.269531 490.394531 519.328125 492.335938 516.9375 492.335938 Z M 516.9375 492.335938 " fill-opacity="1" fill-rule="evenodd"/><path fill="#efd2c5" d="M 631.753906 492.335938 C 629.359375 492.335938 627.421875 490.394531 627.421875 488.003906 C 627.421875 485.613281 629.359375 483.671875 631.753906 483.671875 C 634.144531 483.671875 636.085938 485.613281 636.085938 488.003906 C 636.085938 490.394531 634.144531 492.335938 631.753906 492.335938 Z M 631.753906 492.335938 " fill-opacity="1" fill-rule="evenodd"/><path fill="#efd2c5" d="M 625.253906 444.675781 L 625.253906 531.332031 L 525.601562 531.332031 L 525.601562 444.675781 Z M 625.253906 444.675781 " fill-opacity="1" fill-rule="evenodd"/><path fill="#cae4de" d="M 525.601562 444.675781 L 525.601562 531.332031 L 625.253906 531.332031 Z M 525.601562 444.675781 " fill-opacity="1" fill-rule="evenodd"/><g clip-path="url(#1481b6dac0)"><g clip-path="url(#84400f8905)"><g clip-path="url(#1c8aac4354)"><path fill="#e9a283" d="M 339.742188 533.164062 L 255.335938 533.632812 L 253.617188 530.96875 L 251.191406 527.210938 L 255.351562 520.621094 L 255.351562 520.617188 L 255.246094 520.457031 L 251.117188 514.0625 L 253.011719 511.058594 L 255.277344 507.460938 L 255.277344 507.457031 L 251.046875 500.910156 L 254.914062 494.761719 L 255.125 494.417969 L 339.527344 493.953125 L 339.742188 533.164062 " fill-opacity="1" fill-rule="nonzero"/></g></g></g><g clip-path="url(#d91b01fedd)"><g clip-path="url(#02cbf8f113)"><g clip-path="url(#544d9e8a31)"><path fill="#b7dab2" d="M 351.914062 527.269531 C 351.859375 527.175781 351.828125 527.070312 351.828125 526.953125 L 351.679688 500.023438 C 351.675781 499.671875 351.960938 499.386719 352.308594 499.386719 C 352.660156 499.382812 352.945312 499.671875 352.949219 500.015625 L 353.09375 526.945312 C 353.097656 527.296875 352.816406 527.582031 352.464844 527.582031 C 352.230469 527.585938 352.023438 527.457031 351.914062 527.269531 Z M 346.34375 527.617188 C 346.109375 527.617188 345.90625 527.492188 345.792969 527.304688 C 345.742188 527.210938 345.707031 527.105469 345.707031 526.988281 L 345.558594 500.058594 C 345.554688 499.707031 345.839844 499.421875 346.191406 499.421875 C 346.539062 499.417969 346.824219 499.703125 346.824219 500.050781 L 346.976562 526.980469 C 346.976562 527.332031 346.695312 527.617188 346.34375 527.617188 Z M 356.75 493.851562 L 341.683594 493.9375 L 341.902344 533.148438 L 356.96875 533.066406 L 356.75 493.851562 " fill-opacity="1" fill-rule="nonzero"/></g></g></g><g clip-path="url(#c4dc410cdc)"><g clip-path="url(#89ea812d0f)"><g clip-path="url(#e420e18f65)"><path fill="#9b6ec8" d="M 373.777344 532.972656 L 359.132812 533.054688 L 358.914062 493.839844 L 373.5625 493.761719 C 376.242188 493.746094 378.640625 496.214844 379.464844 499.867188 C 381.492188 508.835938 381.542969 517.8125 379.617188 526.804688 C 378.832031 530.460938 376.460938 532.957031 373.777344 532.972656 " fill-opacity="1" fill-rule="nonzero"/></g></g></g><g clip-path="url(#1143e00b72)"><g clip-path="url(#3548fb2d2a)"><g clip-path="url(#c9e52cd947)"><path fill="#efd2c5" d="M 252.761719 533.132812 L 228.261719 520.484375 L 228.191406 508.03125 L 252.554688 495.105469 L 248.851562 500.992188 L 253.085938 507.546875 L 252.707031 508.144531 L 248.921875 514.152344 L 253.054688 520.542969 L 253.15625 520.707031 L 248.992188 527.296875 L 251.492188 531.164062 L 252.761719 533.132812 " fill-opacity="1" fill-rule="nonzero"/></g></g></g><g clip-path="url(#462836c756)"><g clip-path="url(#42c52e60f3)"><g clip-path="url(#1f34ce6bc4)"><path fill="#77bdc6" d="M 226.957031 519.726562 L 218.292969 515.050781 C 217.757812 514.761719 217.753906 513.6875 218.285156 513.390625 L 226.894531 508.621094 L 226.957031 519.726562 " fill-opacity="1" fill-rule="nonzero"/></g></g></g></svg>