<svg width="343" height="219" viewBox="0 0 343 219" fill="none" xmlns="http://www.w3.org/2000/svg">
<mask id="mask0_2022_501" style="mask-type:luminance" maskUnits="userSpaceOnUse" x="2" y="28" width="336" height="185">
<path d="M2.95529 28.6042H337.905V212.833H2.95529V28.6042Z" fill="white"/>
</mask>
<g mask="url(#mask0_2022_501)">
<mask id="mask1_2022_501" style="mask-type:luminance" maskUnits="userSpaceOnUse" x="2" y="1" width="337" height="212">
<path d="M2.62512 20.9982V193.005C2.62512 204.015 12.8188 212.94 25.3942 212.94H315.386C327.961 212.94 338.155 204.015 338.155 193.005V20.9982C338.155 9.98824 327.961 1.06343 315.386 1.06343H25.3942C12.8188 1.06343 2.62512 9.98824 2.62512 20.9982Z" fill="white"/>
</mask>
<g mask="url(#mask1_2022_501)">
<mask id="mask2_2022_501" style="mask-type:luminance" maskUnits="userSpaceOnUse" x="3" y="1" width="335" height="212">
<path d="M25.7914 1.4097H314.99C327.566 1.4097 337.759 10.336 337.759 21.346V192.658C337.759 203.668 327.566 212.594 314.99 212.594H25.7914C13.2144 212.594 3.02063 203.668 3.02063 192.658V21.346C3.02063 10.336 13.2144 1.4097 25.7914 1.4097Z" fill="white"/>
</mask>
<g mask="url(#mask2_2022_501)">
<path fill-rule="evenodd" clip-rule="evenodd" d="M338.046 28.9805V193.961C338.046 206.612 330.826 212.94 316.376 212.94H24.402C10.009 212.94 2.81601 206.612 2.81601 193.961V28.9805H338.046Z" fill="#DFD2EA"/>
</g>
</g>
</g>
<mask id="mask3_2022_501" style="mask-type:luminance" maskUnits="userSpaceOnUse" x="2" y="1" width="336" height="28">
<path d="M2.95529 1.35249H337.905V28.9896H2.95529V1.35249Z" fill="white"/>
</mask>
<g mask="url(#mask3_2022_501)">
<mask id="mask4_2022_501" style="mask-type:luminance" maskUnits="userSpaceOnUse" x="2" y="1" width="337" height="212">
<path d="M2.62512 20.9982V193.005C2.62512 204.015 12.8188 212.94 25.3942 212.94H315.386C327.961 212.94 338.155 204.015 338.155 193.005V20.9982C338.155 9.98824 327.961 1.06343 315.386 1.06343H25.3942C12.8188 1.06343 2.62512 9.98824 2.62512 20.9982Z" fill="white"/>
</mask>
<g mask="url(#mask4_2022_501)">
<mask id="mask5_2022_501" style="mask-type:luminance" maskUnits="userSpaceOnUse" x="3" y="1" width="335" height="212">
<path d="M25.7914 1.40971H314.99C327.566 1.40971 337.759 10.336 337.759 21.346V192.658C337.759 203.668 327.566 212.594 314.99 212.594H25.7914C13.2144 212.594 3.02063 203.668 3.02063 192.658V21.346C3.02063 10.336 13.2144 1.40971 25.7914 1.40971Z" fill="white"/>
</mask>
<g mask="url(#mask5_2022_501)">
<path fill-rule="evenodd" clip-rule="evenodd" d="M304.735 20.8266C306.342 20.8266 307.749 20.274 308.939 19.178C310.136 18.1798 310.731 16.9543 310.731 15.491C310.731 14.0818 310.136 12.8247 308.939 11.7286C307.749 10.7305 306.342 10.2397 304.735 10.2397C303.061 10.2397 301.6 10.7305 300.346 11.7286C299.213 12.8247 298.639 14.0818 298.639 15.491C298.639 16.9543 299.213 18.1798 300.346 19.178C301.6 20.274 303.061 20.8266 304.735 20.8266ZM327.215 15.491C327.215 14.0818 326.613 12.8247 325.425 11.7286C324.228 10.7305 322.821 10.2397 321.212 10.2397C319.54 10.2397 318.077 10.7305 316.825 11.7286C315.685 12.8247 315.124 14.0818 315.124 15.491C315.124 16.9543 315.685 18.1798 316.825 19.178C318.077 20.274 319.54 20.8266 321.212 20.8266C322.821 20.8266 324.228 20.274 325.425 19.178C326.613 18.1798 327.215 16.9543 327.215 15.491ZM338.046 28.9805H2.81601V13.609C2.81601 10.1599 4.21575 7.20149 7.029 4.75048C9.83537 2.28894 13.2075 1.06343 17.1471 1.06343H323.717C327.664 1.06343 331.036 2.28894 333.842 4.75048C336.647 7.20149 338.046 10.1599 338.046 13.609V28.9805ZM288.34 20.8266C289.956 20.8266 291.356 20.274 292.551 19.178C293.741 18.1798 294.343 16.9543 294.343 15.491C294.343 14.0818 293.741 12.8247 292.551 11.7286C291.356 10.7305 289.956 10.2397 288.34 10.2397C286.674 10.2397 285.205 10.7305 283.952 11.7286C282.818 12.8247 282.253 14.0818 282.253 15.491C282.253 16.9543 282.818 18.1798 283.952 19.178C285.205 20.274 286.674 20.8266 288.34 20.8266Z" fill="#9B6EC8"/>
</g>
</g>
</g>
<mask id="mask6_2022_501" style="mask-type:luminance" maskUnits="userSpaceOnUse" x="282" y="10" width="46" height="11">
<path d="M282.204 10.1042H327.547V20.8958H282.204V10.1042Z" fill="white"/>
</mask>
<g mask="url(#mask6_2022_501)">
<mask id="mask7_2022_501" style="mask-type:luminance" maskUnits="userSpaceOnUse" x="2" y="1" width="337" height="212">
<path d="M2.62512 20.9982V193.005C2.62512 204.015 12.8188 212.94 25.3942 212.94H315.386C327.961 212.94 338.155 204.015 338.155 193.005V20.9982C338.155 9.98824 327.961 1.06343 315.386 1.06343H25.3942C12.8188 1.06343 2.62512 9.98824 2.62512 20.9982Z" fill="white"/>
</mask>
<g mask="url(#mask7_2022_501)">
<mask id="mask8_2022_501" style="mask-type:luminance" maskUnits="userSpaceOnUse" x="3" y="1" width="335" height="212">
<path d="M25.7914 1.40971H314.99C327.566 1.40971 337.759 10.336 337.759 21.346V192.658C337.759 203.668 327.566 212.594 314.99 212.594H25.7914C13.2144 212.594 3.02063 203.668 3.02063 192.658V21.346C3.02063 10.336 13.2144 1.40971 25.7914 1.40971Z" fill="white"/>
</mask>
<g mask="url(#mask8_2022_501)">
<path fill-rule="evenodd" clip-rule="evenodd" d="M327.215 15.491C327.215 16.9543 326.613 18.1798 325.425 19.178C324.228 20.274 322.821 20.8266 321.212 20.8266C319.54 20.8266 318.077 20.274 316.825 19.178C315.685 18.1798 315.124 16.9543 315.124 15.491C315.124 14.0818 315.685 12.8247 316.825 11.7286C318.077 10.7305 319.54 10.2397 321.212 10.2397C322.821 10.2397 324.228 10.7305 325.425 11.7286C326.613 12.8247 327.215 14.0818 327.215 15.491ZM304.735 20.8266C303.061 20.8266 301.6 20.274 300.346 19.178C299.213 18.1798 298.639 16.9543 298.639 15.491C298.639 14.0818 299.213 12.8247 300.346 11.7286C301.6 10.7305 303.061 10.2397 304.735 10.2397C306.342 10.2397 307.749 10.7305 308.939 11.7286C310.136 12.8247 310.731 14.0818 310.731 15.491C310.731 16.9543 310.136 18.1798 308.939 19.178C307.749 20.274 306.342 20.8266 304.735 20.8266ZM288.34 20.8266C286.674 20.8266 285.205 20.274 283.952 19.178C282.818 18.1798 282.253 16.9543 282.253 15.491C282.253 14.0818 282.818 12.8247 283.952 11.7286C285.205 10.7305 286.674 10.2397 288.34 10.2397C289.956 10.2397 291.356 10.7305 292.551 11.7286C293.741 12.8247 294.343 14.0818 294.343 15.491C294.343 16.9543 293.741 18.1798 292.551 19.178C291.356 20.274 289.956 20.8266 288.34 20.8266Z" fill="#B7DAB2"/>
</g>
</g>
</g>
<mask id="mask9_2022_501" style="mask-type:luminance" maskUnits="userSpaceOnUse" x="2" y="1" width="337" height="212">
<path d="M2.62512 1.06343H338.232V212.842H2.62512V1.06343Z" fill="white"/>
</mask>
<g mask="url(#mask9_2022_501)">
<mask id="mask10_2022_501" style="mask-type:luminance" maskUnits="userSpaceOnUse" x="2" y="1" width="337" height="212">
<path d="M2.62512 20.9982V193.005C2.62512 204.015 12.8188 212.94 25.3942 212.94H315.386C327.961 212.94 338.155 204.015 338.155 193.005V20.9982C338.155 9.98824 327.961 1.06343 315.386 1.06343H25.3942C12.8188 1.06343 2.62512 9.98824 2.62512 20.9982Z" fill="white"/>
</mask>
<g mask="url(#mask10_2022_501)">
<mask id="mask11_2022_501" style="mask-type:luminance" maskUnits="userSpaceOnUse" x="2" y="1" width="337" height="212">
<path d="M2.62512 20.9982V193.002C2.62512 204.012 12.8188 212.937 25.3942 212.937H315.382C327.958 212.937 338.151 204.012 338.151 193.002V20.9982C338.151 9.98824 327.958 1.06343 315.382 1.06343H25.3942C12.8188 1.06343 2.62512 9.98824 2.62512 20.9982Z" fill="white"/>
</mask>
<g mask="url(#mask11_2022_501)">
<path d="M2.62512 20.9982V193.002C2.62512 204.012 12.8188 212.937 25.3942 212.937H315.382C327.958 212.937 338.151 204.012 338.151 193.002V20.9982C338.151 9.98823 327.958 1.06343 315.382 1.06343H25.3942C12.8188 1.06343 2.62512 9.98823 2.62512 20.9982Z" stroke="black" stroke-width="6"/>
</g>
</g>
</g>
<mask id="mask12_2022_501" style="mask-type:luminance" maskUnits="userSpaceOnUse" x="31" y="39" width="120" height="80">
<path d="M31.7601 39.3838H150.302V118.262H31.7601V39.3838Z" fill="white"/>
</mask>
<g mask="url(#mask12_2022_501)">
<path d="M31.7601 39.3838H150.358V118.262H31.7601V39.3838Z" fill="#CAE4DE"/>
</g>
<mask id="mask13_2022_501" style="mask-type:luminance" maskUnits="userSpaceOnUse" x="31" y="39" width="120" height="80">
<path d="M31.7601 39.3853H150.231V118.259H31.7601V39.3853Z" fill="white"/>
</mask>
<g mask="url(#mask13_2022_501)">
<path d="M31.7601 39.3853H150.298V118.259H31.7601V39.3853Z" stroke="black" stroke-width="4"/>
</g>
<mask id="mask14_2022_501" style="mask-type:luminance" maskUnits="userSpaceOnUse" x="43" y="48" width="96" height="62">
<path d="M43.682 48.1746H138.392V109.138H43.682V48.1746Z" fill="white"/>
</mask>
<g mask="url(#mask14_2022_501)">
<path d="M145.552 45.0341V115.424H35.5965V45.0341H145.552ZM149.803 41.3169H31.3268V119.182H149.803V41.3169ZM48.2836 104.31H132.867L114.14 61.7094L90.5649 88.8993L74.8479 75.3058L48.2836 104.31ZM58.811 63.5612C55.3047 63.5612 52.4691 66.0543 52.4691 69.1392C52.4691 72.221 55.3064 74.7157 58.811 74.7157C62.3138 74.7157 65.1511 72.221 65.1511 69.1392C65.1511 66.0543 62.3138 63.5612 58.811 63.5612Z" fill="black"/>
</g>
<mask id="mask15_2022_501" style="mask-type:luminance" maskUnits="userSpaceOnUse" x="31" y="123" width="80" height="76">
<path d="M31.7601 123.442H110.892V198.457H31.7601V123.442Z" fill="white"/>
</mask>
<g mask="url(#mask15_2022_501)">
<path d="M31.7601 123.442H110.892V198.406H31.7601V123.442Z" fill="#B7DAB2"/>
</g>
<mask id="mask16_2022_501" style="mask-type:luminance" maskUnits="userSpaceOnUse" x="31" y="123" width="80" height="76">
<path d="M31.7618 123.442H110.889V198.454H31.7618V123.442Z" fill="white"/>
</mask>
<g mask="url(#mask16_2022_501)">
<path d="M31.7618 123.442H110.889V198.454H31.7618V123.442Z" stroke="black" stroke-width="4"/>
</g>
<path d="M81.6824 150.699L82.0401 158.432H81.366C80.3343 155.702 79.4195 153.84 78.6216 152.843C77.8237 151.848 76.675 151.35 75.1755 151.35H74.7491V171.626H77.7411V172.27H64.8993V171.626H67.8913V151.35H67.4305C65.931 151.35 64.7686 151.867 63.9432 152.903C63.1212 153.939 62.2184 155.782 61.2331 158.432H60.5659L60.9167 150.699H81.6824Z" fill="black"/>
<mask id="mask17_2022_501" style="mask-type:luminance" maskUnits="userSpaceOnUse" x="237" y="137" width="71" height="62">
<path d="M237.511 137.225H307.053V198.111H237.511V137.225Z" fill="white"/>
</mask>
<g mask="url(#mask17_2022_501)">
<path d="M298.443 198.455H246.117C241.146 198.455 237.115 194.927 237.115 190.573V144.761C237.115 140.407 241.146 136.879 246.117 136.879H298.443C303.416 136.879 307.446 140.407 307.446 144.761V190.573C307.446 194.927 303.416 198.455 298.443 198.455Z" fill="#FFCCAA"/>
</g>
<path d="M266.358 169.444L245.273 183.019V152.433L266.358 169.444Z" fill="black"/>
<path d="M298.381 183.397H246.181L267.022 169.978L271.971 173.971C272.141 174.108 272.42 174.108 272.59 173.971L277.539 169.978L298.381 183.397Z" fill="black"/>
<path d="M299.287 152.433V183.019L278.201 169.444L299.287 152.433Z" fill="black"/>
<path d="M298.597 151.936L277.213 169.188C277.209 169.191 277.204 169.194 277.2 169.198L272.281 173.167L267.361 169.198C267.356 169.194 267.352 169.191 267.347 169.188L245.964 151.936H298.597Z" fill="black"/>
<mask id="mask18_2022_501" style="mask-type:luminance" maskUnits="userSpaceOnUse" x="237" y="136" width="71" height="63">
<path d="M237.115 136.878H307.405V198.419H237.115V136.878Z" fill="white"/>
</mask>
<g mask="url(#mask18_2022_501)">
<path d="M237.115 136.878V198.455H307.446V136.878H237.115Z" stroke="black" stroke-width="4"/>
</g>
<mask id="mask19_2022_501" style="mask-type:luminance" maskUnits="userSpaceOnUse" x="164" y="39" width="144" height="91">
<path d="M164.05 39.3838H307.45V129.684H164.05V39.3838Z" fill="white"/>
</mask>
<g mask="url(#mask19_2022_501)">
<path d="M164.05 39.3838H307.476V129.684H164.05V39.3838Z" fill="#77BDC6"/>
</g>
<mask id="mask20_2022_501" style="mask-type:luminance" maskUnits="userSpaceOnUse" x="164" y="39" width="144" height="91">
<path d="M164.05 39.3853H307.445V129.681H164.05V39.3853Z" fill="white"/>
</mask>
<g mask="url(#mask20_2022_501)">
<path d="M164.05 39.3853H307.445V129.681H164.05V39.3853Z" stroke="black" stroke-width="4"/>
</g>
<path d="M287.461 106.208C287.461 100.579 287.451 94.9485 287.477 89.3178C287.48 88.7111 287.344 88.4958 286.589 88.5064C283.565 88.547 280.54 88.538 277.515 88.5124C276.884 88.5064 276.623 88.5967 276.623 89.232C276.647 100.492 276.647 111.752 276.623 123.013C276.623 123.643 276.877 123.74 277.512 123.734C280.536 123.709 283.561 123.7 286.586 123.74C287.336 123.749 287.48 123.545 287.477 122.93C287.451 117.357 287.461 111.783 287.461 106.208Z" fill="black"/>
<path d="M242.528 88.4792C239.566 88.5063 236.603 88.5169 233.642 88.4747C232.813 88.4612 232.551 88.6253 232.557 89.3946C232.598 94.9711 232.579 100.548 232.579 106.124C232.579 111.728 232.589 117.333 232.565 122.938C232.563 123.533 232.682 123.781 233.452 123.769C236.477 123.73 239.505 123.737 242.532 123.764C243.189 123.77 243.416 123.627 243.416 123.018C243.395 111.752 243.395 100.486 243.416 89.22C243.417 88.6102 243.18 88.4732 242.528 88.4792Z" fill="black"/>
<path d="M272.599 92.3831C272.599 91.7508 272.329 91.6544 271.7 91.6604C268.804 91.6845 265.906 91.7041 263.01 91.6514C262.07 91.6333 261.76 91.8035 261.771 92.6962C261.827 97.6796 261.798 102.663 261.798 107.646C261.798 112.714 261.81 117.783 261.783 122.851C261.779 123.534 261.982 123.783 262.806 123.77C265.765 123.731 268.728 123.743 271.689 123.764C272.31 123.769 272.601 123.686 272.599 123.043C272.575 112.822 272.575 102.603 272.599 92.3831Z" fill="black"/>
<path d="M256.999 100.341C254.003 100.379 251.009 100.371 248.014 100.344C247.354 100.338 247.13 100.493 247.132 101.097C247.154 108.393 247.154 115.687 247.132 122.983C247.132 123.588 247.355 123.74 248.016 123.734C251.011 123.709 254.005 123.701 256.999 123.739C257.788 123.749 258.041 123.573 258.032 122.855C257.991 119.249 258.013 115.645 258.013 112.039C258.013 108.434 257.991 104.828 258.032 101.224C258.041 100.504 257.786 100.331 256.999 100.341Z" fill="black"/>
<mask id="mask21_2022_501" style="mask-type:luminance" maskUnits="userSpaceOnUse" x="291" y="105" width="12" height="19">
<path d="M291.009 105.302H302.012V123.802H291.009V105.302Z" fill="white"/>
</mask>
<g mask="url(#mask21_2022_501)">
<path d="M301.252 105.352C298.229 105.38 295.205 105.386 292.183 105.349C291.403 105.34 291.139 105.507 291.151 106.226C291.2 108.982 291.17 111.74 291.17 114.496C291.17 117.312 291.188 120.123 291.158 122.935C291.151 123.548 291.342 123.776 292.08 123.77C295.134 123.74 298.19 123.739 301.245 123.769C301.93 123.773 302.124 123.563 302.122 122.985C302.104 117.358 302.104 111.732 302.124 106.105C302.129 105.507 301.918 105.344 301.252 105.352Z" fill="black"/>
</g>
<path d="M258.971 62.9078C258.975 62.7105 258.99 62.5133 258.978 62.3161C258.839 59.8997 256.509 58.0524 253.972 58.343C250.272 58.766 248.612 61.6913 250.396 64.6512L251.525 65.6749C254.151 67.0751 256.512 66.6054 258.485 64.2929C258.646 63.8322 258.808 63.3715 258.971 62.9078ZM254.309 64.3561C253.027 64.3696 252.048 63.5476 252.017 62.429C251.984 61.3029 253.016 60.3619 254.285 60.3559C255.489 60.3499 256.579 61.2682 256.619 62.3191C256.66 63.3986 255.589 64.3425 254.309 64.3576V64.3561Z" fill="black"/>
<mask id="mask22_2022_501" style="mask-type:luminance" maskUnits="userSpaceOnUse" x="167" y="108" width="10" height="9">
<path d="M167.372 108H176.993V116.479H167.372V108Z" fill="white"/>
</mask>
<g mask="url(#mask22_2022_501)">
<path d="M171.03 108.406C168.935 108.808 167.374 110.499 167.383 112.422C167.393 114.359 169.011 116.034 171.216 116.383C173.42 116.734 175.554 115.716 176.342 113.942C177.141 112.142 176.589 110.608 175.128 109.254L173.681 108.539C172.806 108.357 171.943 108.23 171.03 108.406ZM174.366 112.456C174.307 113.572 173.221 114.436 171.927 114.392C170.677 114.35 169.744 113.456 169.773 112.33C169.802 111.241 170.854 110.344 172.075 110.367C173.317 110.389 174.421 111.398 174.366 112.456Z" fill="black"/>
</g>
<path d="M292.126 57.6971C292.921 58.0148 293.726 58.2286 294.625 58.2105C296.836 58.1698 298.704 56.8359 299.13 54.9254C299.528 53.1414 298.377 51.1676 296.522 50.451C294.439 49.647 292.011 50.198 290.765 51.7864C289.432 53.4846 289.674 55.1603 290.935 56.8013L292.126 57.6971ZM294.622 52.1176C295.827 52.1567 296.83 53.0902 296.819 54.1681C296.809 55.3259 295.8 56.2021 294.508 56.172C293.256 56.1434 292.188 55.1783 292.221 54.1064C292.254 53.0631 293.44 52.0785 294.622 52.1176Z" fill="black"/>
<path d="M279.568 76.2107C281.948 74.9023 282.358 72.2135 280.512 70.0289L279.286 69.1723C277.257 68.409 275.39 68.6077 273.705 69.8919L272.757 71.0693C272.678 71.3387 272.59 71.6082 272.52 71.8807C272.09 73.5398 272.79 75.1658 274.336 76.1098C275.942 77.0899 277.902 77.1275 279.568 76.2107ZM274.709 72.8202C274.707 71.7166 275.761 70.8058 277.035 70.8073C278.361 70.8103 279.352 71.6715 279.347 72.8187C279.343 73.8936 278.217 74.8527 276.991 74.8271C275.827 74.8015 274.709 73.8214 274.709 72.8202Z" fill="black"/>
<path d="M207.844 92.0684C205.879 91.546 204.13 91.8562 202.617 93.0937L201.728 94.3734C201.693 94.5119 201.664 94.6504 201.623 94.7859C200.987 96.8575 202.14 98.9021 204.379 99.6639C206.673 100.445 209.184 99.6142 210.25 97.6796C211.256 95.8564 210.726 94.2485 209.234 92.8107L207.844 92.0684ZM206.078 97.9235C204.852 97.9084 203.762 96.9253 203.784 95.8534C203.808 94.7498 204.892 93.842 206.156 93.8676C207.334 93.8932 208.424 94.8612 208.422 95.8835C208.42 96.9464 207.28 97.9385 206.078 97.9235Z" fill="black"/>
<path d="M224.664 73.6076C224.538 73.3833 224.421 73.1544 224.285 72.9361C223.4 71.5179 222.067 70.7185 220.187 70.7124C218.289 70.7079 216.827 71.4336 215.978 72.9075C214.993 74.6208 215.429 76.2197 216.764 77.6725L218.103 78.4991C219.144 78.7836 220.203 78.9899 221.285 78.7219C223.388 78.201 224.468 76.9002 224.825 75.074C224.77 74.5847 224.717 74.0969 224.664 73.6091V73.6076ZM220.134 76.7948C218.862 76.7873 217.806 75.8629 217.813 74.7593C217.818 73.6558 218.884 72.7344 220.15 72.7389C221.353 72.7419 222.395 73.6588 222.416 74.7322C222.438 75.8373 221.372 76.8008 220.134 76.7948Z" fill="black"/>
<path d="M242.019 72.9783C239.045 71.6669 236.341 72.4754 235.041 75.0664L234.732 76.4244C234.789 76.7286 234.83 77.0357 234.907 77.3368C235.585 79.9399 238.962 81.2783 241.641 80.0212C243.751 79.029 245.079 76.4455 243.187 73.9298C242.797 73.6121 242.408 73.2959 242.021 72.9783H242.019ZM239.462 78.4644C238.247 78.4795 237.131 77.5009 237.137 76.4274C237.144 75.2862 238.154 74.4206 239.466 74.4281C240.773 74.4371 241.768 75.3299 241.743 76.4696C241.717 77.5084 240.642 78.4494 239.462 78.4644Z" fill="black"/>
<path d="M190.647 88.3076C190.09 85.9499 187.476 84.5784 184.817 85.2107C181.6 85.977 180.001 89.7529 183.115 92.3093L184.516 93.029C187.849 93.4084 189.219 92.7956 190.621 90.3024C190.685 89.7966 190.75 89.2892 190.813 88.7834C190.757 88.6253 190.685 88.4702 190.647 88.3076ZM188.404 89.1914C188.368 90.2663 187.321 91.1621 186.104 91.1621C184.847 91.1621 183.784 90.2136 183.801 89.1071C183.82 88.002 184.898 87.0821 186.152 87.1062C187.405 87.1318 188.442 88.0938 188.404 89.1914Z" fill="black"/>
<path d="M218.131 116.883C211.345 116.889 204.558 116.886 197.771 116.875C197.114 116.874 196.801 116.947 196.794 117.637C196.786 118.381 197.222 118.357 197.814 118.355C201.191 118.345 204.568 118.351 207.946 118.351C211.323 118.351 214.7 118.351 218.078 118.351C218.645 118.351 219.228 118.479 219.238 117.641C219.249 116.847 218.748 116.881 218.131 116.883Z" fill="black"/>
<path d="M218.262 119.754C214.819 119.766 211.378 119.76 207.935 119.76C204.527 119.76 201.117 119.772 197.707 119.749C197.071 119.745 196.794 119.855 196.799 120.481C196.806 121.076 197.014 121.237 197.683 121.235C204.534 121.216 211.385 121.216 218.236 121.232C218.889 121.234 219.243 121.145 219.233 120.46C219.226 119.796 218.846 119.751 218.262 119.754Z" fill="black"/>
<path d="M197.606 109.432C204.526 109.412 211.447 109.411 218.368 109.429C218.96 109.429 219.231 109.335 219.231 108.744C219.23 108.152 218.963 108.054 218.37 108.057C214.926 108.077 211.481 108.068 208.037 108.068C204.56 108.068 201.083 108.075 197.606 108.059C197.054 108.056 196.796 108.145 196.808 108.702C196.818 109.225 196.942 109.433 197.606 109.432Z" fill="black"/>
<path d="M197.778 112.297C204.603 112.291 211.428 112.291 218.253 112.297C218.791 112.297 219.226 112.352 219.238 111.637C219.25 110.87 218.764 110.937 218.2 110.939C214.821 110.943 211.44 110.945 208.059 110.942C204.648 110.942 201.234 110.945 197.823 110.937C197.252 110.937 196.784 110.877 196.799 111.64C196.81 112.357 197.241 112.297 197.778 112.297Z" fill="black"/>
<path d="M183.115 92.3093C179.971 97.7187 176.825 103.13 173.68 108.54C174.312 108.543 174.768 108.822 175.124 109.256C176.178 107.426 177.234 105.596 178.288 103.766C180.362 100.186 182.437 96.6076 184.516 93.029C183.925 92.9763 183.39 92.8363 183.115 92.3093Z" fill="black"/>
<path d="M173.68 108.54L175.124 109.254C174.77 108.822 174.314 108.544 173.68 108.54Z" fill="black"/>
<path d="M183.115 92.3093C183.39 92.8363 183.925 92.9763 184.516 93.029L183.115 92.3093Z" fill="black"/>
<path d="M216.764 77.6725L207.844 92.0684C208.501 92.0368 208.916 92.356 209.232 92.8107L218.102 78.4976C217.474 78.4494 217.029 78.1739 216.764 77.6725Z" fill="black"/>
<path d="M207.844 92.0684L209.232 92.8122C208.916 92.356 208.503 92.0368 207.844 92.0684Z" fill="black"/>
<path d="M216.764 77.6725C217.029 78.1739 217.476 78.4479 218.103 78.4991L216.764 77.6725Z" fill="black"/>
<path d="M280.512 70.0289C284.385 65.9188 288.256 61.8087 292.127 57.6971C291.497 57.6354 291.109 57.3282 290.935 56.8013C288.662 59.1876 286.376 61.5678 284.117 63.9631C282.49 65.6885 280.896 67.4364 279.286 69.1738C279.926 69.2054 280.268 69.5637 280.512 70.0289Z" fill="black"/>
<path d="M292.126 57.6971L290.935 56.8013C291.108 57.3282 291.497 57.6354 292.126 57.6971Z" fill="black"/>
<path d="M280.512 70.0289C280.268 69.5637 279.928 69.2054 279.286 69.1723L280.512 70.0289Z" fill="black"/>
<path d="M273.703 69.8919C273.383 69.7609 273.055 69.6465 272.745 69.499C268.152 67.3039 263.561 65.1088 258.973 62.9093C259.134 63.4603 258.921 63.9089 258.484 64.2974L272.757 71.0708C272.816 70.5197 273.127 70.1238 273.703 69.8919Z" fill="black"/>
<path d="M258.971 62.9078C258.809 63.37 258.646 63.8322 258.483 64.2943C258.921 63.9074 259.134 63.4588 258.971 62.9078Z" fill="black"/>
<path d="M273.703 69.8919C273.127 70.1238 272.816 70.5182 272.757 71.0693L273.703 69.8919Z" fill="black"/>
<path d="M202.617 93.0937L190.814 88.7834C190.92 89.3058 191.078 89.8342 190.621 90.3009C191.862 90.584 192.992 91.1139 194.168 91.54C196.7 92.4599 199.21 93.4279 201.728 94.3749C201.755 93.8058 201.999 93.3512 202.617 93.0937Z" fill="black"/>
<path d="M201.728 94.3749L202.617 93.0952C201.999 93.3512 201.755 93.8058 201.728 94.3749Z" fill="black"/>
<path d="M190.814 88.7834C190.75 89.2892 190.685 89.7951 190.621 90.3009C191.079 89.8342 190.921 89.3073 190.814 88.7834Z" fill="black"/>
<path d="M250.394 64.6527C249.439 65.5981 248.485 66.5421 247.531 67.4876C245.691 69.3168 243.854 71.1475 242.019 72.9783C242.663 73.0566 242.969 73.451 243.187 73.9298L251.525 65.6764C250.831 65.6042 250.514 65.2097 250.394 64.6527Z" fill="black"/>
<path d="M250.394 64.6527C250.514 65.2112 250.831 65.6042 251.525 65.6764L250.394 64.6527Z" fill="black"/>
<path d="M242.019 72.9783C242.41 73.2959 242.798 73.6121 243.187 73.9298C242.969 73.451 242.661 73.0581 242.019 72.9783Z" fill="black"/>
<path d="M192.387 108.235C190.329 108.235 190.329 108.235 190.329 110.004C190.329 111.892 190.329 111.892 192.476 111.892C194.631 111.892 194.631 111.892 194.631 110.179C194.631 108.235 194.631 108.235 192.387 108.235Z" fill="black"/>
<path d="M192.425 117.258C190.329 117.258 190.329 117.258 190.329 119.106C190.329 120.916 190.329 120.916 192.439 120.916C194.631 120.916 194.631 120.916 194.631 119.179C194.631 117.258 194.631 117.258 192.425 117.258Z" fill="black"/>
<path d="M235.04 75.0664L224.664 73.6076C225.023 74.0698 224.992 74.5651 224.825 75.0725L234.73 76.4244C234.558 75.9261 234.556 75.4534 235.04 75.0664Z" fill="black"/>
<path d="M224.664 73.6076C224.717 74.0969 224.77 74.5847 224.826 75.0725C224.996 74.5651 225.024 74.0698 224.664 73.6076Z" fill="black"/>
<path d="M235.041 75.0664C234.556 75.4534 234.558 75.9231 234.73 76.4244L235.041 75.0664Z" fill="black"/>
<path d="M185.937 65.5966C183.533 65.5966 181.108 65.6027 178.644 65.6027C179.734 72.5432 183.675 76.9378 190.461 79.0862C196.732 81.0705 202.727 80.3373 208.477 76.31C206.763 74.821 205.095 73.3697 203.449 71.9394C202.495 72.5778 201.449 73.0641 200.313 73.3998C199.176 73.7356 198.007 73.9027 196.806 73.9012C191.252 73.9012 186.662 70.2864 185.937 65.5966Z" fill="black"/>
<mask id="mask23_2022_501" style="mask-type:luminance" maskUnits="userSpaceOnUse" x="198" y="48" width="18" height="27">
<path d="M198.123 48.4335H215.292V74.4687H198.123V48.4335Z" fill="white"/>
</mask>
<g mask="url(#mask23_2022_501)">
<path d="M207.777 64.296C207.779 65.3529 207.586 66.3827 207.198 67.3854C206.809 68.3866 206.245 69.3064 205.509 70.145C207.098 71.5723 208.69 72.9995 210.283 74.4283C215.23 69.7054 216.336 63.2391 213.242 57.5934C210.336 52.2894 205.547 49.2181 198.268 48.4458C198.268 50.6152 198.261 52.7139 198.261 54.775C203.631 55.3983 207.777 59.4226 207.777 64.296Z" fill="black"/>
</g>
<path d="M194.956 54.8276V48.7874C186.659 48.7708 179.167 55.3093 179.115 62.6368H186C186.793 58.6486 190.396 55.5066 194.956 54.8276Z" fill="black"/>
<mask id="mask24_2022_501" style="mask-type:luminance" maskUnits="userSpaceOnUse" x="117" y="123" width="41" height="35">
<path d="M117.887 123.442H157.254V157.226H117.887V123.442Z" fill="white"/>
</mask>
<g mask="url(#mask24_2022_501)">
<path d="M117.887 123.442H157.228V157.226H117.887V123.442Z" fill="#E9A283"/>
</g>
<mask id="mask25_2022_501" style="mask-type:luminance" maskUnits="userSpaceOnUse" x="117" y="123" width="41" height="35">
<path d="M117.887 123.444H157.158V157.223H117.887V123.444Z" fill="white"/>
</mask>
<g mask="url(#mask25_2022_501)">
<path d="M117.887 123.444H157.251V157.223H117.887V123.444Z" stroke="black" stroke-width="4"/>
</g>
<mask id="mask26_2022_501" style="mask-type:luminance" maskUnits="userSpaceOnUse" x="124" y="128" width="27" height="24">
<path d="M124.32 128.734H150.72V151.847H124.32V128.734Z" fill="white"/>
</mask>
<g mask="url(#mask26_2022_501)">
<path d="M149.758 142.099C150.276 142.099 150.7 141.727 150.7 141.274V139.28C150.7 138.826 150.276 138.455 149.758 138.455H148.78C148.262 138.455 147.715 138.1 147.562 137.666L146.728 135.893C146.482 135.494 146.582 134.905 146.948 134.585L147.64 133.978C148.006 133.657 148.006 133.133 147.64 132.813L146.03 131.402C145.664 131.081 145.064 131.081 144.697 131.402L144.006 132.009C143.64 132.329 142.966 132.415 142.51 132.201L140.484 131.471C139.989 131.337 139.585 130.857 139.585 130.404V129.549C139.585 129.094 139.16 128.724 138.643 128.724H136.366C135.848 128.724 135.424 129.094 135.424 129.549V130.404C135.424 130.857 135.018 131.337 134.524 131.471L132.499 132.201C132.041 132.415 131.369 132.329 131.003 132.009L130.311 131.402C129.945 131.081 129.345 131.081 128.979 131.402L127.369 132.813C127.003 133.133 127.003 133.657 127.369 133.978L128.06 134.585C128.427 134.905 128.526 135.494 128.282 135.893L127.446 137.666C127.295 138.1 126.747 138.455 126.229 138.455H125.251C124.733 138.455 124.31 138.826 124.31 139.279V141.274C124.31 141.727 124.733 142.099 125.251 142.099H126.229C126.747 142.099 127.295 142.453 127.446 142.886L128.282 144.66C128.526 145.059 128.428 145.649 128.062 145.969L127.369 146.575C127.003 146.895 127.003 147.421 127.369 147.741L128.979 149.151C129.345 149.471 129.945 149.471 130.311 149.151L131.003 148.544C131.369 148.225 132.043 148.137 132.499 148.351L134.524 149.083C135.02 149.215 135.424 149.696 135.424 150.149V151.005C135.424 151.459 135.848 151.831 136.366 151.831H138.643C139.16 151.831 139.585 151.459 139.585 151.005V150.149C139.585 149.696 139.989 149.215 140.484 149.083L142.51 148.351C142.966 148.137 143.64 148.223 144.006 148.544L144.699 149.151C145.065 149.471 145.664 149.471 146.03 149.151L147.64 147.741C148.006 147.421 148.006 146.895 147.64 146.575L146.948 145.969C146.582 145.649 146.482 145.059 146.728 144.66L147.562 142.886C147.714 142.453 148.262 142.099 148.781 142.099H149.758ZM137.504 145.03C134.505 145.03 132.076 142.901 132.076 140.277C132.076 137.651 134.505 135.524 137.504 135.524C140.502 135.524 142.933 137.651 142.933 140.277C142.933 142.901 140.502 145.03 137.504 145.03Z" fill="black"/>
</g>
<mask id="mask27_2022_501" style="mask-type:luminance" maskUnits="userSpaceOnUse" x="117" y="160" width="41" height="39">
<path d="M117.887 160.95H157.254V198.457H117.887V160.95Z" fill="white"/>
</mask>
<g mask="url(#mask27_2022_501)">
<path d="M117.887 160.95H157.254V198.513H117.887V160.95Z" fill="#4E8E96"/>
</g>
<mask id="mask28_2022_501" style="mask-type:luminance" maskUnits="userSpaceOnUse" x="117" y="160" width="41" height="39">
<path d="M117.887 160.951H157.158V198.454H117.887V160.951Z" fill="white"/>
</mask>
<g mask="url(#mask28_2022_501)">
<path d="M117.887 160.951H157.251V198.454H117.887V160.951Z" stroke="black" stroke-width="4"/>
</g>
<mask id="mask29_2022_501" style="mask-type:luminance" maskUnits="userSpaceOnUse" x="164" y="136" width="66" height="63">
<path d="M164.05 136.878H229.363V198.457H164.05V136.878Z" fill="white"/>
</mask>
<g mask="url(#mask29_2022_501)">
<path d="M164.05 136.878H229.363V198.529H164.05V136.878Z" fill="#9B6EC8"/>
</g>
<mask id="mask30_2022_501" style="mask-type:luminance" maskUnits="userSpaceOnUse" x="164" y="136" width="66" height="63">
<path d="M164.05 136.878H229.362V198.419H164.05V136.878Z" fill="white"/>
</mask>
<g mask="url(#mask30_2022_501)">
<path d="M164.05 136.878H229.362V198.455H164.05V136.878Z" stroke="black" stroke-width="4"/>
</g>
<mask id="mask31_2022_501" style="mask-type:luminance" maskUnits="userSpaceOnUse" x="121" y="163" width="34" height="34">
<path d="M121.174 163.572H154.503V196.221H121.174V163.572Z" fill="white"/>
</mask>
<g mask="url(#mask31_2022_501)">
<path d="M151.077 164.906H137.518C137.513 164.906 137.51 164.906 137.506 164.906C136.992 164.906 136.576 165.269 136.576 165.719C136.576 165.934 136.674 166.142 136.848 166.294C137.023 166.446 137.259 166.532 137.506 166.532H151.077C151.591 166.532 152.008 166.168 152.008 165.719C152.008 165.269 151.591 164.906 151.077 164.906ZM151.077 168.866L137.518 168.867C137.513 168.867 137.51 168.866 137.506 168.866C136.992 168.866 136.576 169.23 136.576 169.68C136.576 169.896 136.674 170.103 136.848 170.255C137.023 170.407 137.259 170.493 137.506 170.493H151.077C151.591 170.493 152.008 170.129 152.008 169.68C152.008 169.23 151.591 168.866 151.077 168.866ZM132.052 166.532V172.828L124.862 172.827V172.828V166.532H132.052ZM123.934 164.906C123.419 164.906 123.003 165.269 123.003 165.719V173.641C123.003 173.857 123.101 174.064 123.275 174.216C123.45 174.368 123.686 174.454 123.934 174.454H132.982C133.494 174.454 133.911 174.09 133.911 173.641V165.719C133.911 165.504 133.813 165.296 133.639 165.144C133.464 164.99 133.228 164.906 132.982 164.906H123.934ZM151.077 172.827L137.517 172.828C137.513 172.828 137.51 172.827 137.506 172.827C136.992 172.827 136.576 173.191 136.576 173.641C136.576 173.857 136.674 174.064 136.848 174.216C137.023 174.368 137.259 174.454 137.506 174.454H151.077C151.591 174.454 152.008 174.09 152.008 173.641C152.008 173.191 151.591 172.827 151.077 172.827ZM123.934 176.788C123.419 176.788 123.003 177.152 123.003 177.602C123.003 178.051 123.419 178.415 123.934 178.415H151.077C151.591 178.415 152.008 178.051 152.008 177.602C152.008 177.154 151.591 176.789 151.077 176.789H123.946C123.942 176.788 123.937 176.788 123.934 176.788ZM123.934 180.749C123.419 180.749 123.003 181.113 123.003 181.563C123.003 182.012 123.419 182.376 123.934 182.376H151.077C151.591 182.376 152.008 182.012 152.008 181.563C152.008 181.115 151.591 180.75 151.077 180.75L123.946 180.749V180.75C123.942 180.749 123.937 180.749 123.934 180.749ZM123.934 184.71C123.419 184.71 123.003 185.074 123.003 185.524C123.003 185.973 123.419 186.337 123.934 186.337H151.077C151.591 186.337 152.008 185.973 152.008 185.524C152.008 185.074 151.591 184.711 151.077 184.711L123.946 184.71V184.711C123.942 184.71 123.937 184.71 123.934 184.71ZM146.553 188.671C146.041 188.671 145.624 189.035 145.624 189.486C145.624 189.934 146.041 190.298 146.553 190.298H151.077C151.591 190.298 152.008 189.934 152.008 189.486C152.008 189.035 151.591 188.671 151.077 188.671H146.563L146.562 188.673C146.56 188.671 146.556 188.671 146.553 188.671ZM123.934 188.671C123.419 188.671 123.003 189.035 123.003 189.486C123.003 189.701 123.101 189.909 123.275 190.061C123.45 190.213 123.686 190.298 123.934 190.298H142.031C142.543 190.298 142.959 189.934 142.959 189.486C142.959 189.035 142.543 188.671 142.031 188.671H123.946V188.673C123.942 188.671 123.937 188.671 123.934 188.671ZM123.934 192.632C123.419 192.632 123.003 192.996 123.003 193.447C123.003 193.895 123.419 194.26 123.934 194.26H142.031C142.543 194.26 142.959 193.895 142.959 193.447C142.959 192.996 142.543 192.632 142.031 192.632H123.944V192.634C123.94 192.632 123.937 192.632 123.934 192.632ZM146.553 192.632C146.041 192.632 145.624 192.996 145.624 193.447C145.624 193.895 146.041 194.26 146.553 194.26H151.077C151.591 194.26 152.008 193.895 152.008 193.447C152.008 192.996 151.591 192.632 151.077 192.632H146.565V192.634C146.562 192.632 146.558 192.632 146.553 192.632ZM120.338 162.571H154.673V196.593H115.814V196.595V166.532H118.479V193.447C118.479 193.895 118.895 194.26 119.409 194.26C119.922 194.26 120.338 193.895 120.338 193.447V162.571ZM119.409 160.945C119.162 160.945 118.926 161.029 118.751 161.183C118.577 161.335 118.479 161.543 118.479 161.758V164.906H114.885C114.637 164.906 114.402 164.99 114.226 165.144C114.053 165.296 113.955 165.504 113.955 165.719V197.408C113.955 197.623 114.053 197.831 114.226 197.983C114.402 198.135 114.637 198.221 114.885 198.221H155.601C156.116 198.221 156.532 197.856 156.532 197.408V161.758C156.532 161.309 156.116 160.945 155.601 160.945H119.409Z" fill="black"/>
</g>
<mask id="mask32_2022_501" style="mask-type:luminance" maskUnits="userSpaceOnUse" x="174" y="152" width="45" height="32">
<path d="M174.641 152.213H218.862V183.128H174.641V152.213Z" fill="white"/>
</mask>
<g mask="url(#mask32_2022_501)">
<path d="M192.33 152.213H179.064C176.622 152.213 174.665 153.943 174.665 156.078L174.643 179.263C174.643 181.399 176.622 183.128 179.064 183.128H214.439C216.881 183.128 218.86 181.399 218.86 179.263V159.942C218.86 157.808 216.881 156.078 214.439 156.078H196.751L192.33 152.213Z" fill="black"/>
</g>
</svg>
