<svg xmlns="http://www.w3.org/2000/svg" xmlns:xlink="http://www.w3.org/1999/xlink" width="1366" zoomAndPan="magnify" viewBox="0 0 1024.5 576" height="768" preserveAspectRatio="xMidYMid meet" version="1.0"><defs><g/><clipPath id="cd18a8bc1b"><path d="M 131.652344 82 L 892.53125 82 L 892.53125 560 L 131.652344 560 Z M 131.652344 82 " clip-rule="nonzero"/></clipPath><clipPath id="d6f48e78d1"><path d="M 130.902344 62.265625 L 130.902344 508.554688 C 130.902344 537.121094 154.058594 560.277344 182.625 560.277344 L 841.375 560.277344 C 869.941406 560.277344 893.097656 537.121094 893.097656 508.554688 L 893.097656 62.265625 C 893.097656 33.699219 869.941406 10.542969 841.375 10.542969 L 182.625 10.542969 C 154.058594 10.542969 130.902344 33.699219 130.902344 62.265625 Z M 130.902344 62.265625 " clip-rule="nonzero"/></clipPath><clipPath id="5073f65038"><path d="M 183.527344 11.441406 L 840.476562 11.441406 C 869.042969 11.441406 892.199219 34.601562 892.199219 63.167969 L 892.199219 507.652344 C 892.199219 536.21875 869.042969 559.378906 840.476562 559.378906 L 183.527344 559.378906 C 154.957031 559.378906 131.800781 536.21875 131.800781 507.652344 L 131.800781 63.167969 C 131.800781 34.601562 154.957031 11.441406 183.527344 11.441406 Z M 183.527344 11.441406 " clip-rule="nonzero"/></clipPath><clipPath id="af06464e5b"><path d="M 131.652344 11.292969 L 892.53125 11.292969 L 892.53125 83 L 131.652344 83 Z M 131.652344 11.292969 " clip-rule="nonzero"/></clipPath><clipPath id="6d7814a628"><path d="M 130.902344 62.265625 L 130.902344 508.554688 C 130.902344 537.121094 154.058594 560.277344 182.625 560.277344 L 841.375 560.277344 C 869.941406 560.277344 893.097656 537.121094 893.097656 508.554688 L 893.097656 62.265625 C 893.097656 33.699219 869.941406 10.542969 841.375 10.542969 L 182.625 10.542969 C 154.058594 10.542969 130.902344 33.699219 130.902344 62.265625 Z M 130.902344 62.265625 " clip-rule="nonzero"/></clipPath><clipPath id="3d7b336ee1"><path d="M 183.527344 11.441406 L 840.476562 11.441406 C 869.042969 11.441406 892.199219 34.601562 892.199219 63.167969 L 892.199219 507.652344 C 892.199219 536.21875 869.042969 559.378906 840.476562 559.378906 L 183.527344 559.378906 C 154.957031 559.378906 131.800781 536.21875 131.800781 507.652344 L 131.800781 63.167969 C 131.800781 34.601562 154.957031 11.441406 183.527344 11.441406 Z M 183.527344 11.441406 " clip-rule="nonzero"/></clipPath><clipPath id="220d975945"><path d="M 766 34 L 869 34 L 869 62 L 766 62 Z M 766 34 " clip-rule="nonzero"/></clipPath><clipPath id="2397929816"><path d="M 130.902344 62.265625 L 130.902344 508.554688 C 130.902344 537.121094 154.058594 560.277344 182.625 560.277344 L 841.375 560.277344 C 869.941406 560.277344 893.097656 537.121094 893.097656 508.554688 L 893.097656 62.265625 C 893.097656 33.699219 869.941406 10.542969 841.375 10.542969 L 182.625 10.542969 C 154.058594 10.542969 130.902344 33.699219 130.902344 62.265625 Z M 130.902344 62.265625 " clip-rule="nonzero"/></clipPath><clipPath id="4a09c461c2"><path d="M 183.527344 11.441406 L 840.476562 11.441406 C 869.042969 11.441406 892.199219 34.601562 892.199219 63.167969 L 892.199219 507.652344 C 892.199219 536.21875 869.042969 559.378906 840.476562 559.378906 L 183.527344 559.378906 C 154.957031 559.378906 131.800781 536.21875 131.800781 507.652344 L 131.800781 63.167969 C 131.800781 34.601562 154.957031 11.441406 183.527344 11.441406 Z M 183.527344 11.441406 " clip-rule="nonzero"/></clipPath><clipPath id="daecc4fd27"><path d="M 130.902344 10.542969 L 893.273438 10.542969 L 893.273438 560.023438 L 130.902344 560.023438 Z M 130.902344 10.542969 " clip-rule="nonzero"/></clipPath><clipPath id="376e98e80c"><path d="M 130.902344 62.265625 L 130.902344 508.554688 C 130.902344 537.121094 154.058594 560.277344 182.625 560.277344 L 841.375 560.277344 C 869.941406 560.277344 893.097656 537.121094 893.097656 508.554688 L 893.097656 62.265625 C 893.097656 33.699219 869.941406 10.542969 841.375 10.542969 L 182.625 10.542969 C 154.058594 10.542969 130.902344 33.699219 130.902344 62.265625 Z M 130.902344 62.265625 " clip-rule="nonzero"/></clipPath><clipPath id="f7943eb660"><path d="M 130.902344 62.265625 L 130.902344 508.546875 C 130.902344 537.113281 154.058594 560.269531 182.625 560.269531 L 841.367188 560.269531 C 869.933594 560.269531 893.089844 537.113281 893.089844 508.546875 L 893.089844 62.265625 C 893.089844 33.699219 869.933594 10.542969 841.367188 10.542969 L 182.625 10.542969 C 154.058594 10.542969 130.902344 33.699219 130.902344 62.265625 Z M 130.902344 62.265625 " clip-rule="nonzero"/></clipPath><clipPath id="cb53bb32d7"><path d="M 197.085938 109.96875 L 466.367188 109.96875 L 466.367188 314.625 L 197.085938 314.625 Z M 197.085938 109.96875 " clip-rule="nonzero"/></clipPath><clipPath id="68dec63a23"><path d="M 197.085938 109.972656 L 466.207031 109.972656 L 466.207031 314.617188 L 197.085938 314.617188 Z M 197.085938 109.972656 " clip-rule="nonzero"/></clipPath><clipPath id="21943b6314"><path d="M 224.167969 132.777344 L 439.3125 132.777344 L 439.3125 290.953125 L 224.167969 290.953125 Z M 224.167969 132.777344 " clip-rule="nonzero"/></clipPath><clipPath id="f13dfd1122"><path d="M 197.085938 328.066406 L 376.84375 328.066406 L 376.84375 522.699219 L 197.085938 522.699219 Z M 197.085938 328.066406 " clip-rule="nonzero"/></clipPath><clipPath id="90c2923fbe"><path d="M 197.089844 328.066406 L 376.835938 328.066406 L 376.835938 522.691406 L 197.089844 522.691406 Z M 197.089844 328.066406 " clip-rule="nonzero"/></clipPath><clipPath id="8d2cf08ba8"><path d="M 664.472656 363.828125 L 822.445312 363.828125 L 822.445312 521.800781 L 664.472656 521.800781 Z M 664.472656 363.828125 " clip-rule="nonzero"/></clipPath><clipPath id="a6bcb2c9a8"><path d="M 663.574219 362.925781 L 823.246094 362.925781 L 823.246094 522.601562 L 663.574219 522.601562 Z M 663.574219 362.925781 " clip-rule="nonzero"/></clipPath><clipPath id="246b9428fe"><path d="M 497.597656 109.96875 L 823.347656 109.96875 L 823.347656 344.261719 L 497.597656 344.261719 Z M 497.597656 109.96875 " clip-rule="nonzero"/></clipPath><clipPath id="8d6be1b925"><path d="M 497.597656 109.972656 L 823.335938 109.972656 L 823.335938 344.253906 L 497.597656 344.253906 Z M 497.597656 109.972656 " clip-rule="nonzero"/></clipPath><clipPath id="1ffe777a20"><path d="M 786 281 L 810.996094 281 L 810.996094 329 L 786 329 Z M 786 281 " clip-rule="nonzero"/></clipPath><clipPath id="1546ca08b6"><path d="M 505.144531 288 L 527 288 L 527 310 L 505.144531 310 Z M 505.144531 288 " clip-rule="nonzero"/></clipPath><clipPath id="590b0e3637"><path d="M 575 133.449219 L 614 133.449219 L 614 201 L 575 201 Z M 575 133.449219 " clip-rule="nonzero"/></clipPath><clipPath id="9628f26810"><path d="M 392.734375 328.066406 L 482.160156 328.066406 L 482.160156 415.722656 L 392.734375 415.722656 Z M 392.734375 328.066406 " clip-rule="nonzero"/></clipPath><clipPath id="125cdfff9f"><path d="M 392.734375 328.070312 L 481.941406 328.070312 L 481.941406 415.714844 L 392.734375 415.714844 Z M 392.734375 328.070312 " clip-rule="nonzero"/></clipPath><clipPath id="138a99bbb1"><path d="M 407.347656 341.796875 L 467.316406 341.796875 L 467.316406 401.765625 L 407.347656 401.765625 Z M 407.347656 341.796875 " clip-rule="nonzero"/></clipPath><clipPath id="ba89b4d641"><path d="M 392.734375 425.382812 L 482.160156 425.382812 L 482.160156 522.699219 L 392.734375 522.699219 Z M 392.734375 425.382812 " clip-rule="nonzero"/></clipPath><clipPath id="0e5e2d9d0c"><path d="M 392.734375 425.386719 L 481.941406 425.386719 L 481.941406 522.691406 L 392.734375 522.691406 Z M 392.734375 425.386719 " clip-rule="nonzero"/></clipPath><clipPath id="e63965ed61"><path d="M 497.597656 362.925781 L 645.964844 362.925781 L 645.964844 522.699219 L 497.597656 522.699219 Z M 497.597656 362.925781 " clip-rule="nonzero"/></clipPath><clipPath id="76cd5b76aa"><path d="M 497.597656 362.925781 L 645.960938 362.925781 L 645.960938 522.601562 L 497.597656 522.601562 Z M 497.597656 362.925781 " clip-rule="nonzero"/></clipPath><clipPath id="4c579947fd"><path d="M 400.199219 432.1875 L 475.910156 432.1875 L 475.910156 516.898438 L 400.199219 516.898438 Z M 400.199219 432.1875 " clip-rule="nonzero"/></clipPath><clipPath id="951ab5e7f4"><path d="M 521.65625 402.714844 L 622.109375 402.714844 L 622.109375 482.925781 L 521.65625 482.925781 Z M 521.65625 402.714844 " clip-rule="nonzero"/></clipPath></defs><g clip-path="url(#cd18a8bc1b)"><g clip-path="url(#d6f48e78d1)"><g clip-path="url(#5073f65038)"><path fill="#dfd2ea" d="M 892.851562 82.976562 L 892.851562 511.035156 C 892.851562 543.859375 876.449219 560.277344 843.625 560.277344 L 180.371094 560.277344 C 147.675781 560.277344 131.335938 543.859375 131.335938 511.035156 L 131.335938 82.976562 L 892.851562 82.976562 " fill-opacity="1" fill-rule="evenodd"/></g></g></g><g clip-path="url(#af06464e5b)"><g clip-path="url(#6d7814a628)"><g clip-path="url(#3d7b336ee1)"><path fill="#9b6ec8" d="M 817.179688 61.820312 C 820.832031 61.820312 824.027344 60.386719 826.730469 57.542969 C 829.449219 54.953125 830.800781 51.773438 830.800781 47.976562 C 830.800781 44.320312 829.449219 41.058594 826.730469 38.214844 C 824.027344 35.625 820.832031 34.351562 817.179688 34.351562 C 813.378906 34.351562 810.058594 35.625 807.210938 38.214844 C 804.636719 41.058594 803.332031 44.320312 803.332031 47.976562 C 803.332031 51.773438 804.636719 54.953125 807.210938 57.542969 C 810.058594 60.386719 813.378906 61.820312 817.179688 61.820312 Z M 868.246094 47.976562 C 868.246094 44.320312 866.878906 41.058594 864.179688 38.214844 C 861.460938 35.625 858.265625 34.351562 854.609375 34.351562 C 850.8125 34.351562 847.488281 35.625 844.644531 38.214844 C 842.054688 41.058594 840.78125 44.320312 840.78125 47.976562 C 840.78125 51.773438 842.054688 54.953125 844.644531 57.542969 C 847.488281 60.386719 850.8125 61.820312 854.609375 61.820312 C 858.265625 61.820312 861.460938 60.386719 864.179688 57.542969 C 866.878906 54.953125 868.246094 51.773438 868.246094 47.976562 Z M 892.851562 82.976562 L 131.335938 82.976562 L 131.335938 43.09375 C 131.335938 34.144531 134.515625 26.46875 140.90625 20.109375 C 147.28125 13.722656 154.941406 10.542969 163.890625 10.542969 L 860.300781 10.542969 C 869.265625 10.542969 876.925781 13.722656 883.300781 20.109375 C 889.671875 26.46875 892.851562 34.144531 892.851562 43.09375 Z M 779.9375 61.820312 C 783.609375 61.820312 786.789062 60.386719 789.503906 57.542969 C 792.207031 54.953125 793.574219 51.773438 793.574219 47.976562 C 793.574219 44.320312 792.207031 41.058594 789.503906 38.214844 C 786.789062 35.625 783.609375 34.351562 779.9375 34.351562 C 776.152344 34.351562 772.816406 35.625 769.96875 38.214844 C 767.394531 41.058594 766.109375 44.320312 766.109375 47.976562 C 766.109375 51.773438 767.394531 54.953125 769.96875 57.542969 C 772.816406 60.386719 776.152344 61.820312 779.9375 61.820312 " fill-opacity="1" fill-rule="evenodd"/></g></g></g><g clip-path="url(#220d975945)"><g clip-path="url(#2397929816)"><g clip-path="url(#4a09c461c2)"><path fill="#b7dab2" d="M 868.246094 47.976562 C 868.246094 51.773438 866.878906 54.953125 864.179688 57.542969 C 861.460938 60.386719 858.265625 61.820312 854.609375 61.820312 C 850.8125 61.820312 847.488281 60.386719 844.644531 57.542969 C 842.054688 54.953125 840.78125 51.773438 840.78125 47.976562 C 840.78125 44.320312 842.054688 41.058594 844.644531 38.214844 C 847.488281 35.625 850.8125 34.351562 854.609375 34.351562 C 858.265625 34.351562 861.460938 35.625 864.179688 38.214844 C 866.878906 41.058594 868.246094 44.320312 868.246094 47.976562 Z M 817.179688 61.820312 C 813.378906 61.820312 810.058594 60.386719 807.210938 57.542969 C 804.636719 54.953125 803.332031 51.773438 803.332031 47.976562 C 803.332031 44.320312 804.636719 41.058594 807.210938 38.214844 C 810.058594 35.625 813.378906 34.351562 817.179688 34.351562 C 820.832031 34.351562 824.027344 35.625 826.730469 38.214844 C 829.449219 41.058594 830.800781 44.320312 830.800781 47.976562 C 830.800781 51.773438 829.449219 54.953125 826.730469 57.542969 C 824.027344 60.386719 820.832031 61.820312 817.179688 61.820312 Z M 779.9375 61.820312 C 776.152344 61.820312 772.816406 60.386719 769.96875 57.542969 C 767.394531 54.953125 766.109375 51.773438 766.109375 47.976562 C 766.109375 44.320312 767.394531 41.058594 769.96875 38.214844 C 772.816406 35.625 776.152344 34.351562 779.9375 34.351562 C 783.609375 34.351562 786.789062 35.625 789.503906 38.214844 C 792.207031 41.058594 793.574219 44.320312 793.574219 47.976562 C 793.574219 51.773438 792.207031 54.953125 789.503906 57.542969 C 786.789062 60.386719 783.609375 61.820312 779.9375 61.820312 " fill-opacity="1" fill-rule="evenodd"/></g></g></g><g clip-path="url(#daecc4fd27)"><g clip-path="url(#376e98e80c)"><g clip-path="url(#f7943eb660)"><path stroke-linecap="butt" transform="matrix(0.749634, 0, 0, 0.749634, 130.901227, 10.542689)" fill="none" stroke-linejoin="miter" d="M 0.0014901 68.99758 L 0.0014901 664.329715 C 0.0014901 702.43685 30.89156 733.326921 68.998692 733.326921 L 947.750304 733.326921 C 985.857436 733.326921 1016.747506 702.43685 1016.747506 664.329715 L 1016.747506 68.99758 C 1016.747506 30.890445 985.857436 0.000373648 947.750304 0.000373648 L 68.998692 0.000373648 C 30.89156 0.000373648 0.0014901 30.890445 0.0014901 68.99758 Z M 0.0014901 68.99758 " stroke="#000000" stroke-width="12" stroke-opacity="1" stroke-miterlimit="4"/></g></g></g><g clip-path="url(#cb53bb32d7)"><path fill="#cae4de" d="M 197.085938 109.96875 L 466.496094 109.96875 L 466.496094 314.625 L 197.085938 314.625 Z M 197.085938 109.96875 " fill-opacity="1" fill-rule="nonzero"/></g><g clip-path="url(#68dec63a23)"><path stroke-linecap="butt" transform="matrix(0.749634, 0, 0, 0.749634, 197.087315, 109.97277)" fill="none" stroke-linejoin="miter" d="M -0.00183771 -0.000151681 L 359.204627 -0.000151681 L 359.204627 272.992384 L -0.00183771 272.992384 Z M -0.00183771 -0.000151681 " stroke="#000000" stroke-width="8" stroke-opacity="1" stroke-miterlimit="4"/></g><g clip-path="url(#21943b6314)"><path fill="#000000" d="M 455.578125 124.628906 L 455.578125 307.261719 L 205.800781 307.261719 L 205.800781 124.628906 Z M 465.234375 114.984375 L 196.101562 114.984375 L 196.101562 317.011719 L 465.234375 317.011719 Z M 234.621094 278.425781 L 426.761719 278.425781 L 384.222656 167.894531 L 330.667969 238.441406 L 294.964844 203.171875 Z M 258.535156 172.699219 C 250.570312 172.699219 244.128906 179.167969 244.128906 187.171875 C 244.128906 195.167969 250.574219 201.640625 258.535156 201.640625 C 266.492188 201.640625 272.9375 195.167969 272.9375 187.171875 C 272.9375 179.167969 266.492188 172.699219 258.535156 172.699219 Z M 258.535156 172.699219 " fill-opacity="1" fill-rule="nonzero"/></g><g clip-path="url(#f13dfd1122)"><path fill="#b7dab2" d="M 197.085938 328.066406 L 376.84375 328.066406 L 376.84375 522.566406 L 197.085938 522.566406 Z M 197.085938 328.066406 " fill-opacity="1" fill-rule="nonzero"/></g><g clip-path="url(#90c2923fbe)"><path stroke-linecap="butt" transform="matrix(0.749634, 0, 0, 0.749634, 197.088179, 328.06763)" fill="none" stroke-linejoin="miter" d="M 0.00222117 -0.00163247 L 239.780655 -0.00163247 L 239.780655 259.625025 L 0.00222117 259.625025 Z M 0.00222117 -0.00163247 " stroke="#000000" stroke-width="8" stroke-opacity="1" stroke-miterlimit="4"/></g><g fill="#000000" fill-opacity="1"><g transform="translate(259.646625, 454.755795)"><g><path d="M 50.84375 -55.96875 L 51.65625 -35.90625 L 50.125 -35.90625 C 47.78125 -42.988281 45.703125 -47.820312 43.890625 -50.40625 C 42.078125 -52.988281 39.46875 -54.28125 36.0625 -54.28125 L 35.09375 -54.28125 L 35.09375 -1.671875 L 41.890625 -1.671875 L 41.890625 0 L 12.71875 0 L 12.71875 -1.671875 L 19.515625 -1.671875 L 19.515625 -54.28125 L 18.46875 -54.28125 C 15.0625 -54.28125 12.421875 -52.9375 10.546875 -50.25 C 8.679688 -47.5625 6.628906 -42.78125 4.390625 -35.90625 L 2.875 -35.90625 L 3.671875 -55.96875 Z M 50.84375 -55.96875 "/></g></g></g><g clip-path="url(#8d2cf08ba8)"><path fill="#ffccaa" d="M 802.886719 522.695312 L 684.023438 522.695312 C 672.730469 522.695312 663.574219 513.539062 663.574219 502.242188 L 663.574219 383.378906 C 663.574219 372.082031 672.730469 362.929688 684.023438 362.929688 L 802.886719 362.929688 C 814.183594 362.929688 823.339844 372.082031 823.339844 383.378906 L 823.339844 502.242188 C 823.339844 513.539062 814.183594 522.695312 802.886719 522.695312 " fill-opacity="1" fill-rule="nonzero"/></g><path fill="#000000" d="M 730.003906 447.421875 L 682.105469 482.644531 L 682.105469 403.285156 Z M 730.003906 447.421875 " fill-opacity="1" fill-rule="nonzero"/><path fill="#000000" d="M 802.746094 483.625 L 684.167969 483.625 L 731.511719 448.808594 L 742.753906 459.167969 C 743.140625 459.523438 743.773438 459.523438 744.160156 459.167969 L 755.402344 448.808594 L 802.746094 483.625 " fill-opacity="1" fill-rule="nonzero"/><path fill="#000000" d="M 804.804688 403.285156 L 804.804688 482.644531 L 756.90625 447.421875 L 804.804688 403.285156 " fill-opacity="1" fill-rule="nonzero"/><path fill="#000000" d="M 803.238281 401.996094 L 754.660156 446.757812 C 754.652344 446.765625 754.640625 446.773438 754.632812 446.785156 L 743.457031 457.082031 L 732.28125 446.785156 C 732.269531 446.773438 732.261719 446.765625 732.25 446.757812 L 683.675781 401.996094 L 803.238281 401.996094 " fill-opacity="1" fill-rule="nonzero"/><g clip-path="url(#a6bcb2c9a8)"><path stroke-linecap="butt" transform="matrix(0.749634, 0, 0, 0.749634, 663.57312, 362.927694)" fill="none" stroke-linejoin="miter" d="M 0.00146551 -0.00255124 L 0.00146551 213.127479 L 213.126285 213.127479 L 213.126285 -0.00255124 L 0.00146551 -0.00255124 " stroke="#000000" stroke-width="8" stroke-opacity="1" stroke-miterlimit="4"/></g><g clip-path="url(#246b9428fe)"><path fill="#77bdc6" d="M 497.597656 109.96875 L 823.40625 109.96875 L 823.40625 344.261719 L 497.597656 344.261719 Z M 497.597656 109.96875 " fill-opacity="1" fill-rule="nonzero"/></g><g clip-path="url(#8d6be1b925)"><path stroke-linecap="butt" transform="matrix(0.749634, 0, 0, 0.749634, 497.595875, 109.971364)" fill="none" stroke-linejoin="miter" d="M 0.00237603 0.00172352 L 434.532096 0.00172352 L 434.532096 312.529209 L 0.00237603 312.529209 Z M 0.00237603 0.00172352 " stroke="#000000" stroke-width="8" stroke-opacity="1" stroke-miterlimit="4"/></g><path fill="#000000" d="M 777.941406 283.351562 C 777.941406 268.746094 777.917969 254.136719 777.976562 239.527344 C 777.984375 237.953125 777.675781 237.394531 775.960938 237.421875 C 769.089844 237.527344 762.21875 237.503906 755.347656 237.4375 C 753.914062 237.421875 753.320312 237.65625 753.320312 239.304688 C 753.375 268.519531 753.375 297.734375 753.320312 326.953125 C 753.320312 328.585938 753.898438 328.839844 755.339844 328.824219 C 762.210938 328.757812 769.082031 328.734375 775.953125 328.839844 C 777.65625 328.863281 777.984375 328.332031 777.976562 326.738281 C 777.917969 312.277344 777.941406 297.816406 777.941406 283.351562 Z M 777.941406 283.351562 " fill-opacity="1" fill-rule="nonzero"/><path fill="#000000" d="M 675.871094 237.351562 C 669.140625 237.421875 662.410156 237.449219 655.683594 237.339844 C 653.800781 237.304688 653.207031 237.730469 653.21875 239.726562 C 653.3125 254.195312 653.269531 268.664062 653.269531 283.132812 C 653.269531 297.671875 653.292969 312.214844 653.238281 326.757812 C 653.234375 328.300781 653.503906 328.945312 655.253906 328.914062 C 662.125 328.8125 669.003906 328.832031 675.878906 328.902344 C 677.371094 328.917969 677.886719 328.546875 677.886719 326.964844 C 677.839844 297.734375 677.839844 268.503906 677.886719 239.273438 C 677.890625 237.691406 677.351562 237.335938 675.871094 237.351562 Z M 675.871094 237.351562 " fill-opacity="1" fill-rule="nonzero"/><path fill="#000000" d="M 744.179688 247.480469 C 744.179688 245.839844 743.566406 245.589844 742.136719 245.605469 C 735.558594 245.667969 728.976562 245.71875 722.398438 245.582031 C 720.261719 245.535156 719.558594 245.976562 719.582031 248.292969 C 719.710938 261.222656 719.644531 274.152344 719.644531 287.082031 C 719.644531 300.230469 719.671875 313.382812 719.609375 326.53125 C 719.601562 328.304688 720.0625 328.949219 721.933594 328.917969 C 728.65625 328.816406 735.386719 328.847656 742.113281 328.902344 C 743.523438 328.914062 744.183594 328.699219 744.179688 327.03125 C 744.125 300.511719 744.125 273.996094 744.179688 247.480469 Z M 744.179688 247.480469 " fill-opacity="1" fill-rule="nonzero"/><path fill="#000000" d="M 708.742188 268.128906 C 701.9375 268.226562 695.136719 268.207031 688.332031 268.136719 C 686.832031 268.121094 686.324219 268.523438 686.328125 270.089844 C 686.378906 289.019531 686.378906 307.945312 686.328125 326.875 C 686.328125 328.445312 686.835938 328.839844 688.335938 328.824219 C 695.140625 328.757812 701.941406 328.738281 708.742188 328.835938 C 710.535156 328.863281 711.109375 328.40625 711.089844 326.542969 C 710.996094 317.1875 711.046875 307.835938 711.046875 298.480469 C 711.046875 289.125 710.996094 279.769531 711.089844 270.417969 C 711.109375 268.550781 710.53125 268.101562 708.742188 268.128906 Z M 708.742188 268.128906 " fill-opacity="1" fill-rule="nonzero"/><g clip-path="url(#1ffe777a20)"><path fill="#000000" d="M 809.269531 281.128906 C 802.402344 281.203125 795.53125 281.21875 788.667969 281.121094 C 786.894531 281.097656 786.296875 281.53125 786.324219 283.398438 C 786.433594 290.546875 786.367188 297.703125 786.367188 304.855469 C 786.367188 312.160156 786.40625 319.453125 786.339844 326.75 C 786.324219 328.339844 786.757812 328.933594 788.433594 328.917969 C 795.371094 328.839844 802.3125 328.835938 809.253906 328.914062 C 810.808594 328.925781 811.25 328.378906 811.246094 326.878906 C 811.203125 312.28125 811.203125 297.683594 811.25 283.082031 C 811.261719 281.53125 810.78125 281.109375 809.269531 281.128906 Z M 809.269531 281.128906 " fill-opacity="1" fill-rule="nonzero"/></g><path fill="#000000" d="M 713.222656 171.003906 C 713.230469 170.492188 713.265625 169.980469 713.238281 169.46875 C 712.921875 163.199219 707.628906 158.40625 701.867188 159.160156 C 693.460938 160.257812 689.691406 167.847656 693.742188 175.527344 L 696.308594 178.183594 C 702.273438 181.816406 707.636719 180.597656 712.117188 174.597656 C 712.484375 173.402344 712.851562 172.207031 713.222656 171.003906 Z M 702.632812 174.761719 C 699.71875 174.796875 697.496094 172.664062 697.425781 169.761719 C 697.351562 166.839844 699.695312 164.398438 702.578125 164.382812 C 705.3125 164.367188 707.789062 166.75 707.878906 169.476562 C 707.972656 172.277344 705.539062 174.726562 702.632812 174.765625 Z M 702.632812 174.761719 " fill-opacity="1" fill-rule="nonzero"/><g clip-path="url(#1546ca08b6)"><path fill="#000000" d="M 513.453125 289.054688 C 508.695312 290.097656 505.148438 294.484375 505.167969 299.472656 C 505.191406 304.5 508.867188 308.84375 513.875 309.75 C 518.882812 310.660156 523.730469 308.019531 525.519531 303.417969 C 527.335938 298.746094 526.082031 294.765625 522.761719 291.253906 L 519.476562 289.398438 C 517.488281 288.925781 515.527344 288.597656 513.453125 289.054688 Z M 521.03125 299.5625 C 520.898438 302.457031 518.429688 304.699219 515.492188 304.585938 C 512.652344 304.476562 510.53125 302.15625 510.597656 299.234375 C 510.664062 296.410156 513.054688 294.082031 515.828125 294.140625 C 518.648438 294.199219 521.15625 296.816406 521.03125 299.5625 Z M 521.03125 299.5625 " fill-opacity="1" fill-rule="nonzero"/></g><path fill="#000000" d="M 788.539062 157.484375 C 790.34375 158.308594 792.171875 158.863281 794.214844 158.816406 C 799.238281 158.710938 803.480469 155.25 804.449219 150.292969 C 805.351562 145.664062 802.738281 140.542969 798.523438 138.683594 C 793.792969 136.597656 788.277344 138.027344 785.445312 142.148438 C 782.417969 146.554688 782.96875 150.902344 785.832031 155.160156 Z M 794.207031 143.007812 C 796.945312 143.109375 799.222656 145.53125 799.199219 148.328125 C 799.175781 151.332031 796.882812 153.605469 793.949219 153.527344 C 791.105469 153.453125 788.679688 150.949219 788.753906 148.167969 C 788.828125 145.460938 791.523438 142.90625 794.207031 143.007812 Z M 794.207031 143.007812 " fill-opacity="1" fill-rule="nonzero"/><path fill="#000000" d="M 760.011719 205.519531 C 765.417969 202.125 766.347656 195.148438 762.15625 189.480469 L 759.371094 187.257812 C 754.761719 185.277344 750.519531 185.792969 746.691406 189.125 L 744.539062 192.179688 C 744.359375 192.878906 744.160156 193.578125 744 194.285156 C 743.023438 198.589844 744.613281 202.808594 748.125 205.257812 C 751.773438 207.800781 756.226562 207.898438 760.011719 205.519531 Z M 748.972656 196.722656 C 748.96875 193.859375 751.363281 191.496094 754.257812 191.5 C 757.269531 191.507812 759.519531 193.742188 759.507812 196.71875 C 759.5 199.507812 756.941406 201.996094 754.15625 201.929688 C 751.511719 201.863281 748.972656 199.320312 748.972656 196.722656 Z M 748.972656 196.722656 " fill-opacity="1" fill-rule="nonzero"/><path fill="#000000" d="M 597.082031 246.664062 C 592.617188 245.308594 588.644531 246.113281 585.207031 249.324219 L 583.1875 252.644531 C 583.109375 253.003906 583.042969 253.363281 582.949219 253.714844 C 581.503906 259.089844 584.125 264.394531 589.210938 266.371094 C 594.421875 268.398438 600.125 266.242188 602.546875 261.222656 C 604.832031 256.492188 603.628906 252.320312 600.238281 248.589844 Z M 593.070312 261.855469 C 590.285156 261.816406 587.808594 259.265625 587.859375 256.484375 C 587.914062 253.621094 590.375 251.265625 593.246094 251.332031 C 595.921875 251.398438 598.398438 253.910156 598.394531 256.5625 C 598.390625 259.320312 595.800781 261.894531 593.070312 261.855469 Z M 593.070312 261.855469 " fill-opacity="1" fill-rule="nonzero"/><path fill="#000000" d="M 635.289062 198.765625 C 635.003906 198.183594 634.738281 197.589844 634.429688 197.023438 C 632.417969 193.34375 629.390625 191.269531 625.121094 191.253906 C 620.808594 191.242188 617.488281 193.125 615.558594 196.949219 C 613.320312 201.394531 614.3125 205.542969 617.34375 209.3125 L 620.386719 211.457031 C 622.75 212.195312 625.15625 212.730469 627.613281 212.035156 C 632.390625 210.683594 634.84375 207.308594 635.65625 202.570312 C 635.53125 201.300781 635.410156 200.035156 635.289062 198.769531 Z M 625 207.035156 C 622.109375 207.015625 619.710938 204.617188 619.726562 201.753906 C 619.738281 198.890625 622.160156 196.5 625.035156 196.511719 C 627.769531 196.519531 630.136719 198.898438 630.183594 201.683594 C 630.234375 204.550781 627.8125 207.050781 625 207.035156 Z M 625 207.035156 " fill-opacity="1" fill-rule="nonzero"/><path fill="#000000" d="M 674.714844 197.132812 C 667.957031 193.730469 661.816406 195.828125 658.863281 202.550781 L 658.160156 206.074219 C 658.289062 206.863281 658.382812 207.660156 658.558594 208.441406 C 660.097656 215.195312 667.769531 218.667969 673.855469 215.40625 C 678.648438 212.832031 681.664062 206.128906 677.367188 199.601562 C 676.480469 198.777344 675.597656 197.957031 674.71875 197.132812 Z M 668.90625 211.367188 C 666.144531 211.40625 663.609375 208.867188 663.625 206.082031 C 663.640625 203.121094 665.933594 200.875 668.914062 200.894531 C 671.882812 200.917969 674.144531 203.234375 674.085938 206.191406 C 674.027344 208.886719 671.585938 211.328125 668.90625 211.367188 Z M 668.90625 211.367188 " fill-opacity="1" fill-rule="nonzero"/><path fill="#000000" d="M 558.015625 236.90625 C 556.75 230.789062 550.8125 227.230469 544.773438 228.871094 C 537.464844 230.859375 533.832031 240.65625 540.90625 247.289062 L 544.089844 249.15625 C 551.660156 250.140625 554.773438 248.550781 557.957031 242.082031 C 558.101562 240.769531 558.25 239.453125 558.394531 238.140625 C 558.265625 237.730469 558.101562 237.328125 558.015625 236.90625 Z M 552.921875 239.199219 C 552.839844 241.988281 550.460938 244.3125 547.695312 244.3125 C 544.839844 244.3125 542.425781 241.851562 542.464844 238.980469 C 542.507812 236.113281 544.957031 233.726562 547.804688 233.789062 C 550.652344 233.855469 553.007812 236.351562 552.921875 239.199219 Z M 552.921875 239.199219 " fill-opacity="1" fill-rule="nonzero"/><path fill="#000000" d="M 620.449219 311.046875 C 605.035156 311.0625 589.617188 311.054688 574.199219 311.027344 C 572.707031 311.023438 571.996094 311.214844 571.980469 313.003906 C 571.960938 314.933594 572.953125 314.871094 574.296875 314.867188 C 581.96875 314.839844 589.640625 314.855469 597.3125 314.855469 C 604.984375 314.855469 612.65625 314.855469 620.328125 314.855469 C 621.617188 314.855469 622.941406 315.1875 622.964844 313.015625 C 622.988281 310.953125 621.851562 311.042969 620.449219 311.046875 Z M 620.449219 311.046875 " fill-opacity="1" fill-rule="nonzero"/><path fill="#000000" d="M 620.746094 318.496094 C 612.925781 318.527344 605.109375 318.511719 597.289062 318.511719 C 589.546875 318.511719 581.800781 318.542969 574.054688 318.484375 C 572.609375 318.472656 571.980469 318.757812 571.992188 320.382812 C 572.007812 321.925781 572.480469 322.34375 574 322.339844 C 589.5625 322.289062 605.125 322.289062 620.6875 322.332031 C 622.171875 322.335938 622.976562 322.105469 622.953125 320.328125 C 622.9375 318.605469 622.074219 318.488281 620.746094 318.496094 Z M 620.746094 318.496094 " fill-opacity="1" fill-rule="nonzero"/><path fill="#000000" d="M 573.824219 291.714844 C 589.542969 291.664062 605.265625 291.660156 620.988281 291.707031 C 622.332031 291.707031 622.949219 291.464844 622.949219 289.929688 C 622.945312 288.394531 622.339844 288.140625 620.992188 288.148438 C 613.167969 288.199219 605.34375 288.175781 597.519531 288.175781 C 589.621094 288.175781 581.722656 288.195312 573.824219 288.152344 C 572.570312 288.144531 571.984375 288.375 572.011719 289.820312 C 572.035156 291.179688 572.316406 291.71875 573.824219 291.714844 Z M 573.824219 291.714844 " fill-opacity="1" fill-rule="nonzero"/><path fill="#000000" d="M 574.214844 299.148438 C 589.71875 299.132812 605.222656 299.132812 620.726562 299.148438 C 621.949219 299.148438 622.9375 299.292969 622.964844 297.4375 C 622.992188 295.445312 621.886719 295.621094 620.605469 295.625 C 612.929688 295.636719 605.25 295.640625 597.570312 295.632812 C 589.820312 295.632812 582.066406 295.640625 574.316406 295.621094 C 573.019531 295.621094 571.957031 295.464844 571.992188 297.445312 C 572.015625 299.304688 572.996094 299.148438 574.214844 299.148438 Z M 574.214844 299.148438 " fill-opacity="1" fill-rule="nonzero"/><path fill="#000000" d="M 540.90625 247.289062 C 533.765625 261.324219 526.617188 275.363281 519.472656 289.402344 C 520.910156 289.410156 521.945312 290.132812 522.753906 291.257812 C 525.148438 286.511719 527.546875 281.761719 529.941406 277.015625 C 534.652344 267.726562 539.367188 258.441406 544.089844 249.15625 C 542.746094 249.019531 541.53125 248.65625 540.90625 247.289062 Z M 540.90625 247.289062 " fill-opacity="1" fill-rule="nonzero"/><path fill="#000000" d="M 519.472656 289.402344 L 522.753906 291.253906 C 521.949219 290.132812 520.914062 289.410156 519.472656 289.402344 Z M 519.472656 289.402344 " fill-opacity="1" fill-rule="nonzero"/><path fill="#000000" d="M 540.90625 247.289062 C 541.53125 248.65625 542.746094 249.019531 544.089844 249.15625 Z M 540.90625 247.289062 " fill-opacity="1" fill-rule="nonzero"/><path fill="#000000" d="M 617.34375 209.3125 L 597.082031 246.664062 C 598.574219 246.582031 599.515625 247.410156 600.234375 248.589844 L 620.382812 211.453125 C 618.957031 211.328125 617.945312 210.613281 617.34375 209.3125 Z M 617.34375 209.3125 " fill-opacity="1" fill-rule="nonzero"/><path fill="#000000" d="M 597.082031 246.664062 L 600.234375 248.59375 C 599.515625 247.410156 598.578125 246.582031 597.082031 246.664062 Z M 597.082031 246.664062 " fill-opacity="1" fill-rule="nonzero"/><path fill="#000000" d="M 617.34375 209.3125 C 617.945312 210.613281 618.960938 211.324219 620.386719 211.457031 Z M 617.34375 209.3125 " fill-opacity="1" fill-rule="nonzero"/><path fill="#000000" d="M 762.15625 189.480469 C 770.953125 178.816406 779.746094 168.152344 788.539062 157.484375 C 787.109375 157.324219 786.226562 156.527344 785.832031 155.160156 C 780.667969 161.351562 775.476562 167.527344 770.34375 173.742188 C 766.648438 178.21875 763.027344 182.753906 759.371094 187.261719 C 760.824219 187.34375 761.601562 188.273438 762.15625 189.480469 Z M 762.15625 189.480469 " fill-opacity="1" fill-rule="nonzero"/><path fill="#000000" d="M 788.539062 157.484375 L 785.832031 155.160156 C 786.226562 156.527344 787.109375 157.324219 788.539062 157.484375 Z M 788.539062 157.484375 " fill-opacity="1" fill-rule="nonzero"/><path fill="#000000" d="M 762.15625 189.480469 C 761.601562 188.273438 760.828125 187.34375 759.371094 187.257812 Z M 762.15625 189.480469 " fill-opacity="1" fill-rule="nonzero"/><path fill="#000000" d="M 746.6875 189.125 C 745.960938 188.785156 745.214844 188.488281 744.511719 188.105469 C 734.078125 182.410156 723.648438 176.714844 713.226562 171.007812 C 713.59375 172.4375 713.109375 173.601562 712.117188 174.609375 L 744.539062 192.183594 C 744.671875 190.753906 745.378906 189.726562 746.6875 189.125 Z M 746.6875 189.125 " fill-opacity="1" fill-rule="nonzero"/><path fill="#000000" d="M 713.222656 171.003906 C 712.855469 172.203125 712.484375 173.402344 712.113281 174.601562 C 713.109375 173.597656 713.59375 172.433594 713.222656 171.003906 Z M 713.222656 171.003906 " fill-opacity="1" fill-rule="nonzero"/><path fill="#000000" d="M 746.6875 189.125 C 745.378906 189.726562 744.671875 190.75 744.539062 192.179688 Z M 746.6875 189.125 " fill-opacity="1" fill-rule="nonzero"/><path fill="#000000" d="M 585.207031 249.324219 L 558.394531 238.140625 C 558.636719 239.496094 558.996094 240.867188 557.957031 242.078125 C 560.777344 242.8125 563.34375 244.1875 566.015625 245.292969 C 571.765625 247.679688 577.46875 250.191406 583.1875 252.648438 C 583.25 251.171875 583.804688 249.992188 585.207031 249.324219 Z M 585.207031 249.324219 " fill-opacity="1" fill-rule="nonzero"/><path fill="#000000" d="M 583.1875 252.648438 L 585.207031 249.328125 C 583.804688 249.992188 583.25 251.171875 583.1875 252.648438 Z M 583.1875 252.648438 " fill-opacity="1" fill-rule="nonzero"/><path fill="#000000" d="M 558.394531 238.140625 C 558.25 239.453125 558.101562 240.765625 557.957031 242.078125 C 558.996094 240.867188 558.636719 239.5 558.394531 238.140625 Z M 558.394531 238.140625 " fill-opacity="1" fill-rule="nonzero"/><path fill="#000000" d="M 693.738281 175.53125 C 691.570312 177.984375 689.402344 180.433594 687.234375 182.886719 C 683.054688 187.632812 678.882812 192.382812 674.714844 197.132812 C 676.175781 197.335938 676.871094 198.359375 677.367188 199.601562 L 696.308594 178.1875 C 694.730469 178 694.011719 176.976562 693.738281 175.53125 Z M 693.738281 175.53125 " fill-opacity="1" fill-rule="nonzero"/><path fill="#000000" d="M 693.738281 175.53125 C 694.011719 176.980469 694.730469 178 696.308594 178.1875 Z M 693.738281 175.53125 " fill-opacity="1" fill-rule="nonzero"/><path fill="#000000" d="M 674.714844 197.132812 C 675.601562 197.957031 676.484375 198.777344 677.367188 199.601562 C 676.871094 198.359375 676.171875 197.339844 674.714844 197.132812 Z M 674.714844 197.132812 " fill-opacity="1" fill-rule="nonzero"/><path fill="#000000" d="M 561.96875 288.609375 C 557.292969 288.609375 557.292969 288.609375 557.292969 293.199219 C 557.292969 298.097656 557.292969 298.097656 562.171875 298.097656 C 567.066406 298.097656 567.066406 298.097656 567.066406 293.652344 C 567.066406 288.609375 567.066406 288.609375 561.96875 288.609375 Z M 561.96875 288.609375 " fill-opacity="1" fill-rule="nonzero"/><path fill="#000000" d="M 562.054688 312.019531 C 557.292969 312.019531 557.292969 312.019531 557.292969 316.816406 C 557.292969 321.511719 557.292969 321.511719 562.085938 321.511719 C 567.066406 321.511719 567.066406 321.511719 567.066406 317.003906 C 567.066406 312.019531 567.066406 312.019531 562.054688 312.019531 Z M 562.054688 312.019531 " fill-opacity="1" fill-rule="nonzero"/><path fill="#000000" d="M 658.859375 202.550781 L 635.289062 198.765625 C 636.105469 199.964844 636.035156 201.25 635.65625 202.566406 L 658.15625 206.074219 C 657.765625 204.78125 657.761719 203.554688 658.859375 202.550781 Z M 658.859375 202.550781 " fill-opacity="1" fill-rule="nonzero"/><path fill="#000000" d="M 635.289062 198.765625 C 635.410156 200.035156 635.53125 201.300781 635.65625 202.566406 C 636.042969 201.25 636.105469 199.964844 635.289062 198.765625 Z M 635.289062 198.765625 " fill-opacity="1" fill-rule="nonzero"/><path fill="#000000" d="M 658.859375 202.550781 C 657.761719 203.554688 657.765625 204.773438 658.15625 206.074219 Z M 658.859375 202.550781 " fill-opacity="1" fill-rule="nonzero"/><path fill="#000000" d="M 547.316406 177.980469 C 541.855469 177.980469 536.347656 177.996094 530.75 177.996094 C 533.226562 196.003906 542.179688 207.40625 557.59375 212.980469 C 571.839844 218.128906 585.457031 216.226562 598.519531 205.777344 C 594.625 201.914062 590.835938 198.148438 587.097656 194.4375 C 584.929688 196.09375 582.554688 197.355469 579.972656 198.226562 C 577.390625 199.097656 574.734375 199.53125 572.007812 199.527344 C 559.390625 199.527344 548.964844 190.148438 547.316406 177.980469 Z M 547.316406 177.980469 " fill-opacity="1" fill-rule="nonzero"/><g clip-path="url(#590b0e3637)"><path fill="#000000" d="M 596.929688 174.605469 C 596.933594 177.347656 596.496094 180.019531 595.613281 182.621094 C 594.730469 185.21875 593.449219 187.605469 591.777344 189.78125 C 595.386719 193.484375 599.003906 197.1875 602.621094 200.894531 C 613.859375 188.640625 616.371094 171.863281 609.34375 157.214844 C 602.742188 143.453125 591.863281 135.484375 575.328125 133.480469 C 575.328125 139.109375 575.3125 144.554688 575.3125 149.902344 C 587.511719 151.519531 596.929688 161.960938 596.929688 174.605469 Z M 596.929688 174.605469 " fill-opacity="1" fill-rule="nonzero"/></g><path fill="#000000" d="M 567.804688 150.039062 L 567.804688 134.367188 C 548.957031 134.324219 531.9375 151.289062 531.820312 170.300781 L 547.460938 170.300781 C 549.261719 159.953125 557.445312 151.800781 567.804688 150.039062 Z M 567.804688 150.039062 " fill-opacity="1" fill-rule="nonzero"/><g clip-path="url(#9628f26810)"><path fill="#e9a283" d="M 392.734375 328.066406 L 482.101562 328.066406 L 482.101562 415.722656 L 392.734375 415.722656 Z M 392.734375 328.066406 " fill-opacity="1" fill-rule="nonzero"/></g><g clip-path="url(#125cdfff9f)"><path stroke-linecap="butt" transform="matrix(0.749634, 0, 0, 0.749634, 392.73337, 328.068626)" fill="none" stroke-linejoin="miter" d="M 0.00134002 0.00225041 L 119.28349 0.00225041 L 119.28349 116.918663 L 0.00134002 116.918663 Z M 0.00134002 0.00225041 " stroke="#000000" stroke-width="8" stroke-opacity="1" stroke-miterlimit="4"/></g><g clip-path="url(#138a99bbb1)"><path fill="#000000" d="M 465.132812 376.472656 C 466.308594 376.472656 467.273438 375.507812 467.273438 374.332031 L 467.273438 369.160156 C 467.273438 367.980469 466.308594 367.019531 465.132812 367.019531 L 462.910156 367.019531 C 461.734375 367.019531 460.492188 366.097656 460.144531 364.972656 L 458.25 360.371094 C 457.691406 359.335938 457.917969 357.808594 458.75 356.976562 L 460.320312 355.402344 C 461.152344 354.570312 461.152344 353.210938 460.320312 352.378906 L 456.664062 348.71875 C 455.832031 347.886719 454.46875 347.886719 453.636719 348.71875 L 452.066406 350.292969 C 451.234375 351.125 449.703125 351.347656 448.667969 350.792969 L 444.066406 348.898438 C 442.941406 348.550781 442.023438 347.304688 442.023438 346.128906 L 442.023438 343.910156 C 442.023438 342.730469 441.058594 341.769531 439.882812 341.769531 L 434.710938 341.769531 C 433.535156 341.769531 432.570312 342.730469 432.570312 343.910156 L 432.570312 346.128906 C 432.570312 347.304688 431.648438 348.550781 430.527344 348.898438 L 425.925781 350.792969 C 424.886719 351.347656 423.359375 351.125 422.527344 350.292969 L 420.957031 348.71875 C 420.125 347.886719 418.761719 347.886719 417.929688 348.71875 L 414.273438 352.378906 C 413.441406 353.210938 413.441406 354.570312 414.273438 355.402344 L 415.84375 356.976562 C 416.675781 357.808594 416.902344 359.335938 416.347656 360.371094 L 414.449219 364.972656 C 414.105469 366.097656 412.859375 367.019531 411.683594 367.019531 L 409.460938 367.019531 C 408.285156 367.019531 407.324219 367.980469 407.324219 369.15625 L 407.324219 374.332031 C 407.324219 375.507812 408.285156 376.472656 409.460938 376.472656 L 411.683594 376.472656 C 412.859375 376.472656 414.105469 377.390625 414.449219 378.515625 L 416.347656 383.117188 C 416.902344 384.152344 416.679688 385.683594 415.847656 386.515625 L 414.273438 388.085938 C 413.441406 388.917969 413.441406 390.28125 414.273438 391.113281 L 417.929688 394.769531 C 418.761719 395.601562 420.125 395.601562 420.957031 394.769531 L 422.527344 393.195312 C 423.359375 392.367188 424.890625 392.140625 425.925781 392.695312 L 430.527344 394.59375 C 431.652344 394.9375 432.570312 396.183594 432.570312 397.359375 L 432.570312 399.582031 C 432.570312 400.757812 433.535156 401.722656 434.710938 401.722656 L 439.882812 401.722656 C 441.058594 401.722656 442.023438 400.757812 442.023438 399.582031 L 442.023438 397.359375 C 442.023438 396.183594 442.941406 394.9375 444.066406 394.59375 L 448.667969 392.695312 C 449.703125 392.140625 451.234375 392.363281 452.066406 393.195312 L 453.640625 394.769531 C 454.472656 395.601562 455.832031 395.601562 456.664062 394.769531 L 460.320312 391.113281 C 461.152344 390.28125 461.152344 388.917969 460.320312 388.085938 L 458.75 386.515625 C 457.917969 385.683594 457.691406 384.152344 458.25 383.117188 L 460.144531 378.515625 C 460.488281 377.390625 461.734375 376.472656 462.914062 376.472656 Z M 437.296875 384.078125 C 430.484375 384.078125 424.964844 378.554688 424.964844 371.746094 C 424.964844 364.933594 430.484375 359.414062 437.296875 359.414062 C 444.105469 359.414062 449.628906 364.933594 449.628906 371.746094 C 449.628906 378.554688 444.105469 384.078125 437.296875 384.078125 Z M 437.296875 384.078125 " fill-opacity="1" fill-rule="nonzero"/></g><g clip-path="url(#ba89b4d641)"><path fill="#4e8e96" d="M 392.734375 425.382812 L 482.160156 425.382812 L 482.160156 522.84375 L 392.734375 522.84375 Z M 392.734375 425.382812 " fill-opacity="1" fill-rule="nonzero"/></g><g clip-path="url(#0e5e2d9d0c)"><path stroke-linecap="butt" transform="matrix(0.749634, 0, 0, 0.749634, 392.73337, 425.387119)" fill="none" stroke-linejoin="miter" d="M 0.00134002 -0.000534538 L 119.28349 -0.000534538 L 119.28349 129.802373 L 0.00134002 129.802373 Z M 0.00134002 -0.000534538 " stroke="#000000" stroke-width="8" stroke-opacity="1" stroke-miterlimit="4"/></g><g clip-path="url(#e63965ed61)"><path fill="#9b6ec8" d="M 497.597656 362.925781 L 645.964844 362.925781 L 645.964844 522.886719 L 497.597656 522.886719 Z M 497.597656 362.925781 " fill-opacity="1" fill-rule="nonzero"/></g><g clip-path="url(#76cd5b76aa)"><path stroke-linecap="butt" transform="matrix(0.749634, 0, 0, 0.749634, 497.599042, 362.927694)" fill="none" stroke-linejoin="miter" d="M -0.00184797 -0.00255124 L 197.912412 -0.00255124 L 197.912412 213.127465 L -0.00184797 213.127465 Z M -0.00184797 -0.00255124 " stroke="#000000" stroke-width="8" stroke-opacity="1" stroke-miterlimit="4"/></g><g clip-path="url(#4c579947fd)"><path fill="#000000" d="M 468.128906 435.648438 L 437.328125 435.648438 C 437.316406 435.648438 437.308594 435.648438 437.300781 435.648438 C 436.132812 435.648438 435.1875 436.589844 435.1875 437.757812 C 435.1875 438.316406 435.410156 438.855469 435.804688 439.25 C 436.203125 439.644531 436.738281 439.867188 437.300781 439.867188 L 468.128906 439.867188 C 469.296875 439.867188 470.242188 438.921875 470.242188 437.757812 C 470.242188 436.589844 469.296875 435.648438 468.128906 435.648438 Z M 468.128906 445.921875 L 437.328125 445.925781 C 437.316406 445.925781 437.308594 445.921875 437.300781 445.921875 C 436.132812 445.921875 435.1875 446.867188 435.1875 448.035156 C 435.1875 448.59375 435.410156 449.132812 435.804688 449.527344 C 436.203125 449.921875 436.738281 450.144531 437.300781 450.144531 L 468.128906 450.144531 C 469.296875 450.144531 470.242188 449.199219 470.242188 448.035156 C 470.242188 446.867188 469.296875 445.921875 468.128906 445.921875 Z M 424.910156 439.867188 L 424.910156 456.203125 L 408.578125 456.199219 L 408.578125 456.203125 L 408.578125 439.867188 Z M 406.46875 435.648438 C 405.300781 435.648438 404.355469 436.589844 404.355469 437.757812 L 404.355469 458.3125 C 404.355469 458.871094 404.578125 459.410156 404.972656 459.804688 C 405.371094 460.199219 405.90625 460.421875 406.46875 460.421875 L 427.023438 460.421875 C 428.1875 460.421875 429.132812 459.476562 429.132812 458.3125 L 429.132812 437.757812 C 429.132812 437.199219 428.910156 436.660156 428.515625 436.265625 C 428.117188 435.867188 427.582031 435.648438 427.023438 435.648438 Z M 468.128906 456.199219 L 437.324219 456.203125 C 437.316406 456.203125 437.308594 456.199219 437.300781 456.199219 C 436.132812 456.199219 435.1875 457.144531 435.1875 458.3125 C 435.1875 458.871094 435.410156 459.410156 435.804688 459.804688 C 436.203125 460.199219 436.738281 460.421875 437.300781 460.421875 L 468.128906 460.421875 C 469.296875 460.421875 470.242188 459.476562 470.242188 458.3125 C 470.242188 457.144531 469.296875 456.199219 468.128906 456.199219 Z M 406.46875 466.476562 C 405.300781 466.476562 404.355469 467.421875 404.355469 468.589844 C 404.355469 469.753906 405.300781 470.699219 406.46875 470.699219 L 468.128906 470.699219 C 469.296875 470.699219 470.242188 469.753906 470.242188 468.589844 C 470.242188 467.425781 469.296875 466.480469 468.128906 466.480469 L 406.496094 466.480469 C 406.488281 466.476562 406.476562 466.476562 406.46875 466.476562 Z M 406.46875 476.753906 C 405.300781 476.753906 404.355469 477.699219 404.355469 478.867188 C 404.355469 480.03125 405.300781 480.976562 406.46875 480.976562 L 468.128906 480.976562 C 469.296875 480.976562 470.242188 480.03125 470.242188 478.867188 C 470.242188 477.703125 469.296875 476.757812 468.128906 476.757812 L 406.496094 476.753906 L 406.496094 476.757812 C 406.488281 476.753906 406.476562 476.753906 406.46875 476.753906 Z M 406.46875 487.03125 C 405.300781 487.03125 404.355469 487.976562 404.355469 489.144531 C 404.355469 490.308594 405.300781 491.253906 406.46875 491.253906 L 468.128906 491.253906 C 469.296875 491.253906 470.242188 490.308594 470.242188 489.144531 C 470.242188 487.976562 469.296875 487.035156 468.128906 487.035156 L 406.496094 487.03125 L 406.496094 487.035156 C 406.488281 487.03125 406.476562 487.03125 406.46875 487.03125 Z M 457.851562 497.308594 C 456.6875 497.308594 455.742188 498.253906 455.742188 499.421875 C 455.742188 500.585938 456.6875 501.53125 457.851562 501.53125 L 468.128906 501.53125 C 469.296875 501.53125 470.242188 500.585938 470.242188 499.421875 C 470.242188 498.253906 469.296875 497.308594 468.128906 497.308594 L 457.875 497.308594 L 457.871094 497.3125 C 457.867188 497.308594 457.859375 497.308594 457.851562 497.308594 Z M 406.46875 497.308594 C 405.300781 497.308594 404.355469 498.253906 404.355469 499.421875 C 404.355469 499.980469 404.578125 500.519531 404.972656 500.914062 C 405.371094 501.308594 405.90625 501.53125 406.46875 501.53125 L 447.578125 501.53125 C 448.742188 501.53125 449.6875 500.585938 449.6875 499.421875 C 449.6875 498.253906 448.742188 497.308594 447.578125 497.308594 L 406.496094 497.308594 L 406.496094 497.3125 C 406.488281 497.308594 406.476562 497.308594 406.46875 497.308594 Z M 406.46875 507.585938 C 405.300781 507.585938 404.355469 508.53125 404.355469 509.699219 C 404.355469 510.863281 405.300781 511.808594 406.46875 511.808594 L 447.578125 511.808594 C 448.742188 511.808594 449.6875 510.863281 449.6875 509.699219 C 449.6875 508.53125 448.742188 507.585938 447.578125 507.585938 L 406.492188 507.585938 L 406.492188 507.589844 C 406.484375 507.585938 406.476562 507.585938 406.46875 507.585938 Z M 457.851562 507.585938 C 456.6875 507.585938 455.742188 508.53125 455.742188 509.699219 C 455.742188 510.863281 456.6875 511.808594 457.851562 511.808594 L 468.128906 511.808594 C 469.296875 511.808594 470.242188 510.863281 470.242188 509.699219 C 470.242188 508.53125 469.296875 507.585938 468.128906 507.585938 L 457.878906 507.585938 L 457.878906 507.589844 C 457.871094 507.585938 457.863281 507.585938 457.851562 507.585938 Z M 398.300781 429.589844 L 476.296875 429.589844 L 476.296875 517.863281 L 388.023438 517.863281 L 388.023438 517.867188 L 388.023438 439.867188 L 394.078125 439.867188 L 394.078125 509.699219 C 394.078125 510.863281 395.023438 511.808594 396.191406 511.808594 C 397.355469 511.808594 398.300781 510.863281 398.300781 509.699219 Z M 396.191406 425.371094 C 395.628906 425.371094 395.09375 425.589844 394.695312 425.988281 C 394.300781 426.382812 394.078125 426.921875 394.078125 427.480469 L 394.078125 435.648438 L 385.914062 435.648438 C 385.351562 435.648438 384.816406 435.867188 384.417969 436.265625 C 384.023438 436.660156 383.800781 437.199219 383.800781 437.757812 L 383.800781 519.976562 C 383.800781 520.535156 384.023438 521.074219 384.417969 521.46875 C 384.816406 521.863281 385.351562 522.085938 385.914062 522.085938 L 478.40625 522.085938 C 479.574219 522.085938 480.519531 521.140625 480.519531 519.976562 L 480.519531 427.480469 C 480.519531 426.316406 479.574219 425.371094 478.40625 425.371094 Z M 396.191406 425.371094 " fill-opacity="1" fill-rule="nonzero"/></g><g clip-path="url(#951ab5e7f4)"><path fill="#000000" d="M 561.839844 402.714844 L 531.703125 402.714844 C 526.15625 402.714844 521.710938 407.203125 521.710938 412.742188 L 521.660156 472.898438 C 521.660156 478.441406 526.15625 482.925781 531.703125 482.925781 L 612.0625 482.925781 C 617.609375 482.925781 622.105469 478.441406 622.105469 472.898438 L 622.105469 422.769531 C 622.105469 417.230469 617.609375 412.742188 612.0625 412.742188 L 571.882812 412.742188 Z M 561.839844 402.714844 " fill-opacity="1" fill-rule="nonzero"/></g></svg>